<?xml version="1.0"?>
<svg xmlns="http://www.w3.org/2000/svg" stroke-linecap="round" stroke-linejoin="round" version="1.2"
    viewBox="0 0 800 1213">
    <g stroke="#fff" stroke-linecap="round" stroke-linejoin="round" stroke-width="2">
        <path
            d="m331.4 1128 16.17-5.36 15.29-6.24 8.91-0.71 18.06-15.81 12.38-11.7 8.51-8.98 8.5-3.52 11.3-0.63 11.92-11.3 12.55-6.27 1.92-6.35 22.96-17.07 6.93-5.25 2.48-6.19 9.14-12.71 0.07-4.36 8.48-10.18 15.2 7.84 0.69 8.53 9.82 2.31 7.65-4.33 29.03-3.22 20.2-6.51 6.82 0.69 24.62 11.06 29.16 9.7 6.93 4.48v2.18l10.12 16.84 1.43 8.42 0.17 2.23 1.51 1.05-0.62 1.02 2.28 1.86-0.08 1.85 1.37 3.81-1.2 1.36-2.88 1.49-1.04 0.85 1.42 0.76-0.76 1.33 1.26 1.72 2.16 1.61 1.61 2.18 2.09 2.85 1.62 1.62 3.91-1.1 2.16-0.86 1.95 1.12 0.49 0.28-1.07 0.82-0.98 2.08 0.69 0.57-0.33 2.35 0.66 1.8 0.23 0.28 0.86-0.06 2.44 0.04 3.72-1.44 0.09-0.9 1.13-0.41 1.43-0.12 2.04-1.07 1.5 0.09 1.02-0.03 0.46 0.3 1.08 2.27-0.27 0.01h-0.42l-0.27 0.02-0.69 0.16-0.37 0.09-0.51 0.14-0.84 0.22-5.36 2.43-2.5 2.28-1.89 1.68-0.69 0.65-3.63 2.76-2.39 1.06-1.56-0.1-8.31-2.34-1.68-0.29-1.79 0.13-1.5 0.37-4.12 1.94-4.57 3.62-4.69 4.6-2.04 1.3-1.67 0.72-1.32 0.32-2.07 0.12-7.69-1.55-1.66-0.05-2.04 0.52-2.99 0.82-1.13 0.49-3.86 1.65-4.76 2.04-10.36 3.04-5.77 0.76-16.27 4.93-5.47 1.42-5.7-0.53-4.14 1.01-5.6 4.32-6.39 9.34-1.66 4.55-2.15 4.75-3.04 7.04-1.23 2.18-1.27 1.78-4.25 1.28-2 2.41-1.46 2.23-4.41 5.51-2.86 2.9-2.35 0.81-1.92-0.07-1.4-0.23-1.24-0.79-0.86-2.18 0.15-1.9 0.87-2.04 0.77-3.25 1.39-1.9 2.63-0.9 4.75-2.45 2.28-3.32 1.11-3.01-1.16-2.63-1.74-2.31-2.43-1.79-5.61-1.33-7.87 0.07-2.58 0.83-2.72 1.87-0.45 0.57-0.51 0.68-0.25 0.68-0.08 0.69 0.27 2.04 0.26 3.1 0.58 4.94-0.23 2.28-1.26 3.42-1.83 1.89-2.29 1.03-2.6 0.51-1.83-0.17-2.49-1.2-3.86-0.45-5.69 0.22-3.07 2.29-3.12 1.59-4.86 0.14-1.83-0.23-1.83-0.78-1.59-1.94-0.81-2.08-0.25-2.04 0.47-2.42 0.25-2.44-0.22-1.66-0.42-0.96-0.94-0.3-1.23 0.18-0.97 0.78-1.44 2.54-3.35 2.66-6.77 3.67-6.06 0.89-3.22 1.5-3.42 4.68-0.65 2.9 0.39 4.97 0.83 3.36 1.01 3.15-0.01 1.39-0.65 3.21-0.68 1.51-1.8 1-3.76 0.95-2.33-0.07-2.07-0.39-1.05 0.06-0.81 0.52-1.51 0.94-0.83 0.64-0.25 0.35-0.17 0.37-1.02 2.92-1.33 2.86-3.24-6.8-1.38-5.82-0.97-2.09-2.67-1.48-5.2-0.42-8.21 3.73-5.34 1.73-10.51 2.24-7.86 3.77-7.17 2.19-6.68 1.43-8.2 2.87-8.35 1.68-2.6 1.13-3.82 3.37-4.63 2.33-5.45-0.09-4.93-0.24-4.14-0.68-3-0.96-3.44-1.92-1.12-1.01-1.15-1.69-0.71-2.18-0.16-1.26 0.11-3.75 0.47-3-0.45-2.15 0.45-1.33-0.27-1.91-0.65-0.97 0.01-0.6 0.36-1.36-0.18-1.37-0.27-2.61-0.79-2.53-0.93-1.56-0.19-0.82 0.23-1.25 0.28-0.72 1.51-2.05 2.56-3.02 3.26-2.85 4.28-2.7 1.48-1.49 1.85-2.95 0.89-1.85 1.03-3.93 0.41-1.96 0.25-1.9-0.12-1.66-0.21-1.54-0.64-1.62-0.94-2.85-1.35-2.86-3.11-5.62-0.35-1.26-0.3-0.47-0.65-0.78-1.51-3.67z"
            fill="#b383b3" style="paint-order:normal" />
        <path
            d="m371.5 374.2 1.74 0.6 0.93 3.18 7.97 1.98 4.65 6.97 8.24 3.72 8.93-2.97 2.86 0.76 6.72 10.56 9.44 3.97 4.38-2.33 21.8-16.12 3.44 0.05-0.33 3.76-0.78 1.7-0.1 2.07 1.15 2.26-0.91 2.99 1.1 0.09 3.09 1.97 3.5 4.9 0.66 1.93 1.18 0.76 1.78 2.19-1.29 2.93 0.64 2.19-1.21 3.19-2.13 2.15-0.21 2.52 2.77 1.3 1.42 0.7 1.07 0.13 0.65-0.27 1.01 0.08 0.83-0.16 1-0.29 0.81 1.27 1.89 3.39 1.84 1.22 2.88 1.62-0.68 2.02-1.18 3.95-1.19 2.6 0.56 5.85 0.22 3.08 1.17 3.08 4.11 2.87 2.46 1.32 0.64 1.86-1.78 2.92-0.16 2.73 0.39 2.84-0.66 1.99-1.02 2.68-0.75 3.48v2.65l-0.22 2.64-2.22 0.85-3.06 0.95-1.83 0.32-0.92 0.85-0.26 0.86 1.9 2.33 0.5 3.15-0.5 3.46 0.21 2.6 1.47 0.71 2.41 0.63 0.68 0.16 0.92-0.27 2.19 0.12 1.98 0.87 1.15 0.57 1.19-0.2 0.64 0.63 0.76 0.07 0.95 1.05 0.44 0.28 1.09 0.38 0.19 0.56 0.41 0.66 0.26 0.64-0.07 0.96-0.32 0.83 0.1 0.92-0.2 0.64 0.04 0.63-0.48 0.8-0.87 0.76-0.62 1.38 0.04 0.97 0.83 0.96-0.04 0.86-0.39 1.32-0.4 0.55-0.67 1.93 0.3 0.98-0.27 1.17-1.18 1.01-0.58-0.09-0.33 0.09-0.43 0.95 0.06 1.12 0.26 0.3-0.78 0.55-0.5 0.29-0.04 0.4 0.29 0.39 0.07 0.6-0.27 0.4-0.03 0.42-0.37 0.47 0.07 0.4-0.39 0.58-0.83 0.3-0.71 0.37-0.26 1.77 0.05 0.77-0.27 0.68-0.43 0.34-0.06 0.42-0.23 0.28-0.36 0.65-0.52 0.5-0.22 0.85 0.17 0.43-0.28 0.45 0.06 0.28 0.17 1.19-0.05 1.3-0.33 0.99 0.19 0.78 0.04 0.42-0.15 0.39-0.29 0.15-0.62-0.12-0.81-0.73-0.4 0.71 0.17 0.41-0.07 0.41-0.12 0.57-0.56 0.61 0.2 0.6-0.3 0.33-0.07 0.29-0.9 0.32-0.41 0.32-0.71 1.11-0.52 0.81-0.13 0.39-0.73 0.51-0.28 0.56 0.09 0.4 0.06 0.34-0.2 0.21-0.93 0.08-0.4 0.8-0.79 0.4-0.48 0.68-0.58 0.17-0.6 0.97-0.55 0.17-0.35 0.28-1.58 1.02-0.23 0.43-0.51 0.34-0.65-0.03-1.67-0.75-0.93-0.47-0.41-0.5-0.6-0.01-0.79 0.08-0.61-0.08-0.93-0.76-1.01-0.6-0.63-0.44-0.22-0.53-0.67 0.1-0.81 0.24-0.5 0.05-0.35-0.05-0.2-0.16-0.35-0.02-0.68 0.03-0.52-0.2-0.28-0.39-0.27-0.3-0.56-0.16-0.34 0.07-0.28 0.26-0.46 0.43-0.73 0.12-0.8 0.23-1.63 0.76-0.66 0.52-0.45 0.69-0.21 1.06-0.84 0.84-1.09 1.51-1.45 1.27-0.04 0.61-1.16 0.81-1.72 1.47 1.65 1.99 0.28 1.16-0.65 0.75 0.72 2.47 2.72 0.48 3.09-1.76 2.86 1.76 4.62 0.88 2.65-1.54 4.02 1.38 1.7 1.7 1.11 1.76 0.66 2.21 1.32 2.42 1.76 2.86 1.32 2.87 1.76 5.5 1.27 1.11 0.56 1.48 0.79 1.78 0.3 0.72 1.26 0.95 1.99 1.45 2.86 1.1 3.75 0.44 2.86-1.54 2.36-2.49 3.64-3.32 4.79-2.25 2.36-0.23 3.89-0.96 5.74-0.57 1.81 0.62 1.86 1.61 2.19-0.13 1.54-0.21 1.91 0.17 1.39 0.49 3.13 1.51 2.2 0.8 1.28 0.73 1.98 0.05 2.64 0.22 3.31-0.22 3.3-0.66 2.59-0.07 1.88 0.04 0.77 1.34 1.59 0.67 1.43 2.29 0.81 1.89-0.6 1.16 1.51 0.97 0.22-1.07 0.44-0.35 0.34 0.15 0.09 0.75 1.87 0.72 2.32 0.35 1.99-1.15 2.42 0.46 0.22-0.19 0.21-0.8 0.44-0.24 0.45 0.24 0.37 0.17-0.75-0.04-0.25 0.13-0.63 1.15-0.23 0.38 0.39 0.63-0.05 1.77 0.67 0.38-0.37 1.11 0.47 0.59h0.56l0.66 0.56 0.03 0.32 0.37 0.48-0.21 0.58 0.11 0.43 0.78 0.46 1.25 0.12 1.58-0.22 0.95 2.46 0.84 0.49 0.02 1.14 1.03 0.09 1.01 0.08 1.06-1.87 2.88 0.38 3.4 0.7 1 0.43 1.1-0.27 1.01-1.31 1.48-0.24 0.64 0.3 1.15-0.34 1.41-0.2 0.99 0.28 0.76-0.22 4.63 0.22 3.12-0.67 0.48-0.48 1.76 0.4 0.96-0.32 1.83-0.08 3.9 0.72 3.92-1.64 0.46-0.51-0.08-0.42 0.21-0.35 0.08-0.16 0.46-0.43 0.45-0.22 0.2-0.22 0.74-0.47 0.23-0.1 0.75 0.09 0.89-0.04 1.9-0.14 1.37 0.02 1.26 0.43 0.2-0.23 1.36-1 0.56-0.55 0.62-0.46 0.91-0.15 0.96-0.29 0.94-0.03 1.04-0.27 0.57-0.02 0.17 0.05 0.22-0.1 0.1-0.09 0.05-0.13 0.6 0.07 2.25 1.27 3.38 1.13 0.76 0.65-0.01 0.48 0.82 0.68 2.16 0.04 0.95 0.54 0.36 0.89 0.6 0.24 0.6-0.43 1.57 1.09-0.11 1.4-0.13 0.76-0.44 0.22 0.04 0.84 1.73 1.38 0.73 0.99 0.41 1.02 0.65 0.86 0.08 0.91 0.97 0.45 1.2 0.29 1.73 0.13 1.76 0.37 2.64 1.31 1.33 0.69 1.34 0.48 1.02 0.28-5.94 5.92-5.57 5.68-13.06 8.83-19.48 13.79-13.08 11.02-11.51 13.76-12.24 11.48-13.48 14.34-12.42 21.27-5.62 8.93-3.31 7.88-1.9 20.98-2.02-2.09-3.61-1.41-7.21-0.8-8.26 2.48-6.75 3.57-1.86 4.96v2.64l0.58 1.8 1.78 1.27 5.34 1.52 9.29 2.31 5.95 1.15 4.29 0.1 1.69 0.51 0.81 0.47 0.42 0.7 0.04 1.17-0.19 1.14-2.83 2.35-1.48 2.2-0.09 0.9-0.41 0.47-0.23 0.1-0.72 1.41 0.08 1.56 0.36 0.91 0.72 0.39-0.07 0.24-1.45 0.8-0.06 0.94 0.14 0.88 0.18 0.68 0.69 0.34-1.66 1.75-7.25 4.85-25.78 23.45 1 22.99-6.27 18.01-16.55 15.35-10.96 1.13-18.06-2.74-21.72 3.72-2.52 1.76-1.06-0.18-1.27 0.86-2.11-0.58-0.76 0.21-0.39 0.42-0.27 0.46 0.23 1.29-0.12 0.52-0.33 0.16-0.62 0.04-0.98-0.39-0.6 0.01-0.54 0.15-0.22 0.26v0.46l0.88 0.91v0.28l-0.5 0.3-0.42 0.87-0.63 0.04-0.92-0.65h-0.98l-1.88 0.53-2.2 0.77-1.25-0.26-1.37-0.9-1.86-0.47-0.87 0.49-0.9 1.3-1.06 0.36-0.89-0.22-0.54 0.08-1.49 0.66-1.76-0.09-1.73-4.86-1.51-2.89-0.5-2.06 0.17-2.18 0.23-2.15-0.11-1.14-0.59-1.42-1.22-3.02-0.68-2.12-1.65-5.28-1.21-3.6-2.39-4.78-1.6-3.09-1.03-4.2-0.19-1.69 0.1-1.84-0.22-1.2-0.98-2.53-0.72-0.54-2.76-1-1.86-0.88-1.48-0.84-1.03-0.94-2.64-3.09-3.74-5.44-2.23-2.71-3.46-3.91-0.6-1.33-0.88-2.23v-1.01l0.02-2.83-0.44-2.08-2-6.46-0.83-2.81-0.8-3.07-0.03-1.61-0.35-0.96-1.65-1.06-1.19-1.04-1.04-1.71-1.9-2.5-0.33-1.68-0.54-0.89-1.54-1.47-4.63-7.68-2.13-5.73-1.97-6.43-2.21-5.39-2.15-5.39-0.87-1.59-3.57-2.91-4.81-2.41-7.32-3.92-2.13-1.8-1.54-2.12-2.36-2.5-1.76-1.62-0.65-0.77-0.99-1.37-0.12-0.59-0.03-0.74-0.13-1.26-0.44-1.45-0.4-2.28-0.2-1.2 0.3-1.91 1.09-3.87 0.45-3.32-0.6-1.99-2.51-2.91-1.33-3.15-1.81-3.04-1.15-3.03-0.07-2.79-0.21-0.94-1.22-0.86-3.35-1.57-3.79-2.73-3.6-4.27-1.88-5.26-0.84-2.9 0.48-5.08 0.06-3.02-0.39-1.42-1.15-3.21-2.81-3.3-2.02-4.54-3.72-3.29-6.12-5.08-8.11-5.03 1.6-1.93 3.1-2.93 1.46-2.07 0.48-0.35 3.49-3.44 0.6-1.56 0.01-0.53-0.32-3.49 0.01-0.7-1.65-1.11-0.21-3.59 6.18-6.53 6.19-3.37 4.88 0.64 2.21-2.21 1.15-0.16 0.38-0.17 0.68 0.01 2.36 0.03 2.11-0.67 3.76-2.91 2.43-2.72 2.59-1.23 2.1-0.67 0.57 0.01 4.53-9.78 2.63-2.17 0.01-0.53 0.58-0.86 0.2-0.17 0.38-0.08 0.38-0.17 0.39-0.08 0.77-0.69 0.01-0.35 0.79-2.34 0.2-0.27 0.01-0.34-0.15-2.28v-0.35l-0.37-0.53-1.67-2.46 0.01-0.35 0.78-1.04 0.19-0.26 0.79-1.3 0.28-0.17 1.16-1.08 0.29-0.21 1.73-0.94 0.87-0.51 0.48-0.34 0.41-1.92 0.2-0.34 0.01-0.53 0.21-1.39 0.01-0.52-0.34-2.28 0.01-0.35-0.18-0.53 0.05-2.96 0.19-0.17 1.35-0.68h0.38l1.05-0.16 1.14-0.16-0.81-2.45v-0.35l-0.15-2.28 0.01-0.35 0.6-1.65 0.19-0.34-0.12-3.76 0.01-0.52 0.82-3.13 0.01-0.53 1.94-2.68 0.77-5.32-0.19-0.17-0.92-1.85-0.19-0.44 0.23-2 0.07-0.08 0.32-0.35 0.79-1.65-0.44-2.37-0.27-0.35-0.52-3.32-0.69-4.03-0.18-0.35v-0.35l-0.22-3.28 0.48-0.38 0.97-1.22 0.02-1.22-0.36-1.05-0.37-0.35-0.57-0.36-1.32-0.72-0.56-0.7-0.75-0.54-0.38-0.35 0.24-2.45-1.25-1.61-1.88-0.56-0.46-0.5 1.07-2.12 0.42-0.59-0.34-2.25 0.09-1.88 2.45 0.02 1.05-0.25-0.04-1.86 1.62-1.29-1.55-1.34 1.46-2.2-1.18-0.75-0.92 0.9-1.44-0.09-1.13-1.23-1.89-0.92 0.41-1.12 0.77-1.68-1.2-0.36-1.36 0.04-0.01-0.6 1.22-0.83-0.77-0.79-0.96-0.25-2.34 0.44-0.35-2.14-1.04-0.49-1.32 0.51-0.73-0.83-0.03-2.08 0.88-1.11 1.25-0.36 0.34-1.5-0.36-0.81-1.25-0.4-1.17-0.79-0.56-1.07-0.09-1.08 1.24-1.36 2.13-3.24 0.42-2.83-1.65-0.92-1.51 0.57-2.38-0.05-0.6-0.78 1.61-3.06 0.99-1.66-1.66-1.37 0.2-2.16 0.59-0.47 2.68-0.1 0.63-0.7 0.26-0.86-2.36-1.4 0.07-1.23 2.85-0.78 0.69-1.15-1.48-1.78-0.93-0.93-0.16-1.16 0.42-2 0.67-0.13 0.96 0.43 1.24 0.06 0.74-0.78-2.19-0.52-0.54-0.82 2.41-0.24 0.73-1.82 1.07-2.49 0.75-1.17 1.9 0.42 0.8-0.53 0.33-2.69-0.94-1.12-0.28-1.15 2.82-0.31-0.21-0.82-0.33-0.69 1.91-0.6 2.6 0.73 0.15-0.55-0.83-0.72-0.73-0.42 0.24-0.7-1.18-0.5 0.02-0.68 0.89-0.77 1.15 0.07 0.48-1.21 0.78-1.03-1.6 0.08-0.24-0.53 0.07-0.87-1.48-0.08-0.69-1.27 0.36-0.59 1.63 0.13 0.22-1.17-1.8-0.8-1.04-0.18-0.1-0.66 0.3-0.52-1.37-0.86-1.14-0.15-0.56 0.03-0.49-0.22 0.72-1.19 1.16-0.94-0.18-0.58-0.65-0.25-1.11 0.61-0.18-0.66 0.15-1.12 0.81-0.76-0.38-1.07 1.97 0.26 1.24-0.02 0.79-0.18-0.6-0.92-0.59-0.75 2.14-0.35 0.61-1.72-1.47-0.26 0.38-0.73 2.2-1.39 0.21-0.64-0.72-0.8-0.05-1.11 0.87-0.97-0.79-0.83-0.02-0.6 1.88-0.17 0.92-1.09-0.16-0.39-1.19 0.3-0.26-0.6 1.01-2.56 0.7-0.69 1.57-0.4-0.44-1.84v-0.79l0.28-0.41 1.32 0.65 0.66-1 0.99 1.48 0.87 0.05 0.2-1.4 0.89-0.36 1.13 0.45 0.58-0.68-0.28-1.18 1.95 0.78 0.28-0.04-0.75-1.03 0.36-0.41 0.74-0.12 3.41-3.15 0.81-0.63-0.12-0.56 0.01-0.63 1.67 0.36 1.13-0.39-0.15-1.01 0.78-1.14 1.15-0.33 1.08 0.3-0.94 0.72 0.38 1.08 0.43-0.99 0.81 0.41 0.17 0.84 0.99-0.69 0.84-0.72 1.91-1.58 0.82 0.23 0.21-1.92 1.42-1.11 1.4 1.83 0.26-1.46 1.77 0.48 0.86-1.25-0.85-0.35 0.17-0.66 1.72-0.66 0.67-0.84 0.36-1.22 0.98-0.58 1.02-0.02 1.66-1.18 0.88 0.38 0.77 0.78 1.86-1.49 1.79 0.13 1.83-0.02 1.49-0.39 1-0.93-0.77-0.66z"
            fill="#b5d29f" style="paint-order:normal" />
        <path
            d="m371.5 374.2-0.21 0.71 0.77 0.66-1 0.93-1.49 0.39-1.83 0.02-1.79-0.13-1.86 1.49-0.77-0.78-0.88-0.38-1.66 1.18-1.02 0.02-0.98 0.58-0.36 1.22-0.67 0.84-1.72 0.66-0.17 0.66 0.85 0.35-0.86 1.25-1.77-0.48-0.26 1.46-1.4-1.83-1.42 1.11-0.21 1.92-0.82-0.23-1.91 1.58-0.84 0.72-0.99 0.69-0.17-0.84-0.81-0.41-0.43 0.99-0.38-1.08 0.94-0.72-1.08-0.3-1.15 0.33-0.78 1.14 0.15 1.01-1.13 0.39-1.67-0.36-0.01 0.63 0.12 0.56-0.81 0.63-3.41 3.15-0.74 0.12-0.36 0.41 0.75 1.03-0.28 0.04-1.95-0.78 0.28 1.18-0.58 0.68-1.13-0.45-0.89 0.36-0.2 1.4-0.87-0.05-0.99-1.48-0.66 1-1.32-0.65-0.28 0.41v0.79l0.44 1.84-1.57 0.4-0.7 0.69-1.01 2.56 0.26 0.6 1.19-0.3 0.16 0.39-0.92 1.09-1.88 0.17 0.02 0.6 0.79 0.83-0.87 0.97 0.05 1.11 0.72 0.8-0.21 0.64-2.2 1.39-0.38 0.73 1.47 0.26-0.61 1.72-2.14 0.35 0.59 0.75 0.6 0.92-0.79 0.18-1.24 0.02-1.97-0.26 0.38 1.07-0.81 0.76-0.15 1.12 0.18 0.66 1.11-0.61 0.65 0.25 0.18 0.58-1.16 0.94-0.72 1.19 0.49 0.22 0.56-0.03 1.14 0.15 1.37 0.86-0.3 0.52 0.1 0.66 1.04 0.18 1.8 0.8-0.22 1.17-1.63-0.13-0.36 0.59 0.69 1.27 1.48 0.08-0.07 0.87 0.24 0.53 1.6-0.08-0.78 1.03-0.48 1.21-1.15-0.07-0.89 0.77-0.02 0.68 1.18 0.5-0.24 0.7 0.73 0.42 0.83 0.72-0.15 0.55-2.6-0.73-1.91 0.6 0.33 0.69 0.21 0.82-2.82 0.31 0.28 1.15 0.94 1.12-0.33 2.69-0.8 0.53-1.9-0.42-0.75 1.17-1.07 2.49-0.73 1.82-2.41 0.24 0.54 0.82 2.19 0.52-0.74 0.78-1.24-0.06-0.96-0.43-0.67 0.13-0.42 2 0.16 1.16 0.93 0.93 1.48 1.78-0.69 1.15-2.85 0.78-0.07 1.23 2.36 1.4-0.26 0.86-0.63 0.7-2.68 0.1-0.59 0.47-0.2 2.16 1.66 1.37-0.99 1.66-1.61 3.06 0.6 0.78 2.38 0.05 1.51-0.57 1.65 0.92-0.42 2.83-2.13 3.24-1.24 1.36 0.09 1.08 0.56 1.07 1.17 0.79 1.25 0.4 0.36 0.81-0.34 1.5-1.25 0.36-0.88 1.11 0.03 2.08 0.73 0.83 1.32-0.51 1.04 0.49 0.35 2.14 2.34-0.44 0.96 0.25 0.77 0.79-1.22 0.83 0.01 0.6 1.36-0.04 1.2 0.36-0.77 1.68-0.41 1.12 1.89 0.92 1.13 1.23 1.44 0.09 0.92-0.9 1.18 0.75-1.46 2.2 1.55 1.34-1.62 1.29 0.04 1.86-1.05 0.25-2.45-0.02-0.09 1.88 0.34 2.25-0.42 0.59-1.07 2.12 0.46 0.5 1.88 0.56 1.25 1.61-0.24 2.45 0.38 0.35 0.75 0.54 0.56 0.7 1.32 0.72 0.57 0.36 0.37 0.35 0.36 1.05-0.02 1.22-0.97 1.22-0.48 0.38 0.22 3.28v0.35l0.18 0.35 0.69 4.03 0.52 3.32 0.27 0.35 0.44 2.37-0.79 1.65-0.32 0.35-0.07 0.08-0.23 2 0.19 0.44 0.92 1.85 0.19 0.17-0.77 5.32-1.94 2.68-0.01 0.53-0.82 3.13-0.01 0.52 0.12 3.76-0.19 0.34-0.6 1.65-0.01 0.35 0.15 2.28v0.35l0.81 2.45-1.14 0.16-1.05 0.16h-0.38l-1.35 0.68-0.19 0.17-0.05 2.96 0.18 0.53-0.01 0.35 0.34 2.28-0.01 0.52-0.21 1.39-0.01 0.53-0.2 0.34-0.41 1.92-0.48 0.34-0.87 0.51-1.73 0.94-0.29 0.21-1.16 1.08-0.28 0.17-0.79 1.3-0.19 0.26-0.78 1.04-0.01 0.35 1.67 2.46 0.37 0.53v0.35l0.15 2.28-0.01 0.34-0.2 0.27-0.79 2.34-0.01 0.35-0.77 0.69-0.39 0.08-0.38 0.17-0.38 0.08-0.2 0.17-0.58 0.86-0.01 0.53-2.63 2.17-4.53 9.78-0.57-0.01-2.1 0.67-2.59 1.23-2.43 2.72-3.76 2.91-2.11 0.67-2.36-0.03-0.68-0.01-0.38 0.17-1.15 0.16-2.21 2.21-4.88-0.64-6.19 3.37-6.18 6.53 0.21 3.59 1.65 1.11-0.01 0.7 0.32 3.49-0.01 0.53-0.6 1.56-3.49 3.44-0.48 0.35-1.46 2.07-3.1 2.93-1.6 1.93-1.98-1.39-1.97-0.92-3.1-0.72-2.88-1.06-2.3-2-3.05-3.06-7.05-3.79-4.18-1.91-3.94-1.74-5.67-2.41-2.52-1.42-4.55-3.2-3.37-0.97-3.17-0.64-2.24 1.2-5.43-3.13-4.74-1.87-2.33 0.15-4.92-0.3-4.47-1.08-1.76-1.12-1.8-1.8-0.29-2.43-0.96-2.46-2.08-2.19-5.15-4.39-1.36-0.53-3.77 0.9-3.33-0.12-6.07-0.72-2.44-0.83-2.73-3.02-0.97-2.14-0.77-2.54-3.56-3.54-4.23-1.39-3.8-3.24-2.37-3.17-3.78-3.32-7.36-5.31-6.84-5.53-1.38-1.33-3.66-2.11-6.86-2.67-8.84-3.87-6.98-4.33-6.22-5.72-4.74-3.75-6.99-3.64-2.77-2.8-4.71-3.32-1.89-1.75-1.86-6.45-1.92-6.94-1.93-8.33-2.47-4.95-0.53-2.77 0.01-3.22-2.44-4.65-5.58-5.13-1.05-3.23-2.25-9.94-1.04-2.6-3.34-4.99-0.17-8.3-1.03-5.72-1.13-3.74-2.56-2.47 0.38-5.57-0.07-4.77-2.41-5.71-0.61-6.02-0.05-3.77 0.67-2.96-1.19-3.65-5.06-8.8-2.29-4.85-0.8-5.2 0.18-3.13 1.54-3.23-0.58-2.89-2.96-3.41-5.35-2.6-1.88-7.19 0.03-8.71-1.12-9.94-0.28-5-3.44-7.36-3.22-7.93-1.39-5.96 0.45-5.86 2.1-10.14 1.63-4.59 4.51-4.47 4.62-6.32 3.68-8.73 1.85-9.11 1.33-3.58 0.64-1.58 0.83-1.39 1.82-3.02 3.75-2.97 4-2.3 5.76-4.9 4.74-3.39 3.62-2.53 10.14-6.58 8.56-6.25 5.21-5.53 4.81-2.08 7.71-4.16 4.37-3.11 5.44-6.46 5.33-5.98 7.82-7.31 4.16-4.19 4.7-2.84 9.86-4.97 3.67-4.27 2.33-3.52 3.22-7.33 2.17-5.29 3.42-4.42 7.8-4.34 5.22-4.09 3.74-1.9 1.23 1.41 2 0.46 0.14 1.55-0.32 0.73-0.11 1.37-0.21 2.28 2.09 3.24 2.22 2.27 6.65 1.69 2.58 1.74 2.51 1.62 4.06 0.25 2.78-0.56 2.1 1.78 4.99 0.33 1.55 2.05 2.68 2.59 2.71 0.4 5.48 2.07 0.23 1.79-0.57 4.38 2.15 1.11 6.48 1.23 1.65 0.47 1.72 2.18-0.01 3.22 2.76 0.54 5-0.87 3.35 2.6 2.86 1.65-0.83 2.73 2.18 0.8 2.2 2.54 3.77 2.36 3.62-1.92 2.61 0.72 3.53 1.8 4.96 0.57 3.84-1.26 5.17 2.66 3.01-0.07 3.19 0.89 2.73-0.58 2.51 4 0.8 1.07-1.51 1.09 3.2 2.62 2.8 0.92 1.25 2.53 7.01 6.42 23.13 49.5 3.55 1.78 4.11 0.53 3.2 3.25-1.41 7.4 24.09 21.39-2.17 21.39 5.97 15.72z"
            fill="#71b37b" style="paint-order:normal" />
        <path
            d="m156 166.6 2.99-0.57 3.36-1.99 4.5-3.43 6.73-4.08 2.84-0.33 6.34 1.36 7.13 1.49 5.05 2.64 4.65 3.6 3.18 0.7 6.07-1.69 4.39-3.02 5.02-2.33 7.82-3.89 4.96-5.85 3.21-1.58 5.97-0.26 7.1-1.19 8.34-3.22 10.06-3.74 5.59-3.49 7.72-4.29 4.92-3.4 5.6-2.01 7.59-3.27 4.64-1.05 7.06-3.72 4.1-2.32 3.56-1.83 4.44-1.4 3.7-0.38 3.1 0.06 3.17-0.96 4.73-1.03 6.56-2.54 4.78-2.19 0.27-0.13 1.27-0.58 2.73-1.54 4.44-3.14 8.71-8.03 2.95-0.81 4.33-3.29 3.24-2.47 0.86-1.17 2.58-0.63 2.23-0.59 2.44-1.2 6.26-3.01 1.69-1.02 2.06-0.96 2.3-0.56 1.98-0.13 5.8-1.31 2.23 1.31 2.09-0.03 4.39 0.47 4.23 0.9 1.41 0.2 2.61 1.13 1.22 0.56 1.46 0.78 1.19 0.48 1.48 0.86 1.43 0.63 2.59 0.71 1.62 0.43 3.36 0.33 1.77 0.25 1.28 0.33 1.11-0.19 2.15 0.71 2.47 0.91 4.07 1.1 2.54-0.99 2.02-0.15 1.16-0.53 1.29-0.83 1.27-0.81 1.22-0.86 2.23-0.05 1.18-0.38 1.33-0.48 1.8-0.75 0.94-0.72 3.86-1.58 6.25-0.71 3.73-3.44 4.02-2.68 3.24-3.93 2.14-3.09 1.31-1.97 1.41-2.21 0.89-1.74 0.63-1.58 4.22-7.24 1.94-2.43 1.19-1.1 1.63-1.1 2.08-1.62 4.04-2.22 0.85-0.2 0.84-0.2 1.82 0.11 6.54-0.06 2.7 0.56 4.72 1.51 3.87 0.86 3.98 0.54 6.4 0.24 4.68-0.86 1.42-0.34 1.45-0.61 0.63-0.46 2.63-1.23 1.39-0.11 4.22 0.98 2.84 0.8 2.83 0.97 1.67 0.61 2.21 0.67 1.99 0.44 5.29 0.51 2.85-0.19 2.52-0.71 2.1-0.23 5.07-0.83 1.8-0.49 1.02-0.5 1.31-0.91 1.15-0.71 3.18-1.61 2.51-0.85 2.66-0.71 3.69-0.65 5.8-0.46 2.55-0.13 8.36-0.42 7.45 0.19 4.86-0.74 3.88-0.79 4.97-0.45 6.82 0.19 5.35-0.53 3.77-0.98 2.93-0.36 7.73-1.15 2.87-0.48 1.15-0.15 2.14 0.29 3.52 1.33 2.82 1.07 5.63 2.19 2.21 0.58 1.68 0.59 2.33 0.64 2.65 0.89 2.53 1.21 1.88 0.83 1.62 0.4 3.4 0.59 3.15 0.29 2.1-0.14 4.01-1.17 2.51-0.3 5.08-0.67 4.4-1.78 2.28-0.74 2.53-0.98 1.3-0.63 1.29-0.87 3.51-2.33 3.55-2.8 5.07-5.93 3.64-3.58 4.7-4.35 5.32-6.11 5.09-4.13 1.62-2.27 1.4-2.7 1.25 0.97 2.05 2.43 3.55 3.03 2.62 5.18 2.93 4.45 3.86 4.15 0.67 2.36 1.15 3.03 0.5 0.46 0.15 0.72 0.21 1.18 0.23 0.26-0.4 1.67 1.27 1.58-0.09 0.59 0.23 1.06 0.3 0.22-0.08 0.46-0.17 1.04 0.16 0.33-0.14 2.35 0.05 0.76 0.45 1.1 1.01 1.45 0.23 0.43 0.66 0.77 0.27 0.99 0.31 0.68 0.41 0.23 2.46 2.15 0.53 2.68-1.29 2.44-1.14 2.07-4.18 5.11 1.93 1.11 6.3 0.09 3.18 1.23-1 4.02 3.39 4.49 0.06 3.39-1.3 4.79-3.66 4.83-2.65 4.17-4.1 2.89-3.83 3.84-2.1-0.19-3.76 3.5 0.59 2.36-2.24 2.26-1.41 0.58-3.35 1.14-3.12 0.63-4.01 1.49-7.93 2.06-2.54 1.17-1.58 1.76-0.73 2.23-1.41 1.62-1.31 1.92-0.15 2.49 1.01 1.06 0.44 1.38 0.39 0.77 0.12 0.24 0.6 0.92 3.45 2.62-0.02 3.54-3.13 2.96-2.39 1.82-0.35 2.91-0.45 2.2 0.03 0.75-0.8 0.98-1.26 1.56-1.21 0.41-1.28 0.52-1.96-0.13-2.81 1.08-0.79 0.85-1.14 2.96-2.9 1.11-1.16 1.83-1.6 0.84-1.21 1.91-0.48 0.02-2.42-0.18-2.82 2.12-1.54 1.25-1.69 1.8-1.49 1.22-1.51 0.59-0.65 1.69-0.92 0.37-1.63 0.96-2.75 0.59-4.54 0.75-0.9-0.05-0.78 1.04-1.15-0.06-1.55-0.05-3.94 0.45-1.11 0.13-0.62 1.49-0.32 1.1-2.63 0.22-0.89 0.61 0.3 0.95-0.45 0.81-0.41 0.18-2.56 0.85-3.31 1.35-4.17 1.59-3.09-0.14-1.76 0.26-2.02 1.17-2.16 3.27-3.51 0.82-1.69 0.6-2.12 2.8-2.21 1.08-3.16 2.95-2 0.55-0.87 0.57-0.17 2.71-1.52 1.26-2.9 1.96-1.04 2.5 0.7 3.31-2.33 1.89-1.55 1.08 1.24 0.74 0.4 3.17-4.14 2.44-6.87-2.18-3.8 0.23-6.27-0.94-2.48 0.22-3.52 0.4-3.44 1.4-4.87-0.07-4.32-1.23-1.13 0.52-2.26-0.19-3.93 0.91-1.29-0.2-0.81 0.15-1.5 0.61-1.38 2.27-1.99 3.46-2.17 2.91-0.75 2.3-4.59 0.28-2.6 1.47-2.38 1.72v1.99l-1.12 4.2-0.13 2.16 0.72 5.39-1.26 3.11 1.59 2.55 1.13 1.11 6.55 3.64 0.36 5.81-6.6-0.47h-1.54l-2.86 0.44-2.65 0.22-2.73-0.25-1.67 3.55-1.11 1.99-1.1 2.86-1.54 2.86-1.32 1.99-1.06 1.92-0.48 1.85-1.1 1.29 0.66 4.85-1.46 2.16-0.52-0.24-2.5-0.2-1.79 0.52-2.67 1.18-3.38-1.31-6.15-1.22-3.57 2.04 0.46 2.03 0.37 3.44-1.37 2.63-1.15 1.87-1.82 3.18-3.09-0.01-1.1 0.9-1.19 2.69-6.76 1.26-4.83 1.25-4.11 0.24-2.23-2.86-3.07-1.81-0.57-2.46-1.09-1.6-0.6-3.1-3-0.99-1.75-2.02-1.23-0.27-2.29 1.14-2.13 1.41-1.06 0.39-0.95-0.34-0.64 0.27-0.87-0.23 0.05-0.69 0.35-0.79-1.24-2.77-0.79-1.03-0.59-0.83-1.74-0.12-1.56 1.65-0.58-0.31 0.06-0.71 0.7-1.77-1.92-2.19-2.36-2.65-3.96-1.05-1.18-0.47-2.21-0.73-1.08 1.64-0.75 2.81-0.76 2.74-0.5 0.63-2.1 1.15-1.39 1.08-1.93 0.59-0.99-1-1.33 1.37-2.82-0.03-1.25-0.06-0.9-0.46-0.88 1.99-1.76 3.08-1.76 1.32-1.11 1.98-2.86 2.43-1.32 3.08-3.74 1.32-4.85-0.66 0.44 4.41-0.22 2.64-2.2 1.76-3.31 0.44-1.54 1.1-0.66 2.21-1.18 1.67 3.23 3.19 0.91 1.05 0.03 0.88 0.09 1.2 1.23 0.88-3.08 2.23 1.14 0.92 0.67 2.08 1.65-0.23 2.44-2.02 1.75-0.56 0.46-0.17 0.4-1.02 1.25-0.61 3.16 0.81 1.42-0.19 0.74-0.13 1.52 2 1.36 0.63 3.03-0.88 2.8 0.4 1.36-1.35 1.51-0.08 1.84-1.04 0.8 0.08 2.07 1.05 1.98 0.66 2.42 0.66 0.84 3.1-2.07 5.59-0.72 1.04 2.71 2.43 0.78 1.07 0.83 1.28 0.94 1.22 0.38 1.24 1.43 0.86 2.23 4.01 5.4 2.76 0.88 1.94-0.68 1.64-2.17-0.22-0.82 0.17-1.35-0.08-1.35 0.44-4.55-0.77-3.07 0.28-2 0.6-1.09 1.81-1.13 2.44-2.02 2.39-1.03 1-0.09 1.81-2.11 2.36-1.59 1.18-0.12 1.33 0.68 3.73-0.3 2.36-2.31 2.19-4.25 2.54-1.88 1.32-2.42 1.99-2.42 2.2-0.88 1.98-3.44-0.05-21.8 16.12-4.38 2.33-9.44-3.97-6.72-10.56-2.86-0.76-8.93 2.97-8.24-3.72-4.65-6.97-7.97-1.98-0.93-3.18-1.74-0.6-28.21-11.22-5.97-15.72 2.17-21.39-24.09-21.39 1.41-7.4-3.2-3.25-4.11-0.53-3.55-1.78-23.13-49.5-7.01-6.42-1.25-2.53-2.8-0.92-3.2-2.62 1.51-1.09-0.8-1.07-2.51-4-2.73 0.58-3.19-0.89-3.01 0.07-5.17-2.66-3.84 1.26-4.96-0.57-3.53-1.8-2.61-0.72-3.62 1.92-3.77-2.36-2.2-2.54-2.18-0.8 0.83-2.73-2.86-1.65-3.35-2.6-5 0.87-2.76-0.54 0.01-3.22-1.72-2.18-1.65-0.47-6.48-1.23-2.15-1.11 0.57-4.38-0.23-1.79-5.48-2.07-2.71-0.4-2.68-2.59-1.55-2.05-4.99-0.33-2.1-1.78-2.78 0.56-4.06-0.25-2.51-1.62-2.58-1.74-6.65-1.69-2.22-2.27-2.09-3.24 0.21-2.28 0.11-1.37 0.32-0.73-0.14-1.55-2-0.46z"
            fill="#8a84a3" style="paint-order:normal" />
        <path
            d="m525.8 796.4 0.92-0.02 0.92-0.11 0.58-0.33 0.71-0.58 0.17-0.72-0.21-1.37 0.78 0.36 0.84 0.24 1.48-0.16 1.98 0.37 1.06-0.12 1.23 0.2 1.32 0.75 1.34 0.66 0.6 0.46 0.34 0.7 0.83 1.16 0.47 0.25 1.15 0.09 0.68 0.21 1.31 0.88 0.47 0.86 0.15 1.86-0.14 1.18 0.53 0.68 0.58 0.7 0.8 1.25 0.6 2.15 0.63 1.09 1.13 1.99 1.17 1.5 1.94 0.48 2.02 0.18 2.48-0.45 2.25-0.74 1.74-0.72 2 1.15 0.24-0.57-0.34-0.61-0.61-0.43-0.43-0.28-0.41-0.61 0.43-1.52 0.13-0.98-0.54-1.02-0.09-0.42 0.57-0.39 0.82 0.17 1.97 0.4 0.5 0.18 1.2 0.63 0.55 0.84 0.93 0.24 0.82 0.01 0.9-0.14 1.49-0.33 1.82-1.03 2.11-0.88 0.94-0.7 2.69-2.74 1.54-1.38 0.97-1.23 0.2-0.89 0.19-1.51 0.26-0.35 0.43-0.07 1.1 0.34 0.57-0.09 1.06-0.56 1.55-1.14 0.78-0.56 0.43-0.33 1.13-0.04 1.83-0.07 2.02-0.53 0.38-0.01 1.27 0.35 0.48-0.09 0.45-0.61 0.19-0.81 0.04-0.42 1.2-1.33 0.55-0.8 0.04-0.43-0.14-0.52-0.37-2.4 0.05-0.39 0.14-0.19 0.25-0.04 0.61 0.28 1.87 1.29 0.61 0.23 1.26 0.74 0.42 0.1 0.5-0.03 0.31 0.03 0.66 0.18 1.93 1.89 0.28 0.27 0.46 0.23 1.04 0.22 0.64 0.06 1.5-0.66 2.49 2.52-1.46 3.6-0.11 1.13 0.59 1.57 0.45 1.04 0.99 1.14 1.14 1 0.91 0.89 1.31 0.52 3.21 1.24 2.79 1.15 2.34 0.88 2.34-2.8 1.5-1.77 1.83-2.4 0.05-0.89 0.33-0.91 0.31-0.27 0.69 0.09 0.08-0.32-0.58-0.36-0.1-0.33 0.21-0.59 0.42-0.36 1.26-0.67 0.64-0.51 0.59-0.66 0.21-0.87 0.85-0.31 0.51-0.89 0.31-0.57 0.06-0.94 0.44-0.59 1.39-0.01 0.69-0.07 0.62-0.38 0.77-2.23 2-1.39 3.65-1.3 1.88-1.7 1.69-1.46 3.43-1.15 2.41 0.53 3.5 0.96 2.85 0.91 5.46 1.73 10.2 2.77 6.02-0.21 4.83-0.29 10.11 3.3 5.13 1.04 4.45-0.09 1.96-0.5 2.6-1.52 0.24 4.41 1.38 2.39 0.13 1.03 0.58 2.72 0.57 1.28 0.67 1.98 0.93 1.18 1.04 2 1.35 0.71 0.56 4.8 0.16 3.35-0.87 2.56-0.33 1.19 0.48 1.6-1.59 2.8-0.72 1.12 2.71 1.83 2.16 2.48 2.48 5.75 1.03 2.71 1.84 0.8 2.08 0.48 3.67 1.68 3.36-0.08 3.35 3.19 0.97 0.04 2.64 1.72 2.79 3 1.44 0.47 2.64 0.24h1.91l7.83 2.72 1.28-0.08 0.88 0.56 0.71-0.16 2.24 1.04 1.92-0.24 12.38 6.87 2.47 1.67 1.2-0.16 4.46 2.87 1.37 1.05 0.48 7.26-0.08 5.19-0.8 5.51-1.2 2.48-1.2 0.96-0.08 1.68-2.47 1.19-1.2 0.8-1.6 3.44-1.27 0.87-0.32 1.44v1.92l-2.84 2.98-4.46 5.02-3.09 0.38-0.87 1.6-2.96 0.64-2.88 0.28-1.27 1.81-1.78-0.09-2.77 0.06-2.94 0.52-3.52 0.8-1.14 0.64-0.97 0.22-0.98 0.82-0.86 0.15-0.95 0.61-0.48 2.02-0.93 2.12-0.78 1.58-0.22 0.55-0.46 0.17-0.27 0.61-0.93 1.35-0.21 0.81-0.94 0.9-1 0.76-0.78 0.25-1.85-0.29-1.9 1.77-2.54 1.81h-3.45l-2.54-0.9-2.36-0.37-4.62-1.59-2.63-0.48-1.2-0.32-1.36 0.64-1.92 0.24-1.51 0.96-1.04 1.28-1.04 3.11-1.28 1.28-2.15 1.04-1.12 0.79 0.28 1.22v1.81l0.73 2.18-1.63 2.35-4.08 2.87-0.96 0.56v1.03l0.86 4.43-11.96 3.48-0.32 2.96-17.49 6.15-1.42 5.37-3.93 1.33-0.81 1.56-0.96 1.44-2.32 1.44-0.79 0.71-0.08 1.2 0.31 1.6-0.79 1.12 0.4 2.87-2.6 2.03-1.91 0.66-1.5 1.6-2.4 0.21-0.96 1.35-2.17 0.26-1.39 1.06-0.69 1.33-0.19 1.81 0.67 2.04 1.02 1.4 1.67 2.64 1.28 1.55 0.54 0.95 1.4 1.75 1.14 2.63 1.12 0.96 0.81 1.21 0.99 2.82 0.86 0.7-0.24 1.96-4.48 8.65-29.16-9.7-24.62-11.06-6.82-0.69-20.2 6.51-29.03 3.22-7.65 4.33-9.82-2.31-0.69-8.53-15.2-7.84-8.48 10.18-0.07 4.36-9.14 12.71-2.48 6.19-6.93 5.25-22.96 17.07-1.92 6.35-12.55 6.27-11.92 11.3-11.3 0.63-8.5 3.52-8.51 8.98-12.38 11.7-18.06 15.81-8.91 0.71-15.29 6.24-16.17 5.36-0.72-2.28-0.87-2.68-0.61-1.45-1.45-1.73-0.33-1.27-0.91-1.07-3.07-3.11-2.25-2.54-2.3-2.29-4.63-4.39-5.23-7.25-1.02-0.92-1.8-1.11-1.35-0.44-1.68 0.01-1.62-0.48-3.16-1.96-3.11-2.22-1.24-0.53-1.55-0.29-1.64-0.56-1.15-0.96-1.18-1.54-1.32-2.82 0.07-1.78 0.53-1.76 0.36-1.78 0.08-2.84-0.18-3.84-0.44-2.29-0.95-4.03 0.11-0.66 0.97-1.04 2.21-1.71 1.87-0.81 1.77-0.62 4-3.31 2.87-1.24 1.23-0.73 1.98-2.58 3.21-3.29 1.42-2.17 1.72-3.33 1.02-2.3 0.44-2.61 2.01-2.79 1.33-2.28 0.92-1.85 0.34-1.46 1.88-1.2 0.88-1.01 1.79-2.28 0.65-1.11 0.94-1.97 1.21-1.34 1.52-1.31 1.13-0.6 1.02-1.45 0.76-1.86 1.71-2.12 1.28-2.22 1.5-1.81 1.98-2 0.6-1.04 0.78-1.9 1.32-1.77 1.5-1.56 0.51-0.87 0.12-1.61 0.02-1.61 0.32-1.03 0.81-2.76 0.98-2.15 1.21-3.59 0.48-1.7 0.35-1.42-0.25-1.57 0.44-2.11 0.51-3.37 0.24-2.39 0.77-2.59 0.31-0.65 1.83-2.44 0.76-1.6 1.79-2.55 1.46-1.38 2.72-2.18 6.04-4.28 6.89-4.5 1.69-1.66 2.34-2.39 4.17-2.84 1.44-1.73 0.49-1.16 1.11-2.18 2.18-2.14 0.79-2.78 0.88-1.82 1.61-2.35 1.29-2 0.43-1.81 0.37-1.01 1.9-1 1.2-0.82 1.84-3 1.76-2.22 0.22-0.89-0.06-0.62 0.16-2.82 0.48-2.48 0.22-2.16 0.11-2.43-0.31-1.39-0.56-2-0.54-2.74-1.2-3.89-1.34-3.39-1.15-2.45 1.76 0.09 1.49-0.66 0.54-0.08 0.89 0.22 1.06-0.36 0.9-1.3 0.87-0.49 1.86 0.47 1.37 0.9 1.25 0.26 2.2-0.77 1.88-0.53h0.98l0.92 0.65 0.63-0.04 0.42-0.87 0.5-0.3v-0.28l-0.88-0.91v-0.46l0.22-0.26 0.54-0.15 0.6-0.01 0.98 0.39 0.62-0.04 0.33-0.16 0.12-0.52-0.23-1.29 0.27-0.46 0.39-0.42 0.76-0.21 2.11 0.58 1.27-0.86 1.06 0.18 2.52-1.76 21.72-3.72 18.06 2.74 10.96-1.13 16.55-15.35 6.27-18.01-1-22.99 25.78-23.45 7.25-4.85z"
            fill="#d5dc76" style="paint-order:normal" />
    </g>
    <path
        d="m648.3 616.9 1.86 0.34 1.74 2.18 1.37 1.52-0.55 0.8-2.2 1.38-0.5 2.02-0.08 1.02 0.7-0.11 0.66-0.95 1.08 0.28-0.64 1.08-1.36 1.19-0.4 0.77 0.06 4.62 0.62 2.15 1.36 2.49 2.43 2.33 2.22 2.21 1.75 1.61 2.46 0.25 1.15 0.52 0.87 0.87 0.55 0.58 1.79 1.86 0.82 1.35 1.39 2.97 0.26 0.93 0.5 1.35 1.09 2.32 0.93 1.9 0.26 1.68 0.72 0.61 0.22 0.63 0.74 1.07 0.75 1.57 1.3 0.23 2.98 11.69 0.15 0.18 0.35 0.4 4.34 3.88 1.28 0.99 6.4 5.08 0.16 0.15v0.41l-6.2 6.1-3.15 2.86-3.02 2.45-0.63 1.15-3.35 6.19-2.2 4.34-1.67 3.53 0.05 2.86 0.71 5.87 0.92 8.15 0.25 2.33-0.06 0.64 0.16 0.19 0.23 1.19 0.53 3.07 2.61 1.46 9.11 5.52 2.52-3.22 1.63 3.68 1.97 0.31 0.18-1.05 1.78 0.96 0.08-0.04 1.11 0.68 2.37 0.51 0.37 0.18 0.21 0.15 0.48 0.59 0.33 0.12 0.32-0.05 0.22-0.05 0.49 0.11 0.6-0.02 0.69 0.2 0.57 0.46 0.41 1.07-0.22 1.21 0.01 0.22 0.18 0.15 0.24 0.16 1.79 2.15 0.51 0.54 0.14 0.52 0.78 0.03 0.79 0.65 0.73 1.35 0.49 0.86-0.99 0.65-0.47 1.5 0.41 0.53-0.23 1.73 1.32 0.41 0.35 4.8v7.27l-0.08 1.92 0.32 1.12 1.12 2.23 2.55 2.56 1.3 0.4 0.15 1.84 0.88 1.35-0.32 1.63-0.98 2.23-2.6 1.52-1.96 0.5-4.45 0.09-5.13-1.04-10.11-3.3-4.83 0.29-6.02 0.21-10.2-2.77-5.46-1.73-2.85-0.91-3.5-0.96-2.41-0.53-3.43 1.15-1.69 1.46-1.88 1.7-3.65 1.3-2 1.39-0.77 2.23-0.62 0.38-0.69 0.07-1.39 0.01-0.44 0.59-0.06 0.94-0.31 0.57-0.51 0.89-0.85 0.31-0.21 0.87-0.59 0.66-0.64 0.51-1.26 0.67-0.42 0.36-0.21 0.59 0.1 0.33 0.58 0.36-0.08 0.32-0.69-0.09-0.31 0.27-0.33 0.91-0.05 0.89-1.83 2.4-1.5 1.77-2.34 2.8-2.34-0.88-2.79-1.15-3.21-1.24-1.31-0.52-0.91-0.89-1.14-1-0.99-1.14-0.45-1.04-0.59-1.57 0.11-1.13 1.46-3.6-2.49-2.52-1.5 0.66-0.64-0.06-1.04-0.22-0.46-0.23-0.28-0.27-1.93-1.89-0.66-0.18-0.31-0.03-0.5 0.03-0.42-0.1-1.26-0.74-0.61-0.23-1.87-1.29-0.61-0.28-0.25 0.04-0.14 0.19-0.05 0.39 0.37 2.4 0.14 0.52-0.04 0.43-0.55 0.8-1.2 1.33-0.04 0.42-0.19 0.81-0.45 0.61-0.48 0.09-1.27-0.35-0.38 0.01-2.02 0.53-1.83 0.07-1.13 0.04-0.43 0.33-0.78 0.56-1.55 1.14-1.06 0.56-0.57 0.09-1.1-0.34-0.43 0.07-0.26 0.35-0.19 1.51-0.2 0.89-0.97 1.23-1.54 1.38-2.69 2.74-0.94 0.7-2.11 0.88-1.82 1.03-1.49 0.33-0.9 0.14-0.82-0.01-0.93-0.24-0.55-0.84-1.2-0.63-0.5-0.18-1.97-0.4-0.82-0.17-0.57 0.39 0.09 0.42 0.54 1.02-0.13 0.98-0.43 1.52 0.41 0.61 0.43 0.28 0.61 0.43 0.34 0.61-0.24 0.57-2-1.15-1.74 0.72-2.25 0.74-2.48 0.45-2.02-0.18-1.94-0.48-1.17-1.5-1.13-1.99-0.63-1.09-0.6-2.15-0.8-1.25-0.58-0.7-0.53-0.68 0.14-1.18-0.15-1.86-0.47-0.86-1.31-0.88-0.68-0.21-1.15-0.09-0.47-0.25-0.83-1.16-0.34-0.7-0.6-0.46-1.34-0.66-1.32-0.75-1.23-0.2-1.06 0.12-1.98-0.37-1.48 0.16-0.84-0.24-0.78-0.36 0.21 1.37-0.17 0.72-0.71 0.58-0.58 0.33-0.92 0.11-0.92 0.02-0.69-0.34-0.18-0.68-0.14-0.88 0.06-0.94 1.45-0.8 0.07-0.24-0.72-0.39-0.36-0.91-0.08-1.56 0.72-1.41 0.23-0.1 0.41-0.47 0.09-0.9 1.48-2.2 2.83-2.35 0.19-1.14-0.04-1.17-0.42-0.7-0.81-0.47-1.69-0.51-4.29-0.1-5.95-1.15-9.29-2.31-5.34-1.52-1.78-1.27-0.58-1.8v-2.64l1.86-4.96 6.75-3.57 8.26-2.48 7.21 0.8 3.61 1.41 2.02 2.09 1.9-20.98 3.31-7.88 5.62-8.93 12.42-21.27 13.48-14.34 12.24-11.48 11.51-13.76 13.08-11.02 19.48-13.79 13.06-8.83 5.57-5.68z"
        fill="#F3F3F3"stroke-width="2" style="paint-order:normal" />

    <g fill="#1a1a1a" font-family="Arial" font-weight="bold" font-size="24px">
        <g transform="translate(378.3 734.4) rotate(0)">
            <switch>
                <text systemLanguage="zh" font-size="1.5em">&#x897F;&#x5C71;&#x533A;</text>
                <text systemLanguage="my"
                    font-size="1.5em">&#x101B;&#x103E;&#x102E;&#x1038;&#x101B;&#x103E;&#x1019;&#x103A;&#x1038;&#x200C;&#x1019;&#x103C;&#x102D;&#x102F;&#x1037;&#x1014;&#x101A;&#x103A;</text>
                <text systemLanguage="en">
                    <tspan x="0" dy="-0.6em">Xishan</tspan>
                    <tspan x="0" dy="1.2em">Township</tspan>
                </text>
                <text>
                    <tspan x="0" dy="-0.6em">Xishan</tspan>
                    <tspan x="0" dy="1.2em">Township</tspan>
                </text>
            </switch>
        </g>
        <g transform="translate(438.6 977.6) rotate(-20.5)">
            <switch>
                <text systemLanguage="zh" font-size="2em">&#x4E1C;&#x5C71;&#x533A;</text>
                <text
                    systemLanguage="my">&#x1010;&#x102F;&#x1014;&#x103A;&#x1038;&#x101B;&#x103E;&#x1019;&#x103A;&#x1038;&#x1019;&#x103C;&#x102D;&#x102F;&#x1037;&#x1014;&#x101A;&#x103A;</text>
                <text systemLanguage="en">
                    <tspan x="0" dy="-0.6em">Dongshan</tspan>
                    <tspan x="0" dy="1.2em">Township</tspan>
                </text>
                <text>
                    <tspan x="0" dy="-0.6em">Dongshan</tspan>
                    <tspan x="0" dy="1.2em">Township</tspan>
                </text>
            </switch>
        </g>
        <g transform="translate(123.3 370.4) rotate(0)">
            <switch>
                <text systemLanguage="zh" font-size="2em">&#x5174;&#x65FA;&#x533A;</text>
                <text
                    systemLanguage="my">&#x101B;&#x103E;&#x1004;&#x103A;&#x1038;&#x101D;&#x1019;&#x103A;&#x1019;&#x103C;&#x102D;&#x102F;&#x1037;&#x1014;&#x101A;&#x103A;</text>
                <text systemLanguage="en">
                    <tspan x="0" dy="-0.6em">Xingwang</tspan>
                    <tspan x="0" dy="1.2em">Township</tspan>
                </text>
                <text>
                    <tspan x="0" dy="-0.6em">Xingwang</tspan>
                    <tspan x="0" dy="1.2em">Township</tspan>
                </text>
            </switch>
        </g>
        <g transform="translate(417.6 217.4) rotate(-21.9)">
            <switch>
                <text systemLanguage="zh" font-size="2em">&#x7EA2;&#x661F;&#x533A;</text>
                <text
                    systemLanguage="my">&#x101F;&#x102F;&#x1014;&#x103A;&#x101B;&#x103E;&#x1004;&#x103A;&#x1038;&#x1019;&#x103C;&#x102D;&#x102F;&#x1037;&#x1014;&#x101A;&#x103A;</text>
                <text systemLanguage="en">
                    <tspan x="0" dy="-0.6em">Hongxing</tspan>
                    <tspan x="0" dy="1.2em">Township</tspan>
                </text>
                <text>
                    <tspan x="0" dy="-0.6em">Hongxing</tspan>
                    <tspan x="0" dy="1.2em">Township</tspan>
                </text>
            </switch>
        </g>
        <g transform="translate(451.9 1130.9) rotate(-17.1)">
            <switch>
                <text systemLanguage="zh" font-size="2em">
                    <tspan>&#x6EDA;&#x5F04;&#x533A;</tspan>
                </text>

                <text
                    systemLanguage="my">&#x1000;&#x103D;&#x1019;&#x103A;&#x1038;&#x101C;&#x102F;&#x1036;&#x1019;&#x103C;&#x102D;&#x102F;&#x1037;&#x1014;&#x101A;&#x103A;</text>
                <text systemLanguage="en">
                    <tspan x="0" dy="-0.6em">Kunlong</tspan>
                    <tspan x="0" dy="1.2em">Township</tspan>
                </text>
                <text>
                    <tspan x="0" dy="-0.6em">Kunlong</tspan>
                    <tspan x="0" dy="1.2em">Township</tspan>
                </text>
            </switch>
        </g>
    </g>
    <g fill="#121212" font-family="Arial" font-weight="bold" font-size="18px">
        <g transform="translate(632.5 1079.7)">
            <switch>
                <text systemLanguage="zh">&#x6E05;&#x6C34;&#x6CB3;&#x9547;</text>
                <text systemLanguage="en">Chinshwehaw</text>
                <text
                    systemLanguage="my">&#x1001;&#x103B;&#x1004;&#x103A;&#x1038;&#x101B;&#x103D;&#x103E;&#x1031;&#x101F;&#x1031;&#x102C;&#x103A;</text>
                <text>Chinshwehaw</text>
            </switch>
        </g>
        <g transform="translate(346.5 1184.0)">
            <switch>
                <text systemLanguage="zh">&#x6EDA;&#x5F04;&#x9547;</text>
                <text systemLanguage="en">Kunlong</text>
                <text systemLanguage="my">&#x1000;&#x103D;&#x1019;&#x103A;&#x1038;&#x101C;&#x102F;&#x1036;</text>
                <text>Kunlong</text>
            </switch>
        </g>
        <g transform="translate(160.0 282.2)">
            <switch>
                <text systemLanguage="zh">&#x65B0;&#x5E73;&#x8857;</text>
                <text systemLanguage="en">Simpingkai</text>
                <text
                    systemLanguage="my">&#x1005;&#x1004;&#x103A;&#x1015;&#x1004;&#x103A;&#x1000;&#x102D;&#x102F;&#x1004;&#x103A;&#x1038;</text>
                <text>
                    <tspan>Simpingkai</tspan>
                </text>
            </switch>
        </g>
        <g transform="translate(635.1 98.6)">
            <switch>
                <text systemLanguage="zh">&#x6155;&#x6CF0;</text>
                <text systemLanguage="en">Mawhtike</text>
                <text
                    systemLanguage="my">&#x1019;&#x1031;&#x102C;&#x103A;&#x1011;&#x102D;&#x102F;&#x1000;&#x103A;</text>
                <text>Mawhtike</text>
            </switch>
        </g>
        <g transform="translate(640.8 883.0)">
            <switch>
                <text systemLanguage="zh">&#x77F3;&#x56ED;&#x5B50;</text>
                <text systemLanguage="en">Sheeyunkyi</text>
                <text
                    systemLanguage="my">&#x101B;&#x103E;&#x102E;&#x1038;&#x101A;&#x103D;&#x1019;&#x103A;&#x1000;&#x103C;&#x100A;&#x103A;</text>
                <text>Sheeyunkyi</text>
            </switch>
        </g>
        <g transform="translate(492.0 702.2)">
            <switch>
                <text systemLanguage="zh">&#x5927;&#x6C34;&#x5858;</text>
                <text systemLanguage="en">Tarshwehtan</text>
                <text
                    systemLanguage="my">&#x1010;&#x102C;&#x101B;&#x103D;&#x103E;&#x1031;&#x1011;&#x1014;&#x103A;</text>
                <text>Tarshwehtan</text>
            </switch>
        </g>
    </g>
    <g fill="#24221c">
        <circle cx="670.2" cy="1088" r="4.0" />
        <circle cx="374.3" cy="1192" r="4.0" />
        <circle cx="152.6" cy="276.9" r="4.0" />
        <circle cx="627" cy="93.85" r="4.0" />
        <circle cx="635" cy="878.2" r="4.0" />
        <circle cx="485.9" cy="696.9" r="4.0" />
    </g>

    <g transform="translate(552.8 747.3)" fill="#b3b3b3" font-family="Arial" font-weight="bold" font-size="18px">
        <switch>
            <text systemLanguage="zh">&#x8001;&#x8857;&#x5E02;</text>
            <text systemLanguage="en">Laukkaing</text>
            <text
                systemLanguage="my">&#x101C;&#x1031;&#x102C;&#x1000;&#x103A;&#x1000;&#x102D;&#x102F;&#x1004;&#x103A;</text>
            <text>Laukkaing</text>
        </switch>
    </g>
</svg>