<?xml version="1.0" encoding="UTF-8" standalone="no"?>
<svg
   version="1.2"
   width="936.6214"
   height="1221.6191"
   viewBox="0 0 936.62137 1221.6192"
   stroke-linecap="round"
   stroke-linejoin="round"
   id="svg1"
   sodipodi:docname="lashio_ink.svg"
   inkscape:version="1.4.2 (f4327f4, 2025-05-13)"
   xmlns:inkscape="http://www.inkscape.org/namespaces/inkscape"
   xmlns:sodipodi="http://sodipodi.sourceforge.net/DTD/sodipodi-0.dtd"
   xmlns:xlink="http://www.w3.org/1999/xlink"
   xmlns="http://www.w3.org/2000/svg"
   xmlns:svg="http://www.w3.org/2000/svg">
  <defs
     id="defs1">
    <inkscape:path-effect
       effect="skeletal"
       id="path-effect459"
       is_visible="true"
       lpeversion="1"
       pattern="#path1"
       copytype="repeated"
       prop_scale="1"
       scale_y_rel="false"
       spacing="0"
       normal_offset="0"
       tang_offset="0"
       prop_units="false"
       vertical_pattern="false"
       hide_knot="false"
       fuse_tolerance="0" />
    <rect
       x="374.5"
       y="781.5"
       width="131"
       height="25.5"
       id="rect458" />
    <rect
       x="434"
       y="628"
       width="95.127417"
       height="22.853553"
       id="rect455" />
    <marker
       style="overflow:visible"
       id="Triangle"
       refX="0"
       refY="0"
       orient="auto-start-reverse"
       inkscape:stockid="Triangle arrow"
       markerWidth="1"
       markerHeight="1"
       viewBox="0 0 1 1"
       inkscape:isstock="true"
       inkscape:collect="always"
       preserveAspectRatio="xMidYMid">
      <path
         transform="scale(0.5)"
         style="fill:context-stroke;fill-rule:evenodd;stroke:context-stroke;stroke-width:1pt"
         d="M 5.77,0 -2.88,5 V -5 Z"
         id="path135" />
    </marker>
    <pattern
       inkscape:collect="always"
       xlink:href="#pattern432"
       preserveAspectRatio="xMidYMid"
       id="pattern454"
       patternTransform="matrix(0.3535534,0.3535534,-0.3535534,0.3535534,-372.22,-481.64)" />
    <pattern
       inkscape:collect="always"
       xlink:href="#pattern432"
       preserveAspectRatio="xMidYMid"
       id="pattern453"
       patternTransform="matrix(0.3535534,0.3535534,-0.3535534,0.3535534,-372.22,-481.64)" />
    <pattern
       inkscape:collect="always"
       xlink:href="#pattern432"
       preserveAspectRatio="xMidYMid"
       id="pattern452"
       patternTransform="matrix(0.3535534,0.3535534,-0.3535534,0.3535534,-372.22,-481.64)" />
    <pattern
       inkscape:collect="always"
       xlink:href="#pattern432"
       preserveAspectRatio="xMidYMid"
       id="pattern451"
       patternTransform="matrix(0.3535534,0.3535534,-0.3535534,0.3535534,-372.22,-481.64)" />
    <pattern
       inkscape:collect="always"
       xlink:href="#pattern432"
       preserveAspectRatio="xMidYMid"
       id="pattern450"
       patternTransform="matrix(0.3535534,0.3535534,-0.3535534,0.3535534,-372.22,-481.64)" />
    <pattern
       inkscape:collect="always"
       xlink:href="#pattern432"
       preserveAspectRatio="xMidYMid"
       id="pattern449"
       patternTransform="matrix(0.3535534,0.3535534,-0.3535534,0.3535534,-372.22,-481.64)" />
    <pattern
       inkscape:collect="always"
       xlink:href="#pattern432"
       preserveAspectRatio="xMidYMid"
       id="pattern448"
       patternTransform="matrix(0.3535534,0.3535534,-0.3535534,0.3535534,-372.22,-481.64)" />
    <pattern
       inkscape:collect="always"
       xlink:href="#pattern432"
       preserveAspectRatio="xMidYMid"
       id="pattern447"
       patternTransform="matrix(0.3535534,0.3535534,-0.3535534,0.3535534,-372.22,-481.64)" />
    <pattern
       inkscape:collect="always"
       xlink:href="#pattern432"
       preserveAspectRatio="xMidYMid"
       id="pattern446"
       patternTransform="matrix(0.3535534,0.3535534,-0.3535534,0.3535534,-372.22,-481.64)" />
    <pattern
       inkscape:collect="always"
       xlink:href="#pattern432"
       preserveAspectRatio="xMidYMid"
       id="pattern445"
       patternTransform="matrix(0.3535534,0.3535534,-0.3535534,0.3535534,-372.22,-481.64)" />
    <pattern
       inkscape:collect="always"
       xlink:href="#pattern432"
       preserveAspectRatio="xMidYMid"
       id="pattern444"
       patternTransform="matrix(0.3535534,0.3535534,-0.3535534,0.3535534,-372.22,-481.64)" />
    <pattern
       inkscape:collect="always"
       xlink:href="#pattern432"
       preserveAspectRatio="xMidYMid"
       id="pattern443"
       patternTransform="matrix(0.3535534,0.3535534,-0.3535534,0.3535534,-372.22,-481.64)" />
    <pattern
       inkscape:collect="always"
       xlink:href="#pattern432"
       preserveAspectRatio="xMidYMid"
       id="pattern442"
       patternTransform="matrix(0.3535534,0.3535534,-0.3535534,0.3535534,-372.22,-481.64)" />
    <pattern
       inkscape:collect="always"
       xlink:href="#pattern432"
       preserveAspectRatio="xMidYMid"
       id="pattern441"
       patternTransform="matrix(0.3535534,0.3535534,-0.3535534,0.3535534,-372.22,-481.64)" />
    <pattern
       inkscape:collect="always"
       xlink:href="#pattern432"
       preserveAspectRatio="xMidYMid"
       id="pattern440"
       patternTransform="matrix(0.3535534,0.3535534,-0.3535534,0.3535534,-372.22,-481.64)" />
    <pattern
       inkscape:collect="always"
       xlink:href="#pattern432"
       preserveAspectRatio="xMidYMid"
       id="pattern439"
       patternTransform="matrix(0.3535534,0.3535534,-0.3535534,0.3535534,-372.22,-481.64)" />
    <pattern
       inkscape:collect="always"
       xlink:href="#pattern432"
       preserveAspectRatio="xMidYMid"
       id="pattern437"
       patternTransform="matrix(0.3535534,0.3535534,-0.3535534,0.3535534,-372.22,-481.64)" />
    <pattern
       inkscape:collect="always"
       xlink:href="#pattern432"
       preserveAspectRatio="xMidYMid"
       id="pattern436"
       patternTransform="matrix(0.3535534,0.3535534,-0.3535534,0.3535534,-372.22,-481.64)" />
    <pattern
       inkscape:collect="always"
       xlink:href="#pattern432"
       preserveAspectRatio="xMidYMid"
       id="pattern435"
       patternTransform="matrix(0.3535534,0.3535534,-0.3535534,0.3535534,-372.22,-481.64)" />
    <pattern
       inkscape:collect="always"
       xlink:href="#stripes-grid"
       preserveAspectRatio="xMidYMid"
       id="pattern434"
       patternTransform="matrix(6.1436404,-4.3018233,4.3018233,6.1436404,5.579776,6.4925087)"
       x="0"
       y="0" />
    <pattern
       patternUnits="userSpaceOnUse"
       width="3"
       height="10"
       patternTransform="scale(2)"
       preserveAspectRatio="xMidYMid"
       id="stripes-grid"
       style="fill:#000000"
       x="0"
       y="0"
       inkscape:label="条纹 1:1"
       inkscape:collect="always"
       inkscape:isstock="true">
      <rect
         style="stroke:none"
         x="0"
         y="0"
         width="2"
         height="10"
         id="rect134-4" />
    </pattern>
    <pattern
       inkscape:collect="always"
       xlink:href="#Strips1_10"
       preserveAspectRatio="xMidYMid"
       id="pattern432"
       patternTransform="matrix(0.07071068,0.07071068,-0.07071068,0.07071068,0,0)"
       x="0"
       y="0" />
    <pattern
       inkscape:collect="always"
       patternUnits="userSpaceOnUse"
       width="11"
       height="1"
       patternTransform="translate(0,0) scale(2,2)"
       preserveAspectRatio="xMidYMid"
       id="Strips1_10"
       style="fill:#ffaaaa"
       inkscape:stockid="Stripes 08 (1:10)"
       inkscape:isstock="true"
       inkscape:label="条纹 1:10">
      <rect
   style="stroke:none"
   x="0"
   y="-0.5"
   width="1"
   height="2"
   id="rect176" />

    </pattern>
    <rect
       x="434"
       y="628"
       width="95.127419"
       height="22.853554"
       id="rect455-2" />
    <rect
       x="434"
       y="628"
       width="95.127419"
       height="22.853554"
       id="rect455-2-3" />
    <rect
       x="434"
       y="628"
       width="95.127419"
       height="22.853554"
       id="rect455-2-3-7" />
    <rect
       x="434"
       y="628"
       width="95.127419"
       height="22.853554"
       id="rect455-2-3-5" />
    <rect
       x="434"
       y="628"
       width="95.127419"
       height="22.853554"
       id="rect455-2-3-4" />
    <rect
       x="434"
       y="628"
       width="95.127419"
       height="22.853554"
       id="rect455-2-3-0" />
    <rect
       x="434"
       y="628"
       width="95.127419"
       height="22.853554"
       id="rect455-2-3-44" />
    <rect
       x="434"
       y="628"
       width="95.127419"
       height="22.853554"
       id="rect455-2-3-9" />
    <rect
       x="434"
       y="628"
       width="95.127419"
       height="22.853554"
       id="rect455-2-3-1" />
    <rect
       x="434"
       y="628"
       width="95.127419"
       height="22.853554"
       id="rect455-2-3-6" />
    <rect
       x="434"
       y="628"
       width="95.127419"
       height="22.853554"
       id="rect455-2-3-97" />
    <rect
       x="434"
       y="628"
       width="95.127419"
       height="22.853554"
       id="rect455-2-3-57" />
    <rect
       x="434"
       y="628"
       width="95.127419"
       height="22.853554"
       id="rect455-2-3-57-6" />
    <rect
       x="434"
       y="628"
       width="110.62742"
       height="21.853554"
       id="rect455-2-3-57-7" />
    <rect
       x="434"
       y="628"
       width="148.87742"
       height="23.103554"
       id="rect455-2-3-57-7-8" />
    <rect
       x="434"
       y="628"
       width="148.87743"
       height="23.103554"
       id="rect455-2-3-57-7-8-1" />
    <rect
       x="434"
       y="628"
       width="112.81498"
       height="23.457107"
       id="rect455-2-3-57-7-8-3" />
    <rect
       x="434"
       y="628"
       width="60.489078"
       height="22.573224"
       id="rect455-2-3-57-7-8-0" />
  </defs>
  <sodipodi:namedview
     id="namedview1"
     pagecolor="#ffffff"
     bordercolor="#000000"
     borderopacity="0.25"
     inkscape:showpageshadow="2"
     inkscape:pageopacity="0.0"
     inkscape:pagecheckerboard="0"
     inkscape:deskcolor="#d1d1d1"
     inkscape:zoom="1"
     inkscape:cx="236.5"
     inkscape:cy="472"
     inkscape:window-width="1920"
     inkscape:window-height="1017"
     inkscape:window-x="-8"
     inkscape:window-y="-8"
     inkscape:window-maximized="1"
     inkscape:current-layer="svg1" />
  <g
     inkscape:groupmode="layer"
     id="layer4"
     inkscape:label="ward"
     style="stroke:#cccccc;stroke-width:0.3;stroke-dasharray:0.3, 0.6;stroke-dashoffset:0;stroke-opacity:1;paint-order:markers fill stroke;opacity:1"
     transform="translate(377.74978,488.13251)">
    <path
       d="m 274.73,127.81 -2.95,2.7 -0.8,0.25 -1.35,0.15 -1.55,-0.35 -4.65,-1.95 -1.15,-0.45 -2,-0.25 -1.75,0.05 -7.45,1.65 -4.8,1.2 -1.2,0.45 -5.85,2.8 -4.15,2.2 -1.4,1.2 -1.2,1.1 -1.1,1.7 -0.9,2.6 -3.35,13.05 -1.05,2.9 -0.6,0.7 -1.05,0.4 -3.7,-0.25 -3.2,0.25 -4.5,0.9 5.8,9.5 7.15,13.75 3.55,6.8 6.9,10.3 -7.65,4.05 -4.1,7.85 -2.3,4.2 -3.6,5.8 -7.4,8.65 -0.6,7.1 -1.2,0.7 -10.1,7.8 -12.2,6.25 -6.4,2.85 -5.4,1.15 -4.9,0.75 -11.55,5 -3.9,1.3 -2.8,2.75 -3.75,4.05 -2.3,0.35 -1.65,-1.35 -0.9,-1.7 -0.9,-13.15 -0.8,-2.2 -1.75,-2.05 -2.55,-1.2 -2.7,-0.45 -3.3,0.75 -7,3.5 -12.05,3.4 -15.45,6.7 -11,3 -5.65,1.6 -5.45,8.95 1.25,40.25 0.6,42.2 2.05,28.85 -0.05,7.1 -4.15,9.4 -8.4,6.25 -3.45,5.7 -6.95,2.85 -2.6,5.4 -7.8,4.55 -4.25,2.15 -5.15,1.2 -11.45,-1.75 -27.55,-1.95 -7.4,-2.45 -17.05,-5.95 6.2,-19.65 6.2,-26.85 -6.45,-37.45 11.2,-19.05 -14.35,-13.1 v -17.75 l 20.25,-10.25 10.35,-9.2 -10.1,-15.85 -15.2,-0.3 -0.15,-13.95 11.1,-18.35 9.3,-23.25 4.9,-18 -0.8,-11.15 -7.95,-8.25 -4.4,1.2 -17.55,1.9 -6.3,-13.05 5.5,-24.35 9.45,-8.9 11.5,-5.95 0.8,-7.2 1.85,-21.45 46.1,-6.75 19.35,-3.4 8.75,0.85 2.65,0.45 -1.5,-5.35 -1.6,-14.25 3.75,-6 5.15,-4.3 4.85,-2.85 7.4,-2.9 6.55,0.65 7.85,-1.4 9.1,0.6 6.9,3.85 7.3,-2.65 11.3,1.95 5.45,1.2 6.3,-2.95 -9.85,-19.95 -1.4,-1.5 -1.95,-1.7 -2.8,-1.75 -1.45,-2.4 -4.7,-12.75 12.6,-5.5 10.25,-0.15 10.85,-3.5 9.75,2.25 3.55,21.5 6.85,-0.45 11,0.6 22.75,9.65 2.05,-2.55 12.15,5.3 3,-2.8 7.05,-17 2.75,-11.2 6.7,-10.7 7.6,-5.9 23.35,-4.8 27.95,3.65 1.6,24.65 6,13.5 1.15,8.8 -10.2,-1.05 -6.5,-0.45 -3.85,1.55 -0.65,5.9 -2.45,12.3 3.65,3.45 4.2,7.75 13.55,8.6 -6.9,11.35 -6.3,5.05 -4.5,4 -4.2,6.7 0.05,1.1 -6.1,-3.9 -1.35,3.7 -2.7,6.35 -1.8,3.35 -3.2,3.6 -4.85,4.05 -3.95,1.75 -2.6,2.3 -2.3,1.7 0.25,2.45 -0.15,2.75 -0.3,1.6 -1.1,3.15 2.65,1.15 3.05,1.4 z"
       id="relation/18447559"
       style="fill:#ac5c91;fill-opacity:1;stroke:#cccccc;stroke-width:1.5;stroke-dasharray:1.5, 3;stroke-dashoffset:0;stroke-opacity:1;paint-order:markers fill stroke" />
    <path
       d="m 274.73,127.81 0.45,4.9 1,6.3 -6.4,1.3 1.1,5.4 -0.85,2.8 -1.2,1.75 0.45,5.35 -3,3.7 -4.45,5.25 1,2.15 -15.55,-2.5 -1.2,1.95 -20.1,17.9 -7.15,-13.75 -5.8,-9.5 4.5,-0.9 3.2,-0.25 3.7,0.25 1.05,-0.4 0.6,-0.7 1.05,-2.9 3.35,-13.05 0.9,-2.6 1.1,-1.7 1.2,-1.1 1.4,-1.2 4.15,-2.2 5.85,-2.8 1.2,-0.45 4.8,-1.2 7.45,-1.65 1.75,-0.05 2,0.25 1.15,0.45 4.65,1.95 1.55,0.35 1.35,-0.15 0.8,-0.25 z"
       id="relation/18447560"
       style="fill:#d5dc76;fill-opacity:1;stroke:#cccccc;stroke-width:1.5;stroke-dasharray:1.5, 3;stroke-dashoffset:0;stroke-opacity:1;paint-order:markers fill stroke" />
    <path
       d="m 264.98,185.66 -1.35,0.55 -8.1,4.95 -19.1,10 -6.9,-10.3 -3.55,-6.8 20.1,-17.9 1.2,-1.95 15.55,2.5 2.45,8.15 0.15,6.4 z"
       id="relation/18447561"
       style="fill:#b5d29f;fill-opacity:1;stroke:#cccccc;stroke-width:1.5;stroke-dasharray:1.5, 3;stroke-dashoffset:0;stroke-opacity:1;paint-order:markers fill stroke" />
    <path
       d="m 280.43,222.26 3,6.05 -6.95,5.1 -1.05,1.75 0.25,1.05 1.45,1.5 h 1.15 l 1.1,13.7 1.15,-0.05 v 0.45 l 0.3,3.95 0.3,3.8 0.25,3.85 0.3,3.8 0.85,11.55 -51.2,3 -5.3,9.5 -1.15,4.9 -3,10.65 -2.25,9.2 2.25,13.25 v 1.85 l -0.85,1.15 -2.8,0.3 -1.1,0.95 -0.9,2.45 -2.6,4.1 -1.55,1.7 -10.65,4.1 -3.3,2.7 -5.15,6.85 -8.3,5.9 -24.15,24.6 -1.95,2.45 -0.4,4.8 0.3,8.75 1.4,4.1 6.45,7.25 4.65,6.65 8.95,2.2 4.15,1.2 -0.05,6.2 -15.55,13.45 -5.7,8.5 -3.7,10.05 -8.05,0.05 -5.85,1.5 -4.65,-4.45 -2.2,8.85 -8,2.25 -1.9,-10.05 -8.45,-6.05 -7.15,-5.3 -2.2,-3.2 -7.2,-9.5 -3.6,-4.25 -2.55,-2.7 -5.45,-2.15 -5.55,-1.45 -5.95,-3.5 -4.7,-0.65 -2.45,-6.4 1.65,-9.15 4.15,-9.4 0.05,-7.1 -2.05,-28.85 -0.6,-42.2 -1.25,-40.25 5.45,-8.95 5.65,-1.6 11,-3 15.45,-6.7 12.05,-3.4 7,-3.5 3.3,-0.75 2.7,0.45 2.55,1.2 1.75,2.05 0.8,2.2 0.9,13.15 0.9,1.7 1.65,1.35 2.3,-0.35 3.75,-4.05 2.8,-2.75 3.9,-1.3 11.55,-5 4.9,-0.75 5.4,-1.15 6.4,-2.85 12.2,-6.25 10.1,-7.8 1.2,-0.7 0.6,-7.1 7.4,-8.65 3.6,-5.8 2.3,-4.2 4.1,-7.85 7.65,-4.05 19.1,-10 8.1,-4.95 1.35,-0.55 1,3.85 1.35,6.8 4.8,9 0.5,1.3 z"
       id="relation/18447562"
       style="fill:#b383b3;fill-opacity:1;stroke:#cccccc;stroke-width:1.5;stroke-dasharray:1.5, 3;stroke-dashoffset:0;stroke-opacity:1;paint-order:markers fill stroke" />
    <path
       d="m 427.43,244.36 0.95,5.4 -2.55,3.6 0.2,2.5 1.9,6.25 6.15,5.05 7.4,3.85 4.9,5.95 0.15,5.2 1.35,11.05 2.2,13.2 6.05,25.15 -4.05,21.25 8.9,19.9 -1.85,19.6 -5.1,8.9 -11.75,-4.5 -12.55,9.1 -13.15,5.25 -8.35,1.65 -22.25,-2.5 -15.15,1.4 -17.7,-7.85 -6.45,-3.75 -6.8,2.85 -6.75,0.05 -5.35,5.7 -1.95,11.75 -4.05,-6.45 -5.2,-1.25 -6.55,-4.05 -13.05,-2.4 -3.25,7.35 -2.95,4.45 2.9,9 2,2.75 -5.05,7.8 -15.6,7.7 -10.3,3.75 -2.2,4.95 -5.85,8.8 -15.45,2.85 -14.05,5 -25.15,48.25 -8.15,-2.1 -16.15,-13.25 -2.65,-11.35 -9.6,-4.7 -3.9,-11.8 -2.5,-14.15 3.7,-10.05 5.7,-8.5 15.55,-13.45 0.05,-6.2 -4.15,-1.2 -8.95,-2.2 -4.65,-6.65 -6.45,-7.25 -1.4,-4.1 -0.3,-8.75 0.4,-4.8 1.95,-2.45 24.15,-24.6 8.3,-5.9 5.15,-6.85 3.3,-2.7 10.65,-4.1 1.55,-1.7 2.6,-4.1 0.9,-2.45 1.1,-0.95 2.8,-0.3 0.85,-1.15 v -1.85 l -2.25,-13.25 2.25,-9.2 3,-10.65 1.15,-4.9 5.3,-9.5 51.2,-3 -0.85,-11.55 -0.3,-3.8 -0.25,-3.85 -0.3,-3.8 -0.3,-3.95 v -0.45 l 74.2,-3.65 10.35,-0.15 3.95,-0.35 10.6,-1 11.8,-1.7 8.7,-2.25 10.05,0.9 4.45,0.2 z"
       id="relation/18447563"
       style="fill:#71b37b;fill-opacity:1;stroke:#cccccc;stroke-width:1.5;stroke-dasharray:1.5, 3;stroke-dashoffset:0;stroke-opacity:1;paint-order:markers fill stroke" />
    <path
       d="m 280.43,222.26 5.55,-1.85 3.5,-4.1 1.15,-4.35 7.8,-4.45 4.2,-1.65 0.75,-1.15 -0.05,-7.75 0.4,-1.1 -1.65,-5.9 8.55,-0.9 9.1,-1.8 h 2.8 l 2.9,0.85 6,3.35 10.45,2.8 6.2,3 -0.4,11.7 -1.35,8.9 28.95,3.75 -1.35,7.45 -3.2,10.55 0.15,3.05 -1.85,4.55 -3.95,0.35 -10.35,0.15 -74.2,3.65 -1.15,0.05 -1.1,-13.7 h -1.15 l -1.45,-1.5 -0.25,-1.05 1.05,-1.75 6.95,-5.1 z"
       id="relation/18447564"
       style="fill:#8a84a3;fill-opacity:1;stroke:#cccccc;stroke-width:1.5;stroke-dasharray:1.5, 3;stroke-dashoffset:0;stroke-opacity:1;paint-order:markers fill stroke" />
    <path
       d="m 369.03,247.21 1.85,-4.55 -0.15,-3.05 3.2,-10.55 1.35,-7.45 -28.95,-3.75 1.35,-8.9 0.4,-11.7 -6.2,-3 -10.45,-2.8 -6,-3.35 -2.9,-0.85 h -2.8 l -9.1,1.8 -8.55,0.9 1.65,5.9 -0.4,1.1 0.05,7.75 -0.75,1.15 -4.2,1.65 -7.8,4.45 -1.15,4.35 -3.5,4.1 -5.55,1.85 -7.8,-15.65 -0.5,-1.3 -4.8,-9 -1.35,-6.8 -1,-3.85 3.55,-3.1 0.55,-0.95 4.55,1.95 4.2,0.75 7.2,0.3 h 4.25 l 2.55,-2.45 2.5,-1.05 3.05,-0.45 3.15,-0.85 1.4,-1.3 2.55,-4.45 1.8,-1.4 13.3,1.2 2.6,-6.25 3.2,-4.8 9.05,-1.6 h 3.7 l 2.55,-5.15 0.2,-6 0.75,-8.75 1.25,-6.15 1.7,-6.8 1.5,-4.05 0.5,-3.1 2.4,0.05 1.25,-8.7 -0.1,-2.15 2.3,0.5 3.85,1.8 4,1.35 0.5,-0.05 2.1,-2 3.05,1.25 3.9,0.5 1.25,-0.4 1.25,-4.25 3.7,-0.85 0.65,-1.95 -1.35,-4 -1.45,-1.25 -1.45,-1.75 0.25,-2.85 -1.05,-3.45 0.55,-0.95 3.8,0.8 3,0.05 2.15,-3.35 2.85,0.75 2.1,2.7 1.95,-2.4 2.25,-1.95 1.8,0.1 40.55,3.4 -0.25,3.9 -1.4,9 4,0.55 0.8,16.7 -0.35,12.65 0.6,5.45 2.05,1.4 2.65,1.1 v 5.45 l 8.15,0.3 8.8,0.3 4.6,-1.55 4,-2.45 12.45,-10 13.9,-9.85 25.55,-12.75 6.05,7.95 1.8,5.05 0.5,5.15 2.7,3.65 -11.4,3.35 -1.05,1.95 1.15,4.1 -0.7,3.25 -3.45,2.05 -5.05,3.6 -1,2.2 -6.45,5.1 -3.55,2.15 -5.05,2.05 -6,2.75 -4.3,1.95 -5.9,4.3 -7.5,3.15 -2.65,1.9 -2.65,3.75 -3.4,3 -1.95,5.25 -2.35,7 8.75,1.25 -2.85,4.95 -1.85,1.6 0.85,4.45 -3.15,3.3 -2.55,3.9 -2.3,1.75 -4.85,2.55 -2.4,3.75 -2.3,1.9 -3.6,4.85 -1.8,2.5 -1.7,4.55 -1.05,4.95 -2.4,0.95 -5.35,0.15 -12.8,-1 -4.45,-0.2 -10.05,-0.9 -8.7,2.25 -11.8,1.7 z"
       id="relation/18447565"
       style="fill:#d09440;fill-opacity:1;stroke:#cccccc;stroke-width:1.5;stroke-dasharray:1.5, 3;stroke-dashoffset:0;stroke-opacity:1;paint-order:markers fill stroke" />
    <path
       d="m 352.43,110.91 -2.3,-0.5 0.1,2.15 -1.25,8.7 -2.4,-0.05 -0.5,3.1 -1.5,4.05 -1.7,6.8 -1.25,6.15 -0.75,8.75 -0.2,6 -2.55,5.15 h -3.7 l -9.05,1.6 -3.2,4.8 -2.6,6.25 -13.3,-1.2 -1.8,1.4 -2.55,4.45 -1.4,1.3 -3.15,0.85 -3.05,0.45 -2.5,1.05 -2.55,2.45 h -4.25 l -7.2,-0.3 -4.2,-0.75 -4.55,-1.95 -0.55,0.95 -3.55,3.1 0.45,-4.4 -0.15,-6.4 -2.45,-8.15 -1,-2.15 4.45,-5.25 3,-3.7 -0.45,-5.35 1.2,-1.75 0.85,-2.8 -1.1,-5.4 6.4,-1.3 -1,-6.3 -0.45,-4.9 -2.7,-2.95 -3.05,-1.4 -2.65,-1.15 1.1,-3.15 0.3,-1.6 0.15,-2.75 -0.25,-2.45 2.3,-1.7 2.6,-2.3 3.95,-1.75 4.85,-4.05 3.2,-3.6 1.8,-3.35 2.7,-6.35 1.35,-3.7 6.1,3.9 -0.05,-1.1 4.2,-6.7 4.5,-4 6.3,-5.05 6.9,-11.35 -13.55,-8.6 -4.2,-7.75 -3.65,-3.45 2.45,-12.3 0.65,-5.9 3.85,-1.55 6.5,0.45 10.2,1.05 4.35,0.85 3.95,0.8 3.5,-0.55 6.1,7 5.15,-3.35 2.6,-4.6 2.05,-1.5 2.75,-0.4 2,0.45 2,1.55 1.15,5.25 3.85,1.75 -0.1,1.8 -0.65,2.9 5.25,9.45 7.6,-6.3 21.15,14.65 -0.4,1.65 -3.3,8.05 -1.8,3.15 -5.75,9.45 -8.05,5.5 -3.95,4.05 -4.3,3.45 -7.1,3.65 -1.75,1.75 -6.35,5.5 2.8,2.05 0.05,4.2 z"
       id="relation/18447566"
       style="fill:#578e86;fill-opacity:1;stroke:#cccccc;stroke-width:1.5;stroke-dasharray:1.5, 3;stroke-dashoffset:0;stroke-opacity:1;paint-order:markers fill stroke" />
    <path
       d="m 165.33,-11.29 -0.3,-5.2 1.5,-4.15 4.15,-13.7 1.45,-15.9 2.05,-8.2 -2.95,-2.15 -6.85,-0.7 -6.45,-6.85 -4.3,-7.85 -0.55,-6.4 1.15,-9.4 -0.1,-6.45 -4.9,-0.75 -4.55,-6.8 -0.25,-6.25 13.55,0.05 3.4,-1.65 10.75,-6.9 4.55,-2.85 11.75,-3.85 16.1,-5.5 16,-3.95 4.05,-0.35 5.15,1.45 4.3,3.1 9.65,5.8 12.35,3.4 10.6,3.05 7.1,0.5 5.2,-56.9 2.55,-30.9 2.25,-24.4 -1.3,-0.9 3.25,-50.8 2.3,-7.55 -4,-1.1 -5.65,0.45 -8.35,0.65 -5.05,-4.3 -8.35,-4.2 -4.6,-1.55 -3.35,0.1 -0.3,-6.35 0.9,-2.85 4.35,-7.05 20.15,-5.35 2.7,-5.35 2.75,-5.45 6.55,-2.4 20.4,1.95 6.9,0.9 11.1,6.1 7,8.5 15.65,6.1 7.95,2.15 7.5,2.95 2.5,-0.3 1.1,-3.75 2.3,-9 4.1,-4.25 5.3,0.35 7.5,4 3.5,-0.4 7.6,-1.9 6.15,0.65 6.7,0.75 4.4,-1.15 3.75,0.3 1.4,3.45 0.05,4.05 -2.45,4.55 2.5,9.7 -4,1.9 -1.2,2.65 0.6,2.9 6.75,2.7 2.25,2.2 0.05,2.75 -0.85,7.7 -0.65,5.85 -3.25,7.25 -2.6,4 0.3,4.35 -0.8,6.6 -0.35,6.45 -3.95,6.45 0.6,3.7 2.15,8.5 1.3,4.4 1.25,0.5 2.3,-1.15 1.95,-0.45 1.8,-1.2 4.9,1.05 3.35,3.35 1,3.65 v 1.9 l -1.45,5.05 -1.65,5.15 -0.85,0.7 -5.8,-0.2 -3,1.75 -4.6,-1.45 -6.55,-1.4 -2.75,2.4 2.45,0.9 0.8,4.25 1.95,2.75 -0.1,1.05 -1.9,3.85 0.35,1.45 -2.7,1.8 -2.15,3 -1.65,1.9 1.75,4.6 -1,2.25 -0.5,1.95 2.05,0.6 2.3,1 0.9,1.6 1.7,0.9 v 0.75 l 0.05,1.2 -1.15,1.9 -0.3,2.65 -0.25,6.25 -0.05,1.55 0.15,2.9 0.45,4.4 -0.2,1.95 -0.7,1.2 -1.05,0.95 -0.55,0.55 0.95,1.95 1.05,2.1 2.35,3.3 0.7,2.15 1.9,1.4 3.35,1 2.3,-0.05 1.65,0.55 0.8,1.65 0.3,1.85 0.3,0.55 1.55,1.9 2.25,5.9 -0.45,2.05 -0.3,2.25 -0.6,1.55 0.5,1.45 0.95,0.25 4.75,0.95 -0.1,1.65 v 16.95 l -0.55,1.4 -0.85,0.85 -2.85,0.95 -1.25,1.95 -0.8,3.35 0.9,2.3 v 1.85 l -0.2,3.45 1.65,3.2 5.65,-0.2 1.1,1.6 -2.35,3.9 0.15,1.15 1.45,0.55 4.45,-0.3 2,0.65 3.05,-0.45 4.45,2.2 5.35,4.35 1.9,2.55 0.7,3.45 0.15,1.3 0.6,1.05 3.55,-0.15 1.55,0.1 0.25,1.7 1.4,0.85 1.1,0.95 0.6,1.6 -0.6,2.1 -0.05,2 0.55,0.75 1.9,1.3 1.55,0.7 3.35,3.6 3.4,4.2 2.9,5 1.85,-0.85 h 2.8 l 1.2,1.3 0.8,0.95 2.3,0.6 4.05,-1.2 2,-1.7 1.1,-4.95 1.65,-1.7 2.8,-0.75 1.5,1.05 2.6,0.15 2.2,-0.75 2.15,-1.5 5.65,-3.4 4.85,-1.1 1.6,-2.2 3.25,-1.95 3.75,-0.25 1.45,2.15 -0.15,2.25 -2.1,13.15 -0.95,3.75 -2.5,4.55 -0.8,1.55 0.45,1.35 0.4,2.15 0.25,2.1 -0.6,1.9 -1.05,2.95 -0.9,1.45 -1.2,1.55 -3.35,1.9 -2.5,2.35 -1.6,1.85 v 2.3 l -0.2,2.65 1.2,1.3 2.55,0.95 3.1,0.35 1.55,0.6 2.35,1.4 0.8,1.85 -0.5,1.65 -1.95,3.55 -0.55,5.25 1.35,3 -1.35,2.05 -0.85,2.7 -4,-0.7 -1.9,2.95 -2.65,5.2 -0.55,3.55 0.65,6.5 -0.1,5 -6.3,4.8 -1.9,3.2 5.85,12.25 4.75,4.9 4.95,4 6.4,8.45 1.05,5.05 -1.35,3.9 -3.15,4.25 0.1,3.75 -25.55,12.75 -13.9,9.85 -12.45,10 -4,2.45 -4.6,1.55 -8.8,-0.3 -8.15,-0.3 v -5.45 l -2.65,-1.1 -2.05,-1.4 -0.6,-5.45 0.35,-12.65 -0.8,-16.7 -4,-0.55 1.4,-9 0.25,-3.9 -40.55,-3.4 -1.8,-0.1 -2.25,1.95 -1.95,2.4 -2.1,-2.7 -2.85,-0.75 -2.15,3.35 -3,-0.05 -3.8,-0.8 -0.55,0.95 1.05,3.45 -0.25,2.85 1.45,1.75 1.45,1.25 1.35,4 -0.65,1.95 -3.7,0.85 -1.25,4.25 -1.25,0.4 -3.9,-0.5 -3.05,-1.25 -2.1,2 -0.5,0.05 -4,-1.35 -3.85,-1.8 0.95,-5.5 -0.05,-4.2 -2.8,-2.05 6.35,-5.5 1.75,-1.75 7.1,-3.65 4.3,-3.45 3.95,-4.05 8.05,-5.5 5.75,-9.45 1.8,-3.15 3.3,-8.05 0.4,-1.65 -21.15,-14.65 -7.6,6.3 -5.25,-9.45 0.65,-2.9 0.1,-1.8 -3.85,-1.75 -1.15,-5.25 -2,-1.55 -2,-0.45 -2.75,0.4 -2.05,1.5 -2.6,4.6 -5.15,3.35 -6.1,-7 -3.5,0.55 -3.95,-0.8 -4.35,-0.85 -1.15,-8.8 -6,-13.5 -1.6,-24.65 -27.95,-3.65 -23.35,4.8 -7.6,5.9 -6.7,10.7 -2.75,11.2 -7.05,17 -3,2.8 -12.15,-5.3 -2.05,2.55 -22.75,-9.65 -11,-0.6 -6.85,0.45 -3.55,-21.5 z"
       id="relation/18447567"
       style="fill:#2c89a0;fill-opacity:1;stroke:#cccccc;stroke-width:1.5;stroke-dasharray:1.5, 3;stroke-dashoffset:0;stroke-opacity:1;paint-order:markers fill stroke" />
    <path
       d="m 165.33,-11.29 -10.85,3.5 -10.25,0.15 -12.6,5.5 4.7,12.75 1.45,2.4 2.8,1.75 1.95,1.7 1.4,1.5 9.85,19.95 -6.3,2.95 -5.45,-1.2 -11.3,-1.95 -7.3,2.65 -6.9,-3.85 -9.1,-0.6 -7.85,1.4 -6.55,-0.65 -7.4,2.9 -4.85,2.85 -5.15,4.3 -3.75,6 1.6,14.25 1.5,5.35 -2.65,-0.45 -8.75,-0.85 -19.35,3.4 -46.1,6.75 -16.6,1.25 -10.6,-76.4 65.05,-8.3 -1.25,-13.25 2.95,-1.5 3.45,-1.7 5.35,-1.4 2.4,-1.25 2,-3.05 0.05,-1.95 1.65,-1.5 2.5,-0.85 0.7,-2.2 -1.95,-2.25 -0.6,-2.05 2.15,-1.75 -2.4,-2 3.65,-6.6 -0.4,-3.55 -1.3,-4.05 0.25,-2.25 1.7,-0.3 2.95,0.4 0.85,-1.3 2.05,-7.4 2.05,0.9 15.75,5.8 9.35,4.3 11.95,4.95 4.65,-0.5 -6,-10.9 4.9,-0.7 -0.1,-4.6 1.7,-2.55 0.4,-6.15 -0.05,-7.65 v -9.9 l 1.35,-6.5 2.8,-5 -3.7,-1.6 5.6,-7.75 1.75,-2.5 17.5,0.9 11.8,1.45 0.25,6.25 4.55,6.8 4.9,0.75 0.1,6.45 -1.15,9.4 0.55,6.4 4.3,7.85 6.45,6.85 6.85,0.7 2.95,2.15 -2.05,8.2 -1.45,15.9 -4.15,13.7 -1.5,4.15 z"
       id="relation/18739479"
       style="fill:#4f93c0;fill-opacity:1;stroke:#cccccc;stroke-width:1.5;stroke-dasharray:1.5, 3;stroke-dashoffset:0;stroke-opacity:1;paint-order:markers fill stroke" />
    <path
       d="m -80.17,-90.09 40.3,-3.65 13.45,-5.5 23.85,-12 4.45,-1.75 6.55,1.1 16.7,9.9 7.65,1.95 7.15,2.1 6.25,-0.9 4.9,1.5 6.9,9 3.3,6.8 1.8,4.9 2,2.8 2.45,1.25 -5.05,4.2 -0.5,2.8 0.75,1.55 -2.05,7.4 -0.85,1.3 -2.95,-0.4 -1.7,0.3 -0.25,2.25 1.3,4.05 0.4,3.55 -3.65,6.6 2.4,2 -2.15,1.75 0.6,2.05 1.95,2.25 -0.7,2.2 -2.5,0.85 -1.65,1.5 -0.05,1.95 -2,3.05 -2.4,1.25 -5.35,1.4 -3.45,1.7 -2.95,1.5 1.25,13.25 -65.05,8.3 10.6,76.4 -51.3,7.15 6.15,-17.2 -1.15,-29.7 -7.1,-18.3 -7.6,-15.35 9.4,-26.15 -7.45,-13.65 -5.8,-43.65 z"
       id="relation/18739480"
       style="fill:#69999f;fill-opacity:1;stroke:#cccccc;stroke-width:1.5;stroke-dasharray:1.5, 3;stroke-dashoffset:0;stroke-opacity:1;paint-order:markers fill stroke" />
    <path
       d="m 248.63,-301.14 3.35,-0.1 4.6,1.55 8.35,4.2 5.05,4.3 8.35,-0.65 5.65,-0.45 4,1.1 -2.3,7.55 -3.25,50.8 1.3,0.9 -2.25,24.4 -2.55,30.9 -5.2,56.9 -7.1,-0.5 -10.6,-3.05 -12.35,-3.4 -9.65,-5.8 -4.3,-3.1 -5.15,-1.45 -4.05,0.35 -16,3.95 -16.1,5.5 -11.75,3.85 -4.55,2.85 -10.75,6.9 -3.4,1.65 -13.55,-0.05 -11.8,-1.45 -17.5,-0.9 -1.75,2.5 -5.6,7.75 3.7,1.6 -2.8,5 -1.35,6.5 v 9.9 l 0.05,7.65 -0.4,6.15 -1.7,2.55 0.1,4.6 -4.9,0.7 6,10.9 -4.65,0.5 -11.95,-4.95 -9.35,-4.3 -15.75,-5.8 -2.05,-0.9 -0.75,-1.55 0.5,-2.8 5.05,-4.2 -2.45,-1.25 -2,-2.8 -1.8,-4.9 -3.3,-6.8 -6.9,-9 -4.9,-1.5 -6.25,0.9 -7.15,-2.1 -7.65,-1.95 -16.7,-9.9 -6.55,-1.1 -4.45,1.75 -23.85,12 -13.45,5.5 -40.3,3.65 7.15,-41.15 -7.1,-40.1 -3.1,-9.85 9.45,-53.7 58.2,-56 85.05,-78.85 48.85,27.6 35.85,19.7 61.3,19.75 2.6,54.4 16.5,2.85 8.25,-0.7 3,-1.7 1.8,-1.3 1.05,-16.85 z"
       id="relation/18739481"
       style="fill:#d56d76;fill-opacity:1;stroke:#cccccc;stroke-width:1.5;stroke-dasharray:1.5, 3;stroke-dashoffset:0;stroke-opacity:1;paint-order:markers fill stroke" />
  </g>
  <g
     inkscape:groupmode="layer"
     id="layer5"
     inkscape:label="mil"
     style="fill:url(#pattern432);fill-opacity:1;stroke:#d35f5f;stroke-opacity:1;stroke-width:1;stroke-dasharray:none"
     transform="translate(377.74978,488.13251)">
    <path
       d="m 288.03,-112.44 8.95,-1.1 9.55,-5.75 4.4,-0.05 2.2,66.85 -16.85,0.65 -1.2,4.4 -7.9,-1.15 -13.45,-2.05 -18.75,-3.6 13.5,-16.4 6.9,3.05 6.55,0.3 4.35,-6.8 2.05,-5.3 2,-7.25 -0.1,-3.15 -3.55,-0.75 1.9,-8.25 z"
       id="way/263913064"
       style="opacity:1;fill:url(#pattern435);fill-opacity:1;stroke:#d35f5f;stroke-width:1;stroke-opacity:1;stroke-dasharray:none" />
    <path
       d="m 285.58,-274.24 -3.65,41.55 1.5,1.4 -1,12.05 -1.2,14.85 -1.5,11.55 -0.15,6.8 -0.65,8.5 -2.5,0.7 -0.4,1.2 2,4.95 -4.5,50.7 -13.8,-3.5 -13.75,-3.9 -11,-7 -5.05,-3.35 -3.4,-1 -5.45,0.3 -4.95,1.15 -10.1,3.4 -21.2,5.6 -6.55,2.15 -3.1,1.35 -6.35,5.15 -4.45,2.4 -5.35,2.6 -3.45,1.25 -3.45,0.15 -5.25,-0.25 -9.1,-2.95 -6.05,2.4 -11.2,-0.6 0.05,-3.05 0.15,-7.05 -0.1,-2 0.25,-1.6 v -8.1 l -2,-7.35 -0.75,-2.85 -0.7,-0.85 -6.55,-2.5 -1.6,-1.5 -2.95,-2.65 4.5,-1.45 5.4,-1.7 4.75,-5.4 0.4,-0.55 0.9,-0.9 3.5,-5.7 2.65,-2.95 7.1,-4.35 2.65,-0.4 10.2,-1.05 h 3.45 l 2.8,0.65 1.9,0.9 1.55,0.5 2.6,0.1 3.4,-1.15 2.3,-1.25 2.5,-0.9 7.65,-6.3 19.45,-6.55 7.85,-11.25 -1.75,-6.65 2.1,-5.95 2.6,-2.55 7.85,-1.3 3.55,-0.8 21.4,-4.85 24.3,-5.25 3.2,-21.8 1.55,-17.7 z"
       id="way/1220992897"
       style="opacity:1;fill:url(#pattern436);fill-opacity:1;stroke:#d35f5f;stroke-width:1;stroke-opacity:1;stroke-dasharray:none" />
    <path
       d="m 75.48,277.81 4.85,-8.5 2.4,-0.95 4.15,-0.95 9.55,-2.15 17.1,-7.65 9,-2.55 8.95,-3.75 3.8,-1.25 3.5,1.2 3.75,5.05 0.75,14.15 5.5,1.7 8.05,-7.05 15,-6.45 8.15,-1.45 12.65,-5.35 1.7,2.35 1.75,0.25 -1.1,3.45 -2.1,7.1 0.9,0.2 6.6,3.65 -9,12.4 1.5,4.15 -20.8,9.85 -18.1,14.85 -5.25,5.45 -5.5,6.8 -1.8,0.7 -7.7,-5.4 -12.9,2.85 -41.55,3.35 z"
       id="way/1220993452"
       style="opacity:1;fill:url(#pattern437);fill-opacity:1;stroke:#d35f5f;stroke-width:1;stroke-opacity:1;stroke-dasharray:none" />
    <path
       d="m 492.23,125.81 -4.9,3.55 -3.75,3.1 -10.1,7.05 -9.3,7.15 -4.1,1.35 -18.6,-0.2 0.05,-5.25 -4.75,-2.75 -0.55,-2.6 0.1,-14.95 -0.45,-7.9 -1.75,-18.05 0.4,-2.2 0.8,-4.15 1.2,-2.5 0.05,-4.4 1.25,-5.6 2.3,-0.3 1,-2.55 6.25,-14.65 3.15,-8 9.65,-2.4 1.9,-0.6 2.75,-1.5 2.5,-2.85 8.7,-8.4 3.35,1.15 2.55,0.35 0.25,4.25 5.25,0.45 0.6,3.1 11.85,1.35 3.8,0.5 h 2.15 l 3.45,3.95 3.25,0.5 6.1,0.85 -3.65,5.55 -5.6,0.45 h -1.05 l -1.95,3.6 -6.75,1.8 -1.65,0.3 -0.65,4.45 -3.45,9.5 2.45,2.1 4.8,3.85 1.6,2.75 1.15,2.45 2.3,0.7 3.9,1 3.9,1.35 1.8,1 1.5,2.25 1.45,0.85 2.05,0.5 0.3,0.8 1.95,3.25 -0.15,1.85 0.15,1.65 0.3,0.7 2.1,0.65 3.35,0.5 0.7,0.35 2,1.9 0.3,1.4 -0.1,1.4 -1,1.45 -1,2.45 v 1.35 l -0.8,1.35 -2.75,1.15 -1.85,1.55 -6.35,-8 -5.15,1.8 z"
       id="way/1237301886"
       style="opacity:1;fill:url(#pattern439);fill-opacity:1;stroke:#d35f5f;stroke-width:1;stroke-opacity:1;stroke-dasharray:none" />
    <path
       d="m 341.58,312.06 1.8,-0.2 2.6,2.1 2.5,1.05 1.15,0.65 2.4,1.75 4.45,2.95 6.05,0.5 11.4,-1.95 7.5,-1.65 5.85,8.05 9.25,12.75 8.85,3.15 2.85,-1.15 1.6,-1.4 1.25,1.05 -7.5,14.4 4.75,4.8 -6.1,18.65 5.05,7.15 3.8,11.8 1.85,16.8 -1.6,0.75 -5.6,-2.8 -4.1,-0.6 -5.2,-1.3 -5.4,-0.35 -3,0.7 -5.7,-0.55 -3.7,0.65 -1.9,1.6 -3.35,-1 -4.5,-0.9 -3.3,-1.3 -3.3,-0.85 -2.55,-1.15 -5.25,-3.6 -2.1,-1.5 -3,-1.45 -2.5,0.2 -2.85,-1.1 -0.85,-0.8 -2.35,-2.35 -5.65,-5.65 -0.55,-0.65 -1.4,-1.75 -1.3,-2.15 -1,-0.85 -3.25,-1.7 -2.6,-1.75 -1,-0.85 -0.35,-2.65 0.4,-1.95 -0.35,-1.95 1.4,-1.25 0.4,-0.9 1.25,-2.85 0.3,-1.8 -0.7,-0.65 -0.75,-0.55 -1,-1 -0.9,-1.5 -0.1,-1.5 0.5,-1 1.05,-0.8 1.4,-0.65 0.5,-2.05 -0.55,-0.8 -0.5,-0.55 0.15,-1.25 0.2,-1.2 0.1,-1.1 -0.1,-1.05 0.35,-1.45 0.15,-1.55 -0.25,-2.15 -0.05,-1.1 -1.75,-2.55 -0.45,-2.65 0.55,-1.7 0.3,-1.15 0.2,-1.5 -0.85,-1.75 -1.2,-0.5 -1.35,-0.55 -0.25,-0.8 -1.25,-3.45 -3.35,-1.6 -2.35,-2.25 -1.1,-2 -2.15,-1.65 -1.75,-1.15 -2.55,-2.45 7.3,-3.2 h 2.35 l 1.35,0.75 1.55,2 z"
       id="way/1237301887"
       style="opacity:1;fill:url(#pattern440);fill-opacity:1;stroke:#d35f5f;stroke-width:1;stroke-opacity:1;stroke-dasharray:none" />
    <path
       d="m 45.88,-263.94 31.65,11.35 -4.15,14.45 -1.05,9.95 -2.15,24.25 -0.15,0.35 -0.7,1.8 -12.05,12.9 -8.5,6.85 -9.75,12.05 -11.8,13.4 -9.35,-5.5 -3.6,-1.15 -18.25,-5.7 17.8,-30.2 7.75,-12.1 3.6,-5.6 7.45,-4.25 -0.35,-5.3 -3.1,-7.5 2.3,-3.55 z"
       id="way/1237316194"
       style="opacity:1;fill:url(#pattern441);fill-opacity:1;stroke:#d35f5f;stroke-width:1;stroke-opacity:1;stroke-dasharray:none" />
    <path
       d="m 77.53,-252.59 -31.65,-11.35 -3.3,-4.15 -5.4,-12.35 -1.05,-8.95 6.65,-37.95 2.7,-7.95 7,-9.7 20.1,-9.95 6.7,-3.25 -0.8,-13.6 9.8,-1.8 15.4,1.8 4.25,-20.3 0.4,-1.9 2.85,-12.9 17.5,0.35 17.4,6.2 5.85,-7.4 8.7,7.05 15,13.25 -3.45,24.75 -1.75,5.8 -1.25,2.95 -7.05,10.95 -10.65,16.75 -8.25,14.4 -2.1,4.7 -1.5,1.65 -5.9,2.85 -10.15,11.15 -7,7 -6.6,16.2 -1.3,2.35 -2.85,1.35 -25.4,8.35 z"
       id="way/1237316195"
       style="opacity:1;fill:url(#pattern442);fill-opacity:1;stroke:#d35f5f;stroke-width:1;stroke-opacity:1;stroke-dasharray:none" />
    <path
       d="m 72.03,-205.74 0.7,-8.25 1.7,-18.85 0.6,-4.15 4.85,-13.4 0.8,-2.35 1.65,-1.4 24.4,-8.65 2.7,-1.1 1.25,-1 2.6,-6.4 4.85,-1.9 18.7,-4.55 14.3,1.15 15.95,3.7 0.1,2.95 1.35,5.95 -2.9,5.2 -1.3,5.4 -2.9,6.65 0.5,4.7 2.4,4.65 4.2,3.2 3.55,3.15 1.25,5.95 -2.3,9.1 -1.35,4.65 -2.15,1.25 -8.6,2.8 -15.7,2.35 -7.75,-0.5 -4.35,0.75 -4.05,1.25 -2.95,0.85 -4.75,-0.5 -3.95,1 -16.35,-0.05 -11.45,-1.05 -12.4,-0.75 -2.5,-0.55 z"
       id="way/1237316196"
       style="opacity:1;fill:url(#pattern443);fill-opacity:1;stroke:#d35f5f;stroke-width:1;stroke-opacity:1;stroke-dasharray:none" />
    <path
       d="m 300.28,-282.79 12.25,-16.4 -7.65,-3.3 -3,-3.5 12.45,-7 9.2,-0.8 14,3.8 11.25,5.5 11.6,2 1.45,3.6 -5.25,8 -0.65,8.95 -1.75,20.75 0.1,1.55 1.4,9.7 -0.35,3.7 1.65,3.6 3.85,3.45 2.3,2.05 0.85,3.2 -0.85,3.15 2.45,4.95 -2.95,5.9 0.9,7.1 0.15,1.25 2.55,3.6 1.25,5.25 0.45,1.75 -0.25,6.2 -1.15,7.9 1.2,5.1 -1.45,10.9 -13.7,-0.3 -2.2,0.75 -0.9,1.7 1.45,5.4 -0.25,3.25 -0.1,1.15 0.2,1.6 -1.6,1.25 -1.95,-0.15 -1.1,1.25 -0.75,3.6 -1.4,-0.25 -0.3,0.4 -1.85,0.75 -4.65,-6.75 -4.1,1.15 0.55,4.1 0.7,1.65 1.8,1.4 1.45,1.3 0.15,2.8 -0.75,3.45 -6,1.1 -0.95,12.8 0.9,3.75 v 0.85 l -5.85,0.7 -3.4,-0.5 -3.5,0.35 -6.7,0.45 -6.25,0.65 -2.6,1.2 -4.25,2.75 -4.45,1.75 -2.95,0.7 -1.1,-0.3 13.6,-29 -4.05,-0.75 -0.05,-4.65 -10.5,-5.05 -1.05,-0.25 2.1,-22.4 h -0.65 l 1.05,-14.1 3.45,-31.55 2.4,-17.25 1.5,-15.8 0.95,-11.8 0.7,-2.85 z"
       id="way/1266794829"
       style="opacity:1;fill:url(#pattern444);fill-opacity:1;stroke:#d35f5f;stroke-width:1;stroke-opacity:1;stroke-dasharray:none" />
    <path
       d="m 262.28,26.06 -4.7,-2.2 -1.15,-1.4 -0.3,-1.95 1.2,-2.25 2.6,-1.4 2.95,-2.65 3.65,2.05 z"
       id="way/1266794830"
       style="opacity:1;fill:url(#pattern445);fill-opacity:1;stroke:#d35f5f;stroke-width:1;stroke-opacity:1;stroke-dasharray:none" />
    <path
       d="m 290.13,25.56 -1.95,-13.95 -1.65,-26.2 2.85,-4.15 -2.85,-5.6 -0.8,-2.65 -0.55,-1.8 0.75,-0.9 7.25,1.7 10.5,1.65 6.65,1.5 2.3,0.5 -0.5,17.4 0.55,7.6 2.8,7.5 3.75,6.75 1.25,7.6 -8.05,0.95 -1.2,-2.8 -11.8,0.35 0.05,2.6 -4.6,0.95 z"
       id="way/1266794831"
       style="opacity:1;fill:url(#pattern446);fill-opacity:1;stroke:#d35f5f;stroke-width:1;stroke-opacity:1;stroke-dasharray:none" />
    <path
       d="m 278.13,-15.39 -6.1,1.3 -0.65,-5.85 6.6,-0.35 z"
       id="way/1266794832"
       style="opacity:1;fill:url(#pattern447);fill-opacity:1;stroke:#d35f5f;stroke-width:1;stroke-opacity:1;stroke-dasharray:none" />
    <path
       d="m 161.98,-60.74 -9.1,-14.3 -0.9,-2.35 1.4,-17.75 0.65,-3.55 -5.15,-0.25 -3.15,-5.45 -1.3,-2.25 0.5,-5.05 h 2.05 l 11.55,-0.1 7,-4.2 11.9,-7.15 5,-2.45 20.75,-6.55 19.9,-4.7 1.1,0.15 6.5,2.3 6.45,4.7 7,3.2 18.95,5.2 3.7,1.35 2.45,2.75 0.4,2.5 -0.1,9.6 1.3,2.5 3.1,1 6.95,0.45 5.5,2.7 -0.95,4.65 -4.25,7.3 -7,8.25 -13.5,14.65 -6.65,8.3 -35.45,0.75 -4.75,0.5 -9.1,2.6 -5.85,1.55 -3.85,-0.4 -17,-1.2 -4.35,-0.35 0.5,-7.8 z"
       id="way/1299071232"
       style="opacity:1;fill:url(#pattern448);fill-opacity:1;stroke:#d35f5f;stroke-width:1;stroke-opacity:1;stroke-dasharray:none" />
    <path
       d="m 240.88,-26.24 -11.1,-5.2 -0.15,-9.75 0.05,-0.5 0.65,-11.95 20.6,-0.3 3.4,1.25 31.6,5.55 -0.3,9.85 -1.25,1.55 -20.4,-4.5 -2.8,3.05 -7.75,1.8 -7.8,-0.8 z"
       id="way/1299071233"
       style="opacity:1;fill:url(#pattern449);fill-opacity:1;stroke:#d35f5f;stroke-width:1;stroke-opacity:1;stroke-dasharray:none" />
    <path
       d="m 229.68,-41.69 -19.25,0.95 -12.5,0.3 0.25,-8.45 9.05,-2.1 6.9,-2.35 16.2,-0.3 z"
       id="way/1299071234"
       style="opacity:1;fill:url(#pattern450);fill-opacity:1;stroke:#d35f5f;stroke-width:1;stroke-opacity:1;stroke-dasharray:none" />
    <path
       d="m 198.18,-48.89 -0.25,8.45 12.5,-0.3 19.25,-0.95 -0.05,0.5 0.15,9.75 11.1,5.2 -0.55,6.8 5.25,12 -5.5,16.2 -6.7,14.5 -7.3,-0.9 -2.25,-0.25 -2.85,-2.15 -1.45,2.05 -13.4,-5.85 -7.95,-3.45 -5.9,0.8 -0.85,3.3 -3.15,1.4 -4.1,2.8 -22.3,-3.15 3.2,-20.2 1.15,-14.75 1.15,-3.45 5.65,-29.75 z"
       id="way/1299071235"
       style="opacity:1;fill:url(#pattern451);fill-opacity:1;stroke:#d35f5f;stroke-width:1;stroke-opacity:1;stroke-dasharray:none" />
    <path
       d="m 290.13,25.56 -7.1,1.95 1.25,5.15 -45.45,16.3 -4.3,-0.7 -3.55,-8.35 0.15,-3.6 11.95,-14.3 3.05,-13.15 -0.7,-8.5 2.1,-8.9 3.2,-6.2 3,-1.9 3.2,-2.65 4.4,-2.9 11.85,-2.7 9.7,-2.05 2.85,-0.05 0.8,2.65 2.85,5.6 -2.85,4.15 1.65,26.2 z"
       id="way/1299071236"
       style="opacity:1;fill:url(#pattern452);fill-opacity:1;stroke:#d35f5f;stroke-width:1;stroke-opacity:1;stroke-dasharray:none" />
    <path
       d="m 27.93,-305.14 -3.15,-0.7 -1.05,-1.4 -0.15,-1.55 1.3,-1.6 5.15,-1.75 1.05,0.05 -0.5,2.1 z"
       id="way/1299497255"
       style="opacity:1;fill:url(#pattern453);fill-opacity:1;stroke:#d35f5f;stroke-width:1;stroke-opacity:1;stroke-dasharray:none" />
    <path
       d="m 174.33,255.86 -9.35,-6.65 -3.2,-5.25 -3.25,2.7 -4.6,-5.55 -0.8,-4.1 -3.2,-3.05 -1.2,-2.05 1.45,-10.6 0.35,-2.5 8.1,-4 1.8,-2 0.8,-2.95 -1.1,-8.8 0.5,-3.5 1.9,-3.25 6.4,-5.9 1.95,-2.7 3.95,-5.95 16,-15.7 1.7,-1 2.15,-1.7 4.55,-0.35 -0.4,15.85 v 2.5 l -0.35,10.05 2.75,-0.35 1.15,2.4 -1.4,2.9 4.25,4.75 2,0.6 4.7,-2.8 5.15,4.35 2.3,2.8 1.95,2.15 -4.15,6 8.1,8.5 -7.35,3.8 -3.5,3.45 -3.9,6.7 -0.6,1.35 0.2,0.6 -9.2,7.55 -3.65,2.75 -17.8,8.2 z"
       id="way/1299497279"
       style="opacity:1;fill:url(#pattern454);fill-opacity:1;stroke:#d35f5f;stroke-width:1;stroke-opacity:1;stroke-dasharray:none" />
  </g>
  <path
     d="m 8.079776,570.94251 1.95,-1.75 14.75,-20.35 7.6,-10.7 2.4,-2.55 2.85,-2.15 15,-6.95 4.6,-0.75 3.3,0.4 17.7,5.75 15.2,4.8 4.95,0.65 5.800004,-0.4 6.35,-1.25 6.5,-2.45 5.95,-3.55 24.4,-23.2 4.6,-4.85 5.7,-3.9 18.3,-11 3,-1.6 21,-12.55 4.05,-3.15 2.25,-4.15 2.9,-11.7 1.5,-4 2.3,-3.4 1.85,-1.8 1.55,-1.4 3.8,-3.25 7.95,-6.5 0.6,-0.5 8.75,-7.2 12.4,-10.2 4.5,-3.25 3.1,-1.5 3.2,-1.05 3.45,-0.75 14.5,-3 52.25,-8.8 5.9,-2.05 18.45,-8.65 19.95,-9.45 4.5,-1.3 4.1,0.05 1.7,0.4 7.65,3.5 16.5,8.55 1.9,0.9 2.7,0.55 4.05,0.15 4.7,-0.75 3.8,-1.8 3.15,-2.05 3.75,-3.1 13.65,-11 2,-1.55 1.9,-1.55 6.6,-5.15"
     id="way/487009903"
     style="fill:none;fill-opacity:1;stroke:url(#pattern434);stroke-width:5;stroke-dasharray:none;stroke-dashoffset:0"
     sodipodi:nodetypes="ccccccccccccccccccccccccccccccccccccccccccccccccccccccccccc"
     inkscape:label="railway" />
  <path
     d="m 651.27978,368.14251 4.5,-50.7 -2,-4.95 0.4,-1.2 2.5,-0.7 0.65,-8.5 0.15,-6.8 1.5,-11.55 1.2,-14.85 1,-12.05 -1.5,-1.4 1.35,-16.8 1.65,-17 0.65,-7.75 0.85,-9.45 13.85,0.9 -0.95,12.2 -0.7,2.85 -0.95,11.8 -1.5,15.8 -2.4,17.25 -3.45,31.55 -1.05,14.1 h 0.65 l -2.1,22.4 1.05,0.25 10.5,5.05 0.05,4.65 4.05,0.75 -13.6,29 -3.9,1.7 -0.85,10.5 -12.15,-1.1 -0.6,-0.6 1,-14.2 z"
     id="way/487009900"
     style="opacity:1;fill:#d5e5ff;fill-opacity:0.617816;stroke:none;stroke-width:5;stroke-opacity:1"
     inkscape:label="airport" />
  <g
     inkscape:groupmode="layer"
     id="layer1"
     inkscape:label="road"
     style="display:inline;opacity:1;fill:none;stroke:#cccccc;stroke-width:0.5;stroke-dasharray:none"
     transform="translate(143.88978,391.15251)">
    <path
       d="m 417.29,181.29 1,1.85 0.65,0.7 1.7,1.3 0.5,0.45 0.9,0.9 0.35,0.5 0.25,0.5 0.5,1.7 0.15,2 -0.1,3.2 -0.75,3.15 -1.15,3.5 -0.45,2.55 0.05,0.2 0.95,3.3 1.8,4.95 0.85,3.3 0.55,2.3 0.4,2.05 1.2,2.7 2.15,3.05 3,3.7 0.05,0.25 1.45,3.55 2.8,7.6 1.05,2.9 0.15,0.3 2.45,7.4 0.85,1.7 0.65,1.15 1.35,1.85 2.15,1.8"
       id="way/109428106"
       style="fill:none;stroke:#cccccc;stroke-width:2.5;stroke-dasharray:none" />
    <path
       d="m 479.24,312.54 v -0.7 l -0.3,-0.75 -2.4,-3.95 -3,-4.55 -3.15,-4.85 -3.4,-5 -0.6,-0.85 -1.15,-1.75 -0.25,-0.4 -2.25,-4.1 -1.2,-2.1 -1.25,-2.75 -3.8,-6.85 -0.6,-1.1 -1.5,-3 -5.35,-9.45 -0.75,-1.45 -0.45,-0.55"
       id="way/109428475"
       style="fill:none;stroke:#cccccc;stroke-width:2.5;stroke-dasharray:none" />
    <path
       d="m 330.09,-25.06 1.05,0.35 0.95,0.55 5.8,3.4 3.2,1.15 2.3,0.8 1.05,0.35 1.5,0.25 2.9,0.45 2.8,0.25 1.6,0.1 11.45,0.75 1.1,0.05 4.45,0.35 2.45,0.2 7.5,0.35 7.1,0.3 h 1.85 l 1.3,-0.2 1.45,-0.3 1.6,-0.5 1.95,-0.85 1.65,-0.9 3.15,-2.2 1.6,-0.95 3.85,-2.8 5,-2.85 2.25,-0.9 2.95,-1.2 2.95,-1.05 6.75,-2.1 2.4,-0.75 11.2,-3.75 0.7,-0.2 14,-3.55 1.65,-0.2 2.15,-0.2 2.6,0.25 1.5,0.55 1.3,0.45 2.05,1.15 2,1.45 3.2,2.65 3.85,2.45 1.85,0.85 1.7,0.65 3.15,1.25 4.9,1.35 9.5,2.2 5.25,1.55 2.2,0.75 0.8,0.45 0.65,0.7 0.3,0.6 0.1,0.6 -0.1,1.25 0.55,11.85 0.45,0.75 0.65,0.6 0.9,0.45 1.65,0.35 8.85,1.15 1,-0.15 0.8,-0.3 0.55,-0.5 0.65,-0.6 0.3,-0.95 0.15,-1.4 0.25,-6.8 0.3,-0.85 0.55,-0.45 0.55,-0.1 0.5,-0.1 1.8,-0.1 2.85,-0.25 1.25,-0.2 1.4,-0.5 1.3,-0.7 3.45,-2.1 1.65,-0.9 2.1,-1.2 1.25,-0.5 1.3,-0.3 h 1.2 l 3.05,-0.15 4.1,-0.3 2.6,-0.1 4.1,-0.4 2.45,-0.3 8.55,-1.25 6.8,-1.4 8.6,-1.8 2.05,-0.5 8.05,-2.6 3.35,-1.3 3.3,-0.9"
       id="way/109428479"
       style="fill:none;stroke:#cccccc;stroke-width:2.5;stroke-dasharray:none" />
    <path
       d="m 321.44,362.84 7.05,-1.35 1.4,-0.4 13.55,-6.05 2.2,-0.85 2.9,-0.95 2.75,-0.65 3.35,-0.8 2.65,-0.75 2.25,-1.15 3.75,-2.05 1.55,-0.75 1.8,-0.5 1.35,-0.3 1.8,0.1 1.4,0.2 1.35,0.4 1.15,0.55 0.55,0.45 0.85,0.8 0.85,1.05 0.8,1.2 0.35,1.8 0.55,8.7 0.1,3.45 0.4,1.25 0.6,1 1.1,0.75 1.4,0.4 h 0.85 l 0.8,-0.6 3.7,-4.55 1.25,-1.1 1.5,-1.05 1.6,-0.65 7.35,-2.3 3.95,-1.7 1.3,-0.5 3,-1.3 1.35,-0.25 2.85,-0.3 1.25,-0.15 1.5,-0.25 2.45,-1.05 11.3,-5.3 3.6,-1.85 2.75,-1.75 1.8,-1.25 6.15,-4.85 1.95,-1.4 1,-0.7 1.55,-0.4 4.75,-0.95 3.65,-0.75 3.45,-0.45 4.85,-1.15 1.3,-0.2 1.35,-0.05 1.45,0.15 2.65,0.15 4.6,0.3 5.2,0.2 11.3,-0.05 0.75,0.05 9.75,-0.2 3.6,-0.05 1,0.05 1.3,-0.05 h 0.95 l 0.7,-0.2 0.45,-0.3 0.3,-0.5 0.05,-0.6 -0.25,-0.85 -0.7,-1.6 -2.5,-5.1 -2.4,-4.85 -1.7,-5.25 -1.3,-3.35 -0.15,-0.5 -1.2,-2.8"
       id="way/109429015"
       style="fill:none;stroke:#cccccc;stroke-width:2.5;stroke-dasharray:none" />
    <path
       d="m 469.64,298.14 0.75,-0.4 9.5,-4.8 7.6,-4 0.45,-0.25 10.95,-6.55 2.15,-1.75 1.3,-1.8 0.5,-0.65 5.85,-12.3 2.3,-4.8 0.75,-1.7 0.8,-3.2 0.5,-3.3 -0.05,-4.95 -0.15,-1.3 -2.4,-10.9 -1.5,-6.75"
       id="way/109429019"
       style="fill:none;stroke:#cccccc;stroke-width:2.5;stroke-dasharray:none" />
    <path
       d="m 479.29,332.39 0.05,-1.1 0.05,-2.45 -0.1,-1.8 -0.3,-1.7 -0.3,-0.7 -0.25,-1.1 -0.9,-2.15 -1.2,-2.9 -0.3,-0.85 -0.3,-0.75 -0.3,-0.95 -0.2,-0.45 -0.25,-0.7"
       id="way/109596285"
       style="fill:none;stroke:#cccccc;stroke-width:2.5;stroke-dasharray:none"
       sodipodi:nodetypes="cccccccccccccc" />
    <path
       d="m 493.14,400.09 -0.45,-1.95 -0.5,-2.05 0.2,-7.35 -0.35,-3.7 -0.3,-3.95 -0.35,-3.75 -0.15,-3.65 -0.15,-3.75 -0.4,-4.2 -0.35,-3.75 -0.6,-3.9 -0.6,-1.15 0.05,-1.55 0.2,-1.95 0.7,-3.6 0.55,-1.5 1.3,-6.95 0.05,-1.25 v -1.75 l -0.5,-1.55 -0.55,-1.85 -0.35,-2.65"
       id="way/109713856"
       style="fill:none;stroke:#cccccc;stroke-width:2.5;stroke-dasharray:none" />
    <path
       d="m 493.14,400.09 1.5,3.6 2.35,4.1 1.05,1.5 2.55,3 2.9,3.25 1.95,2.3 0.9,1.3 0.65,1.05 0.5,0.9 0.75,1.35 1.3,2.6 1.75,3.35 0.95,1.45 1.8,2.3 0.5,0.75 0.7,1.1 1,1.55 2.1,3.2 0.85,1.5 1.15,2.05 1.75,2.85 0.45,0.7 0.3,0.85 0.85,2.8 1.15,4.1 0.85,3.15 0.1,0.55 0.1,0.55 0.85,2.9 2.6,9.65 0.05,0.4 1.25,7.55 0.5,2.6 2.3,12.9 0.85,7 0.1,2.15 0.4,0.35 2.75,2.85 1.1,4.55 0.35,3.1 0.65,5.1 -0.15,2.05 -0.05,0.85 -0.25,4.25 0.5,1.55 1.3,3.65 3.75,5.45 2.25,0.95 1.35,0.8 5.9,2.05 3.6,0.95 7.3,1.75 7.7,1.15 1.3,0.3 2.8,1.05 3,1.15 2.9,1.05 0.9,0.45 1.85,1.2 2.35,1.6 2.6,1.45 2.65,1.5 3.25,1.8 0.35,0.2 6.65,2.55 1.05,0.4 1.8,1.5 2.2,1.85 2.6,1.95 10.7,6 1.3,1 2.95,2.2 6.95,5.2 2.85,1.25 1.15,0.5 2.15,2.2 1.05,1.05 1.7,0.6 1.2,0.45 0.6,-0.1 3.8,-0.65 1.3,0.25 7.5,2.7 4.3,2.2 0.95,0.5 2,0.8 4.25,1.75 1.7,0.7 9.2,4.45 2.45,1.2 9.05,3.55 6.25,2 7.45,2.4 9.05,2.3 3.4,0.85 3.1,1.25 2.55,1 1.3,-0.25 4.4,1.8 5.6,3.9 2.4,1.05 0.5,0.2 1.45,0.65 8.75,0.4 2.6,0.35 2.3,0.3 0.65,-0.15 3.2,-0.85 4.5,-1.45 2.5,-1.15 1.45,-0.65 5.35,-1.55 4.2,-2.4 0.4,-0.35 1.8,-1.55 3.45,-1.35 5.6,-1.6 0.55,-0.15"
       id="way/109714075"
       style="fill:none;stroke:#cccccc;stroke-width:2.5;stroke-dasharray:none;marker-end:url(#Triangle)"
       sodipodi:nodetypes="ccccccccccccccccccccccccccccccccccccccccccccccccccccccccccccccccccccccccccccccccccccccccccccccccccccccccccccccccccccccc" />
    <path
       d="m 446.49,258.69 0.9,0.85 1.3,1.8 1.8,2.7 3.3,6.3 1.5,2.9 4.35,8.05 1.15,2.5 1.2,2.2 2.35,4.1 1.45,2.2 3.85,5.85 3.1,4.65 0.1,0.15 1.25,1.95 1.75,2.55 2,3.1 0.45,0.75 0.45,0.85 0.5,0.4"
       id="way/213579286"
       style="fill:none;stroke:#cccccc;stroke-width:2.5;stroke-dasharray:none" />
    <path
       d="m 445.29,256.24 -1.15,-0.75 -0.9,-0.75 -0.95,-0.85 -0.95,-1.2 -0.6,-1.25 -1.55,-3.9 -1.25,-3.55 -0.25,-0.7 -3.6,-10.5 -0.65,-1.4 -0.95,-2.25 -0.15,-0.25 -2.9,-3.65 -2.25,-2.9 -1.2,-2.85 -0.45,-2 -0.4,-2.1 -0.95,-3.35 -1.8,-5.05 -1,-3.35 0.55,-2.7 1.1,-3.15 0.7,-3.2 0.2,-3.4 -0.05,-2.1 -0.45,-1.85 -0.4,-0.8 -0.55,-0.7 -1.05,-0.85 -0.35,-0.4 -0.7,-0.65 -1.25,-1.15 -1.85,-1.4"
       id="way/213579291"
       style="fill:none;stroke:#cccccc;stroke-width:2.5;stroke-dasharray:none" />
    <path
       d="m 477.74,313.79 2.9,-0.65 7.05,-2.55 11.55,-4.35"
       id="way/661262478"
       style="fill:none;stroke:#cccccc;stroke-width:2.5;stroke-dasharray:none" />
    <path
       d="m 506.39,303.04 0.05,-0.65 -2,-4 -2.5,-4.15 -0.2,-0.35 -0.4,-1.3 -0.3,-1.25 -0.25,-1.5 -0.35,-2.1 -0.05,-0.2 -0.35,-1.8 -0.6,-1.75 -0.55,-1.85"
       id="way/661262481"
       style="fill:none;stroke:#cccccc;stroke-width:2.5;stroke-dasharray:none" />
    <path
       d="m 607.94,52.59 -0.55,0.05 -11.1,0.45 -3.45,0.05 -3.2,-0.35 -2.3,-0.65 -3.3,-1 -3.8,-1.55 -0.5,-0.2 -5.2,-1.4 -5.65,-1.55 -2.9,-0.9 -0.65,-0.2 h -0.25 -3.75 l -3.6,0.05 -3.1,0.05 -3.35,0.05 -3.6,-0.1 -15.5,0.3 -0.55,0.05 -0.4,0.15 -0.3,0.2 -0.1,0.3 -0.1,2.65 -0.05,0.45 -0.15,0.3 -0.15,0.2 -0.4,0.1 h -0.95 l -5.5,-0.7 -2.55,-0.35 -14.65,-1.95 -18.65,-4 -2.6,-0.5 -7.7,0.1 -26.8,0.35 -2.5,0.15 -1,0.25 -11.9,3.65 -1.5,0.25 h -2.4 l -5.5,-0.4 -4.8,-0.35 -4.5,-0.3 h -0.4 l -4.3,-0.3 -1.9,-0.15 -0.9,-0.05 h -1 l -1.55,0.05 h -0.75 l -3.85,-0.05 h -0.75 l -8.55,-0.05 -1.8,0.1 -3.25,0.05 -14.05,0.25 -0.85,-0.1 -0.35,-0.05 -4.9,-0.7 -2.55,-0.35 -6.25,-1.1 -1.9,0.35 -0.8,0.4 -2,0.95 -5.45,3.65 -1.9,1.4 -1.95,0.85 -1.5,0.15 -3.5,-1.1 -2.45,-0.8 -0.3,-0.1 -0.8,-0.35 -0.75,-0.3 -3.6,-1.4 -5.15,-2.6 -4.25,-2.25 -2.8,-1.2 -3.9,-1.7 -1.25,-0.5 -4.05,-1.35 -2.1,-0.65 -3.35,-1 -2,-0.65 -0.9,-0.45 -1.4,-0.65 -3.25,-1.7 -3.4,-1.8 -3.1,-1.55 -2.3,-0.9 -6.9,-2.4 -2.35,-0.75 -4.85,-1.5 -5.9,-1.75 -9.6,-2.85 -3.8,-1.35 -8.3,-2.4 -0.25,-0.15 -5.5,-1.8 -6.6,-2.25 -4.95,-1.6 -4.85,-1.65 -3.55,-1.15 -4.15,-1.3 -1.5,-0.5 -2.65,-0.9 -2.25,-0.7 -2.45,-0.4 -2.4,-0.1 -1.95,0.1 -3.05,0.15 -3,0.15 -4.75,0.3 -1.85,-0.1 -2.3,-0.15 -3.05,-0.35 h -0.35 l -4.6,-0.45 h -2.4 l -4,-0.05 -2.4,0.1 -1.55,0.05 -2.85,0.35 -2.6,0.55 -2.15,0.7 -1.55,0.6 -1.9,1 -0.7,0.4 -1.05,0.35 -3.55,1.2 -2.6,0.8 -1.45,0.35 -1,0.25 -1.3,0.05 -3.75,0.2 h -2.25 l -5.35,-0.1 -6.5,0.1 -3.55,0.15 -4.15,0.2 -2.75,-0.15 h -0.5 l -1.85,-0.15 -2.1,-0.2 -5.75,-0.9"
       id="way/666753454"
       style="fill:none;stroke:#cccccc;stroke-width:2.5;stroke-dasharray:none" />
    <path
       d="m 479.24,312.54 -0.7,0.6 -0.8,0.65"
       id="way/666771989"
       style="fill:none;stroke:#cccccc;stroke-width:2.5;stroke-dasharray:none" />
    <path
       d="m 499.24,306.24 6.75,-2.8 0.4,-0.4"
       id="way/666771990"
       style="fill:none;stroke:#cccccc;stroke-width:2.5;stroke-dasharray:none" />
    <path
       d="m 474.99,314.79 2.75,-1"
       id="way/666771992"
       style="fill:none;stroke:#cccccc;stroke-width:2.5;stroke-dasharray:none" />
    <path
       d="M 65.74,4.84 64.34,4.79 53.49,4.54 51.79,4.39 50.99,4.19 50.04,3.94 48.59,3.04 45.44,0.09 l -1.1,-1.25 -1.4,-1.55 -1.5,-2.2 -3.1,-5.4 -0.95,-2.7 -0.8,-2.1 -0.8,-3.5 -1.35,-3.65 -1.05,-2.3 -1.8,-2.85 -1.1,-1.5 -1.65,-1.6 -2.5,-1.65 -3.2,-1.95 -1.05,-0.4 -2.45,-1.15 -3.7,-1.75 -5.5,-3 -9.45,-5.15 -0.8,-0.45 -7.65,-6.25 -2.2,-1.8 -0.35,-0.2 -2.15,-1.1 -0.3,-0.15 -2.6,-1.4 -0.85,-0.6 -2.9,-2.1 -0.9,-0.65 -2.7,-2.3 -2.75,-2.35 -1,-0.8 -0.7,-0.6 -4.35,-3.05 -2.65,-1.55 -2.95,-1 -1.35,-0.35 -1.9,-0.2 -2.9,0.35 -1.25,-0.15 -0.8,-0.4 -3.65,-2.65 -1.45,-0.75 -1.75,-0.6 -3,-0.45 h -2.35 l -0.6,0.1 -1.2,0.15 -1.7,0.25 -1.2,0.35 -0.9,0.2 -3.25,1.1 -7.9,2.75 -7.8,2.7 -4.4,1.7 -4.95,1.4 -2.75,0.35 -3.5,1.15 -1.55,0.15 -2.55,-0.25 -8.15,-1.05 -5.3,-0.7 -4.5,-0.55 -7.45,-0.3 -9,0.6"
       id="way/886152553"
       style="fill:none;stroke:#cccccc;stroke-width:2.5;stroke-dasharray:none;marker-end:url(#Triangle)"
       sodipodi:nodetypes="ccccccccccccccccccccccccccccccccccccccccccccccccccccccccccccccccccccccccc" />
    <path
       d="m 417.29,181.29 -2.8,-4.05 -8.25,-13.5 -0.6,-0.9 -3.55,-5.85 -4.1,-6.65 -7,-11.4 -2.35,-3.75 -1.05,-1.65 -1.25,-2.3 -1.6,-2.75 -5.6,-10.8 -1.25,-2.65 -0.35,-0.8 -0.35,-0.4 -0.8,-0.8 -1,-0.65 -3.2,-2.05 -0.8,-0.9 -0.5,-0.6 -0.7,-1.2 -4.7,-12 -0.5,-1.35 -0.55,-1.05 -0.8,-1.35 -2.3,-2.35 -2.35,-2.45 -0.25,-0.7 -3.55,-6.7 -1.7,-3.2 -0.35,-0.65 -2.15,-4.05 -2.6,-5 -0.8,-1.6 -0.4,-1.05 -1.05,-4.35 -0.45,-1.55 -2.65,-6.65 -3.15,-4.6 -4.4,-6.55 -0.5,-1.5 -0.25,-1.65 -0.5,-7.4 -0.05,-0.9 -0.65,-7.2 -0.95,-4.3 -0.5,-1.7 -2.2,-8.25 -0.7,-2.5 -0.4,-1.4 -1.45,-5.05 -1.4,-4.45 -0.45,-1.95 -1.35,-3.9 -1.1,-3.85 -0.15,-0.9 -0.2,-0.95 0.15,-0.95 0.25,-1.05 0.8,-1.35 2.9,-3 1.15,-0.95 1.05,-0.35 h 1.1"
       id="way/1149834717"
       style="fill:none;stroke:#cccccc;stroke-width:2.5;stroke-dasharray:none" />
    <path
       d="m 780.69,-234.06 -4.8,-3.5 -1.4,-1 -4.75,-3.05 -10.15,0.6 -5.4,-0.85 -1.5,-0.45 -0.6,-0.55 -0.65,-0.9 -0.25,-1.1 -0.2,-2 -0.55,-1.05 -0.9,-0.35 -1.4,0.05 -1.8,0.4 -1.95,0.6 -1,0.55 -2.3,1.35 -0.5,0.2 -1.2,0.55 -1.65,0.3 -0.3,0.1 -2.15,0.05 -0.65,-0.05 h -0.2 l -3.2,-0.15 -4.05,-0.6 -2.5,-0.4 -2.15,-0.45 -2.9,-0.65 -3.2,-0.7 -2.3,-0.15 -1.7,-0.5 -5.65,-2.4 -1.6,-0.4 -1.45,-0.05 -1.55,0.6 -0.7,0.25 -0.8,0.35 -1.5,0.45 -1.1,-0.1 -1.55,-0.1 -3.55,-1.5 -4.35,-1.55 -5.3,-4 -0.8,-0.25 h -0.65 l -0.9,0.25 -0.5,0.45 -5.35,7.2 -1.5,1.8 -1,0.85 -1.6,0.55 -0.95,-0.05 -0.75,-0.6 -0.8,-1.3 -1.3,-2.65 -2.15,-3.2 -0.55,-0.6 -0.9,-0.55 -0.9,-0.25 -6.7,-1.15 -0.45,-0.1 h -1.6 l -1.55,0.45 -7.75,3.05 -2.5,0.55 -5,0.55 -5.9,0.15"
       id="way/1301562185"
       style="fill:none;stroke:#cccccc;stroke-width:2.5;stroke-dasharray:none;marker-start:url(#Triangle)"
       sodipodi:nodetypes="ccccccccccccccccccccccccccccccccccccccccccccccccccccccccccccccccccccc" />
    <path
       d="m 109.19,8.59 -2.85,-0.45 -6.9,-0.85 -2.2,-0.3 -2.4,-0.3 -8,-0.6 -8.05,-0.65 -2.2,-0.1 -3.2,-0.15 -7.65,-0.35"
       id="way/1313913364"
       style="fill:none;stroke:#cccccc;stroke-width:2.5;stroke-dasharray:none" />
  </g>
  <g
     inkscape:groupmode="layer"
     id="layer3"
     inkscape:label="oldnh3"
     style="stroke:#ffe680"
     transform="translate(377.74978,488.13251)">
    <path
       d="m 416.48,-469.59 1.65,10.6 1.15,6.5 0.45,1.6 0.8,2.1 3.25,7.5 0.65,2.15 0.15,1.95 -0.05,1.25 -0.1,2.15 -0.5,5.9 -0.2,3.2 0.15,3 0.1,1.5 0.7,2.95 0.65,1.15 0.85,1 1.4,1 1.65,1.05 1.65,1.6 0.65,1.25 0.35,1.05 0.25,1.2 0.1,0.8 0.15,0.95 -0.15,2.45 -0.15,2.95 -0.35,1.25 -0.45,1.25 -0.75,1.15 -0.7,0.9 -1,0.8 -1.55,1.2 -2.05,1.2 -2.65,1.05 -3.25,1.25 -5.6,1.65 -2.4,1.15 -1.6,0.8 -0.95,0.9 -1.35,1.15 -0.55,1.05 -0.4,0.9 -1.1,2 0.65,4.5 0.15,0.95 -0.2,3.9 -0.15,2.45 -0.45,1.8 -0.9,2.2 -1.45,3.3 -1.6,3.65 -1.6,3.4 -0.85,2.4 -0.65,1.6 -0.85,2.75 -0.05,0.2 -1.1,3.2 -0.95,3.8 -0.55,2.2 -1.15,3.95 -0.85,3.2 -0.45,1.45 -0.45,1.65 -0.4,1.7 -0.05,1.35 0.25,1.35"
       id="way/300615698"
       style="display:inline;fill:none;stroke:#ffe680;stroke-width:5;marker-start:url(#Triangle)"
       sodipodi:nodetypes="ccccccccccccccccccccccccccccccccccccccccccccccccccccccccccccccccccc" />
    <path
       d="m 391.73,-324.19 1.15,4"
       id="way/187662479"
       style="display:inline;fill:none;stroke:#ffe680;stroke-width:5" />
    <path
       d="m 392.88,-320.19 1.4,6.65 0.05,0.65 0.15,1.45 -0.1,2.6 0.05,3.7 -0.05,1.95 -0.1,2.35 -0.15,1.95 -0.65,2.5"
       id="way/187662471"
       style="display:inline;fill:none;stroke:#ffe680;stroke-width:5" />
    <path
       d="m 378.43,27.31 0.65,-1.45 0.4,-3.6 v -2.55 l -0.05,-1.6 -0.05,-1.3 -0.75,-8.85 -0.15,-2.25 -0.4,-5.3 -0.1,-1.75 -0.4,-5.65 -0.05,-0.4 -0.3,-4.45 -0.5,-7.65 -0.05,-0.45 -0.5,-5.2 -0.55,-5.65 -0.1,-0.7 -0.45,-4.75 -0.95,-7.95 -0.05,-0.2 -1.1,-11.05 -1.15,-7.9 -0.25,-1.95 -0.5,-4.7 -0.3,-3.55 -0.65,-8.95 -0.05,-0.9 -0.1,-0.8 -0.3,-3.95 -0.65,-6.1 -0.6,-5.6 -0.2,-2.55 -0.35,-3.05 -0.4,-4.6 -0.4,-5.3 -0.15,-2.35 -0.15,-1.7 -0.6,-8.6 -0.1,-0.5 -0.2375,-2.4375"
       id="way/109277118"
       style="display:inline;fill:none;stroke:#ffe680;stroke-width:5"
       sodipodi:nodetypes="ccccccccccccccccccccccccccccccccccccccccc" />
    <path
       d="m 376.53,-167.09 -2.35,2.3 -3.75,3.65 -1.65,2.05 -2.55,4.25 -1.3,4.45 -1.1,7.25 -0.1,1.8 0.15,1.7 1.45,5.95 0.5,2.2 0.05,1.1 0.275,1.4625"
       id="way/1242718078"
       style="display:inline;fill:none;stroke:#ffe680;stroke-width:5"
       sodipodi:nodetypes="ccccccccccccc" />
    <path
       d="m 393.48,-296.39 -1,1.9 -1.85,3.55 -0.7,2.6 -1.2,3.85 -0.55,2 -1.2,2.9 -3.5,7.95 -0.6,1.6 -0.6,3.3 -0.5,7.35 -0.65,9.35 -0.75,10.95 -0.4,2.3 -0.2,1.35 -0.5,2.25 -0.9,4.3 -1,4.85 -0.1,0.6 -0.9,4.3 -0.4,1.8 -1.1,7.8 -0.3,3.15 0.3,3 1.65,6.25 2.95,10.3 0.05,4.55 -0.1,1.45 -0.25,2.8 -0.35,4.4 -0.25,0.95 -0.5,1.9 -1.05,2.45 -0.5,1.25"
       id="way/109277120"
       style="display:inline;fill:none;stroke:#ffe680;stroke-width:5" />
    <path
       d="m 378.43,27.31 -0.1,0.3 -1.8,4.15 -1.75,2.5 -0.7,0.65 -1.6,1.85 -0.75,0.8 -1.45,1.4 -1.25,1"
       id="way/1242718077"
       style="display:inline;fill:none;stroke:#ffe680;stroke-width:5" />
    <path
       d="m 164.13,191.76 -1.5,1.15 -1.25,1.4 -0.65,1.3 -0.75,1.5 -0.4,2.3 -0.25,2.6 0.25,5.45 0.25,1.75 0.05,1.05 -0.25,1.1 -0.4,0.95 -1.15,1.25 -1.15,0.9 -5.3,2.35 -2.05,1 -1.9,1.6 -3.4,3.4 -1.25,0.55 -5.9,1.65 -1.15,0.65 -1.25,1.1 -2.5,2.85 -0.9,0.7 -1.75,1.1 -1.25,0.8 -1.4,1 -0.9,0.95 -0.8,1 -0.65,0.95 -1.7,3.75 -0.35,1.2 -0.35,1.65 -0.5,1.95 -0.75,1.85 -0.4,0.75 -0.65,0.65 -1.25,0.9 -1.7,1.2 -2.25,1.25 -3.2,1.6 -4.1,1.8 -3.3,1.55 -1.95,1.35 -4.15,3.15 -2.2,1.6 -2.15,1.2 -3,1.25 -3.05,1.1 -5.7,1.65 -1.3,0.35 -1.95,0.45 -3.15,0.75 -0.95,0.4 -0.5,0.2 -0.5,0.2 -1.55,0.7 -0.45,0.35 -1.1,0.75 -1.2,1.1 -0.8,0.8 -2,2 -0.4,0.4 -1.2,1.25 -3.15,3.4 -0.5,0.55 -1.2,1.1 -3.75,4 -1.75,1.8 -3.95,4 -1.65,1.15 -2.15,1.55 -0.7,0.5 -0.55,0.5 -0.5,0.55 -0.4,0.65 -0.75,1.35 -0.6,1.55 -0.45,1.1 -1.6,4.4 -1.45,3.6 -0.6,1.45 -1.65,4.05 -0.65,1.85 -0.75,2 -0.15,0.4 -0.3,0.85 -0.45,1.65 -0.55,2.25 -0.1,0.55 -0.8,4 -0.25,1.55 -0.2,1.95 v 0.3 l -0.25,6.1 -0.45,2.15 -0.6,1.25 -0.9,1.15 -0.45,0.65 -0.7,0.85 -0.65,0.7 -1.8,2.25 -2.1,3.05 -1.1,2 -0.65,1.45 -0.35,0.75 -0.2,0.5 -1.5,4.2 -0.6,1.65 -0.35,0.8 -2.45,4.6 -1.25,1.95 -2,3.1 -0.7,1.1 -3.15,4.85 -2.3,3.8 -0.55,1.45 -0.25,3.15 -0.05,0.55 -0.3,3.95 -0.2,2.3 -0.65,2.35 -1.8,4.4 -0.3,0.85 -0.65,1.7 -0.8,2 -1.5,3.85 -3.25,6.85 -2.45,5.35 -2,3.65 -1.1,2.9 -1.35,2.95 -6.4,10.45 -0.6,0.95 -1.75,2.7 -0.6,0.95 -7.9,12.9 -1.25,1.75 -2.85,4.5 -1.25,2.45 -3.85,8.4 -7.15,15.2 -2.35,4.35 -1.5,3.25 -2.2,4.75 -0.9,1.35 -1.3,1.05 -5.35,3.35 -2.45,1.45 -1.35,1 -1.4,1.6 -1.75,2.6 -3.35,5.45 -3.95,5.45 -0.9,1.2 -1.9,2.3 -3.1,2.5 -1.35,1.85 -1.2,3.8 -0.6,0.95 -1.25,1.05 -3.45,1.35 -3.1,1.35 -1.6,1.3 -2.45,3.45 -2.2,2.35 -0.5,0.8 -1.05,1.35 -3.35,1.4 -3.45,1.75 -1.45,0.5 -1.65,-0.05 -2.35,-0.05 -3.45,0.15 -3,0.45 -1.8,0.4 -1.15,0.45 -1.65,1.05 -2.75,2.7 -1.35,0.9 -3.7,2.4 -6.2,2.7 -1.35,0.65 -4.55,2.55 -1.25,0.75 -1.8,1.15"
       id="way/396025953"
       style="display:inline;fill:none;stroke:#ffe680;stroke-width:5" />
    <path
       d="m 213.59967,160.66225 1.30823,0.0221 1.07097,-0.11742 1.14307,-0.26629 1.30356,-0.25 2.9045,-0.14064 2.25,0.15 1.45,0.1 0.8,-0.3 0.4,-0.65 1.85,-5.35 2.25,-8.75 0.25,-1.1 1,-3.15 0.8,-1.5 1.15,-1.25 1.15,-1.15 1.85,-1.15 1.45,-0.7 4.35,-2.25 1.65,-0.8 0.85,-0.4 1.7,-0.6 1.65,-0.4 8.85,-1.95 1.45,-0.3 2,-0.2 1.15,0.05 0.75,0.2 2.05,0.7 1.05,0.6 1.85,0.75 1.05,0.5 1.4,0.15 1.25,-0.2 1.55,-0.45 2.35,-1.55 0.9,-0.8 0.6,-0.75 4.3,-5.25 3.6,-4.5 3.75,-4.55 4.15,-4.95 0.5,-0.6 0.55,-0.7 3.05,-3.4 7.25,-7.95 5.3,-6 2.4,-2.6 4.3,-4 3.1,-2.65 3.25,-3.05 1.75,-1.95 4,-4.45 0.9,-0.9 4.55,-4.55 1.05,-1 2,-1.9 6.05,-5.2 2.5,-2.1 1.35,-0.95 2.95,-1.55 1.35,-0.4 1.35,-0.6 2.45,-1.1 1.8,-0.85 1.65,-1.05 6.25,-4.45 4.35,-3.1 0.8,-1.15"
       id="way/213579293"
       style="display:inline;fill:none;stroke:#ffe680;stroke-width:5"
       sodipodi:nodetypes="cccccccccccccccccccccccccccccccccccccccccccccccccccccccccccccccccccccc" />
    <path
       d="m 164.13,191.76 4.6,-4.45 1.7,-2.7 1.45,-2.25 1.15,-1.4 1.75,-2 3.5,-3.55 5,-5 2.25,-2.25"
       id="way/213579289"
       style="display:inline;fill:none;stroke:#ffe680;stroke-width:5" />
    <path
       d="m 185.53,168.16 2.95,-3.1 2,-1.75 0.95,-0.85 1.75,-1.35 0.4,-0.25 0.9,-0.4 1.65,-0.45 1.85,-0.15 7.2,-0.25 2.4,0.25 1.4,0.15 1.54645,0.36274 1.00355,0.14532 1.52947,0.10919"
       id="way/109277586"
       style="display:inline;fill:none;stroke:#ffe680;stroke-width:5"
       sodipodi:nodetypes="ccccccccccccccc" />
  </g>
  <g
     inkscape:groupmode="layer"
     id="layer2"
     inkscape:label="NH37"
     style="stroke:#d35f5f"
     transform="translate(377.75978,488.13251)">
    <path
       d="m 99.117141,-473.91185 -3.270882,5.77981"
       id="way/1106090220"
       style="display:inline;fill:none;stroke:#d35f5f;stroke-width:5;marker-start:url(#Triangle)" />
    <path
       d="m -140.78,570.31 2.2,-3 2.15,-3.8 0.25,-0.35 1.5,-2.65 1.9,-4 0.6,-1.25 0.3,-1.3 0.15,-1.15 -0.25,-1.85 -0.4,-1.5 -0.7,-1 -0.8,-0.9 -2.1,-1.5 -2.3,-1.05 -8.35,-4 -7.1,-3.8 -6.15,-3.2 -2.55,-1.3 -1.45,-1.05 -1.9,-1.55 -1.1,-1.2 -0.95,-1.2 -1.35,-1.9 -2.4,-4 -1.85,-3.75 -0.6,-1.8 -0.25,-1.95 0.1,-1.85 0.15,-2.95 0.5,-2.35 0.95,-6.9 1.2,-9.05 0.8,-8.4 -0.05,-3.1 -0.25,-2.35 -0.4,-2 -1.35,-6.05 -2.7,-10.3 -4.15,-14.15 -1.05,-2.3 -6.85,-8.9"
       id="way/317614379"
       style="display:inline;fill:none;stroke:#d35f5f;stroke-width:5" />
    <path
       d="m -124.88,-241.39 1.3,-1.45 3.6,-3.35 2.95,-2.55 2.8,-2.35 1.85,-2 1.6,-2.35 0.65,-2.3 0.4,-2.3 v -2.5 l 0.65,-3.1 0.55,-1.45 0.7,-1.1 1.7,-2.35 2.2,-2.15 1.5,-1.8 2.45,-2.75 1.5,-1.5 1.55,-1.95 2,-2.15 3,-3.3 2.8,-3.25 3.7,-4.2 5.3,-5.9 2.85,-3 1.55,-1.85 1.05,-1.25 1,-1.2 4.05,-4.05 3.05,-2.3 2.15,-1.5 3.1,-2.15 3.4,-2.15 1.75,-1.15 4.5,-2.8 2.05,-1.5 2.4,-1.7 2.25,-1.55 3.4,-2.25 1.8,-1 1.8,-1.4 1.3,-1.35 0.85,-0.8 1.35,-1.25 1.55,-1.75 1.25,-1.35 2,-2.2 1.55,-1.95 2.35,-2.35 2.1,-2.35 1.9,-2.5 0.6,-1.25 1,-1.95 1.5,-3.25 1.35,-4.05 1.3,-3 1.15,-2.75 1.15,-2.75 1.15,-3 1.2,-2.45 1.1,-3 0.6,-1.4 0.4,-1 1.05,-2.8 2.05,-4.6 0.8,-2.3 1,-2.15 1.2,-2.75 1.25,-2.65 0.6,-1.25 1.05,-1.8 1,-1 1.5,-1.35 1.6,-1.05 1.6,-0.7 2.85,-0.9 3.65,-0.95 3,-0.8 5.1,-1.35 9.25,-2.15 4.25,-1 6.1,-1.45 4.35,-1.25 2.35,-0.9 1.6,-0.8 1.25,-0.9 0.7,-0.7 1.45,-1.4 2.35,-3.85 1.05,-1.7 2.2,-4.6 2.45,-5.55 1.55,-3.35 4.35,-9.35 1.15,-2.35 1.75,-2.55 2.85,-3.1 2.35,-1.85 1.75,-0.95 1.25,-0.7 1.45,-0.4 2.4,-0.5 1.95,-0.3 3.2,-0.25 2,-0.25 1.65,-0.55 1.2,-0.6 1.2,-0.95 1.05,-1.15 1.05,-1.6 0.65,-1.3"
       id="way/317763303"
       style="display:inline;fill:none;stroke:#d35f5f;stroke-width:5" />
    <path
       d="m -124.88,-241.39 -2.25,2.7 -1.05,1.55 -0.8,1.55 -1.2,3.2 -1,2.95 -0.4,1.95 -2.15,9.3 -0.95,4.65 -2.25,11.15 -1.1,5.65 -0.25,1.2 -0.3,1.3 -0.65,3.05 -0.6,2.3 -0.5,2.2 -0.55,3.2 -0.45,5.75 -0.3,1.4 -0.3,1.6 -0.4,1.5 -0.5,1.25 -0.85,1.5 -1.55,2.2 -0.9,1.1 -0.7,0.85 -2.1,2.3 -2.95,2.7 -3.45,2.15 -3.7,2.7 -1.45,1.1 -1.45,1.4 -1.25,1.45 -0.6,1.15 -0.25,1.05 v 1.45 l 0.3,0.95 0.95,1.7 1.1,1.7 0.65,1.5 0.45,1.65 v 1.6 l -0.15,2.1 -0.25,1.45 -0.35,1.15 -4.35,14.4 -0.35,1.05 -1.6,5.15 -0.35,1.55 -0.3,2.7 -0.25,5 0.4,13.1"
       id="way/317763304"
       style="display:inline;fill:none;stroke:#d35f5f;stroke-width:5" />
    <path
       d="m -168.13,-92.14 0.45,5.35 0.25,1.65 0.6,1.7 0.95,3.2 0.9,1.95 0.95,2.25 0.4,1.35 0.65,2.55 1.5,3.95 0.3,1 0.6,2.85 0.6,3.05 1.3,6.15 0.65,2.7 0.05,0.35 0.4,3.7 0.05,0.45 0.25,1.65 0.65,1.8 0.8,2.1 2.05,5.3 1.25,2.85 1.2,2.25 2,3.05 3.55,3.95 1.85,1.9 1.9,2.4 0.9,1.55 0.7,1.95 0.3,1.55 0.05,1.1 -0.2,2.9 -0.05,0.5 -0.45,2.25 -1.8,6.75 -1.1,3.9 -0.25,0.6 -1,2.45 -0.3,0.6 -1.8,3.4 -1.75,2.7 -0.9,1.4 -3.95,4.9 -6.25,6.9 -2.6,2.75 -0.5,0.45 -4.05,4.15 -2.25,3 -1.85,3.1 -0.9,1.85 -1,3.05 -1,3.05 -3.25,8.65 -0.8,2.7 -1.9,5.2 -1.6,4.5 -0.7,1.65 -1.05,2.6 -1.25,2.15 -1.05,1.45 -1.4,1.6 -1.65,1.25 -2.25,1.6 -4.1,2.3 -0.65,0.35 -10.7,6.35"
       id="way/317619280"
       style="display:inline;fill:none;stroke:#d35f5f;stroke-width:5" />
    <path
       d="m -187.38,433.66 -4.15,-5.15 -1.2,-1.4 -1.5,-1.75 -1.55,-1.95 -2.8,-3.5 -4.5,-6.25 -0.85,-1.1 -1.75,-2.25 -2.4,-3.7 -1.2,-1.9 -0.15,-0.25 -2.85,-6 -1.45,-3.85 -3.35,-8.95 -6,-10.25 -3.15,-3.2 -7.05,-6.65 -3.2,-3.15 -5.35,-5.15 -0.85,-0.8 -7.25,-7.25 -0.4,-0.4 -3.2,-3.25 -1.7,-3.05 -0.35,-1.7 -0.6,-2.75 -0.6,-5.65 -0.2,-1.55 -0.95,-6.45 -2.2,-18.85 -1.6,-12.2 0.8,-3 2.15,-4.2 4.75,-9.45 3.45,-6.35 2.15,-3.95 7.75,-15.9 -0.05,-0.55 -0.05,-2.7 -0.8,-2.75 -0.15,-0.55 -1.15,-1.55 -0.7,-0.95 -1.4,-1.95 -6.3,-9.7 -0.25,-0.35 -9.95,-14.65 -4.15,-6.9 -7.05,-10.4 -1.05,-2 -1.25,-2.3 -2.8,-5.1 -2.6,-9.05 -3.2,-11.5 -2.05,-6 -0.75,-2.25 -0.4,-1.7 -1.8,-7.6 -3.2,-9.7 -0.15,-0.6 -0.25,-2.9 0.65,-2.2 1.55,-2.35 2.6,-2 9.05,-7.3 1.3,-1 6.05,-2.85 7.5,-0.9 9.3,-1.3 3.2,-1.45 0.65,-0.35 2.25,-1.25 8.4,-5.3 12.35,-7.95 2.6,-1.45 10.6,-6.05 2.6,-1.45 4.2,-2.6 0.95,-0.6"
       id="way/317614380"
       style="display:inline;fill:none;stroke:#d35f5f;stroke-width:5" />
    <path
       d="m -235.58,719.96 1.35,-1.95 1.45,-1.95 1.15,-2 0.7,-1.55 0.75,-2.1 0.9,-4 0.65,-2.8 0.1,-0.35 0.1,-0.3 0.45,-1.45 4.95,-12.5 0.8,-1.85 0.7,-1.15 1.2,-2 2.55,-2.85 6.8,-8.8 1.6,-2.4 1,-1.35 0.4,-0.55 1.8,-3 0.5,-0.8 2.15,-2.85 1.8,-2.45 1.7,-2.2 1.05,-1.9 1.3,-2.5 0.9,-2.3 1.45,-3.8 1.15,-3.45 0.6,-1.55 1.15,-1.75 0.75,-0.9 1.75,-2.35 1.95,-2.65 2.2,-3.05 2.35,-4.1 0.8,-1.3 1.4,-2.85 3.9,-8.1 1.05,-2.55 0.55,-1.75 0.8,-3.25 0.5,-2 0.3,-1.45 0.6,-1.7 0.6,-0.9 0.8,-1.2 1,-1.15 2.85,-1.85 7.95,-5.05 3.65,-2.8 6.85,-5.6 1.65,-1.45 0.95,-1.05 1.65,-2.05 1.3,-2.15 2.2,-3.65 1.3,-2.3"
       id="way/109279885"
       style="display:inline;fill:none;stroke:#d35f5f;stroke-width:5;marker-start:url(#Triangle)"
       sodipodi:nodetypes="ccccccccccccccccccccccccccccccccccccccccccccccccccccccccccc" />
  </g>
  <g
     id="g4194"
     transform="matrix(0.2682116,0,0,0.26273816,537.2073,509.3056)"
     style="fill:#000000"
     inkscape:label="univicon">
    <path
       style="fill:#2c5aa0;display:inline;fill-opacity:1;stroke:#ffffff;stroke-width:0.0885827;stroke-miterlimit:4;stroke-dasharray:none;stroke-opacity:1"
       id="path9225-9"
       d="m 508.23193,-376.7209 c -1.24005,0 -1.93713,0.64113 -1.93713,1.95108 v 13.50366 c 0,1.22529 0.62673,1.86684 1.86576,1.86684 h 13.56073 c 1.23909,0 1.86678,-0.6096 1.86678,-1.86684 v -13.50366 c 0,-1.278 -0.62769,-1.95108 -1.90569,-1.95108 0,0 -13.45474,-0.004 -13.45045,0 z"
       transform="matrix(3.7283995,0,0,3.8060707,-1887.3402,1434.2442)" />
    <path
       d="m 11.999998,32.748535 v 11.501466 a 19.999998,9.9999933 0 0 0 20.000001,10 19.999998,9.9999933 0 0 0 20,-10 V 32.748535 l -20,9.001465 -10.000001,-4.501952 v 7.001953 l -2.5,-2.500001 -2.5,2.500001 v -9.25049 z"
       fill="#000000"
       fill-opacity="1"
       fill-rule="nonzero"
       stroke-width="0"
       id="path4196"
       style="fill:#ffffff" />
    <rect
       width="32.897549"
       height="32.897549"
       x="31.861904"
       y="-3.2288425"
       transform="matrix(0.91192149,0.4103647,-0.91192149,0.4103647,0,0)"
       fill="#000000"
       fill-opacity="1"
       fill-rule="nonzero"
       stroke-width="0"
       id="rect4198"
       style="fill:#ffffff" />
  </g>
  <g
     style="display:inline"
     id="g9161"
     transform="translate(-171.31213,867.70394)"
     clip-path="none"
     inkscape:groupmode="layer"
     inkscape:label="railwayicon">
    <path
       style="fill:#975d3b;fill-opacity:1;stroke:#ffffff;stroke-width:0.0885827;stroke-miterlimit:4;stroke-dasharray:none;stroke-opacity:1"
       id="path9163"
       d="m 627.12333,-518.91525 c -1.24005,0 -1.93713,0.64113 -1.93713,1.95108 v 13.50366 c 0,1.22529 0.62673,1.86684 1.86576,1.86684 h 13.56073 c 1.23909,0 1.86678,-0.6096 1.86678,-1.86684 v -13.50366 c 0,-1.278 -0.62769,-1.95108 -1.90569,-1.95108 0,0 -13.45474,-0.004 -13.45045,0 z" />
    <g
       transform="matrix(0.03,0,0,0.03,624.65038,-519.45297)"
       id="g9165">
      <path
         d="m 305.763,475.985 h 0.06 67.572 l 49.363,72.367 h 39.816 L 393.562,444.834 c 23.012,-3.708 45.919,-27.708 45.919,-56.958 V 174.018 c 0,-30.192 -25.4,-57.906 -59.907,-57.906 l -73.53,-0.049 h 0.003 l -74.095,0.049 c -34.507,0 -59.907,27.714 -59.907,57.906 v 213.858 c 0,29.25 22.907,53.25 45.919,56.958 l -69.012,103.518 h 39.816 l 49.363,-72.367 h 67.572 z"
         id="path9167"
         style="fill:#ffffff;stroke:none" />
      <path
         d="m 283.72,109.872 c -9.165,0 -16.592,-7.429 -16.592,-16.5938 0,-9.1623 7.427,-16.5908 16.592,-16.5908 9.162,0 16.591,7.4285 16.591,16.5908 0,9.1648 -7.429,16.5938 -16.591,16.5938 z"
         id="path9169"
         style="fill:#ffffff;stroke:none" />
      <path
         d="m 327.806,109.872 c 9.165,0 16.592,-7.429 16.592,-16.5938 0,-9.1623 -7.427,-16.5908 -16.592,-16.5908 -9.163,0 -16.591,7.4285 -16.591,16.5908 0,9.1648 7.428,16.5938 16.591,16.5938 z"
         id="path9171"
         style="fill:#ffffff;stroke:none" />
    </g>
    <g
       style="fill:#975d3b;fill-opacity:1"
       transform="matrix(0.03,0,0,0.03,624.65038,-519.45297)"
       id="g9173">
      <path
         d="m 380.215,413.639 c 14.505,0 26.263,-11.759 26.263,-26.263 0,-14.505 -11.758,-26.263 -26.263,-26.263 -14.505,0 -26.263,11.758 -26.263,26.263 0,14.504 11.758,26.263 26.263,26.263 z"
         id="path9175"
         style="fill:#975d3b;fill-opacity:1;stroke:none" />
      <path
         d="m 305.763,274.702 h 0.06 71.751 c 16.5,0 30,-11.326 29.848,-29.826 v -38.5 c 0,-16 -10.348,-29.962 -29.848,-29.962 h -71.751 -0.12 -71.751 c -19.5,0 -29.848,13.962 -29.848,29.962 v 38.5 c -0.152,18.5 13.348,29.826 29.848,29.826 h 71.751 z"
         id="path9177"
         style="fill:#975d3b;fill-opacity:1;stroke:none" />
      <path
         d="m 305.763,164.889 h 0.06 29.001 c 5.5,0 9.816,-4.513 9.816,-9.763 v -17 c 0,-5.25 -4.566,-9.66 -9.816,-9.66 h -29.001 -0.06 -0.06 -29.001 c -5.25,0 -9.816,4.41 -9.816,9.66 v 17 c 0,5.25 4.316,9.763 9.816,9.763 h 29.001 z"
         id="path9179"
         style="fill:#975d3b;fill-opacity:1;stroke:none" />
      <path
         d="m 230.702,413.639 c -14.505,0 -26.263,-11.759 -26.263,-26.263 0,-14.505 11.758,-26.263 26.263,-26.263 14.505,0 26.263,11.758 26.263,26.263 0,14.504 -11.758,26.263 -26.263,26.263 z"
         id="path9181"
         style="fill:#975d3b;fill-opacity:1;stroke:none" />
    </g>
  </g>
  <g
     style="display:inline"
     id="g9223"
     transform="translate(31.000752,886.13629)"
     clip-path="none"
     inkscape:groupmode="layer"
     inkscape:label="airporticon">
    <path
       style="fill:#273452;fill-opacity:1;stroke:#ffffff;stroke-width:0.0885827;stroke-miterlimit:4;stroke-dasharray:none;stroke-opacity:1"
       id="path9225"
       d="m 626.51889,-544.32553 c -1.24005,0 -1.93713,0.64113 -1.93713,1.95108 v 13.50366 c 0,1.22529 0.62673,1.86684 1.86576,1.86684 h 13.56073 c 1.23909,0 1.86678,-0.6096 1.86678,-1.86684 v -13.50366 c 0,-1.278 -0.62769,-1.95108 -1.90569,-1.95108 0,0 -13.45474,-0.004 -13.45045,0 z" />
    <path
       style="fill:#ffffff;stroke:none"
       id="path9227"
       d="m 632.48086,-541.90417 c 0.002,-1.02002 1.53927,-1.02002 1.53825,0.0287 v 4.28073 l 5.99292,3.60195 v 1.58151 l -5.96415,-1.96293 v 3.19941 l 1.38024,1.07832 v 1.25082 l -2.12781,-0.66135 -2.12781,0.66135 v -1.25082 l 1.36587,-1.07832 v -3.19941 l -5.96482,1.96293 v -1.58151 l 5.90731,-3.60195 z" />
  </g>
  <g
     inkscape:groupmode="layer"
     id="layer6"
     inkscape:label="hospitalicon">
    <circle
       style="opacity:1;fill:#d40000;fill-opacity:1;fill-rule:evenodd;stroke:none;stroke-width:1;stroke-linejoin:bevel;stroke-dasharray:none;stroke-dashoffset:0;stroke-opacity:1;paint-order:markers fill stroke"
       id="path455"
       cx="601.125"
       cy="688.125"
       r="6.375" />
    <path
       id="rect456"
       style="opacity:1;fill:#ffffff;fill-opacity:1;fill-rule:evenodd;stroke:none;stroke-width:1;stroke-linejoin:bevel;stroke-dasharray:none;stroke-dashoffset:0;stroke-opacity:1;paint-order:markers fill stroke"
       d="m 599.97311,684.70166 v 2.42969 h -2.64453 v 2.38672 h 2.64453 v 2.51953 h 2.73828 v -2.51953 h 2.21875 v -2.38672 h -2.21875 v -2.42969 z" />
  </g>
  <g
     inkscape:groupmode="layer"
     id="layer7"
     inkscape:label="ward"
     style="stroke:none;fill:#000000;fill-opacity:1">
    <text
       xml:space="preserve"
       id="text455"
       style="font-style:normal;font-variant:normal;font-weight:bold;font-stretch:normal;font-size:18.6667px;font-family:sans-serif;-inkscape-font-specification:'sans-serif Bold';text-align:center;writing-mode:lr-tb;direction:ltr;white-space:pre;shape-inside:url(#rect455);opacity:1;fill:#000000;fill-opacity:1;fill-rule:evenodd;stroke:none;stroke-width:1;stroke-linejoin:bevel;stroke-dasharray:none;stroke-dashoffset:0;stroke-opacity:1;paint-order:markers fill stroke"
       transform="translate(0.67157289,0.70710678)"><tspan
         x="443.80625"
         y="645.0302"
         id="tspan4">Ward 1</tspan></text>
    <text
       xml:space="preserve"
       id="text455-4"
       style="font-style:normal;font-variant:normal;font-weight:bold;font-stretch:normal;font-size:18.6667px;font-family:sans-serif;-inkscape-font-specification:'sans-serif Bold';text-align:center;writing-mode:lr-tb;direction:ltr;white-space:pre;shape-inside:url(#rect455-2);opacity:1;fill:#000000;fill-opacity:1;fill-rule:evenodd;stroke:none;stroke-width:1;stroke-linejoin:bevel;stroke-dasharray:none;stroke-dashoffset:0;stroke-opacity:1;paint-order:markers fill stroke"
       transform="translate(139.84219,-2.3478807)"><tspan
         x="443.80625"
         y="645.0302"
         id="tspan5">Ward 2</tspan></text>
    <text
       xml:space="preserve"
       id="text455-4-4"
       style="font-style:normal;font-variant:normal;font-weight:bold;font-stretch:normal;font-size:18.6667px;font-family:sans-serif;-inkscape-font-specification:'sans-serif Bold';text-align:center;writing-mode:lr-tb;direction:ltr;white-space:pre;shape-inside:url(#rect455-2-3);fill:#000000;fill-opacity:1;fill-rule:evenodd;stroke:none;stroke-width:1;stroke-linejoin:bevel;stroke-dasharray:none;stroke-dashoffset:0;stroke-opacity:1;paint-order:markers fill stroke"
       transform="translate(141.04298,35.415575)"><tspan
         x="443.80625"
         y="645.0302"
         id="tspan6">Ward 3</tspan></text>
    <text
       xml:space="preserve"
       id="text455-4-4-1"
       style="font-style:normal;font-variant:normal;font-weight:bold;font-stretch:normal;font-size:18.6667px;font-family:sans-serif;-inkscape-font-specification:'sans-serif Bold';text-align:center;writing-mode:lr-tb;direction:ltr;white-space:pre;shape-inside:url(#rect455-2-3-7);fill:#000000;fill-opacity:1;fill-rule:evenodd;stroke:none;stroke-width:1;stroke-linejoin:bevel;stroke-dasharray:none;stroke-dashoffset:0;stroke-opacity:1;paint-order:markers fill stroke"
       transform="translate(56.773865,177.05519)"><tspan
         x="443.80625"
         y="645.0302"
         id="tspan7">Ward 4</tspan></text>
    <text
       xml:space="preserve"
       id="text455-4-4-8"
       style="font-style:normal;font-variant:normal;font-weight:bold;font-stretch:normal;font-size:18.6667px;font-family:sans-serif;-inkscape-font-specification:'sans-serif Bold';text-align:center;writing-mode:lr-tb;direction:ltr;white-space:pre;shape-inside:url(#rect455-2-3-5);display:inline;fill:#000000;fill-opacity:1;fill-rule:evenodd;stroke:none;stroke-width:1;stroke-linejoin:bevel;stroke-dasharray:none;stroke-dashoffset:0;stroke-opacity:1;paint-order:markers fill stroke"
       transform="translate(180.11553,184.49527)"><tspan
         x="443.80625"
         y="645.0302"
         id="tspan8">Ward 5</tspan></text>
    <text
       xml:space="preserve"
       id="text455-4-4-5"
       style="font-style:normal;font-variant:normal;font-weight:bold;font-stretch:normal;font-size:18.6667px;font-family:sans-serif;-inkscape-font-specification:'sans-serif Bold';text-align:center;writing-mode:lr-tb;direction:ltr;white-space:pre;shape-inside:url(#rect455-2-3-4);display:inline;fill:#000000;fill-opacity:1;fill-rule:evenodd;stroke:none;stroke-width:1;stroke-linejoin:bevel;stroke-dasharray:none;stroke-dashoffset:0;stroke-opacity:1;paint-order:markers fill stroke"
       transform="translate(220.30792,80.415581)"><tspan
         x="443.80625"
         y="645.0302"
         id="tspan9">Ward 6</tspan></text>
    <text
       xml:space="preserve"
       id="text455-4-4-3"
       style="font-style:normal;font-variant:normal;font-weight:bold;font-stretch:normal;font-size:18.6667px;font-family:sans-serif;-inkscape-font-specification:'sans-serif Bold';text-align:center;writing-mode:lr-tb;direction:ltr;white-space:pre;shape-inside:url(#rect455-2-3-0);display:inline;fill:#000000;fill-opacity:1;fill-rule:evenodd;stroke:none;stroke-width:1;stroke-linejoin:bevel;stroke-dasharray:none;stroke-dashoffset:0;stroke-opacity:1;paint-order:markers fill stroke"
       transform="translate(291.20741,25.415581)"><tspan
         x="443.80625"
         y="645.0302"
         id="tspan10">Ward 7</tspan></text>
    <text
       xml:space="preserve"
       id="text455-4-4-6"
       style="font-style:normal;font-variant:normal;font-weight:bold;font-stretch:normal;font-size:18.6667px;font-family:sans-serif;-inkscape-font-specification:'sans-serif Bold';text-align:center;writing-mode:lr-tb;direction:ltr;white-space:pre;shape-inside:url(#rect455-2-3-44);display:inline;fill:#000000;fill-opacity:1;fill-rule:evenodd;stroke:none;stroke-width:1;stroke-linejoin:bevel;stroke-dasharray:none;stroke-dashoffset:0;stroke-opacity:1;paint-order:markers fill stroke"
       transform="translate(210.59219,-38.847875)"><tspan
         x="443.80625"
         y="645.0302"
         id="tspan11">Ward 8</tspan></text>
    <text
       xml:space="preserve"
       id="text455-4-4-7"
       style="font-style:normal;font-variant:normal;font-weight:bold;font-stretch:normal;font-size:18.6667px;font-family:sans-serif;-inkscape-font-specification:'sans-serif Bold';text-align:center;writing-mode:lr-tb;direction:ltr;white-space:pre;shape-inside:url(#rect455-2-3-9);display:inline;fill:#000000;fill-opacity:1;fill-rule:evenodd;stroke:none;stroke-width:1;stroke-linejoin:bevel;stroke-dasharray:none;stroke-dashoffset:0;stroke-opacity:1;paint-order:markers fill stroke"
       transform="translate(-70.40781,-339.84787)"><tspan
         x="443.80625"
         y="645.0302"
         id="tspan12">Ward 9</tspan></text>
    <text
       xml:space="preserve"
       id="text455-4-4-9"
       style="font-style:normal;font-variant:normal;font-weight:bold;font-stretch:normal;font-size:18.6667px;font-family:sans-serif;-inkscape-font-specification:'sans-serif Bold';text-align:center;writing-mode:lr-tb;direction:ltr;white-space:pre;shape-inside:url(#rect455-2-3-1);display:inline;fill:#000000;fill-opacity:1;fill-rule:evenodd;stroke:none;stroke-width:1;stroke-linejoin:bevel;stroke-dasharray:none;stroke-dashoffset:0;stroke-opacity:1;paint-order:markers fill stroke"
       transform="translate(-23.856512,-132.6433)"><tspan
         x="437.17082"
         y="645.0302"
         id="tspan13">Ward 10</tspan></text>
    <text
       xml:space="preserve"
       id="text455-4-4-15"
       style="font-style:normal;font-variant:normal;font-weight:bold;font-stretch:normal;font-size:18.6667px;font-family:sans-serif;-inkscape-font-specification:'sans-serif Bold';text-align:center;writing-mode:lr-tb;direction:ltr;white-space:pre;shape-inside:url(#rect455-2-3-6);display:inline;fill:#000000;fill-opacity:1;fill-rule:evenodd;stroke:none;stroke-width:1;stroke-linejoin:bevel;stroke-dasharray:none;stroke-dashoffset:0;stroke-opacity:1;paint-order:markers fill stroke"
       transform="translate(-120.54637,-190.53417)"><tspan
         x="437.17082"
         y="645.0302"
         id="tspan14">Ward 11</tspan></text>
    <text
       xml:space="preserve"
       id="text455-4-4-2"
       style="font-style:normal;font-variant:normal;font-weight:bold;font-stretch:normal;font-size:18.6667px;font-family:sans-serif;-inkscape-font-specification:'sans-serif Bold';text-align:center;writing-mode:lr-tb;direction:ltr;white-space:pre;shape-inside:url(#rect455-2-3-97);display:inline;fill:#000000;fill-opacity:1;fill-rule:evenodd;stroke:none;stroke-width:1;stroke-linejoin:bevel;stroke-dasharray:none;stroke-dashoffset:0;stroke-opacity:1;paint-order:markers fill stroke"
       transform="translate(251.59219,-250.84787)"><tspan
         x="437.17082"
         y="645.0302"
         id="tspan15">Ward 12</tspan></text>
  </g>
  <g
     inkscape:groupmode="layer"
     id="layer8"
     inkscape:label="goto">
    <text
       xml:space="preserve"
       id="text455-4-4-12"
       style="font-style:normal;font-variant:normal;font-weight:bold;font-stretch:normal;font-size:18.6667px;font-family:sans-serif;-inkscape-font-specification:'sans-serif Bold';text-align:center;writing-mode:lr-tb;direction:ltr;white-space:pre;shape-inside:url(#rect455-2-3-57);display:inline;fill:#000000;fill-opacity:1;fill-rule:evenodd;stroke:none;stroke-width:1;stroke-linejoin:bevel;stroke-dasharray:none;stroke-dashoffset:0;stroke-opacity:1;paint-order:markers fill stroke"
       transform="translate(55.34219,-623.59788)"><tspan
         x="436.21379"
         y="645.0302"
         id="tspan16">To Hseni</tspan></text>
    <text
       xml:space="preserve"
       id="text455-4-4-12-1"
       style="font-style:normal;font-variant:normal;font-weight:bold;font-stretch:normal;font-size:18.6667px;font-family:sans-serif;-inkscape-font-specification:'sans-serif Bold';text-align:center;writing-mode:lr-tb;direction:ltr;white-space:pre;shape-inside:url(#rect455-2-3-57-6);display:inline;fill:#000000;fill-opacity:1;fill-rule:evenodd;stroke:none;stroke-width:1;stroke-linejoin:bevel;stroke-dasharray:none;stroke-dashoffset:0;stroke-opacity:1;paint-order:markers fill stroke"
       transform="translate(376.31411,-622.9692)"><tspan
         x="436.21379"
         y="645.0302"
         id="tspan17">To Hseni</tspan></text>
    <text
       xml:space="preserve"
       id="text455-4-4-12-5"
       style="font-style:normal;font-variant:normal;font-weight:bold;font-stretch:normal;font-size:18.6667px;font-family:sans-serif;-inkscape-font-specification:'sans-serif Bold';text-align:center;writing-mode:lr-tb;direction:ltr;white-space:pre;shape-inside:url(#rect455-2-3-57-7);display:inline;fill:#000000;fill-opacity:1;fill-rule:evenodd;stroke:none;stroke-width:1;stroke-linejoin:bevel;stroke-dasharray:none;stroke-dashoffset:0;stroke-opacity:1;paint-order:markers fill stroke"
       transform="translate(-430.58748,-339.34788)"><tspan
         x="438.44034"
         y="645.0302"
         id="tspan18">To Namtu</tspan></text>
    <text
       xml:space="preserve"
       id="text455-4-4-12-5-6"
       style="font-style:normal;font-variant:normal;font-weight:bold;font-stretch:normal;font-size:18.6667px;font-family:sans-serif;-inkscape-font-specification:'sans-serif Bold';text-align:center;writing-mode:lr-tb;direction:ltr;white-space:pre;shape-inside:url(#rect455-2-3-57-7-8);display:inline;fill:#000000;fill-opacity:1;fill-rule:evenodd;stroke:none;stroke-width:1;stroke-linejoin:bevel;stroke-dasharray:none;stroke-dashoffset:0;stroke-opacity:1;paint-order:markers fill stroke"
       transform="translate(356.68596,-468.45856)"><tspan
         x="442.59917"
         y="645.0302"
         id="tspan19">To Mongyaw</tspan></text>
    <text
       xml:space="preserve"
       id="text455-4-4-12-5-6-0"
       style="font-style:normal;font-variant:normal;font-weight:bold;font-stretch:normal;font-size:18.6667px;font-family:sans-serif;-inkscape-font-specification:'sans-serif Bold';text-align:center;writing-mode:lr-tb;direction:ltr;white-space:pre;shape-inside:url(#rect455-2-3-57-7-8-1);display:inline;fill:#000000;fill-opacity:1;fill-rule:evenodd;stroke:none;stroke-width:1;stroke-linejoin:bevel;stroke-dasharray:none;stroke-dashoffset:0;stroke-opacity:1;paint-order:markers fill stroke"
       transform="translate(357.24897,382.90719)"><tspan
         x="442.59917"
         y="645.0302"
         id="tspan20">To Mongyaw</tspan></text>
    <text
       xml:space="preserve"
       id="text455-4-4-12-5-6-2"
       style="font-style:normal;font-variant:normal;font-weight:bold;font-stretch:normal;font-size:18.6667px;font-family:sans-serif;-inkscape-font-specification:'sans-serif Bold';text-align:center;writing-mode:lr-tb;direction:ltr;white-space:pre;shape-inside:url(#rect455-2-3-57-7-8-3);display:inline;fill:#000000;fill-opacity:1;fill-rule:evenodd;stroke:none;stroke-width:1;stroke-linejoin:bevel;stroke-dasharray:none;stroke-dashoffset:0;stroke-opacity:1;paint-order:markers fill stroke"
       transform="translate(-270.98758,564.61251)"><tspan
         x="436.00218"
         y="645.0302"
         id="tspan21">To Hsipaw</tspan></text>
  </g>
  <g
     id="g457"
     transform="translate(43,-3)">
    <rect
       style="opacity:1;fill:#ffff00;fill-opacity:1;fill-rule:evenodd;stroke:#000000;stroke-width:2;stroke-linejoin:bevel;stroke-dasharray:none;stroke-dashoffset:0;stroke-opacity:1;paint-order:markers fill stroke"
       id="rect457"
       width="61.518291"
       height="42.779961"
       x="85.383141"
       y="566.56934" />
    <text
       xml:space="preserve"
       id="text455-4-4-12-5-6-8"
       style="font-style:normal;font-variant:normal;font-weight:bold;font-stretch:normal;font-size:18.6667px;font-family:sans-serif;-inkscape-font-specification:'sans-serif Bold';text-align:center;writing-mode:lr-tb;direction:ltr;white-space:pre;shape-inside:url(#rect455-2-3-57-7-8-0);display:inline;fill:#000000;fill-opacity:1;fill-rule:evenodd;stroke:none;stroke-width:1;stroke-linejoin:bevel;stroke-dasharray:none;stroke-dashoffset:0;stroke-opacity:1;paint-order:markers fill stroke"
       transform="translate(-347.96587,-49.761861)"><tspan
         x="435.25516"
         y="645.0302"
         id="tspan22">NH37</tspan></text>
  </g>
  <g
     style="display:inline"
     id="g9232"
     transform="translate(-250.09793,1266.1492)"
     clip-path="none">
    <path
       style="fill:#c98d21;fill-opacity:1;stroke:#ffffff;stroke-width:0.0885827;stroke-miterlimit:4;stroke-dasharray:none;stroke-opacity:1"
       id="path9234"
       d="m 628.70435,-438.47797 c -1.24002,0 -1.93713,0.6411 -1.93713,1.95105 v 13.50365 c 0,1.22529 0.62673,1.86684 1.86576,1.86684 h 13.56076 c 1.23909,0 1.86678,-0.6096 1.86678,-1.86684 v -13.50365 c 0,-1.278 -0.62769,-1.95105 -1.90569,-1.95105 0,0 -13.45474,-0.004 -13.45048,0 z" />
    <path
       d="m 635.49252,-435.91859 c -1.20765,0 -2.87547,0.34506 -3.56559,0.63261 -0.69012,0.28755 -1.1502,0.5751 -1.29396,1.29396 l -0.51756,3.98523 v 5.49135 h 0.89136 v 0.86115 c 0,1.05 1.53654,1.05 1.53654,0 v -0.86115 h 2.83671 0.009 2.94921 v 0.86115 c 0,1.05 1.53654,1.05 1.53654,0 v -0.86115 h 0.89136 v -5.49135 l -0.51756,-3.98523 c -0.14376,-0.71886 -0.60384,-1.00641 -1.29396,-1.29396 -0.69012,-0.28755 -2.35794,-0.63261 -3.56559,-0.63261"
       id="path9236"
       style="fill:#ffffff;stroke:none" />
    <g
       style="fill:#c98d21;fill-opacity:1;stroke:#ffffff;stroke-width:2.95276;stroke-miterlimit:4;stroke-dasharray:none;stroke-opacity:1"
       transform="matrix(0.03,0,0,0.03,626.2314,-439.0157)"
       id="g9238">
      <g
         style="fill:#c98d21;fill-opacity:1;stroke:#ffffff;stroke-width:2.95276;stroke-miterlimit:4;stroke-dasharray:none;stroke-opacity:1"
         id="g9240">
        <g
           style="fill:#c98d21;fill-opacity:1;stroke:#ffffff;stroke-width:2.95276;stroke-miterlimit:4;stroke-dasharray:none;stroke-opacity:1"
           id="g9242">
          <path
             d="m 429.149,425.96 c 13.568,0 24.568,-11.002 24.568,-24.57 0,-13.568 -11,-24.57 -24.568,-24.57 -13.568,0 -24.569,11.002 -24.569,24.57 0,13.568 11.001,24.57 24.569,24.57 z"
             id="path9244"
             style="fill:#c98d21;fill-opacity:1;stroke:#ffffff;stroke-width:2.95276;stroke-miterlimit:4;stroke-dasharray:none;stroke-opacity:1" />
          <path
             d=""
             id="path9246"
             style="fill:#c98d21;fill-opacity:1;stroke:#ffffff;stroke-width:2.95276;stroke-miterlimit:4;stroke-dasharray:none;stroke-opacity:1" />
        </g>
        <g
           style="fill:#c98d21;fill-opacity:1;stroke:#ffffff;stroke-width:2.95276;stroke-miterlimit:4;stroke-dasharray:none;stroke-opacity:1"
           id="g9248">
          <path
             d="m 184.809,425.96 c -13.568,0 -24.568,-11.002 -24.568,-24.57 0,-13.568 11,-24.57 24.568,-24.57 13.568,0 24.569,11.002 24.569,24.57 0,13.568 -11.001,24.57 -24.569,24.57 z"
             id="path9250"
             style="fill:#c98d21;fill-opacity:1;stroke:#ffffff;stroke-width:2.95276;stroke-miterlimit:4;stroke-dasharray:none;stroke-opacity:1" />
          <path
             d=""
             id="path9252"
             style="fill:#c98d21;fill-opacity:1;stroke:#ffffff;stroke-width:2.95276;stroke-miterlimit:4;stroke-dasharray:none;stroke-opacity:1" />
        </g>
      </g>
      <path
         d="m 305.079,158.35 h -71.136 c -14.378,0 -14.378,-21.566 0,-21.566 h 71.311 74.761 c 14.378,0 14.378,21.566 0,21.566 z"
         id="path9254"
         style="fill:#c98d21;fill-opacity:1;stroke:#ffffff;stroke-width:2.95276;stroke-miterlimit:4;stroke-dasharray:none;stroke-opacity:1" />
      <path
         d="M 305.079,180.124 H 195.182 c -15.188,0 -19.156,7.718 -21,19.423 l -13.428,96.348 c -1.253,9.235 1.419,18.402 14.178,18.402 h 130.322 133.772 c 12.759,0 15.431,-9.167 14.178,-18.402 l -13.428,-96.348 c -1.844,-11.705 -5.812,-19.423 -21,-19.423 z"
         id="path9256"
         style="fill:#c98d21;fill-opacity:1;stroke:#ffffff;stroke-width:2.95276;stroke-miterlimit:4;stroke-dasharray:none;stroke-opacity:1" />
    </g>
  </g>
</svg>
