<svg stroke-linecap="round" stroke-linejoin="round" version="1.2" viewBox="0 0 936.6 1222"
    xmlns="http://www.w3.org/2000/svg" xmlns:xlink="http://www.w3.org/1999/xlink">
    <defs>
        <marker id="Triangle" overflow="visible" markerHeight="1" markerWidth="1" orient="auto-start-reverse"
            preserveAspectRatio="xMidYMid" viewBox="0 0 1 1">
            <path transform="scale(.5)" d="m5.77 0-8.65 5v-10z" fill="context-stroke" fill-rule="evenodd"
                stroke="context-stroke" stroke-width="1pt" />
        </marker>
        <pattern id="pattern435" patternTransform="matrix(.3536 .3536 -.3536 .3536 -372.2 -481.6)"
            preserveAspectRatio="xMidYMid" xlink:href="#pattern432" />
        <pattern id="pattern434" patternTransform="matrix(6.144 -4.302 4.302 6.144 5.58 6.493)"
            preserveAspectRatio="xMidYMid" xlink:href="#stripes-grid" />
        <pattern id="stripes-grid" width="3" height="10" fill="#000000" patternTransform="scale(2)"
            patternUnits="userSpaceOnUse" preserveAspectRatio="xMidYMid">
            <rect width="2" height="10" />
        </pattern>
        <pattern id="pattern432" patternTransform="matrix(.07071 .07071 -.07071 .07071 0 0)"
            preserveAspectRatio="xMidYMid" xlink:href="#Strips1_10" />
        <pattern id="Strips1_10" width="11" height="1" fill="#ffaaaa" patternTransform="translate(0) scale(2)"
            patternUnits="userSpaceOnUse" preserveAspectRatio="xMidYMid">
            <rect y="-.5" width="1" height="2" />
        </pattern>
    </defs>
    <g transform="translate(377.7 488.1)" stroke="#ccc" stroke-dasharray="1.5, 3" stroke-width="1.5"
        style="paint-order:markers fill stroke">
        <path
            d="m274.7 127.8-2.95 2.7-0.8 0.25-1.35 0.15-1.55-0.35-4.65-1.95-1.15-0.45-2-0.25-1.75 0.05-7.45 1.65-4.8 1.2-1.2 0.45-5.85 2.8-4.15 2.2-1.4 1.2-1.2 1.1-1.1 1.7-0.9 2.6-3.35 13.05-1.05 2.9-0.6 0.7-1.05 0.4-3.7-0.25-3.2 0.25-4.5 0.9 5.8 9.5 7.15 13.75 3.55 6.8 6.9 10.3-7.65 4.05-4.1 7.85-2.3 4.2-3.6 5.8-7.4 8.65-0.6 7.1-1.2 0.7-10.1 7.8-12.2 6.25-6.4 2.85-5.4 1.15-4.9 0.75-11.55 5-3.9 1.3-2.8 2.75-3.75 4.05-2.3 0.35-1.65-1.35-0.9-1.7-0.9-13.15-0.8-2.2-1.75-2.05-2.55-1.2-2.7-0.45-3.3 0.75-7 3.5-12.05 3.4-15.45 6.7-11 3-5.65 1.6-5.45 8.95 1.25 40.25 0.6 42.2 2.05 28.85-0.05 7.1-4.15 9.4-8.4 6.25-3.45 5.7-6.95 2.85-2.6 5.4-7.8 4.55-4.25 2.15-5.15 1.2-11.45-1.75-27.55-1.95-7.4-2.45-17.05-5.95 6.2-19.65 6.2-26.85-6.45-37.45 11.2-19.05-14.35-13.1v-17.75l20.25-10.25 10.35-9.2-10.1-15.85-15.2-0.3-0.15-13.95 11.1-18.35 9.3-23.25 4.9-18-0.8-11.15-7.95-8.25-4.4 1.2-17.55 1.9-6.3-13.05 5.5-24.35 9.45-8.9 11.5-5.95 0.8-7.2 1.85-21.45 46.1-6.75 19.35-3.4 8.75 0.85 2.65 0.45-1.5-5.35-1.6-14.25 3.75-6 5.15-4.3 4.85-2.85 7.4-2.9 6.55 0.65 7.85-1.4 9.1 0.6 6.9 3.85 7.3-2.65 11.3 1.95 5.45 1.2 6.3-2.95-9.85-19.95-1.4-1.5-1.95-1.7-2.8-1.75-1.45-2.4-4.7-12.75 12.6-5.5 10.25-0.15 10.85-3.5 9.75 2.25 3.55 21.5 6.85-0.45 11 0.6 22.75 9.65 2.05-2.55 12.15 5.3 3-2.8 7.05-17 2.75-11.2 6.7-10.7 7.6-5.9 23.35-4.8 27.95 3.65 1.6 24.65 6 13.5 1.15 8.8-10.2-1.05-6.5-0.45-3.85 1.55-0.65 5.9-2.45 12.3 3.65 3.45 4.2 7.75 13.55 8.6-6.9 11.35-6.3 5.05-4.5 4-4.2 6.7 0.05 1.1-6.1-3.9-1.35 3.7-2.7 6.35-1.8 3.35-3.2 3.6-4.85 4.05-3.95 1.75-2.6 2.3-2.3 1.7 0.25 2.45-0.15 2.75-0.3 1.6-1.1 3.15 2.65 1.15 3.05 1.4z"
            fill="#ac5c91" style="paint-order:markers fill stroke" />
        <path
            d="m274.7 127.8 0.45 4.9 1 6.3-6.4 1.3 1.1 5.4-0.85 2.8-1.2 1.75 0.45 5.35-3 3.7-4.45 5.25 1 2.15-15.55-2.5-1.2 1.95-20.1 17.9-7.15-13.75-5.8-9.5 4.5-0.9 3.2-0.25 3.7 0.25 1.05-0.4 0.6-0.7 1.05-2.9 3.35-13.05 0.9-2.6 1.1-1.7 1.2-1.1 1.4-1.2 4.15-2.2 5.85-2.8 1.2-0.45 4.8-1.2 7.45-1.65 1.75-0.05 2 0.25 1.15 0.45 4.65 1.95 1.55 0.35 1.35-0.15 0.8-0.25z"
            fill="#d5dc76" style="paint-order:markers fill stroke" />
        <path
            d="m265 185.7-1.35 0.55-8.1 4.95-19.1 10-6.9-10.3-3.55-6.8 20.1-17.9 1.2-1.95 15.55 2.5 2.45 8.15 0.15 6.4z"
            fill="#b5d29f" style="paint-order:markers fill stroke" />
        <path
            d="m280.4 222.3 3 6.05-6.95 5.1-1.05 1.75 0.25 1.05 1.45 1.5h1.15l1.1 13.7 1.15-0.05v0.45l0.3 3.95 0.3 3.8 0.25 3.85 0.3 3.8 0.85 11.55-51.2 3-5.3 9.5-1.15 4.9-3 10.65-2.25 9.2 2.25 13.25v1.85l-0.85 1.15-2.8 0.3-1.1 0.95-0.9 2.45-2.6 4.1-1.55 1.7-10.65 4.1-3.3 2.7-5.15 6.85-8.3 5.9-24.15 24.6-1.95 2.45-0.4 4.8 0.3 8.75 1.4 4.1 6.45 7.25 4.65 6.65 8.95 2.2 4.15 1.2-0.05 6.2-15.55 13.45-5.7 8.5-3.7 10.05-8.05 0.05-5.85 1.5-4.65-4.45-2.2 8.85-8 2.25-1.9-10.05-8.45-6.05-7.15-5.3-2.2-3.2-7.2-9.5-3.6-4.25-2.55-2.7-5.45-2.15-5.55-1.45-5.95-3.5-4.7-0.65-2.45-6.4 1.65-9.15 4.15-9.4 0.05-7.1-2.05-28.85-0.6-42.2-1.25-40.25 5.45-8.95 5.65-1.6 11-3 15.45-6.7 12.05-3.4 7-3.5 3.3-0.75 2.7 0.45 2.55 1.2 1.75 2.05 0.8 2.2 0.9 13.15 0.9 1.7 1.65 1.35 2.3-0.35 3.75-4.05 2.8-2.75 3.9-1.3 11.55-5 4.9-0.75 5.4-1.15 6.4-2.85 12.2-6.25 10.1-7.8 1.2-0.7 0.6-7.1 7.4-8.65 3.6-5.8 2.3-4.2 4.1-7.85 7.65-4.05 19.1-10 8.1-4.95 1.35-0.55 1 3.85 1.35 6.8 4.8 9 0.5 1.3z"
            fill="#b383b3" style="paint-order:markers fill stroke" />
        <path
            d="m427.4 244.4 0.95 5.4-2.55 3.6 0.2 2.5 1.9 6.25 6.15 5.05 7.4 3.85 4.9 5.95 0.15 5.2 1.35 11.05 2.2 13.2 6.05 25.15-4.05 21.25 8.9 19.9-1.85 19.6-5.1 8.9-11.75-4.5-12.55 9.1-13.15 5.25-8.35 1.65-22.25-2.5-15.15 1.4-17.7-7.85-6.45-3.75-6.8 2.85-6.75 0.05-5.35 5.7-1.95 11.75-4.05-6.45-5.2-1.25-6.55-4.05-13.05-2.4-3.25 7.35-2.95 4.45 2.9 9 2 2.75-5.05 7.8-15.6 7.7-10.3 3.75-2.2 4.95-5.85 8.8-15.45 2.85-14.05 5-25.15 48.25-8.15-2.1-16.15-13.25-2.65-11.35-9.6-4.7-3.9-11.8-2.5-14.15 3.7-10.05 5.7-8.5 15.55-13.45 0.05-6.2-4.15-1.2-8.95-2.2-4.65-6.65-6.45-7.25-1.4-4.1-0.3-8.75 0.4-4.8 1.95-2.45 24.15-24.6 8.3-5.9 5.15-6.85 3.3-2.7 10.65-4.1 1.55-1.7 2.6-4.1 0.9-2.45 1.1-0.95 2.8-0.3 0.85-1.15v-1.85l-2.25-13.25 2.25-9.2 3-10.65 1.15-4.9 5.3-9.5 51.2-3-0.85-11.55-0.3-3.8-0.25-3.85-0.3-3.8-0.3-3.95v-0.45l74.2-3.65 10.35-0.15 3.95-0.35 10.6-1 11.8-1.7 8.7-2.25 10.05 0.9 4.45 0.2z"
            fill="#71b37b" style="paint-order:markers fill stroke" />
        <path
            d="m280.4 222.3 5.55-1.85 3.5-4.1 1.15-4.35 7.8-4.45 4.2-1.65 0.75-1.15-0.05-7.75 0.4-1.1-1.65-5.9 8.55-0.9 9.1-1.8h2.8l2.9 0.85 6 3.35 10.45 2.8 6.2 3-0.4 11.7-1.35 8.9 28.95 3.75-1.35 7.45-3.2 10.55 0.15 3.05-1.85 4.55-3.95 0.35-10.35 0.15-74.2 3.65-1.15 0.05-1.1-13.7h-1.15l-1.45-1.5-0.25-1.05 1.05-1.75 6.95-5.1z"
            fill="#8a84a3" style="paint-order:markers fill stroke" />
        <path
            d="m369 247.2 1.85-4.55-0.15-3.05 3.2-10.55 1.35-7.45-28.95-3.75 1.35-8.9 0.4-11.7-6.2-3-10.45-2.8-6-3.35-2.9-0.85h-2.8l-9.1 1.8-8.55 0.9 1.65 5.9-0.4 1.1 0.05 7.75-0.75 1.15-4.2 1.65-7.8 4.45-1.15 4.35-3.5 4.1-5.55 1.85-7.8-15.65-0.5-1.3-4.8-9-1.35-6.8-1-3.85 3.55-3.1 0.55-0.95 4.55 1.95 4.2 0.75 7.2 0.3h4.25l2.55-2.45 2.5-1.05 3.05-0.45 3.15-0.85 1.4-1.3 2.55-4.45 1.8-1.4 13.3 1.2 2.6-6.25 3.2-4.8 9.05-1.6h3.7l2.55-5.15 0.2-6 0.75-8.75 1.25-6.15 1.7-6.8 1.5-4.05 0.5-3.1 2.4 0.05 1.25-8.7-0.1-2.15 2.3 0.5 3.85 1.8 4 1.35 0.5-0.05 2.1-2 3.05 1.25 3.9 0.5 1.25-0.4 1.25-4.25 3.7-0.85 0.65-1.95-1.35-4-1.45-1.25-1.45-1.75 0.25-2.85-1.05-3.45 0.55-0.95 3.8 0.8 3 0.05 2.15-3.35 2.85 0.75 2.1 2.7 1.95-2.4 2.25-1.95 1.8 0.1 40.55 3.4-0.25 3.9-1.4 9 4 0.55 0.8 16.7-0.35 12.65 0.6 5.45 2.05 1.4 2.65 1.1v5.45l8.15 0.3 8.8 0.3 4.6-1.55 4-2.45 12.45-10 13.9-9.85 25.55-12.75 6.05 7.95 1.8 5.05 0.5 5.15 2.7 3.65-11.4 3.35-1.05 1.95 1.15 4.1-0.7 3.25-3.45 2.05-5.05 3.6-1 2.2-6.45 5.1-3.55 2.15-5.05 2.05-6 2.75-4.3 1.95-5.9 4.3-7.5 3.15-2.65 1.9-2.65 3.75-3.4 3-1.95 5.25-2.35 7 8.75 1.25-2.85 4.95-1.85 1.6 0.85 4.45-3.15 3.3-2.55 3.9-2.3 1.75-4.85 2.55-2.4 3.75-2.3 1.9-3.6 4.85-1.8 2.5-1.7 4.55-1.05 4.95-2.4 0.95-5.35 0.15-12.8-1-4.45-0.2-10.05-0.9-8.7 2.25-11.8 1.7z"
            fill="#d09440" style="paint-order:markers fill stroke" />
        <path
            d="m352.4 110.9-2.3-0.5 0.1 2.15-1.25 8.7-2.4-0.05-0.5 3.1-1.5 4.05-1.7 6.8-1.25 6.15-0.75 8.75-0.2 6-2.55 5.15h-3.7l-9.05 1.6-3.2 4.8-2.6 6.25-13.3-1.2-1.8 1.4-2.55 4.45-1.4 1.3-3.15 0.85-3.05 0.45-2.5 1.05-2.55 2.45h-4.25l-7.2-0.3-4.2-0.75-4.55-1.95-0.55 0.95-3.55 3.1 0.45-4.4-0.15-6.4-2.45-8.15-1-2.15 4.45-5.25 3-3.7-0.45-5.35 1.2-1.75 0.85-2.8-1.1-5.4 6.4-1.3-1-6.3-0.45-4.9-2.7-2.95-3.05-1.4-2.65-1.15 1.1-3.15 0.3-1.6 0.15-2.75-0.25-2.45 2.3-1.7 2.6-2.3 3.95-1.75 4.85-4.05 3.2-3.6 1.8-3.35 2.7-6.35 1.35-3.7 6.1 3.9-0.05-1.1 4.2-6.7 4.5-4 6.3-5.05 6.9-11.35-13.55-8.6-4.2-7.75-3.65-3.45 2.45-12.3 0.65-5.9 3.85-1.55 6.5 0.45 10.2 1.05 4.35 0.85 3.95 0.8 3.5-0.55 6.1 7 5.15-3.35 2.6-4.6 2.05-1.5 2.75-0.4 2 0.45 2 1.55 1.15 5.25 3.85 1.75-0.1 1.8-0.65 2.9 5.25 9.45 7.6-6.3 21.15 14.65-0.4 1.65-3.3 8.05-1.8 3.15-5.75 9.45-8.05 5.5-3.95 4.05-4.3 3.45-7.1 3.65-1.75 1.75-6.35 5.5 2.8 2.05 0.05 4.2z"
            fill="#578e86" style="paint-order:markers fill stroke" />
        <path
            d="m165.3-11.29-0.3-5.2 1.5-4.15 4.15-13.7 1.45-15.9 2.05-8.2-2.95-2.15-6.85-0.7-6.45-6.85-4.3-7.85-0.55-6.4 1.15-9.4-0.1-6.45-4.9-0.75-4.55-6.8-0.25-6.25 13.55 0.05 3.4-1.65 10.75-6.9 4.55-2.85 11.75-3.85 16.1-5.5 16-3.95 4.05-0.35 5.15 1.45 4.3 3.1 9.65 5.8 12.35 3.4 10.6 3.05 7.1 0.5 5.2-56.9 2.55-30.9 2.25-24.4-1.3-0.9 3.25-50.8 2.3-7.55-4-1.1-5.65 0.45-8.35 0.65-5.05-4.3-8.35-4.2-4.6-1.55-3.35 0.1-0.3-6.35 0.9-2.85 4.35-7.05 20.15-5.35 5.45-10.8 6.55-2.4 20.4 1.95 6.9 0.9 11.1 6.1 7 8.5 15.65 6.1 7.95 2.15 7.5 2.95 2.5-0.3 1.1-3.75 2.3-9 4.1-4.25 5.3 0.35 7.5 4 3.5-0.4 7.6-1.9 6.15 0.65 6.7 0.75 4.4-1.15 3.75 0.3 1.4 3.45 0.05 4.05-2.45 4.55 2.5 9.7-4 1.9-1.2 2.65 0.6 2.9 6.75 2.7 2.25 2.2 0.05 2.75-0.85 7.7-0.65 5.85-3.25 7.25-2.6 4 0.3 4.35-0.8 6.6-0.35 6.45-3.95 6.45 0.6 3.7 2.15 8.5 1.3 4.4 1.25 0.5 2.3-1.15 1.95-0.45 1.8-1.2 4.9 1.05 3.35 3.35 1 3.65v1.9l-1.45 5.05-1.65 5.15-0.85 0.7-5.8-0.2-3 1.75-4.6-1.45-6.55-1.4-2.75 2.4 2.45 0.9 0.8 4.25 1.95 2.75-0.1 1.05-1.9 3.85 0.35 1.45-2.7 1.8-2.15 3-1.65 1.9 1.75 4.6-1 2.25-0.5 1.95 2.05 0.6 2.3 1 0.9 1.6 1.7 0.9v0.75l0.05 1.2-1.15 1.9-0.3 2.65-0.25 6.25-0.05 1.55 0.15 2.9 0.45 4.4-0.2 1.95-0.7 1.2-1.05 0.95-0.55 0.55 0.95 1.95 1.05 2.1 2.35 3.3 0.7 2.15 1.9 1.4 3.35 1 2.3-0.05 1.65 0.55 0.8 1.65 0.3 1.85 0.3 0.55 1.55 1.9 2.25 5.9-0.45 2.05-0.3 2.25-0.6 1.55 0.5 1.45 0.95 0.25 4.75 0.95-0.1 1.65v16.95l-0.55 1.4-0.85 0.85-2.85 0.95-1.25 1.95-0.8 3.35 0.9 2.3v1.85l-0.2 3.45 1.65 3.2 5.65-0.2 1.1 1.6-2.35 3.9 0.15 1.15 1.45 0.55 4.45-0.3 2 0.65 3.05-0.45 4.45 2.2 5.35 4.35 1.9 2.55 0.7 3.45 0.15 1.3 0.6 1.05 3.55-0.15 1.55 0.1 0.25 1.7 1.4 0.85 1.1 0.95 0.6 1.6-0.6 2.1-0.05 2 0.55 0.75 1.9 1.3 1.55 0.7 3.35 3.6 3.4 4.2 2.9 5 1.85-0.85h2.8l1.2 1.3 0.8 0.95 2.3 0.6 4.05-1.2 2-1.7 1.1-4.95 1.65-1.7 2.8-0.75 1.5 1.05 2.6 0.15 2.2-0.75 2.15-1.5 5.65-3.4 4.85-1.1 1.6-2.2 3.25-1.95 3.75-0.25 1.45 2.15-0.15 2.25-2.1 13.15-0.95 3.75-2.5 4.55-0.8 1.55 0.45 1.35 0.4 2.15 0.25 2.1-0.6 1.9-1.05 2.95-0.9 1.45-1.2 1.55-3.35 1.9-2.5 2.35-1.6 1.85v2.3l-0.2 2.65 1.2 1.3 2.55 0.95 3.1 0.35 1.55 0.6 2.35 1.4 0.8 1.85-0.5 1.65-1.95 3.55-0.55 5.25 1.35 3-1.35 2.05-0.85 2.7-4-0.7-1.9 2.95-2.65 5.2-0.55 3.55 0.65 6.5-0.1 5-6.3 4.8-1.9 3.2 5.85 12.25 4.75 4.9 4.95 4 6.4 8.45 1.05 5.05-1.35 3.9-3.15 4.25 0.1 3.75-25.55 12.75-13.9 9.85-12.45 10-4 2.45-4.6 1.55-8.8-0.3-8.15-0.3v-5.45l-2.65-1.1-2.05-1.4-0.6-5.45 0.35-12.65-0.8-16.7-4-0.55 1.4-9 0.25-3.9-40.55-3.4-1.8-0.1-2.25 1.95-1.95 2.4-2.1-2.7-2.85-0.75-2.15 3.35-3-0.05-3.8-0.8-0.55 0.95 1.05 3.45-0.25 2.85 1.45 1.75 1.45 1.25 1.35 4-0.65 1.95-3.7 0.85-1.25 4.25-1.25 0.4-3.9-0.5-3.05-1.25-2.1 2-0.5 0.05-4-1.35-3.85-1.8 0.95-5.5-0.05-4.2-2.8-2.05 6.35-5.5 1.75-1.75 7.1-3.65 4.3-3.45 3.95-4.05 8.05-5.5 5.75-9.45 1.8-3.15 3.3-8.05 0.4-1.65-21.15-14.65-7.6 6.3-5.25-9.45 0.65-2.9 0.1-1.8-3.85-1.75-1.15-5.25-2-1.55-2-0.45-2.75 0.4-2.05 1.5-2.6 4.6-5.15 3.35-6.1-7-3.5 0.55-3.95-0.8-4.35-0.85-1.15-8.8-6-13.5-1.6-24.65-27.95-3.65-23.35 4.8-7.6 5.9-6.7 10.7-2.75 11.2-7.05 17-3 2.8-12.15-5.3-2.05 2.55-22.75-9.65-11-0.6-6.85 0.45-3.55-21.5z"
            fill="#2c89a0" style="paint-order:markers fill stroke" />
        <path
            d="m165.3-11.29-10.85 3.5-10.25 0.15-12.6 5.5 4.7 12.75 1.45 2.4 2.8 1.75 1.95 1.7 1.4 1.5 9.85 19.95-6.3 2.95-5.45-1.2-11.3-1.95-7.3 2.65-6.9-3.85-9.1-0.6-7.85 1.4-6.55-0.65-7.4 2.9-4.85 2.85-5.15 4.3-3.75 6 1.6 14.25 1.5 5.35-2.65-0.45-8.75-0.85-19.35 3.4-46.1 6.75-16.6 1.25-10.6-76.4 65.05-8.3-1.25-13.25 2.95-1.5 3.45-1.7 5.35-1.4 2.4-1.25 2-3.05 0.05-1.95 1.65-1.5 2.5-0.85 0.7-2.2-1.95-2.25-0.6-2.05 2.15-1.75-2.4-2 3.65-6.6-0.4-3.55-1.3-4.05 0.25-2.25 1.7-0.3 2.95 0.4 0.85-1.3 2.05-7.4 2.05 0.9 15.75 5.8 9.35 4.3 11.95 4.95 4.65-0.5-6-10.9 4.9-0.7-0.1-4.6 1.7-2.55 0.4-6.15-0.05-7.65v-9.9l1.35-6.5 2.8-5-3.7-1.6 5.6-7.75 1.75-2.5 17.5 0.9 11.8 1.45 0.25 6.25 4.55 6.8 4.9 0.75 0.1 6.45-1.15 9.4 0.55 6.4 4.3 7.85 6.45 6.85 6.85 0.7 2.95 2.15-2.05 8.2-1.45 15.9-4.15 13.7-1.5 4.15z"
            fill="#4f93c0" style="paint-order:markers fill stroke" />
        <path
            d="m-80.17-90.09 40.3-3.65 13.45-5.5 23.85-12 4.45-1.75 6.55 1.1 16.7 9.9 7.65 1.95 7.15 2.1 6.25-0.9 4.9 1.5 6.9 9 3.3 6.8 1.8 4.9 2 2.8 2.45 1.25-5.05 4.2-0.5 2.8 0.75 1.55-2.05 7.4-0.85 1.3-2.95-0.4-1.7 0.3-0.25 2.25 1.3 4.05 0.4 3.55-3.65 6.6 2.4 2-2.15 1.75 0.6 2.05 1.95 2.25-0.7 2.2-2.5 0.85-1.65 1.5-0.05 1.95-2 3.05-2.4 1.25-5.35 1.4-3.45 1.7-2.95 1.5 1.25 13.25-65.05 8.3 10.6 76.4-51.3 7.15 6.15-17.2-1.15-29.7-7.1-18.3-7.6-15.35 9.4-26.15-7.45-13.65-5.8-43.65z"
            fill="#69999f" style="paint-order:markers fill stroke" />
        <path
            d="m248.6-301.1 3.35-0.1 4.6 1.55 8.35 4.2 5.05 4.3 8.35-0.65 5.65-0.45 4 1.1-2.3 7.55-3.25 50.8 1.3 0.9-2.25 24.4-2.55 30.9-5.2 56.9-7.1-0.5-10.6-3.05-12.35-3.4-9.65-5.8-4.3-3.1-5.15-1.45-4.05 0.35-16 3.95-16.1 5.5-11.75 3.85-4.55 2.85-10.75 6.9-3.4 1.65-13.55-0.05-11.8-1.45-17.5-0.9-1.75 2.5-5.6 7.75 3.7 1.6-2.8 5-1.35 6.5v9.9l0.05 7.65-0.4 6.15-1.7 2.55 0.1 4.6-4.9 0.7 6 10.9-4.65 0.5-11.95-4.95-9.35-4.3-15.75-5.8-2.05-0.9-0.75-1.55 0.5-2.8 5.05-4.2-2.45-1.25-2-2.8-1.8-4.9-3.3-6.8-6.9-9-4.9-1.5-6.25 0.9-7.15-2.1-7.65-1.95-16.7-9.9-6.55-1.1-4.45 1.75-23.85 12-13.45 5.5-40.3 3.65 7.15-41.15-7.1-40.1-3.1-9.85 9.45-53.7 58.2-56 85.05-78.85 48.85 27.6 35.85 19.7 61.3 19.75 2.6 54.4 16.5 2.85 8.25-0.7 3-1.7 1.8-1.3 1.05-16.85z"
            fill="#d56d76" style="paint-order:markers fill stroke" />
    </g>
    <g transform="translate(377.7 488.1)" stroke="#d35f5f">
        <path
            d="m288-112.4 8.95-1.1 9.55-5.75 4.4-0.05 2.2 66.85-16.85 0.65-1.2 4.4-7.9-1.15-13.45-2.05-18.75-3.6 13.5-16.4 6.9 3.05 6.55 0.3 4.35-6.8 2.05-5.3 2-7.25-0.1-3.15-3.55-0.75 1.9-8.25z"
            fill="url(#pattern435)" />
        <path
            d="m285.6-274.2-3.65 41.55 1.5 1.4-1 12.05-1.2 14.85-1.5 11.55-0.15 6.8-0.65 8.5-2.5 0.7-0.4 1.2 2 4.95-4.5 50.7-13.8-3.5-13.75-3.9-11-7-5.05-3.35-3.4-1-5.45 0.3-4.95 1.15-10.1 3.4-21.2 5.6-6.55 2.15-3.1 1.35-6.35 5.15-4.45 2.4-5.35 2.6-3.45 1.25-3.45 0.15-5.25-0.25-9.1-2.95-6.05 2.4-11.2-0.6 0.05-3.05 0.15-7.05-0.1-2 0.25-1.6v-8.1l-2-7.35-0.75-2.85-0.7-0.85-6.55-2.5-1.6-1.5-2.95-2.65 4.5-1.45 5.4-1.7 4.75-5.4 0.4-0.55 0.9-0.9 3.5-5.7 2.65-2.95 7.1-4.35 2.65-0.4 10.2-1.05h3.45l2.8 0.65 1.9 0.9 1.55 0.5 2.6 0.1 3.4-1.15 2.3-1.25 2.5-0.9 7.65-6.3 19.45-6.55 7.85-11.25-1.75-6.65 2.1-5.95 2.6-2.55 7.85-1.3 3.55-0.8 21.4-4.85 24.3-5.25 3.2-21.8 1.55-17.7z"
            fill="url(#pattern435)" />
        <path
            d="m75.48 277.8 4.85-8.5 2.4-0.95 4.15-0.95 9.55-2.15 17.1-7.65 9-2.55 8.95-3.75 3.8-1.25 3.5 1.2 3.75 5.05 0.75 14.15 5.5 1.7 8.05-7.05 15-6.45 8.15-1.45 12.65-5.35 1.7 2.35 1.75 0.25-1.1 3.45-2.1 7.1 0.9 0.2 6.6 3.65-9 12.4 1.5 4.15-20.8 9.85-18.1 14.85-5.25 5.45-5.5 6.8-1.8 0.7-7.7-5.4-12.9 2.85-41.55 3.35z"
            fill="url(#pattern435)" />
        <path
            d="m492.2 125.8-4.9 3.55-3.75 3.1-10.1 7.05-9.3 7.15-4.1 1.35-18.6-0.2 0.05-5.25-4.75-2.75-0.55-2.6 0.1-14.95-0.45-7.9-1.75-18.05 0.4-2.2 0.8-4.15 1.2-2.5 0.05-4.4 1.25-5.6 2.3-0.3 1-2.55 6.25-14.65 3.15-8 9.65-2.4 1.9-0.6 2.75-1.5 2.5-2.85 8.7-8.4 3.35 1.15 2.55 0.35 0.25 4.25 5.25 0.45 0.6 3.1 11.85 1.35 3.8 0.5h2.15l3.45 3.95 3.25 0.5 6.1 0.85-3.65 5.55-5.6 0.45h-1.05l-1.95 3.6-6.75 1.8-1.65 0.3-0.65 4.45-3.45 9.5 2.45 2.1 4.8 3.85 1.6 2.75 1.15 2.45 2.3 0.7 3.9 1 3.9 1.35 1.8 1 1.5 2.25 1.45 0.85 2.05 0.5 0.3 0.8 1.95 3.25-0.15 1.85 0.15 1.65 0.3 0.7 2.1 0.65 3.35 0.5 0.7 0.35 2 1.9 0.3 1.4-0.1 1.4-1 1.45-1 2.45v1.35l-0.8 1.35-2.75 1.15-1.85 1.55-6.35-8-5.15 1.8z"
            fill="url(#pattern435)" />
        <path
            d="m341.6 312.1 1.8-0.2 2.6 2.1 2.5 1.05 1.15 0.65 2.4 1.75 4.45 2.95 6.05 0.5 11.4-1.95 7.5-1.65 5.85 8.05 9.25 12.75 8.85 3.15 2.85-1.15 1.6-1.4 1.25 1.05-7.5 14.4 4.75 4.8-6.1 18.65 5.05 7.15 3.8 11.8 1.85 16.8-1.6 0.75-5.6-2.8-4.1-0.6-5.2-1.3-5.4-0.35-3 0.7-5.7-0.55-3.7 0.65-1.9 1.6-3.35-1-4.5-0.9-3.3-1.3-3.3-0.85-2.55-1.15-5.25-3.6-2.1-1.5-3-1.45-2.5 0.2-2.85-1.1-0.85-0.8-8-8-0.55-0.65-1.4-1.75-1.3-2.15-1-0.85-3.25-1.7-2.6-1.75-1-0.85-0.35-2.65 0.4-1.95-0.35-1.95 1.4-1.25 0.4-0.9 1.25-2.85 0.3-1.8-0.7-0.65-0.75-0.55-1-1-0.9-1.5-0.1-1.5 0.5-1 1.05-0.8 1.4-0.65 0.5-2.05-0.55-0.8-0.5-0.55 0.15-1.25 0.2-1.2 0.1-1.1-0.1-1.05 0.35-1.45 0.15-1.55-0.25-2.15-0.05-1.1-1.75-2.55-0.45-2.65 0.55-1.7 0.3-1.15 0.2-1.5-0.85-1.75-1.2-0.5-1.35-0.55-0.25-0.8-1.25-3.45-3.35-1.6-2.35-2.25-1.1-2-2.15-1.65-1.75-1.15-2.55-2.45 7.3-3.2h2.35l1.35 0.75 1.55 2z"
            fill="url(#pattern435)" />
        <path
            d="m45.88-263.9 31.65 11.35-4.15 14.45-1.05 9.95-2.15 24.25-0.15 0.35-0.7 1.8-12.05 12.9-8.5 6.85-9.75 12.05-11.8 13.4-9.35-5.5-3.6-1.15-18.25-5.7 17.8-30.2 7.75-12.1 3.6-5.6 7.45-4.25-0.35-5.3-3.1-7.5 2.3-3.55z"
            fill="url(#pattern435)" />
        <path
            d="m77.53-252.6-31.65-11.35-3.3-4.15-5.4-12.35-1.05-8.95 6.65-37.95 2.7-7.95 7-9.7 20.1-9.95 6.7-3.25-0.8-13.6 9.8-1.8 15.4 1.8 4.25-20.3 0.4-1.9 2.85-12.9 17.5 0.35 17.4 6.2 5.85-7.4 8.7 7.05 15 13.25-3.45 24.75-1.75 5.8-1.25 2.95-7.05 10.95-10.65 16.75-8.25 14.4-2.1 4.7-1.5 1.65-5.9 2.85-10.15 11.15-7 7-6.6 16.2-1.3 2.35-2.85 1.35-25.4 8.35z"
            fill="url(#pattern435)" />
        <path
            d="m72.03-205.7 0.7-8.25 1.7-18.85 0.6-4.15 4.85-13.4 0.8-2.35 1.65-1.4 24.4-8.65 2.7-1.1 1.25-1 2.6-6.4 4.85-1.9 18.7-4.55 14.3 1.15 15.95 3.7 0.1 2.95 1.35 5.95-2.9 5.2-1.3 5.4-2.9 6.65 0.5 4.7 2.4 4.65 4.2 3.2 3.55 3.15 1.25 5.95-2.3 9.1-1.35 4.65-2.15 1.25-8.6 2.8-15.7 2.35-7.75-0.5-4.35 0.75-4.05 1.25-2.95 0.85-4.75-0.5-3.95 1-16.35-0.05-11.45-1.05-12.4-0.75-2.5-0.55z"
            fill="url(#pattern435)" />
        <path
            d="m300.3-282.8 12.25-16.4-7.65-3.3-3-3.5 12.45-7 9.2-0.8 14 3.8 11.25 5.5 11.6 2 1.45 3.6-5.25 8-0.65 8.95-1.75 20.75 0.1 1.55 1.4 9.7-0.35 3.7 1.65 3.6 3.85 3.45 2.3 2.05 0.85 3.2-0.85 3.15 2.45 4.95-2.95 5.9 0.9 7.1 0.15 1.25 2.55 3.6 1.25 5.25 0.45 1.75-0.25 6.2-1.15 7.9 1.2 5.1-1.45 10.9-13.7-0.3-2.2 0.75-0.9 1.7 1.45 5.4-0.25 3.25-0.1 1.15 0.2 1.6-1.6 1.25-1.95-0.15-1.1 1.25-0.75 3.6-1.4-0.25-0.3 0.4-1.85 0.75-4.65-6.75-4.1 1.15 0.55 4.1 0.7 1.65 1.8 1.4 1.45 1.3 0.15 2.8-0.75 3.45-6 1.1-0.95 12.8 0.9 3.75v0.85l-5.85 0.7-3.4-0.5-3.5 0.35-6.7 0.45-6.25 0.65-2.6 1.2-4.25 2.75-4.45 1.75-2.95 0.7-1.1-0.3 13.6-29-4.05-0.75-0.05-4.65-10.5-5.05-1.05-0.25 2.1-22.4h-0.65l1.05-14.1 3.45-31.55 2.4-17.25 1.5-15.8 0.95-11.8 0.7-2.85z"
            fill="url(#pattern435)" />
        <path d="m262.3 26.06-4.7-2.2-1.15-1.4-0.3-1.95 1.2-2.25 2.6-1.4 2.95-2.65 3.65 2.05z"
            fill="url(#pattern435)" />
        <path
            d="m290.1 25.56-1.95-13.95-1.65-26.2 2.85-4.15-2.85-5.6-0.8-2.65-0.55-1.8 0.75-0.9 7.25 1.7 10.5 1.65 6.65 1.5 2.3 0.5-0.5 17.4 0.55 7.6 2.8 7.5 3.75 6.75 1.25 7.6-8.05 0.95-1.2-2.8-11.8 0.35 0.05 2.6-4.6 0.95z"
            fill="url(#pattern435)" />
        <path d="m278.1-15.39-6.1 1.3-0.65-5.85 6.6-0.35z" fill="url(#pattern435)" />
        <path
            d="m162-60.74-9.1-14.3-0.9-2.35 1.4-17.75 0.65-3.55-5.15-0.25-3.15-5.45-1.3-2.25 0.5-5.05h2.05l11.55-0.1 7-4.2 11.9-7.15 5-2.45 20.75-6.55 19.9-4.7 1.1 0.15 6.5 2.3 6.45 4.7 7 3.2 18.95 5.2 3.7 1.35 2.45 2.75 0.4 2.5-0.1 9.6 1.3 2.5 3.1 1 6.95 0.45 5.5 2.7-0.95 4.65-4.25 7.3-7 8.25-13.5 14.65-6.65 8.3-35.45 0.75-4.75 0.5-9.1 2.6-5.85 1.55-3.85-0.4-17-1.2-4.35-0.35 0.5-7.8z"
            fill="url(#pattern435)" />
        <path
            d="m240.9-26.24-11.1-5.2-0.15-9.75 0.05-0.5 0.65-11.95 20.6-0.3 3.4 1.25 31.6 5.55-0.3 9.85-1.25 1.55-20.4-4.5-2.8 3.05-7.75 1.8-7.8-0.8z"
            fill="url(#pattern435)" />
        <path d="m229.7-41.69-19.25 0.95-12.5 0.3 0.25-8.45 9.05-2.1 6.9-2.35 16.2-0.3z" fill="url(#pattern435)" />
        <path
            d="m198.2-48.89-0.25 8.45 12.5-0.3 19.25-0.95-0.05 0.5 0.15 9.75 11.1 5.2-0.55 6.8 5.25 12-5.5 16.2-6.7 14.5-7.3-0.9-2.25-0.25-2.85-2.15-1.45 2.05-13.4-5.85-7.95-3.45-5.9 0.8-0.85 3.3-3.15 1.4-4.1 2.8-22.3-3.15 3.2-20.2 1.15-14.75 1.15-3.45 5.65-29.75z"
            fill="url(#pattern435)" />
        <path
            d="m290.1 25.56-7.1 1.95 1.25 5.15-45.45 16.3-4.3-0.7-3.55-8.35 0.15-3.6 11.95-14.3 3.05-13.15-0.7-8.5 2.1-8.9 3.2-6.2 3-1.9 3.2-2.65 4.4-2.9 11.85-2.7 9.7-2.05 2.85-0.05 0.8 2.65 2.85 5.6-2.85 4.15 1.65 26.2z"
            fill="url(#pattern435)" />
        <path d="m27.93-305.1-3.15-0.7-1.05-1.4-0.15-1.55 1.3-1.6 5.15-1.75 1.05 0.05-0.5 2.1z"
            fill="url(#pattern435)" />
        <path
            d="m174.3 255.9-9.35-6.65-3.2-5.25-3.25 2.7-4.6-5.55-0.8-4.1-3.2-3.05-1.2-2.05 1.45-10.6 0.35-2.5 8.1-4 1.8-2 0.8-2.95-1.1-8.8 0.5-3.5 1.9-3.25 6.4-5.9 1.95-2.7 3.95-5.95 16-15.7 1.7-1 2.15-1.7 4.55-0.35-0.4 15.85v2.5l-0.35 10.05 2.75-0.35 1.15 2.4-1.4 2.9 4.25 4.75 2 0.6 4.7-2.8 5.15 4.35 2.3 2.8 1.95 2.15-4.15 6 8.1 8.5-7.35 3.8-3.5 3.45-3.9 6.7-0.6 1.35 0.2 0.6-9.2 7.55-3.65 2.75-17.8 8.2z"
            fill="url(#pattern435)" />
    </g>
    <path
        d="m8.08 570.9 1.95-1.75 14.75-20.35 7.6-10.7 2.4-2.55 2.85-2.15 15-6.95 4.6-0.75 3.3 0.4 17.7 5.75 15.2 4.8 4.95 0.65 5.8-0.4 6.35-1.25 6.5-2.45 5.95-3.55 24.4-23.2 4.6-4.85 5.7-3.9 18.3-11 3-1.6 21-12.55 4.05-3.15 2.25-4.15 2.9-11.7 1.5-4 2.3-3.4 1.85-1.8 1.55-1.4 3.8-3.25 7.95-6.5 0.6-0.5 8.75-7.2 12.4-10.2 4.5-3.25 3.1-1.5 3.2-1.05 3.45-0.75 14.5-3 52.25-8.8 5.9-2.05 18.45-8.65 19.95-9.45 4.5-1.3 4.1 0.05 1.7 0.4 7.65 3.5 16.5 8.55 1.9 0.9 2.7 0.55 4.05 0.15 4.7-0.75 3.8-1.8 3.15-2.05 3.75-3.1 13.65-11 2-1.55 1.9-1.55 6.6-5.15"
        fill="none" stroke="url(#pattern434)" stroke-width="5" />
    <path
        d="m651.3 368.1 4.5-50.7-2-4.95 0.4-1.2 2.5-0.7 0.65-8.5 0.15-6.8 1.5-11.55 1.2-14.85 1-12.05-1.5-1.4 1.35-16.8 1.65-17 0.65-7.75 0.85-9.45 13.85 0.9-0.95 12.2-0.7 2.85-0.95 11.8-1.5 15.8-2.4 17.25-3.45 31.55-1.05 14.1h0.65l-2.1 22.4 1.05 0.25 10.5 5.05 0.05 4.65 4.05 0.75-13.6 29-3.9 1.7-0.85 10.5-12.15-1.1-0.6-0.6 1-14.2z"
        fill="#d5e5ff" fill-opacity=".6178" />
    <g transform="translate(143.9 391.2)" fill="none" stroke="#ccc" stroke-width="2.5">
        <path
            d="m417.3 181.3 1 1.85 0.65 0.7 1.7 1.3 0.5 0.45 0.9 0.9 0.35 0.5 0.25 0.5 0.5 1.7 0.15 2-0.1 3.2-0.75 3.15-1.15 3.5-0.45 2.55 0.05 0.2 0.95 3.3 1.8 4.95 0.85 3.3 0.55 2.3 0.4 2.05 1.2 2.7 2.15 3.05 3 3.7 0.05 0.25 1.45 3.55 2.8 7.6 1.05 2.9 0.15 0.3 2.45 7.4 0.85 1.7 0.65 1.15 1.35 1.85 2.15 1.8" />
        <path
            d="m479.2 312.5v-0.7l-0.3-0.75-2.4-3.95-3-4.55-3.15-4.85-3.4-5-0.6-0.85-1.15-1.75-0.25-0.4-2.25-4.1-1.2-2.1-1.25-2.75-3.8-6.85-0.6-1.1-1.5-3-5.35-9.45-0.75-1.45-0.45-0.55" />
        <path
            d="m330.1-25.06 1.05 0.35 0.95 0.55 5.8 3.4 3.2 1.15 2.3 0.8 1.05 0.35 1.5 0.25 2.9 0.45 2.8 0.25 1.6 0.1 11.45 0.75 1.1 0.05 4.45 0.35 2.45 0.2 7.5 0.35 7.1 0.3h1.85l1.3-0.2 1.45-0.3 1.6-0.5 1.95-0.85 1.65-0.9 3.15-2.2 1.6-0.95 3.85-2.8 5-2.85 2.25-0.9 2.95-1.2 2.95-1.05 6.75-2.1 2.4-0.75 11.2-3.75 0.7-0.2 14-3.55 1.65-0.2 2.15-0.2 2.6 0.25 1.5 0.55 1.3 0.45 2.05 1.15 2 1.45 3.2 2.65 3.85 2.45 1.85 0.85 1.7 0.65 3.15 1.25 4.9 1.35 9.5 2.2 5.25 1.55 2.2 0.75 0.8 0.45 0.65 0.7 0.3 0.6 0.1 0.6-0.1 1.25 0.55 11.85 0.45 0.75 0.65 0.6 0.9 0.45 1.65 0.35 8.85 1.15 1-0.15 0.8-0.3 0.55-0.5 0.65-0.6 0.3-0.95 0.15-1.4 0.25-6.8 0.3-0.85 0.55-0.45 0.55-0.1 0.5-0.1 1.8-0.1 2.85-0.25 1.25-0.2 1.4-0.5 1.3-0.7 3.45-2.1 1.65-0.9 2.1-1.2 1.25-0.5 1.3-0.3h1.2l3.05-0.15 4.1-0.3 2.6-0.1 4.1-0.4 2.45-0.3 8.55-1.25 6.8-1.4 8.6-1.8 2.05-0.5 8.05-2.6 3.35-1.3 3.3-0.9" />
        <path
            d="m321.4 362.8 7.05-1.35 1.4-0.4 13.55-6.05 2.2-0.85 2.9-0.95 2.75-0.65 3.35-0.8 2.65-0.75 2.25-1.15 3.75-2.05 1.55-0.75 1.8-0.5 1.35-0.3 1.8 0.1 1.4 0.2 1.35 0.4 1.15 0.55 0.55 0.45 0.85 0.8 0.85 1.05 0.8 1.2 0.35 1.8 0.55 8.7 0.1 3.45 0.4 1.25 0.6 1 1.1 0.75 1.4 0.4h0.85l0.8-0.6 3.7-4.55 1.25-1.1 1.5-1.05 1.6-0.65 7.35-2.3 3.95-1.7 1.3-0.5 3-1.3 1.35-0.25 2.85-0.3 1.25-0.15 1.5-0.25 2.45-1.05 11.3-5.3 3.6-1.85 2.75-1.75 1.8-1.25 6.15-4.85 1.95-1.4 1-0.7 1.55-0.4 4.75-0.95 3.65-0.75 3.45-0.45 4.85-1.15 1.3-0.2 1.35-0.05 1.45 0.15 2.65 0.15 4.6 0.3 5.2 0.2 11.3-0.05 0.75 0.05 9.75-0.2 3.6-0.05 1 0.05 1.3-0.05h0.95l0.7-0.2 0.45-0.3 0.3-0.5 0.05-0.6-0.25-0.85-0.7-1.6-2.5-5.1-2.4-4.85-1.7-5.25-1.3-3.35-0.15-0.5-1.2-2.8" />
        <path
            d="m469.6 298.1 0.75-0.4 9.5-4.8 7.6-4 0.45-0.25 10.95-6.55 2.15-1.75 1.3-1.8 0.5-0.65 5.85-12.3 2.3-4.8 0.75-1.7 0.8-3.2 0.5-3.3-0.05-4.95-0.15-1.3-2.4-10.9-1.5-6.75" />
        <path
            d="m479.3 332.4 0.05-1.1 0.05-2.45-0.1-1.8-0.3-1.7-0.3-0.7-0.25-1.1-0.9-2.15-1.2-2.9-0.3-0.85-0.3-0.75-0.3-0.95-0.2-0.45-0.25-0.7" />
        <path
            d="m493.1 400.1-0.45-1.95-0.5-2.05 0.2-7.35-0.35-3.7-0.3-3.95-0.35-3.75-0.15-3.65-0.15-3.75-0.4-4.2-0.35-3.75-0.6-3.9-0.6-1.15 0.05-1.55 0.2-1.95 0.7-3.6 0.55-1.5 1.3-6.95 0.05-1.25v-1.75l-0.5-1.55-0.55-1.85-0.35-2.65" />
        <path
            d="m493.1 400.1 1.5 3.6 2.35 4.1 1.05 1.5 2.55 3 2.9 3.25 1.95 2.3 0.9 1.3 0.65 1.05 1.25 2.25 1.3 2.6 1.75 3.35 0.95 1.45 1.8 2.3 0.5 0.75 0.7 1.1 1 1.55 2.1 3.2 0.85 1.5 1.15 2.05 1.75 2.85 0.45 0.7 0.3 0.85 0.85 2.8 1.15 4.1 0.85 3.15 0.2 1.1 0.85 2.9 2.6 9.65 0.05 0.4 1.25 7.55 0.5 2.6 2.3 12.9 0.85 7 0.1 2.15 0.4 0.35 2.75 2.85 1.1 4.55 0.35 3.1 0.65 5.1-0.15 2.05-0.3 5.1 0.5 1.55 1.3 3.65 3.75 5.45 2.25 0.95 1.35 0.8 5.9 2.05 3.6 0.95 7.3 1.75 7.7 1.15 1.3 0.3 2.8 1.05 3 1.15 2.9 1.05 0.9 0.45 1.85 1.2 2.35 1.6 2.6 1.45 2.65 1.5 3.25 1.8 0.35 0.2 6.65 2.55 1.05 0.4 1.8 1.5 2.2 1.85 2.6 1.95 10.7 6 1.3 1 2.95 2.2 6.95 5.2 2.85 1.25 1.15 0.5 2.15 2.2 1.05 1.05 1.7 0.6 1.2 0.45 0.6-0.1 3.8-0.65 1.3 0.25 7.5 2.7 4.3 2.2 0.95 0.5 2 0.8 5.95 2.45 9.2 4.45 2.45 1.2 9.05 3.55 6.25 2 7.45 2.4 9.05 2.3 3.4 0.85 3.1 1.25 2.55 1 1.3-0.25 4.4 1.8 5.6 3.9 2.4 1.05 0.5 0.2 1.45 0.65 8.75 0.4 2.6 0.35 2.3 0.3 0.65-0.15 3.2-0.85 4.5-1.45 2.5-1.15 1.45-0.65 5.35-1.55 4.2-2.4 0.4-0.35 1.8-1.55 3.45-1.35 5.6-1.6 0.55-0.15"
            marker-end="url(#Triangle)" />
        <path
            d="m446.5 258.7 0.9 0.85 1.3 1.8 1.8 2.7 3.3 6.3 1.5 2.9 4.35 8.05 1.15 2.5 1.2 2.2 2.35 4.1 1.45 2.2 3.85 5.85 3.2 4.8 1.25 1.95 1.75 2.55 2 3.1 0.45 0.75 0.45 0.85 0.5 0.4" />
        <path
            d="m445.3 256.2-1.15-0.75-0.9-0.75-0.95-0.85-0.95-1.2-0.6-1.25-1.55-3.9-1.25-3.55-0.25-0.7-3.6-10.5-0.65-1.4-0.95-2.25-0.15-0.25-2.9-3.65-2.25-2.9-1.2-2.85-0.45-2-0.4-2.1-0.95-3.35-1.8-5.05-1-3.35 0.55-2.7 1.1-3.15 0.7-3.2 0.2-3.4-0.05-2.1-0.45-1.85-0.4-0.8-0.55-0.7-1.05-0.85-0.35-0.4-0.7-0.65-1.25-1.15-1.85-1.4" />
        <path d="m477.7 313.8 2.9-0.65 7.05-2.55 11.55-4.35" />
        <path
            d="m506.4 303 0.05-0.65-2-4-2.5-4.15-0.2-0.35-0.4-1.3-0.3-1.25-0.6-3.6-0.05-0.2-0.35-1.8-0.6-1.75-0.55-1.85" />
        <path
            d="m607.9 52.59-0.55 0.05-11.1 0.45-3.45 0.05-3.2-0.35-2.3-0.65-3.3-1-3.8-1.55-0.5-0.2-5.2-1.4-5.65-1.55-2.9-0.9-0.65-0.2h-4l-3.6 0.05-3.1 0.05-3.35 0.05-3.6-0.1-15.5 0.3-0.55 0.05-0.4 0.15-0.3 0.2-0.1 0.3-0.1 2.65-0.05 0.45-0.15 0.3-0.15 0.2-0.4 0.1h-0.95l-5.5-0.7-2.55-0.35-14.65-1.95-18.65-4-2.6-0.5-34.5 0.45-2.5 0.15-1 0.25-11.9 3.65-1.5 0.25h-2.4l-5.5-0.4-4.8-0.35-4.5-0.3h-0.4l-4.3-0.3-1.9-0.15-0.9-0.05h-1l-1.55 0.05h-0.75l-3.85-0.05h-0.75l-8.55-0.05-1.8 0.1-3.25 0.05-14.05 0.25-0.85-0.1-5.25-0.75-2.55-0.35-6.25-1.1-1.9 0.35-0.8 0.4-2 0.95-5.45 3.65-1.9 1.4-1.95 0.85-1.5 0.15-3.5-1.1-2.45-0.8-0.3-0.1-0.8-0.35-0.75-0.3-3.6-1.4-5.15-2.6-4.25-2.25-2.8-1.2-3.9-1.7-1.25-0.5-4.05-1.35-2.1-0.65-3.35-1-2-0.65-0.9-0.45-1.4-0.65-3.25-1.7-3.4-1.8-3.1-1.55-2.3-0.9-6.9-2.4-2.35-0.75-4.85-1.5-5.9-1.75-9.6-2.85-3.8-1.35-8.3-2.4-0.25-0.15-5.5-1.8-6.6-2.25-4.95-1.6-4.85-1.65-3.55-1.15-4.15-1.3-1.5-0.5-2.65-0.9-2.25-0.7-2.45-0.4-2.4-0.1-1.95 0.1-3.05 0.15-3 0.15-4.75 0.3-1.85-0.1-2.3-0.15-3.05-0.35h-0.35l-4.6-0.45h-2.4l-4-0.05-2.4 0.1-1.55 0.05-2.85 0.35-2.6 0.55-2.15 0.7-1.55 0.6-1.9 1-0.7 0.4-1.05 0.35-3.55 1.2-2.6 0.8-1.45 0.35-1 0.25-1.3 0.05-3.75 0.2h-2.25l-5.35-0.1-6.5 0.1-3.55 0.15-4.15 0.2-2.75-0.15h-0.5l-1.85-0.15-2.1-0.2-5.75-0.9" />
        <path d="m479.2 312.5-0.7 0.6-0.8 0.65" />
        <path d="m499.2 306.2 6.75-2.8 0.4-0.4" />
        <path d="m475 314.8 2.75-1" />
        <path
            d="m65.74 4.84-1.4-0.05-10.85-0.25-1.7-0.15-0.8-0.2-0.95-0.25-1.45-0.9-3.15-2.95-1.1-1.25-1.4-1.55-1.5-2.2-3.1-5.4-0.95-2.7-0.8-2.1-0.8-3.5-1.35-3.65-1.05-2.3-1.8-2.85-1.1-1.5-1.65-1.6-2.5-1.65-3.2-1.95-1.05-0.4-2.45-1.15-3.7-1.75-14.95-8.15-0.8-0.45-7.65-6.25-2.2-1.8-0.35-0.2-2.15-1.1-0.3-0.15-2.6-1.4-0.85-0.6-2.9-2.1-0.9-0.65-2.7-2.3-2.75-2.35-1-0.8-0.7-0.6-4.35-3.05-2.65-1.55-2.95-1-1.35-0.35-1.9-0.2-2.9 0.35-1.25-0.15-0.8-0.4-3.65-2.65-1.45-0.75-1.75-0.6-3-0.45h-2.35l-0.6 0.1-1.2 0.15-1.7 0.25-1.2 0.35-0.9 0.2-3.25 1.1-7.9 2.75-7.8 2.7-4.4 1.7-4.95 1.4-2.75 0.35-3.5 1.15-1.55 0.15-2.55-0.25-8.15-1.05-5.3-0.7-4.5-0.55-7.45-0.3-9 0.6"
            marker-end="url(#Triangle)" />
        <path
            d="m417.3 181.3-2.8-4.05-8.25-13.5-0.6-0.9-3.55-5.85-4.1-6.65-7-11.4-2.35-3.75-1.05-1.65-1.25-2.3-1.6-2.75-5.6-10.8-1.25-2.65-0.35-0.8-0.35-0.4-0.8-0.8-1-0.65-3.2-2.05-0.8-0.9-0.5-0.6-0.7-1.2-4.7-12-0.5-1.35-0.55-1.05-0.8-1.35-2.3-2.35-2.35-2.45-0.25-0.7-3.55-6.7-1.7-3.2-0.35-0.65-2.15-4.05-2.6-5-0.8-1.6-0.4-1.05-1.05-4.35-0.45-1.55-2.65-6.65-3.15-4.6-4.4-6.55-0.5-1.5-0.25-1.65-0.5-7.4-0.05-0.9-0.65-7.2-0.95-4.3-0.5-1.7-2.2-8.25-0.7-2.5-0.4-1.4-1.45-5.05-1.4-4.45-0.45-1.95-1.35-3.9-1.1-3.85-0.15-0.9-0.2-0.95 0.15-0.95 0.25-1.05 0.8-1.35 2.9-3 1.15-0.95 1.05-0.35h1.1" />
        <path
            d="m780.7-234.1-4.8-3.5-1.4-1-4.75-3.05-10.15 0.6-5.4-0.85-1.5-0.45-0.6-0.55-0.65-0.9-0.25-1.1-0.2-2-0.55-1.05-0.9-0.35-1.4 0.05-1.8 0.4-1.95 0.6-1 0.55-2.3 1.35-0.5 0.2-1.2 0.55-1.65 0.3-0.3 0.1-2.15 0.05-0.65-0.05h-0.2l-3.2-0.15-4.05-0.6-2.5-0.4-2.15-0.45-2.9-0.65-3.2-0.7-2.3-0.15-1.7-0.5-5.65-2.4-1.6-0.4-1.45-0.05-1.55 0.6-0.7 0.25-0.8 0.35-1.5 0.45-1.1-0.1-1.55-0.1-3.55-1.5-4.35-1.55-5.3-4-0.8-0.25h-0.65l-0.9 0.25-0.5 0.45-5.35 7.2-1.5 1.8-1 0.85-1.6 0.55-0.95-0.05-0.75-0.6-0.8-1.3-1.3-2.65-2.15-3.2-0.55-0.6-0.9-0.55-0.9-0.25-6.7-1.15-0.45-0.1h-1.6l-1.55 0.45-7.75 3.05-2.5 0.55-5 0.55-5.9 0.15"
            marker-start="url(#Triangle)" />
        <path d="m109.2 8.59-2.85-0.45-6.9-0.85-2.2-0.3-2.4-0.3-8-0.6-8.05-0.65-2.2-0.1-3.2-0.15-7.65-0.35" />
    </g>
    <g transform="translate(377.7 488.1)" fill="none" stroke="#ffe680" stroke-width="5">
        <path
            d="m416.5-469.6 1.65 10.6 1.15 6.5 0.45 1.6 0.8 2.1 3.25 7.5 0.65 2.15 0.15 1.95-0.05 1.25-0.1 2.15-0.5 5.9-0.2 3.2 0.15 3 0.1 1.5 0.7 2.95 0.65 1.15 0.85 1 1.4 1 1.65 1.05 1.65 1.6 0.65 1.25 0.35 1.05 0.25 1.2 0.1 0.8 0.15 0.95-0.15 2.45-0.15 2.95-0.35 1.25-0.45 1.25-0.75 1.15-0.7 0.9-1 0.8-1.55 1.2-2.05 1.2-2.65 1.05-3.25 1.25-5.6 1.65-2.4 1.15-1.6 0.8-0.95 0.9-1.35 1.15-0.55 1.05-0.4 0.9-1.1 2 0.65 4.5 0.15 0.95-0.2 3.9-0.15 2.45-0.45 1.8-0.9 2.2-1.45 3.3-1.6 3.65-1.6 3.4-0.85 2.4-0.65 1.6-0.85 2.75-0.05 0.2-1.1 3.2-1.5 6-1.15 3.95-0.85 3.2-0.45 1.45-0.45 1.65-0.4 1.7-0.05 1.35 0.25 1.35"
            marker-start="url(#Triangle)" />
        <path d="m391.7-324.2 1.15 4" />
        <path d="m392.9-320.2 1.4 6.65 0.05 0.65 0.15 1.45-0.1 2.6 0.05 3.7-0.05 1.95-0.1 2.35-0.15 1.95-0.65 2.5" />
        <path
            d="m378.4 27.31 0.65-1.45 0.4-3.6v-2.55l-0.05-1.6-0.05-1.3-0.75-8.85-0.15-2.25-0.4-5.3-0.1-1.75-0.4-5.65-0.05-0.4-0.3-4.45-0.5-7.65-0.05-0.45-0.5-5.2-0.55-5.65-0.1-0.7-0.45-4.75-0.95-7.95-0.05-0.2-1.1-11.05-1.15-7.9-0.25-1.95-0.5-4.7-0.3-3.55-0.65-8.95-0.05-0.9-0.1-0.8-0.3-3.95-0.65-6.1-0.6-5.6-0.2-2.55-0.35-3.05-0.4-4.6-0.4-5.3-0.15-2.35-0.15-1.7-0.6-8.6-0.1-0.5-0.2375-2.438" />
        <path
            d="m376.5-167.1-2.35 2.3-3.75 3.65-1.65 2.05-2.55 4.25-1.3 4.45-1.1 7.25-0.1 1.8 0.15 1.7 1.45 5.95 0.5 2.2 0.05 1.1 0.275 1.462" />
        <path
            d="m393.5-296.4-1 1.9-1.85 3.55-0.7 2.6-1.2 3.85-0.55 2-1.2 2.9-3.5 7.95-0.6 1.6-0.6 3.3-0.5 7.35-0.65 9.35-0.75 10.95-0.4 2.3-0.2 1.35-0.5 2.25-0.9 4.3-1 4.85-0.1 0.6-0.9 4.3-0.4 1.8-1.1 7.8-0.3 3.15 0.3 3 1.65 6.25 2.95 10.3 0.05 4.55-0.1 1.45-0.25 2.8-0.35 4.4-0.75 2.85-1.05 2.45-0.5 1.25" />
        <path d="m378.4 27.31-0.1 0.3-1.8 4.15-1.75 2.5-0.7 0.65-1.6 1.85-0.75 0.8-1.45 1.4-1.25 1" />
        <path
            d="m164.1 191.8-1.5 1.15-1.25 1.4-1.4 2.8-0.4 2.3-0.25 2.6 0.25 5.45 0.25 1.75 0.05 1.05-0.25 1.1-0.4 0.95-1.15 1.25-1.15 0.9-5.3 2.35-2.05 1-1.9 1.6-3.4 3.4-1.25 0.55-5.9 1.65-1.15 0.65-1.25 1.1-2.5 2.85-0.9 0.7-1.75 1.1-1.25 0.8-1.4 1-0.9 0.95-0.8 1-0.65 0.95-1.7 3.75-0.35 1.2-0.35 1.65-0.5 1.95-0.75 1.85-0.4 0.75-0.65 0.65-1.25 0.9-1.7 1.2-2.25 1.25-3.2 1.6-4.1 1.8-3.3 1.55-1.95 1.35-4.15 3.15-2.2 1.6-2.15 1.2-3 1.25-3.05 1.1-5.7 1.65-1.3 0.35-1.95 0.45-3.15 0.75-0.95 0.4-1 0.4-1.55 0.7-0.45 0.35-1.1 0.75-1.2 1.1-3.2 3.2-1.2 1.25-3.15 3.4-0.5 0.55-1.2 1.1-3.75 4-1.75 1.8-3.95 4-1.65 1.15-2.15 1.55-0.7 0.5-0.55 0.5-0.5 0.55-0.4 0.65-0.75 1.35-0.6 1.55-0.45 1.1-1.6 4.4-1.45 3.6-0.6 1.45-1.65 4.05-0.65 1.85-0.9 2.4-0.3 0.85-0.45 1.65-0.55 2.25-0.1 0.55-0.8 4-0.25 1.55-0.2 1.95v0.3l-0.25 6.1-0.45 2.15-0.6 1.25-0.9 1.15-0.45 0.65-0.7 0.85-0.65 0.7-1.8 2.25-2.1 3.05-1.1 2-0.65 1.45-0.35 0.75-0.2 0.5-1.5 4.2-0.6 1.65-0.35 0.8-2.45 4.6-1.25 1.95-2 3.1-0.7 1.1-3.15 4.85-2.3 3.8-0.55 1.45-0.25 3.15-0.05 0.55-0.3 3.95-0.2 2.3-0.65 2.35-1.8 4.4-0.3 0.85-0.65 1.7-0.8 2-1.5 3.85-3.25 6.85-2.45 5.35-2 3.65-1.1 2.9-1.35 2.95-6.4 10.45-0.6 0.95-1.75 2.7-0.6 0.95-7.9 12.9-1.25 1.75-2.85 4.5-1.25 2.45-3.85 8.4-7.15 15.2-2.35 4.35-1.5 3.25-2.2 4.75-0.9 1.35-1.3 1.05-5.35 3.35-2.45 1.45-1.35 1-1.4 1.6-1.75 2.6-3.35 5.45-3.95 5.45-0.9 1.2-1.9 2.3-3.1 2.5-1.35 1.85-1.2 3.8-0.6 0.95-1.25 1.05-3.45 1.35-3.1 1.35-1.6 1.3-2.45 3.45-2.2 2.35-0.5 0.8-1.05 1.35-3.35 1.4-3.45 1.75-1.45 0.5-1.65-0.05-2.35-0.05-3.45 0.15-3 0.45-1.8 0.4-1.15 0.45-1.65 1.05-2.75 2.7-1.35 0.9-3.7 2.4-6.2 2.7-1.35 0.65-4.55 2.55-1.25 0.75-1.8 1.15" />
        <path
            d="m213.6 160.7 1.308 0.0221 1.071-0.1174 1.143-0.2663 1.304-0.25 2.904-0.1406 2.25 0.15 1.45 0.1 0.8-0.3 0.4-0.65 1.85-5.35 2.25-8.75 0.25-1.1 1-3.15 0.8-1.5 1.15-1.25 1.15-1.15 1.85-1.15 1.45-0.7 4.35-2.25 1.65-0.8 0.85-0.4 1.7-0.6 1.65-0.4 8.85-1.95 1.45-0.3 2-0.2 1.15 0.05 0.75 0.2 2.05 0.7 1.05 0.6 1.85 0.75 1.05 0.5 1.4 0.15 1.25-0.2 1.55-0.45 2.35-1.55 0.9-0.8 0.6-0.75 4.3-5.25 3.6-4.5 3.75-4.55 4.15-4.95 0.5-0.6 0.55-0.7 3.05-3.4 7.25-7.95 5.3-6 2.4-2.6 4.3-4 3.1-2.65 3.25-3.05 1.75-1.95 4-4.45 5.45-5.45 1.05-1 2-1.9 6.05-5.2 2.5-2.1 1.35-0.95 2.95-1.55 1.35-0.4 1.35-0.6 2.45-1.1 1.8-0.85 1.65-1.05 6.25-4.45 4.35-3.1 0.8-1.15" />
        <path d="m164.1 191.8 4.6-4.45 1.7-2.7 1.45-2.25 1.15-1.4 1.75-2 3.5-3.55 7.25-7.25" />
        <path
            d="m185.5 168.2 2.95-3.1 2-1.75 0.95-0.85 1.75-1.35 0.4-0.25 0.9-0.4 1.65-0.45 1.85-0.15 7.2-0.25 2.4 0.25 1.4 0.15 1.546 0.3627 1.004 0.1453 1.529 0.1092" />
    </g>
    <g transform="translate(377.8 488.1)" fill="none" stroke="#d35f5f" stroke-width="5">
        <path d="m99.12-473.9-3.271 5.78" marker-start="url(#Triangle)" />
        <path
            d="m-140.8 570.3 2.2-3 2.15-3.8 0.25-0.35 1.5-2.65 1.9-4 0.6-1.25 0.3-1.3 0.15-1.15-0.25-1.85-0.4-1.5-0.7-1-0.8-0.9-2.1-1.5-2.3-1.05-8.35-4-7.1-3.8-6.15-3.2-2.55-1.3-1.45-1.05-1.9-1.55-1.1-1.2-0.95-1.2-1.35-1.9-2.4-4-1.85-3.75-0.6-1.8-0.25-1.95 0.1-1.85 0.15-2.95 0.5-2.35 0.95-6.9 1.2-9.05 0.8-8.4-0.05-3.1-0.25-2.35-0.4-2-1.35-6.05-2.7-10.3-4.15-14.15-1.05-2.3-6.85-8.9" />
        <path
            d="m-124.9-241.4 1.3-1.45 3.6-3.35 2.95-2.55 2.8-2.35 1.85-2 1.6-2.35 0.65-2.3 0.4-2.3v-2.5l0.65-3.1 0.55-1.45 0.7-1.1 1.7-2.35 2.2-2.15 1.5-1.8 2.45-2.75 1.5-1.5 1.55-1.95 2-2.15 3-3.3 2.8-3.25 3.7-4.2 5.3-5.9 2.85-3 1.55-1.85 1.05-1.25 1-1.2 4.05-4.05 3.05-2.3 2.15-1.5 3.1-2.15 3.4-2.15 1.75-1.15 4.5-2.8 2.05-1.5 2.4-1.7 2.25-1.55 3.4-2.25 1.8-1 1.8-1.4 1.3-1.35 0.85-0.8 1.35-1.25 1.55-1.75 1.25-1.35 2-2.2 1.55-1.95 2.35-2.35 2.1-2.35 1.9-2.5 0.6-1.25 1-1.95 1.5-3.25 1.35-4.05 1.3-3 2.3-5.5 1.15-3 1.2-2.45 1.1-3 0.6-1.4 0.4-1 1.05-2.8 2.05-4.6 0.8-2.3 1-2.15 1.2-2.75 1.25-2.65 0.6-1.25 1.05-1.8 1-1 1.5-1.35 1.6-1.05 1.6-0.7 2.85-0.9 3.65-0.95 3-0.8 5.1-1.35 9.25-2.15 4.25-1 6.1-1.45 4.35-1.25 2.35-0.9 1.6-0.8 1.25-0.9 0.7-0.7 1.45-1.4 2.35-3.85 1.05-1.7 2.2-4.6 2.45-5.55 1.55-3.35 4.35-9.35 1.15-2.35 1.75-2.55 2.85-3.1 2.35-1.85 1.75-0.95 1.25-0.7 1.45-0.4 2.4-0.5 1.95-0.3 3.2-0.25 2-0.25 1.65-0.55 1.2-0.6 1.2-0.95 1.05-1.15 1.05-1.6 0.65-1.3" />
        <path
            d="m-124.9-241.4-2.25 2.7-1.05 1.55-0.8 1.55-1.2 3.2-1 2.95-0.4 1.95-2.15 9.3-0.95 4.65-2.25 11.15-1.1 5.65-0.25 1.2-0.3 1.3-0.65 3.05-0.6 2.3-0.5 2.2-0.55 3.2-0.45 5.75-0.3 1.4-0.3 1.6-0.4 1.5-0.5 1.25-0.85 1.5-1.55 2.2-0.9 1.1-0.7 0.85-2.1 2.3-2.95 2.7-3.45 2.15-3.7 2.7-1.45 1.1-1.45 1.4-1.25 1.45-0.6 1.15-0.25 1.05v1.45l0.3 0.95 0.95 1.7 1.1 1.7 0.65 1.5 0.45 1.65v1.6l-0.15 2.1-0.25 1.45-0.35 1.15-4.35 14.4-0.35 1.05-1.6 5.15-0.35 1.55-0.3 2.7-0.25 5 0.4 13.1" />
        <path
            d="m-168.1-92.14 0.45 5.35 0.25 1.65 0.6 1.7 0.95 3.2 0.9 1.95 0.95 2.25 0.4 1.35 0.65 2.55 1.5 3.95 0.3 1 0.6 2.85 0.6 3.05 1.3 6.15 0.65 2.7 0.05 0.35 0.4 3.7 0.05 0.45 0.25 1.65 0.65 1.8 0.8 2.1 2.05 5.3 1.25 2.85 1.2 2.25 2 3.05 3.55 3.95 1.85 1.9 1.9 2.4 0.9 1.55 0.7 1.95 0.3 1.55 0.05 1.1-0.2 2.9-0.05 0.5-0.45 2.25-1.8 6.75-1.1 3.9-0.25 0.6-1 2.45-0.3 0.6-1.8 3.4-1.75 2.7-0.9 1.4-3.95 4.9-6.25 6.9-2.6 2.75-0.5 0.45-4.05 4.15-2.25 3-1.85 3.1-0.9 1.85-2 6.1-3.25 8.65-0.8 2.7-1.9 5.2-1.6 4.5-0.7 1.65-1.05 2.6-1.25 2.15-1.05 1.45-1.4 1.6-1.65 1.25-2.25 1.6-4.1 2.3-0.65 0.35-10.7 6.35" />
        <path
            d="m-187.4 433.7-4.15-5.15-2.7-3.15-1.55-1.95-2.8-3.5-4.5-6.25-0.85-1.1-1.75-2.25-2.4-3.7-1.2-1.9-0.15-0.25-2.85-6-1.45-3.85-3.35-8.95-6-10.25-3.15-3.2-7.05-6.65-3.2-3.15-5.35-5.15-0.85-0.8-7.65-7.65-3.2-3.25-1.7-3.05-0.35-1.7-0.6-2.75-0.6-5.65-0.2-1.55-0.95-6.45-2.2-18.85-1.6-12.2 0.8-3 2.15-4.2 4.75-9.45 3.45-6.35 2.15-3.95 7.75-15.9-0.05-0.55-0.05-2.7-0.8-2.75-0.15-0.55-1.15-1.55-0.7-0.95-1.4-1.95-6.3-9.7-0.25-0.35-9.95-14.65-4.15-6.9-7.05-10.4-1.05-2-1.25-2.3-2.8-5.1-2.6-9.05-3.2-11.5-2.05-6-0.75-2.25-0.4-1.7-1.8-7.6-3.2-9.7-0.15-0.6-0.25-2.9 0.65-2.2 1.55-2.35 2.6-2 9.05-7.3 1.3-1 6.05-2.85 7.5-0.9 9.3-1.3 3.2-1.45 0.65-0.35 2.25-1.25 8.4-5.3 12.35-7.95 2.6-1.45 10.6-6.05 2.6-1.45 4.2-2.6 0.95-0.6" />
        <path
            d="m-235.6 720 1.35-1.95 1.45-1.95 1.15-2 0.7-1.55 0.75-2.1 0.9-4 0.65-2.8 0.1-0.35 0.1-0.3 0.45-1.45 4.95-12.5 0.8-1.85 0.7-1.15 1.2-2 2.55-2.85 6.8-8.8 1.6-2.4 1-1.35 0.4-0.55 1.8-3 0.5-0.8 2.15-2.85 1.8-2.45 1.7-2.2 1.05-1.9 1.3-2.5 0.9-2.3 1.45-3.8 1.15-3.45 0.6-1.55 1.15-1.75 0.75-0.9 1.75-2.35 1.95-2.65 2.2-3.05 2.35-4.1 0.8-1.3 1.4-2.85 3.9-8.1 1.05-2.55 0.55-1.75 0.8-3.25 0.5-2 0.3-1.45 0.6-1.7 1.4-2.1 1-1.15 2.85-1.85 7.95-5.05 3.65-2.8 6.85-5.6 1.65-1.45 0.95-1.05 1.65-2.05 1.3-2.15 2.2-3.65 1.3-2.3"
            marker-start="url(#Triangle)" />
    </g>
    <g transform="matrix(.2682 0 0 .2627 537.2 509.3)">
        <path transform="matrix(3.728 0 0 3.806 -1887 1434)"
            d="m508.2-376.7c-1.24 0-1.937 0.6411-1.937 1.951v13.5c0 1.225 0.6267 1.867 1.866 1.867h13.56c1.239 0 1.867-0.6096 1.867-1.867v-13.5c0-1.278-0.6277-1.951-1.906-1.951 0 0-13.45-4e-3 -13.45 0z"
            fill="#2c5aa0" stroke="#fff" stroke-width=".08858" />
        <path
            d="m12 32.75v11.5a20 10 0 0 0 20 10 20 10 0 0 0 20-10v-11.5l-20 9.001-10-4.502v7.002l-2.5-2.5-2.5 2.5v-9.25z"
            fill="#fff" stroke-width="0" />
        <rect transform="matrix(.9119 .4104 -.9119 .4104 0 0)" x="31.86" y="-3.229" width="32.9" height="32.9"
            fill="#fff" stroke-width="0" />
    </g>
    <g transform="translate(-171.3 867.7)">
        <path
            d="m627.1-518.9c-1.24 0-1.937 0.6411-1.937 1.951v13.5c0 1.225 0.6267 1.867 1.866 1.867h13.56c1.239 0 1.867-0.6096 1.867-1.867v-13.5c0-1.278-0.6277-1.951-1.906-1.951 0 0-13.45-4e-3 -13.45 0z"
            fill="#975d3b" stroke="#fff" stroke-width=".08858" />
        <g transform="matrix(.03 0 0 .03 624.7 -519.5)" fill="#fff">
            <path
                d="m305.8 476h67.63l49.36 72.37h39.82l-69.01-103.5c23.01-3.708 45.92-27.71 45.92-56.96v-213.9c0-30.19-25.4-57.91-59.91-57.91l-73.53-0.049h3e-3l-74.1 0.049c-34.51 0-59.91 27.71-59.91 57.91v213.9c0 29.25 22.91 53.25 45.92 56.96l-69.01 103.5h39.82l49.36-72.37h67.57z" />
            <path
                d="m283.7 109.9c-9.165 0-16.59-7.429-16.59-16.59 0-9.162 7.427-16.59 16.59-16.59 9.162 0 16.59 7.428 16.59 16.59 0 9.165-7.429 16.59-16.59 16.59z" />
            <path
                d="m327.8 109.9c9.165 0 16.59-7.429 16.59-16.59 0-9.162-7.427-16.59-16.59-16.59-9.163 0-16.59 7.428-16.59 16.59 0 9.165 7.428 16.59 16.59 16.59z" />
        </g>
        <g transform="matrix(.03 0 0 .03 624.7 -519.5)" fill="#975d3b">
            <path
                d="m380.2 413.6c14.5 0 26.26-11.76 26.26-26.26 0-14.5-11.76-26.26-26.26-26.26s-26.26 11.76-26.26 26.26c0 14.5 11.76 26.26 26.26 26.26z" />
            <path
                d="m305.8 274.7h71.81c16.5 0 30-11.33 29.85-29.83v-38.5c0-16-10.35-29.96-29.85-29.96h-143.6c-19.5 0-29.85 13.96-29.85 29.96v38.5c-0.152 18.5 13.35 29.83 29.85 29.83h71.75z" />
            <path
                d="m305.8 164.9h29.06c5.5 0 9.816-4.513 9.816-9.763v-17c0-5.25-4.566-9.66-9.816-9.66h-58.12c-5.25 0-9.816 4.41-9.816 9.66v17c0 5.25 4.316 9.763 9.816 9.763h29z" />
            <path
                d="m230.7 413.6c-14.5 0-26.26-11.76-26.26-26.26 0-14.5 11.76-26.26 26.26-26.26s26.26 11.76 26.26 26.26c0 14.5-11.76 26.26-26.26 26.26z" />
        </g>
    </g>
    <g transform="translate(31 886.1)">
        <path
            d="m626.5-544.3c-1.24 0-1.937 0.6411-1.937 1.951v13.5c0 1.225 0.6267 1.867 1.866 1.867h13.56c1.239 0 1.867-0.6096 1.867-1.867v-13.5c0-1.278-0.6277-1.951-1.906-1.951 0 0-13.45-4e-3 -13.45 0z"
            fill="#273452" stroke="#fff" stroke-width=".08858" />
        <path
            d="m632.5-541.9c2e-3 -1.02 1.539-1.02 1.538 0.0287v4.281l5.993 3.602v1.582l-5.964-1.963v3.199l1.38 1.078v1.251l-2.128-0.6614-2.128 0.6614v-1.251l1.366-1.078v-3.199l-5.965 1.963v-1.582l5.907-3.602z"
            fill="#fff" />
    </g>
    <g fill-rule="evenodd">
        <circle cx="601.1" cy="688.1" r="6.375" fill="#d40000" style="paint-order:markers fill stroke" />
        <path d="m600 684.7v2.43h-2.645v2.387h2.645v2.52h2.738v-2.52h2.219v-2.387h-2.219v-2.43z" fill="#fff"
            style="paint-order:markers fill stroke" />
    </g>
    <g fill="#000000" font-family="sans-serif" font-size="18px" font-weight="bold" text-anchor="middle">
        <g transform="translate(484.5 645.7)">
            <switch>
                <text systemLanguage="zh">一保</text>
                <text systemLanguage="en">Ward 1</text>
                <text systemLanguage="my">ရပ်ကွက် ၁</text>
                <text>Ward 1</text>
            </switch>
        </g>
        <g transform="translate(623.6 642.7)">
            <switch>
                <text systemLanguage="zh">二保</text>
                <text systemLanguage="en">Ward 2</text>
                <text systemLanguage="my">ရပ်ကွက် ၂</text>
                <text>Ward 2</text>
            </switch>
        </g>
        <g transform="translate(624.8 680.5)">
            <switch>
                <text systemLanguage="zh">三保</text>
                <text systemLanguage="en">Ward 3</text>
                <text systemLanguage="my">ရပ်ကွက် ၃</text>
                <text>Ward 3</text>
            </switch>
        </g>
        <g transform="translate(540.6 822.1)">
            <switch>
                <text systemLanguage="zh">四保</text>
                <text systemLanguage="en">Ward 4</text>
                <text systemLanguage="my">ရပ်ကွက် ၄</text>
                <text>Ward 4</text>
            </switch>
        </g>
        <g transform="translate(663.9 829.5)">
            <switch>
                <text systemLanguage="zh">五保</text>
                <text systemLanguage="en">Ward 5</text>
                <text systemLanguage="my">ရပ်ကွက် ၅</text>
                <text>Ward 5</text>
            </switch>
        </g>
        <g transform="translate(704.1 725.5)">
            <switch>
                <text systemLanguage="zh">六保</text>
                <text systemLanguage="en">Ward 6</text>
                <text systemLanguage="my">ရပ်ကွက် ၆</text>
                <text>Ward 6</text>
            </switch>
        </g>
        <g transform="translate(775.0 670.5)">
            <switch>
                <text systemLanguage="zh">七保</text>
                <text systemLanguage="en">Ward 7</text>
                <text systemLanguage="my">ရပ်ကွက် ၇</text>
                <text>Ward 7</text>
            </switch>
        </g>
        <g transform="translate(694.4 606.2)">
            <switch>
                <text systemLanguage="zh">八保</text>
                <text systemLanguage="en">Ward 8</text>
                <text systemLanguage="my">ရပ်ကွက် ၈</text>
                <text>Ward 8</text>
            </switch>
        </g>
        <g transform="translate(413.4 355.2)">
            <switch>
                <text systemLanguage="zh">九保</text>
                <text systemLanguage="en">Ward 9</text>
                <text systemLanguage="my">ရပ်ကွက် ၉</text>
                <text>Ward 9</text>
            </switch>
        </g>
        <g transform="translate(453.3 512.4)">
            <switch>
                <text systemLanguage="zh">十保</text>
                <text systemLanguage="en">Ward 10</text>
                <text systemLanguage="my">ရပ်ကွက် ၁၀</text>
                <text>Ward 10</text>
            </switch>
        </g>
        <g transform="translate(356.7 454.5)">
            <switch>
                <text systemLanguage="zh">十一保</text>
                <text systemLanguage="en">Ward 11</text>
                <text systemLanguage="my">ရပ်ကွက် ၁၁</text>
                <text>Ward 11</text>
            </switch>
        </g>
        <g transform="translate(738.8 394.2)">
            <switch>
                <text systemLanguage="zh">十二保</text>
                <text systemLanguage="en">Ward 12</text>
                <text systemLanguage="my">ရပ်ကွက် ၁၂</text>
                <text>Ward 12</text>
            </switch>
        </g>
    </g>

    <g fill="#000000" font-family="sans-serif" font-size="16px" font-weight="bold" text-anchor="start">
        <g transform="translate(491.6 21.4)">
            <switch>
                <text systemLanguage="zh">至木邦</text>
                <text systemLanguage="en">To Hseni</text>
                <text systemLanguage="my">ဆီနီသို့</text>
                <text>To Hseni</text>
            </switch>
        </g>
        <g transform="translate(812.5 22.0)">
            <switch>
                <text systemLanguage="zh">至木邦</text>
                <text systemLanguage="en">To Hseni</text>
                <text systemLanguage="my">ဆီနီသို့</text>
                <text>To Hseni</text>
            </switch>
        </g>
        <g transform="translate(7.8 305.7)">
            <switch>
                <text systemLanguage="zh">至南渡</text>
                <text systemLanguage="en">To Namtu</text>
                <text systemLanguage="my">နမ္မတူသို့</text>
                <text>To Namtu</text>
            </switch>
        </g>
        <g transform="translate(930.3 176.5)" text-anchor="end">
            <switch>
                <text systemLanguage="zh">至勐瑶</text>
                <text systemLanguage="en">To Mongyaw</text>
                <text systemLanguage="my">မိုင်းယော်သို့</text>
                <text>To Mongyaw</text>
            </switch>
        </g>
        <g transform="translate(930.8 1027.9)" text-anchor="end">
            <switch>
                <text systemLanguage="zh">至勐瑶</text>
                <text systemLanguage="en">To Mongyaw</text>
                <text systemLanguage="my">မိုင်းယော်သို့</text>
                <text>To Mongyaw</text>
            </switch>
        </g>
        <g transform="translate(170.0 1215.0)">
            <switch>
                <text systemLanguage="zh">至昔卜</text>
                <text systemLanguage="en">To Hsipaw</text>
                <text systemLanguage="my">သီပေါသို့</text>
                <text>To Hsipaw</text>
            </switch>
        </g>
    </g>

    <g transform="translate(159.1 588)">
        <rect x="-30.7" y="-21.4" width="61.5" height="42.8" fill="#ff0" stroke="#000" stroke-width="2" />

        <g fill="#000000" font-family="sans-serif" font-size="18.67px" font-weight="bold">
            <text dx="-1.45em" dy="0.35em">NH37</text>
        </g>
    </g>
    <g transform="translate(-250.1 1266)">
        <path
            d="m628.7-438.5c-1.24 0-1.937 0.6411-1.937 1.951v13.5c0 1.225 0.6267 1.867 1.866 1.867h13.56c1.239 0 1.867-0.6096 1.867-1.867v-13.5c0-1.278-0.6277-1.951-1.906-1.951 0 0-13.45-4e-3 -13.45 0z"
            fill="#c98d21" stroke="#fff" stroke-width=".08858" />
        <path
            d="m635.5-435.9c-1.208 0-2.875 0.3451-3.566 0.6326s-1.15 0.5751-1.294 1.294l-0.5176 3.985v5.491h0.8914v0.8612c0 1.05 1.537 1.05 1.537 0v-0.8612h5.795v0.8612c0 1.05 1.537 1.05 1.537 0v-0.8612h0.8914v-5.491l-0.5176-3.985c-0.1438-0.7189-0.6038-1.006-1.294-1.294s-2.358-0.6326-3.566-0.6326"
            fill="#fff" />
        <g transform="matrix(.03 0 0 .03 626.2 -439)" fill="#c98d21" stroke="#fff" stroke-width="2.953">
            <g fill="#c98d21" stroke="#fff" stroke-width="2.953">
                <path
                    d="m429.1 426c13.57 0 24.57-11 24.57-24.57s-11-24.57-24.57-24.57-24.57 11-24.57 24.57 11 24.57 24.57 24.57z" />
                <path
                    d="m184.8 426c-13.57 0-24.57-11-24.57-24.57s11-24.57 24.57-24.57 24.57 11 24.57 24.57-11 24.57-24.57 24.57z" />
            </g>
            <path d="m305.1 158.4h-71.14c-14.38 0-14.38-21.57 0-21.57h146.1c14.38 0 14.38 21.57 0 21.57z" />
            <path
                d="m305.1 180.1h-109.9c-15.19 0-19.16 7.718-21 19.42l-13.43 96.35c-1.253 9.235 1.419 18.4 14.18 18.4h264.1c12.76 0 15.43-9.167 14.18-18.4l-13.43-96.35c-1.844-11.7-5.812-19.42-21-19.42z" />
        </g>
    </g>
</svg>