<svg stroke-linecap="round" stroke-linejoin="round" version="1.2" viewBox="0 0 800 800"
    xmlns="http://www.w3.org/2000/svg">
    <defs>
        <marker id="Triangle" overflow="visible" markerHeight="1" markerWidth="1" orient="auto-start-reverse"
            preserveAspectRatio="xMidYMid" viewBox="0 0 1 1">
            <path transform="scale(.5)" d="m5.77 0-8.65 5v-10z" fill="context-stroke" fill-rule="evenodd"
                stroke="context-stroke" stroke-width="1pt" />
        </marker>
    </defs>
    <g transform="translate(0,32)" stroke="#24221c">
        <path
            d="m152.7 512.3 6.76-74.55 11.74-27.99 19.97-31.75 44.16-75.57 22.5 13.44 5.28 3.43 4.9 5.17-0.03 4.1 3.64 1.75 4.43 2.49 2.25 3.97 4.32 3.25 1.83 3.71-1.21 2.91-0.99 4.23 1.49 4.36 2.4 2.15 5.07 0.67 1.84 1.51 1.05 1.66 0.49 4.03 1.36 3.52 1.34 4.21 2.64 1.61 4.31 4.21 3.3 1.95 4.51 1.44-0.06 3.14 0.12 1.88 4.88 10.38 1.69 4.31 0.15 2.77-0.46 2.4-0.91 3.94 0.04 7.16 30.87 7.44 22.21 5.4 1.41 0.62 0.69 0.32 0.65 1.16 0.98 0.54 0.39 0.52 0.35 1.93 0.51 0.2 0.96-0.63 0.39-1.2 0.65-1.25 1.24-0.62 2.13 1.54-0.18 0.76-0.43 1.26-0.7 3.11-3.74 1.51-0.64 0.48-0.34 1.71 2.94 2.39 5.36 0.7 1.75 0.85 1.85 1.96 2.22 1.28 2.05 1.43 1.57 0.9 0.36 0.59-0.18 0.98-0.27 3.11 0.48 3.04 1.32 1.9-0.13 3.59-0.07 2.89 0.63 2.21 0.78 4 0.86 3.86 1.6 5.33 1.05 0.9 1.2 1.03-0.19 1.44-1.95 4.14-0.44 2.3 2.86 3.74 3.35 3.3-1.96-0.67-1.19-0.24-1.45 0.31-4.72 0.92-2.85 0.46-1.61 0.25-0.61 0.51-1.05 1.52-0.49-0.03-0.92-0.29-0.72-0.14-0.69-0.34-0.41 0.17-0.64-0.14-0.44-0.49 0.04-0.63 0.15-0.58 0.18-0.39 0.43-0.66 0.13-0.59-0.42-0.87-1.28-0.53-0.4 0.12-0.48 0.93-0.01 0.74-0.53 0.42-0.97-0.16-0.86 0.24-0.61 0.59-0.73 0.72-0.63 0.92-0.84 0.45-0.92 0.38-1.29 0.42-0.19 0.39-0.56 0.37-0.5 0.07-2.95-0.08-2.35-0.02-1.06 0.15-1.45-0.19-0.78-0.18-0.81-0.08-1.22 0.11-0.76 0.21-0.84-0.49-1.42-1.55-0.96-1.3-0.07-0.1-1.63-2.26-1.04-0.57-0.86-0.22-0.68-0.01-0.72 0.11-0.23 0.35-0.29 0.96-0.21 0.15h-0.31l-0.67-0.35-1.06-0.9-0.63-0.11-0.69-0.04-0.37 0.14-0.3 0.3-0.49 1-1.35 0.89-1.15 0.14-0.72 0.16-0.75 0.72-0.39 0.2-2.16 0.06-7.39 0.04-0.98 0.08-2.89 0.21-1.96 0.14-0.81-0.64-1.41-1.48-0.41-0.24-0.33-0.33-0.06-0.38v-0.51l-0.21-0.31-0.29-0.18-0.5-0.1-0.57-0.1-0.55-0.36-0.86-0.63-0.78-0.67-0.53-0.31-0.13-0.18-0.42-0.53-0.49-0.98-0.6-0.66-0.66-0.4-0.49-0.27-0.52-0.15-0.74-0.15-1.19-0.04-0.65 0.09-0.2-0.06-0.2-0.1-0.36-0.4-0.65-0.83-0.5-1.11-0.18-0.86-0.21-0.27-0.32-0.17-0.18-0.05-0.41 0.12-0.65 0.29h-0.34l-0.39-0.2-0.21-0.35-0.47-0.73-0.2-0.23-0.33-0.12-0.59-0.16-1.63-0.1-0.37-0.11-0.27-0.25-0.25-0.42-0.55-0.49-0.53-0.4-0.52-0.15-0.77-0.14-0.53-0.15-0.55-0.19-0.23-0.2-0.11-0.47-0.57-1.41-0.13-0.26-0.17-0.15-0.96-0.52-0.6-0.2-0.37-0.05-1.6-0.12-0.64-0.11-0.52-0.23-0.35-0.28-0.24-0.27-0.3-0.31-0.35-0.15-0.89-0.11-0.93 0.25-0.49 0.06-0.37-0.04-0.45-0.08-1.76-0.54-0.45-0.01-0.37 0.01-0.48 0.2-0.49 0.02-0.71-0.39-0.25-0.4-0.22-1.24-0.21-0.3-0.31-0.2-1.38 0.04-0.99-0.03-0.37-0.13-0.46-0.2-1.44-1.26-1.53-0.85-0.42-0.15-0.46-0.15-0.98-0.11-0.83 0.02-0.79 0.32-0.57 0.01-0.4-0.24-0.55-0.26-1.06-0.46-0.68-0.28-0.59-0.14-0.12-0.03-0.44 0.07-0.53 0.33-0.66 0.58-0.19 0.41-0.18 0.41-0.38 0.82-0.69 1.04-0.88 0.95-0.68 1-0.37 0.57-0.84 1.7-0.93 1.73-0.34 0.69-0.66 0.63-0.64 1.03-0.61 0.49-1.56 0.77-1.59 0.63-0.51 0.14-0.27 0.01-0.4-0.16-0.98-0.6-0.42-0.09-0.38-0.02-0.7 0.3-0.49 0.81-0.32 0.72 0.02 0.53 0.09 0.79 0.09 0.69-0.17 0.64-0.32 0.72-0.23 0.43-0.51 0.32-1.01 0.48-0.51 0.12h-1.58l-0.46 0.16-0.41 0.19-0.24 0.26-0.37 0.94-0.22 0.34-0.19 0.19-0.38 0.13-5.23 1.73-1.2 0.41-0.43 0.24-0.44 0.65-1.01 1.68-0.33 0.86-0.57 0.45-0.56 0.3-2.1 0.53-0.81 0.11-0.27-0.3-0.31-0.16-0.37 0.05-0.66 0.18-0.35 0.27-0.44 0.5-0.18 0.07h-0.28l-0.48-0.05-0.49-0.03-0.34 0.1-0.18 0.25-0.1 0.34-0.36 1.34-0.07 0.42-0.15 0.46-0.34 0.17-0.71 0.04-3.34-0.47-1.05-0.11-0.13 0.02-0.58 0.1-0.64 0.31-1.16 0.85-1.76 0.55-2.04 0.25-1.3 0.07-0.54 0.22-0.41 0.25-0.25 0.43-0.86 1.39-0.34 0.29-2.72 1.91-1.68 1.09-0.99-0.3-0.16 0.17-0.18 1.02-0.21 0.27-0.42 0.05-0.54-0.03-0.9-0.28-0.8-0.03-1.88 0.27-1.98 0.11-1.95 0.79h-0.59l-0.74-0.22-0.33-0.36-0.17-0.4-1.21-1.26-1.28-1.08-0.99-1.1-1.03-0.13-0.46 0.05-1.94 0.74-2.52 1.56-1.2 0.84-1.5 0.38-0.77-0.15-1.18-0.51-0.9-0.71-0.67-0.91-0.31-0.31-0.5-0.06-1.21 0.23-2.94 1.2-2.07 0.82-0.61 0.24-0.31 0.32-0.39 0.75-0.55 0.94-0.78 0.63-1.24 0.3-0.9 0.22-0.43 0.26-0.54 0.42-1.54 1.2-0.53 0.1-0.42-0.06-0.47-0.19-0.63-0.74-0.77-0.82-0.79-0.27-0.97 0.15-1.78 0.37-1.81 0.19-1.4 0.54h-0.78l-0.44-0.12-0.37-0.65-1.16-2.09-0.14-0.37-0.65-0.3-1.48-0.25-1.05-0.03-0.78-0.24-0.46-0.25-0.4-0.67-0.92-0.59z"
            fill="#b5d29f" />
        <path
            d="m235.3 302.4 47.9-50.97 43.47-40.79 40.92-48.89 46.48-39.15 69.23-49.01 46.39-31.39 19.8-20.18 21.12-21.05 6.59 1.21 6.18 7.76 4.87 5.41-1.93 2.83-7.84 4.9-1.77 7.18-0.28 3.61 2.48-0.39 2.36-3.36 3.83 0.98-2.27 3.84-4.84 4.23-1.41 2.75 0.19 16.42 2.2 7.62 4.84 8.86 8.64 8.3 7.9 7.84 6.21 5.72 8.73 0.87 4.11 1.87 3.08 3.07 1.97 2.06 6.34 6.62 2.94 4.8 4.93 10.56 0.92 3.28 1.77 4.83 3.86 8.24 3.31 6.75 0.92 5.97 2.56 2.15 0.81 2.25 2.6 3.82 2.66 5.55 4.63 0.84 10.59 41.51 0.56 0.66 1.21 1.44 15.45 13.76 4.54 3.51 22.75 18.08 0.57 0.53v1.44l-22.05 21.7-11.21 10.15-10.71 8.69-2.24 4.09-16.63-14.32-45.78 24.01-15.81 7.49-19.55 9.37-14.73 6.74-8.7 4.29-13.77 7.61-2.62 1.37-5.07 3.78-20.85 13.53 1.13 2.24-19.72 27.95 8.94 4.59-2.35 6.44-1.21 2.32-5.13 4.79-9.04 6.46-3.03 2.86-3.31 2.83-3.01 1.22-5.32 1.3-1.17 0.34-2.26 1.9-2.38 2.92-4.28 4.73-1.39 2.19-1.7 1.38-2.6 2.21-0.56 1.42 0.53 2.24-1.61 0.91-3.47 0.73-2.07 1.16-2.41 1.62-2.88 0.74-2.04-0.85-1.98-0.54-2.29-0.03-1.24-1.16-1.18-1.31-2.19-2.32-0.16-1.33 0.9-3.68 0.49-0.97-0.58-0.28-2.6 2.41-6.78 3-6.84 1.39-2.66-0.51-4.21 0.96-4.42 3.57-4.09 0.63-1.39 0.79 1.11 2.83 0.13 1.56h-2.29l-1.07 1.76-0.36-0.59-1.57-0.9-2.05-1.43-2.22-1.28-1.85-1.96-1.75-0.85-5.36-0.7-2.94-2.39 0.34-1.71 0.64-0.48 3.74-1.51 0.7-3.11 0.43-1.26 0.18-0.76-2.13-1.54-1.24 0.62-0.65 1.25-0.39 1.2-0.96 0.63-0.51-0.2-0.35-1.93-0.39-0.52-0.98-0.54-0.65-1.16-0.69-0.32-1.41-0.62-22.21-5.4-30.87-7.44-0.04-7.16 0.91-3.94 0.46-2.4-0.15-2.77-1.69-4.31-4.88-10.38-0.12-1.88 0.06-3.14-4.51-1.44-3.3-1.95-4.31-4.21-2.64-1.61-1.34-4.21-1.36-3.52-0.49-4.03-1.05-1.66-1.84-1.51-5.07-0.67-2.4-2.15-1.49-4.36 0.99-4.23 1.21-2.91-1.83-3.71-4.32-3.25-2.25-3.97-4.43-2.49-3.64-1.75 0.03-4.1-4.9-5.17-5.28-3.43z"
            fill="#d5dc76" />
        <path
            d="m152.7 512.3 1.26 1.13 0.92 0.59 0.4 0.67 0.46 0.25 0.78 0.24 1.05 0.03 1.48 0.25 0.65 0.3 0.14 0.37 1.16 2.09 0.37 0.65 0.44 0.12h0.78l1.4-0.54 1.81-0.19 1.78-0.37 0.97-0.15 0.79 0.27 0.77 0.82 0.63 0.74 0.47 0.19 0.42 0.06 0.53-0.1 1.54-1.2 0.54-0.42 0.43-0.26 0.9-0.22 1.24-0.3 0.78-0.63 0.55-0.94 0.39-0.75 0.31-0.32 0.61-0.24 2.07-0.82 2.94-1.2 1.21-0.23 0.5 0.06 0.31 0.31 0.67 0.91 0.9 0.71 1.18 0.51 0.77 0.15 1.5-0.38 1.2-0.84 2.52-1.56 1.94-0.74 0.46-0.05 1.03 0.13 0.99 1.1 1.28 1.08 1.21 1.26 0.17 0.4 0.33 0.36 0.74 0.22h0.59l1.95-0.79 1.98-0.11 1.88-0.27 0.8 0.03 0.9 0.28 0.54 0.03 0.42-0.05 0.21-0.27 0.18-1.02 0.16-0.17 0.99 0.3 1.68-1.09 2.72-1.91 0.34-0.29 0.86-1.39 0.25-0.43 0.41-0.25 0.54-0.22 1.3-0.07 2.04-0.25 1.76-0.55 1.16-0.85 0.64-0.31 0.58-0.1 0.13-0.02 1.05 0.11 3.34 0.47 0.71-0.04 0.34-0.17 0.15-0.46 0.07-0.42 0.36-1.34 0.1-0.34 0.18-0.25 0.34-0.1 0.49 0.03 0.48 0.05h0.28l0.18-0.07 0.44-0.5 0.35-0.27 0.66-0.18 0.37-0.05 0.31 0.16 0.27 0.3 0.81-0.11 2.1-0.53 0.56-0.3 0.57-0.45 0.33-0.86 1.01-1.68 0.44-0.65 0.43-0.24 1.2-0.41 5.23-1.73 0.38-0.13 0.19-0.19 0.22-0.34 0.37-0.94 0.24-0.26 0.41-0.19 0.46-0.16h1.58l0.51-0.12 1.01-0.48 0.51-0.32 0.23-0.43 0.32-0.72 0.17-0.64-0.09-0.69-0.09-0.79-0.02-0.53 0.32-0.72 0.49-0.81 0.7-0.3 0.38 0.02 0.42 0.09 0.98 0.6 0.4 0.16 0.27-0.01 0.51-0.14 1.59-0.63 1.56-0.77 0.61-0.49 0.64-1.03 0.66-0.63 0.34-0.69 0.93-1.73 0.84-1.7 0.37-0.57 0.68-1 0.88-0.95 0.69-1.04 0.38-0.82 0.18-0.41 0.19-0.41 0.66-0.58 0.53-0.33 0.44-0.07 0.12 0.03 0.59 0.14 0.68 0.28 1.06 0.46 0.55 0.26 0.4 0.24 0.57-0.01 0.79-0.32 0.83-0.02 0.98 0.11 0.46 0.15 0.42 0.15 1.53 0.85 1.44 1.26 0.46 0.2 0.37 0.13 0.99 0.03 1.38-0.04 0.31 0.2 0.21 0.3 0.22 1.24 0.25 0.4 0.71 0.39 0.49-0.02 0.48-0.2 0.37-0.01 0.45 0.01 1.76 0.54 0.45 0.08 0.37 0.04 0.49-0.06 0.93-0.25 0.89 0.11 0.35 0.15 0.3 0.31 0.24 0.27 0.35 0.28 0.52 0.23 0.64 0.11 1.6 0.12 0.37 0.05 0.6 0.2 0.96 0.52 0.17 0.15 0.13 0.26 0.57 1.41 0.11 0.47 0.23 0.2 0.55 0.19 0.53 0.15 0.77 0.14 0.52 0.15 0.53 0.4 0.55 0.49 0.25 0.42 0.27 0.25 0.37 0.11 1.63 0.1 0.59 0.16 0.33 0.12 0.2 0.23 0.47 0.73 0.21 0.35 0.39 0.2h0.34l0.65-0.29 0.41-0.12 0.18 0.05 0.32 0.17 0.21 0.27 0.18 0.86 0.5 1.11 0.65 0.83 0.36 0.4 0.2 0.1 0.2 0.06 0.65-0.09 1.19 0.04 0.74 0.15 0.52 0.15 0.49 0.27 0.66 0.4 0.6 0.66 0.49 0.98 0.42 0.53 0.13 0.18 0.53 0.31 0.78 0.67 0.86 0.63 0.55 0.36 0.57 0.1 0.5 0.1 0.29 0.18 0.21 0.31v0.51l0.06 0.38 0.33 0.33 0.41 0.24 1.41 1.48 0.81 0.64 1.96-0.14 2.89-0.21 0.98-0.08 7.39-0.04 2.16-0.06 0.39-0.2 0.75-0.72 0.72-0.16 1.15-0.14 1.35-0.89 0.49-1 0.3-0.3 0.37-0.14 0.69 0.04 0.63 0.11 1.06 0.9 0.67 0.35h0.31l0.21-0.15 0.29-0.96 0.23-0.35 0.72-0.11 0.68 0.01 0.86 0.22 1.04 0.57 1.63 2.26 0.07 0.1 0.96 1.3 1.42 1.55 0.84 0.49 0.76-0.21 1.22-0.11 0.81 0.08 0.78 0.18 1.45 0.19 1.06-0.15 2.35 0.02 2.95 0.08 0.5-0.07 0.56-0.37 0.19-0.39 1.29-0.42 0.92-0.38 0.84-0.45 0.63-0.92 0.73-0.72 0.61-0.59 0.86-0.24 0.97 0.16 0.53-0.42 0.01-0.74 0.48-0.93 0.4-0.12 1.28 0.53 0.42 0.87-0.13 0.59-0.43 0.66-0.18 0.39-0.15 0.58-0.04 0.63 0.44 0.49 0.64 0.14 0.41-0.17 0.69 0.34 0.72 0.14 0.92 0.29 0.49 0.03 1.05-1.52 0.61-0.51 1.61-0.25 2.85-0.46 4.72-0.92 1.45-0.31 1.19 0.24 1.96 0.67-3.35-3.3-2.86-3.74 0.44-2.3 1.95-4.14 0.19-1.44-1.2-1.03-1.05-0.9-1.6-5.33-0.86-3.86-0.78-4-0.63-2.21 0.07-2.89 0.13-3.59-1.32-1.9-0.48-3.04 0.27-3.11 0.18-0.98 1.07-1.76h2.29l-0.13-1.56-1.11-2.83 1.39-0.79 4.09-0.63 4.42-3.57 4.21-0.96 2.66 0.51 6.84-1.39 6.78-3 2.6-2.41 0.58 0.28-0.49 0.97-0.9 3.68 0.16 1.33 2.19 2.32 1.18 1.31 1.24 1.16 2.29 0.03 1.98 0.54 2.04 0.85 2.88-0.74 2.41-1.62 2.07-1.16 3.47-0.73 1.61-0.91-0.53-2.24 0.56-1.42 2.6-2.21 1.7-1.38 1.39-2.19 4.28-4.73 2.38-2.92 2.26-1.9 1.17-0.34 5.32-1.3 3.01-1.22 3.31-2.83 3.03-2.86 9.04-6.46 5.13-4.79 1.21-2.32 2.35-6.44-8.94-4.59 19.72-27.95-1.13-2.24 20.85-13.53 5.07-3.78 2.62-1.37 13.77-7.61 8.7-4.29 14.73-6.74 19.55-9.37 15.81-7.49 45.78-24.01 16.63 14.32-11.91 22.01-7.81 15.42-5.94 12.53 0.17 10.18 2.55 20.85 3.26 28.95 0.89 8.32-0.21 2.25 0.57 0.68 0.81 4.22 1.88 10.93 9.26 5.17 32.39 19.61 8.94-11.42 5.79 13.07 7.03 1.1 0.61-3.72 6.35 3.4 0.26-0.14 3.95 2.4 8.44 1.83 1.3 0.61 0.74 0.56 1.71 2.08 1.2 0.42 1.11-0.15 0.79-0.19 1.74 0.4 2.13-0.09 2.46 0.73 2.03 1.64 1.45 3.79-0.8 4.29 0.05 0.78 0.63 0.55 0.87 0.56 6.35 7.64 1.83 1.92 0.47 1.84 2.77 0.11 2.81 2.3 2.6 4.8 1.74 3.06-3.52 2.32-1.65 5.33 1.45 1.87-0.82 6.17 4.7 1.44 1.23 17.08v25.83l-0.29 6.81 1.14 3.97 3.97 7.95 9.08 9.08 4.6 1.42 0.57 6.53 3.12 4.82-1.16 5.79-3.47 7.91-9.25 5.4-6.94 1.79-15.85 0.3-18.21-3.67-35.93-11.74-17.15 1.05-21.39 0.75-36.26-9.88-19.39-6.15-10.13-3.22-12.43-3.39-8.58-1.89-12.2 4.08-6 5.2-6.66 6.01-12.99 4.64-7.08 4.94-2.77 7.9-2.21 1.38-2.44 0.23-4.95 0.05-1.54 2.1-0.22 3.35-1.12 2.01-1.79 3.17-3.03 1.08-0.75 3.09-2.1 2.35-2.26 1.81-4.49 2.39-1.48 1.27-0.74 2.1 0.34 1.19 2.07 1.27-0.28 1.14-2.44-0.31-1.12 0.96-1.17 3.23-0.19 3.15-6.5 8.53-5.32 6.29-8.32 9.96-8.32-3.14-9.9-4.09-11.41-4.39-4.67-1.86-3.24-3.15-4.04-3.58-3.5-4.04-1.62-3.7-2.07-5.58 0.38-4 5.19-12.79-8.84-8.95-5.35 2.31-2.26-0.2-3.7-0.77-1.65-0.82-0.98-0.96-6.87-6.71-2.34-0.64-1.11-0.1-1.77 0.1-1.48-0.37-4.5-2.62-2.16-0.81-6.65-4.59-2.16-1.01-0.89 0.17-0.48 0.67-0.19 1.38 1.32 8.51 0.48 1.87-0.13 1.53-1.97 2.84-4.25 4.71-0.14 1.51-0.67 2.89-1.59 2.14-1.72 0.32-4.53-1.23-1.35 0.03-7.16 1.87-6.52 0.27-3.99 0.15-1.53 1.16-2.78 1.97-5.52 4.05-3.75 2-2.04 0.34-3.91-1.21-1.51 0.23-0.94 1.26-0.66 5.35-0.73 3.18-3.44 4.37-5.47 4.88-9.57 9.75-3.31 2.49-7.52 3.14-6.46 3.65-5.29 1.17-3.22 0.48-2.9-0.02-3.31-0.86-1.94-2.97-4.28-2.24-1.78-0.64-6.98-1.42-2.92-0.62-2.02 1.39 0.3 1.48 1.91 3.63-0.43 3.48-1.54 5.4 1.46 2.2 1.53 0.98 2.16 1.53 1.21 2.15-0.86 2.02-7.1-4.07-6.2 2.56-7.97 2.62-8.84 1.63-7.16-0.64-6.9-1.73-4.15-5.43-4.01-7.08-2.26-3.86-2.11-7.65-2.86-4.43-2.06-2.49-1.88-2.4 0.52-4.22-0.56-6.61-1.65-3.05-4.67-3.13-2.41-0.74-4.09-0.33-1.67-0.88-2.95-4.13-1.19-2.48-2.16-1.65-4.76-2.33-4.7-2.65-4.36-0.73-3.78 0.42-7-1.31-5.28 0.58-2.98-0.86-2.79-1.27 0.77 4.84-0.62 2.56-2.5 2.07-2.07 1.16-3.28 0.41-3.28 0.09-2.45-1.23-0.64-2.41-0.48-3.15 0.22-3.31 5.16-2.86 0.25-0.84-2.56-1.4-1.28-3.23-0.28-5.52 2.55-5.02 0.8-0.35 1.48-1.67 0.3-3.22 5.26-7.81 10.06-8.34 0.69-4.08-0.16-4.15-1.5-2.47-2.87-1.66-6-1.84-15.24-0.33-21.16-4.1-32.99-8.19-18.98-5.43-6.33-4.5-2.07-6.39-0.01-9.39 6.61-17.64 24.01-12.68 29.35-8.81 25.62 2.86 12.81 5.01z"
            fill="#ac5c91" />
    </g>
    <path
        d="m406.8 531 1.1 0.05 0.92 0.03 0.95 0.24 1.02 0.31 2.08 1.05 2.19 0.99 0.39 0.86-0.47 1.5-0.54 0.7-0.62 0.43-0.72 0.2-1.59 0.08h-0.46l-0.25 0.05-0.22 0.14-0.12 0.41 0.04 0.14 0.15 0.17 1.98 0.78 0.93 0.38 0.99 0.41 0.67 0.31 1.1 0.4 0.42 0.13 0.09 0.05 0.23 0.13 0.5 0.36 0.39 0.28 0.54 0.39 0.77 0.48 0.93 0.6 0.37 0.28 0.35 0.27 0.25 0.23 0.12 0.06h0.32l0.17-0.06 0.52-0.19 0.46-0.14 0.28 0.06 0.31 0.17 0.84 0.92 0.43 0.69 0.8 1.42 0.57 1.07 0.1 0.24 0.08 0.23v0.37l-0.26 0.8 0.1 0.41 0.14 0.45 0.06 0.43 0.24 0.78 0.15 0.61 0.1 0.52 0.12 0.76 0.2 0.68 0.42 0.76 0.46 0.57 0.5 0.47 0.33 0.38 0.16 0.34 0.21 0.52 0.4 1.03 0.2 0.58 0.15 0.49 0.16 0.57-0.08 0.68-0.15 0.59-0.07 0.26-0.18 0.3-0.38 0.6-0.61 0.67-0.47 0.42-0.32 0.42-0.11 0.47v0.73l0.15 1.16 0.11 0.45 0.2 1.05-0.04 0.12-0.24 0.76-1.07 2.99-1.72 3.17-1.76 3.06-0.33 0.47-0.33 0.32-0.39 0.15-1.21 0.14-1.26 0.1-0.45 0.09-0.85 0.11-0.57-0.09-1.39-0.61-1.82-1.22-1.27-1.06-1.44-2.19-0.26-1.82 0.24-1.64 0.2-0.87 0.26-0.53 0.6-0.76 0.87-0.61 0.56-0.38 0.39-0.34 0.25-0.92-0.05-0.57 0.05-1.07 0.32-1.03 1.07-1.41 1.38-1.16 1.08-0.81 0.72-0.47 0.63-0.53 0.35-0.67-0.03-1.26-0.58-1.36-0.67-1.17-0.49-0.04-0.72 0.21-1.53 1.18-0.71 0.57-1.28 0.38-1.2-0.11-1.31-0.72-0.92-1.19-0.88-2.6v-0.28l0.06-0.16 0.48-0.08 0.27-0.14 0.34-0.35 0.03-0.15-0.13-0.18-0.36-0.16-0.43 0.01-0.65 0.24-0.69 0.05-1.12 0.03-0.89-0.1-0.44-0.06-0.3 0.06-0.25 0.21-0.27 0.45-0.58 1.07-0.45 0.4-0.85 0.36-0.72-0.02h-0.74l-1.37-0.16-0.71-0.3-0.58-0.35-0.99-0.74-0.79-0.59-0.36-0.4 0.02-0.24 0.05-0.18 0.11-0.2 0.36-0.3 0.21-0.08 0.19-0.03 0.23-0.05 0.28-0.04h0.37l0.2-0.02 0.1-0.08 0.05-0.11 0.08-0.2 0.07-0.64 0.28-0.64 0.41-0.34 0.53-0.32 0.78-0.5 0.59-0.28 0.44-0.29 0.42-0.36 0.62-0.41 0.53-0.32 0.71-0.33 0.12-0.1 0.08-0.13-0.01-0.14-0.07-0.1-0.2-0.07-0.75-0.18-1.17-0.29-0.45-0.15-0.61-0.37-0.2-0.46 0.15-1.23 0.26-1.66 0.18-0.7 0.21-0.38 0.48-0.85 0.4-0.25 0.45-0.13 0.5-0.05 1.13 0.01 1.7 0.3 0.87 0.03 0.21-0.05 0.2-0.08 0.06-0.17 0.03-0.36-0.16-0.17-0.26-0.17-0.56-0.09-0.72-0.18-1.53-0.43-0.54-0.32-0.54-0.31-0.72-0.53-0.84-0.24-0.54-0.04-0.54-0.09-0.53-0.17-0.65-0.31-0.72-0.32-0.62-0.3-0.79-0.16-0.74 0.03-0.78 0.29-1.36 0.55-0.72 0.34-0.94 0.47-0.93 0.54-0.88 0.23-0.96-0.02-1.19-0.12-0.92-0.17-0.55-0.34-0.17-0.98 0.49-0.87 0.24-0.37 1.06-0.46 1.15-0.21 3.37-0.87 0.97-0.07 0.78-0.25 0.73-0.32 0.65-0.36 0.47-0.29 0.2-0.33 0.08-0.14 0.03-0.35-0.01-0.11-0.07-0.08-0.49-0.28-0.93-0.27-0.73-0.12-0.46-0.06-0.61-0.19-0.65-0.29-0.43-0.48-0.21-0.82-0.1-0.82 0.1-0.92 2.34-5.07 0.4-0.53 1.07-0.65 1.12-0.46 0.81-0.16 0.66-0.02 0.48 0.19 0.13 0.77v1.01l0.02 0.94-0.14 2.09-0.44 0.65-0.59 0.54-0.42 0.35-0.27 0.21-0.13 0.13v0.18l0.05 0.15 0.25 0.32 0.29 0.2 0.78 0.27h0.51l0.46-0.05 0.42 0.42 1.35 1.88 1.31 1.71 0.49 0.6 0.38 0.31 0.25 0.05 0.45-0.01zm18.01 38.4 0.26-0.09 0.11-0.13 0.18-0.24 0.03-0.49-0.1-0.26-0.9-0.63-0.6-0.33h-0.25l-0.31 0.33-0.07 0.23 0.05 0.43 0.27 0.51 1.01 0.67zm-11.76-23.95 0.07-0.06 0.29-0.54 0.28-0.69 0.27-0.36 0.1-0.17 0.25-0.28 0.2-0.17 0.36-0.16 0.24-0.08 0.16-0.08 0.13-0.1 0.08-0.11 0.07-0.15 0.01-0.07-0.03-0.07-0.19-0.24-0.23-0.25-0.5-0.39-0.46-0.3-0.5-0.16-0.32-0.01-0.39 0.08-0.46 0.2-0.23 0.32-0.16 0.35-0.13 0.63-0.11 1.07-0.02 0.47 0.08 0.32 0.09 0.24 0.26 0.37 0.07 0.09 0.17 0.16 0.13 0.09 0.1 0.06 0.1 0.02 0.11 0.01z"
        fill="#9ccec9" fill-rule="evenodd" stroke="#406c86" stroke-width="1.067" />
    <g transform="translate(0,32)" fill="none" stroke="#b29955" stroke-width="2">
        <path d="m622.1 103.4 2.239 0.5225" marker-start="url(#Triangle)" />
        <path
            d="m369.8 382.2 0.8-0.48 0.5-0.19 4.95-1.91 5.12-2.56 0.38-0.45 2.74-3.26 0.27-0.32 1.32-1.57 2.21-2.51 0.88-0.51 0.72-0.42 3.11-1.11 3.6-1.55 3.23-1.53 0.75-0.35 2.46-1.16 0.56-0.19 5.88-2 1.31-0.51 1.77-0.68 2-0.98 1.86-1.3 1.34-1.02" />
        <path d="m350.9 425.9-3.12-0.71-13.78-3.32-2.63-0.64-1.54-0.37-5.72-1.37-3.26-0.8-3.07-0.75" />
        <path
            d="m375.8 423.9-2.17 3-1.44 2.98-0.48 1.1-0.4 1.02-1.42 3.52-0.33 1.05-0.12 0.76 0.15 4.99 0.26 2.31 0.3 2.01 0.35 0.94 0.64 1.06 1.98 2.13 0.39 0.48 0.17 0.57 0.2 1.16 0.07 0.86-0.07 0.5" />
        <path
            d="m369.8 382.2-2.05 4.59-0.83 1.88-1.08 2.46-1.47 3.32-1.48 3.35-1.99 4.51-1.21 2.89-1.33 2.84-1.24 2.87-1.16 2.67-1.79 4.11-0.65 1.66-0.71 1.82-0.55 1.43-0.4 0.98-1 2.35" />
        <path d="m374 453.8-1.4-0.69-11.79-4.62-2.31-0.91-12.51-4.91-1.87-0.73" />
        <path d="m317.8 418.4 6.2 1.54 5.67 1.37 17.92 4.38 2.21 0.55 0.84 0.12" />
        <path
            d="m351.4 426 0.94-2.33 1-2.37 0.74-1.8 0.71-1.66 1.17-2.72 0.56-1.3 1.16-2.69 1.25-2.92 1.3-2.86 1.27-2.85 2.01-4.54 2.94-6.66 1.91-4.32 1.15-2.82 0.59-1.45 0.5-1.04" />
        <path
            d="m343.7 442.7 0.66 0.51 8.67 3.39 5.01 1.97 1.81 0.71 0.54 0.21 6.38 2.5 5.04 1.98 0.87 0.19 1.24 0.15" />
        <path d="m366.2 429.5-0.49-0.31-3.5-0.7-1.81-0.36-0.73-0.17-1.49-0.36-5.05-1.19-1.69-0.33-0.54-0.12" />
        <path
            d="m333.1 482.8-0.48-1.73-0.46-2.41-0.48-1.94-1.57-4.8-0.13-0.39-0.24-0.77-0.56-1.79-0.32-1.41-0.45-1.59-0.62-2.18-0.29-0.91-0.36-1.14-0.74-3.03-0.26-1.06-0.14-0.65-0.42-1.81-0.03-1.29-0.1-1.31-0.47-1.7-0.1-0.36-1.26-3.73" />
        <path
            d="m358.3 490.6-0.07 0.11-0.03 0.19 0.04 0.18 0.12 0.16 0.17 0.11 0.21 0.04 0.18-0.03 0.17-0.08 0.12-0.13 0.07-0.16 0.01-0.15-0.04-0.15-0.08-0.12-0.13-0.1-0.15-0.07-0.16-0.01-0.19 0.03-0.24 0.18" />
        <path
            d="m458.4 597.4 0.81-0.8 0.4-0.4 0.33-0.5 1.76-2.13 1.97-3.49 1.95-3.45 0.69-1.13 0.87-1.59 0.68-1.24 0.22-0.42 2.96-5.41 1.64-3 0.28-1.22 0.06-1.25-0.28-1.52-0.61-0.89-1.73-1.25-0.98-0.71-1.69-1.22-1.14-0.83-2.98-2.16-1.34-1.08-2.88-2.63-1.59-2.55-0.76-1.21-1.88-3.02-1.11-1.83-0.73-1.2-2.29-3.76-0.23-0.37-1.32-2.21-1.5-2.5-1.7-2.86-1.52-2.54-0.25-0.42-2.64-4.34-0.24-0.38-0.81-1.32-0.83-1.34-1.46-2.37-0.71-1.22-1.84-3.14-0.46-0.79-0.33-0.56-0.94-1.52-1.03-1.64-2.28-3.66-0.85-1.36" />
        <path
            d="m408 505.4-5.07-0.75-3.33-0.29-1.78 0.22-2.08 0.7-3.36 1.14-2.48 0.53-2.19 0.24-1.27-0.01-3.23-0.53-1.21-0.03-0.64 0.14-0.83 0.25-3.9 1.6-2.62 0.78-1.42 0.25-2.18-0.11-3.49-0.07-2.2 0.24-1.94 0.29" />
        <path d="m319 432.8 0.18 0.72 0.25 0.88 1.56 5.57 0.52 1.86 1.2 3.7 0.91 1.32" />
        <path
            d="m488.2 716 0.76-8-0.06-2.41-0.43-9.71-0.81-5.78-1.09-7.79-0.55-1.35-2.1-1.45-0.63-0.4-16.5-6.79-2.91-0.79-0.83-0.22-7.23-3.31-6.55-2.3-1.84-1.07-2.37-2.02-6.51-7.63-2.63-6.05-1.72-5 0.08-0.94 0.11-1.36 0.72-1.73 3.14-7.47 1.59-3.91 1.41-3.44 7.97-13.99 3.3-5.16 0.99-1.63 2.22-3.16 2.66-3.82"
            marker-start="url(#Triangle)" />
        <path d="m361.4 493.5-2.05-2.21-0.12-0.08" />
        <path d="m323.6 446.8-0.03-1.21-1.53-5.86-2.04-6.95" />
        <path
            d="m270.6 520.4 0.63 0.18 5.81 0.94 2.47 0.38 8.85 1.29 8.87 1.3 8.74 1.29 8.64 1.27 8.59 1.27 7.76 1.14" />
        <path
            d="m362.8 509.9-0.9-1.34-0.7-0.4-2.85-0.33-1.41-0.53-1.13-1.15-0.25-1.49 0.95-2.26 0.23-0.54 0.35-0.84 0.88-1.54 1.03-1.83 0.28-0.49 1.74-3.06 0.32-0.67" />
        <path
            d="m8.86 522.9h1.15l1.95-1.09 2.1-0.06 4.89 1.33 1.02-0.88 1.13-0.91 1.01-0.06 3.73 2.01 1.49 0.39 1.71 1.67 0.8 0.51 5.03 0.24h2.34l1.06-1.21 1.82-1.35 1.68-0.43 3.4 0.45 4.01 3.04 0.76 0.55 0.91-0.16 1.77-2.36 0.65-0.19 4.33 1.48 1.15 0.72 3.19 9.87 0.93 1.06 3.42 5.53 2.77 3.48 0.69 2.75 0.08 1.57 0.04 0.74 0.54 0.17 1.04-1.33 0.87-3.8-1.24-4.89-0.8-5.47 0.94-4.1 0.37-1.31 0.35-0.08 0.2 0.3-0.05 1.58 1.13 3.8 3.07 3 0.56 0.22 2.01-0.22 1.24 0.85 1.93 4.22 2.14 3.95 0.09 1.95-0.62 2.81 0.24 1.29 0.02 1.97 0.47 0.75 0.77-0.27 0.41-1.18-0.38-2.45 0.21-0.83 0.46-1.07 0.48-0.14 0.38 0.09-0.08 0.48-0.53 0.82-0.34 1.18 0.05 0.77 0.32 0.3 0.66-0.55 1.66-2.54-0.13-6.64 1.13-3.27 0.78-1.81 1.1-0.65 1.39-2.97 0.91-0.46 3.55-0.42 0.91 0.18 1.78 0.77 6.75-3.03 0.87-1.9 1.86-2.4 1.26-1.25 0.13-2.98 1.75-1.7 2.25-1.81 2.56-0.37 3.55-4.68 0.63-0.1 0.91 0.45 1.66 0.54 1.71-0.28 3.32-2.02 1.27 0.47 0.78 3.95-1.27 4.84 1.12 2.91 0.59 0.34 3.2-0.57 5.5 1.4 10.33-1.64 1.24-0.44-0.2-0.61-0.84-0.06-8.93-0.22-2.2-1.88-0.18-1.02 0.63-1.48 0.89-1.13 0.67-2.05 0.32-0.39 0.44 0.16 0.17 0.75-0.56 3.57 0.43 0.97 0.46 0.48 1.01 0.04 1.28-0.8 1.15-0.57 8.47-2.16 0.84 0.14 0.84 0.71 0.34 1.14 0.19 1.43-0.07 1.16-0.98 2.85-0.43 1.86 0.09 2.76 0.73 1.85 0.62 1.54 0.22 0.83-0.7 3.99-0.12 0.66 0.19 0.92 0.69 0.99 0.84 0.83 0.63 0.65 0.75 0.76 2.61 2.66 2.52 3.89 1.12 1.35 0.96 0.78 0.58 0.27 0.51 0.25 0.43 0.08 1.21 0.04 4.07-0.49 4.17 0.34 0.75 0.21 7.58 3.54 1.55 0.69 3.74 2.83 1.79 1.04 2.18 0.91 1.53 0.29 2.29-0.29 4.01-0.74 11.23-3.13 0.7-0.33 2.48-1.18 0.92-0.34"
            marker-start="url(#Triangle)" />
        <path d="m331 529-7.75-1.13-8.56-1.26-8.64-1.22-8.74-1.26-8.87-1.28-8.82-1.28-7.99-1.15-1.04 0.05" />
        <path
            d="m332 528.9-0.16-0.13-0.2-0.08-0.21-0.01-0.21 0.06-0.23 0.2-0.08 0.18-0.01 0.2 0.04 0.15 0.12 0.16 0.17 0.12 0.21 0.06 0.28-0.03 0.19-0.1 0.19-0.14 0.02-0.2v-0.19l-0.12-0.25" />
        <path d="m332 528.9 2.37-2.14 1.99-2.07 1.13-1.38 4.29-4.76 2.91-4.07 1.2-2.23" />
        <path
            d="m345.9 512.3 1.73-0.2 1.74-0.27 0.7-0.25 0.51-0.25 0.54-0.51 0.44-0.55 0.79-0.43 0.75-0.24 0.69-0.14 1.05 0.05 1.5 0.24 1.5 0.38 2.14 0.28 0.74-0.01 1.18-0.18 0.94-0.27" />
        <path d="m270.6 520.4-7.92-1.3-4.91-0.31-6.72 0.32-3.75 0.12-4.55 0.1-5.58 0.05" />
        <path
            d="m428.2 507.6-0.33-0.83-0.17-0.43-1.86-2.22-7.8-6.79-2.71-2.18-5.39-4.36-1.02-0.74-0.76-1-0.64-2.08-0.52-2.17-3.06-14.79-0.77-3.46-1.22-5.49-0.38-1.35-0.63-1.57-0.28-0.46-0.76-0.61-0.62-0.36-0.57-0.19-0.73-0.18" />
        <path
            d="m460.6 377.2 2.66 1.26 1.91 0.27 0.9 0.15 0.88-0.08 0.63-0.33 0.54-0.19 11.38-4.81 0.49-0.21 12.5-5.28 9.86-4.18 3.4-1.93 4.49-2.82 7.67-4.8 7.29-4.77 5.42-3.73 5.64-3.87 6.88-3.59 4.17-2.36 2.72-1.62 5.52-2.92 9.38-4.27 0.66-0.3 0.26-0.13 2.56-1.18 17.85-8.31 8.01-3.67 0.23-0.11 3.8-1.74 8.73-4.44 12.83-6.52 24.16-12.74 12.18-6.45 12.25-6.5 12.17-6.45 12-6.37 19.38-10.27 3.65-3.19" />
        <path
            d="m417.6 355.6-0.75 4.49-1.2 3.53-1.06 3.14-0.85 3.42-1.47 4.47-0.52 1.12-3.44 4.34-2.03 2.57-4.45 5.64-2.84 3.15-4.2 5" />
        <path d="m440.7 373.9-0.87-0.48-0.08-0.96 0.51-7.28 0.4-5.64-2.03-8.52-4.23-12.59" />
        <path
            d="m409 408.9 1.12-0.21 1.9-0.56 3.76-1.32 0.75-0.72 2.07-2.45 0.9-1.07 2.75-3.56 3.64-5.16 3.55-4.81 3.93-5.31 3.69-4.89 3.69-4.93 0.45-0.84 3.47-4.95 0.17-0.71" />
        <path d="m393 397.9-1.58 1.88-0.55 0.87-0.41 0.84-0.54 1.26-0.89 1.95-1.53 3.01-0.68 1.41-0.54 0.89" />
        <path
            d="m457.7 319.7 5.92-6.98 4.13-3.94 0.58-0.76 5.27-6.97 1.68-1.29 5.8-2.57 10.37-9.27 12.49-10.2 0.66-1.51 2.77-8.36 0.74-2.47 0.67-4.03 0.71-4.44 0.4-1.23 13.39-18.88 0.81-1.01 2.27-2.81 6.03-10.11 0.83-1.39 1-1.41 0.97-1.37 1.56-2.2 1.28-1.51 2.69-3.16 4.18-4.92 2.22-2.63 6.72-7.96 2.94-3.48 3.61-5.49 6-9.13 0.46-0.69 3.02-5.88 0.63-1.4 1.1-2.27 1.86-3.35 3.05-7.05 0.61-1.02" />
        <path
            d="m714.9 248.1-3.58 3.07-19.2 10.24-11.97 6.35-12.17 6.48-24.38 12.97-12.28 6.55-11.87 6.32-10.95 5.52-1.88 0.95-12.47 6.29-0.22 0.1-25.82 11.87-3.44 1.58-9.44 4.33-5.05 2.58-6.01 3.42-1.56 0.96-7.11 3.6-0.32 0.22-5.04 3.54-0.06 0.04-5.32 3.73-7.41 4.77-12.07 7.57-3.3 1.87-9.72 4.19-12.63 5.37-0.52 0.22-0.92 0.39-10.42 4.43-0.68 0.13-1.1 0.05-1.12-0.07-0.87-0.21-1.35-0.42-2.06 0.05" />
        <path d="m333.1 482.8 0.19 2.28 0.2 1.17 0.16 2.07 0.03 1.07 0.24 2.02 0.03 0.34 0.15 0.97 0.18 1.8" />
        <path
            d="m345.9 512.3-0.74-0.1-0.72-0.18-1.18-0.42-0.94-0.42-1-0.55-1.14-0.88-1.3-0.72-0.97-0.13-1.21-0.16-0.88-0.11-0.62 0.07-0.73 0.37-0.47 0.17-0.8 0.27-1.26 0.32-1.57 0.25h-0.46l-3.67-0.05-1.84-0.02-10.65-0.13-9.36 1.2-4.03 0.12-3.23-0.96-0.6-0.54-0.48-0.43-0.27-0.72 0.06-0.8 1.33-3.36 0.77-3.68-0.94-3.08-5.52-5.16-0.21-0.19-2.59 0.03-2.6 0.02-6.63 0.35-3.67-0.18" />
        <path d="m275.8 492.5-3.31 0.06-2.78 0.72-2.35 1.78-2.92 1.2-2.21 0.89-6.79 1.91" />
        <path
            d="m237.1 519.4-0.59-0.72-0.57-0.78-0.22-0.6-0.05-0.36 0.05-0.29 0.14-0.52 0.33-0.49 5.43-6.74 2.48-1.29 1.59-0.91 4.08-3.29 3.33-2.69 2.26-1.7" />
        <path d="m350.7 426.4 0.57 0.12 6.88 1.39 5.99 1.32 1.46 0.26 0.64 0.02" />
        <path d="m350.9 425.9-0.24 0.43-1.48 3.32-1.38 2.8-1.03 2.14-3.27 6.84" />
        <path d="m460.6 377.2-4.61-2.67-2.43-1.49-2.93-1.79-2.66-1.76-3.17-2.05" />
        <path
            d="m444.8 367.4-0.71 0.39-3.72 5.03-0.53 0.6-3.58 4.88-3.84 5.14-3.53 4.76-0.29 0.4-3.56 4.75-3.69 5.14-0.39 0.54-2.4 3.23-0.78 0.93-2.11 2.49-0.66 0.42-3.7 1.71-1.46 0.59-0.89 0.49" />
        <path d="m409 408.9-3.27 0.47-2.45 0.14-5.83 0.35-9.53 0.61-0.98 0.07" />
        <path d="m373.9 454.3 1.09 0.12 4.98 0.48 3.31 0.28 5.02 0.42 3.27 0.23" />
        <path d="m391.7 455.3h-1.18l-2.15-0.19-5.02-0.44-9.35-0.88" />
        <path
            d="m386.1 411.1 0.15 0.02 0.16-0.02 0.15-0.05 0.12-0.09 0.1-0.12 0.06-0.13 0.02-0.14-0.02-0.15-0.07-0.13-0.09-0.11-0.13-0.09-0.14-0.06-0.16-0.01-0.15 0.01-0.15 0.06-0.13 0.09-0.09 0.11-0.06 0.14-0.02 0.14 0.02 0.14 0.06 0.14 0.1 0.11 0.12 0.09 0.15 0.05" />
        <path d="m386.1 411.1-0.21 0.58-0.22 0.38-1.06 1.53-2.86 4.13-1.7 1.83-0.82 0.89-2.41 2.16-1.02 1.3" />
        <path
            d="m394.8 396.5-0.11-0.22-0.16-0.2-0.2-0.15-0.23-0.12-0.26-0.07-0.26-0.02-0.26 0.03-0.25 0.08-0.12 0.06-0.07 0.04-0.04 0.03-0.19 0.16-0.15 0.2-0.1 0.22-0.05 0.24v0.24l0.06 0.24 0.12 0.22 0.16 0.19 0.2 0.16 0.13 0.07 0.1 0.05 0.25 0.06 0.26 0.02 0.27-0.03 0.25-0.08 0.22-0.12 0.19-0.17 0.16-0.2 0.1-0.22 0.05-0.24-0.01-0.24-0.06-0.23" />
        <path d="m334.3 494.5-0.05 0.67-0.12 1.1-0.12 2.48 0.15 1.16 0.15 1.2 0.59 5.94" />
        <path d="m342.9 442.6-1.63 3.49-1.22 3.46" />
        <path d="m343.3 441.5-2.2-0.87-3.13-1.23-2.03-0.81-3.02-1.18-3.26-1.29-9.64-3.79" />
        <path
            d="m348.8 460.4-0.04-0.23-0.3-1.62-0.57-1.35-0.97-1.7-1.23-2.05-1.43-1.94-0.18-0.21-1.57-0.59-1.21-0.53-0.89-0.38" />
        <path
            d="m348.8 460.4 0.13 3.34 1.28 7.92 0.17 1.14 0.02 1.66v0.24l-0.94 3.62-0.37 1.38 0.07 0.83 0.47 1.74 0.51 1.24 0.93 0.92 0.6 0.59 0.5 0.43 0.77 0.68 0.81 0.7 1.1 0.95 0.63 0.53 0.9 0.75 1.86 1.56" />
        <path
            d="m344.1 442-0.06-0.16-0.14-0.17-0.19-0.12-0.22-0.07-0.24 0.01-0.22 0.08-0.18 0.14-0.13 0.19-0.05 0.22 0.04 0.22 0.11 0.2 0.09 0.08 0.08 0.07 0.22 0.09 0.25 0.02 0.23-0.05 0.2-0.12 0.14-0.17 0.08-0.2-0.01-0.26" />
        <path d="m344 441.8 3.29-6.99 1.01-2.15 1.35-2.87 1.53-3.33 0.21-0.43" />
        <path d="m320 432.8 9.26 3.88 6.27 2.62 7.19 3.01" />
        <path d="m340.4 449.8 0.02-0.4 1.43-3.16 1.58-3.48" />
        <path d="m393.2 455.5-1.54-0.15" />
        <path d="m391.6 455.9 1.6 0.14" />
        <path d="m408 505.4 2.83 0.39" />
        <path
            d="m320 432.3-0.12-0.13-0.17-0.09-0.19-0.03-0.19 0.03-0.17 0.08-0.12 0.14-0.07 0.15-0.02 0.17 0.05 0.16 0.1 0.14 0.14 0.1 0.17 0.06h0.18l0.18-0.04 0.14-0.1 0.11-0.13 0.06-0.17-0.01-0.18-0.07-0.16" />
        <path d="m424.3 507.9-6.84-1.06-0.26-0.04-0.4-0.07-4.88-0.78-1.03-0.17" />
        <path d="m319.5 432-0.45-2.66-0.44-3.91-0.4-3.58-0.39-3.5-0.04-0.43" />
        <path d="m366.2 429.5 2.84 0.77 2.71 0.74" />
        <path
            d="m427 509 0.11 0.12 0.29 0.16 0.32 0.07 0.32-0.03 0.29-0.13 0.23-0.2 0.15-0.26 0.05-0.29-0.05-0.29-0.15-0.26-0.24-0.2-0.13-0.06-0.16-0.06-0.32-0.03-0.32 0.07-0.28 0.16" />
        <path d="m427.4 509.2 0.91 0.68 1.72 1.03" />
        <path d="m430.1 510.9-0.2-0.76-1.07-1.79" />
        <path d="m424.3 507.9 1.02 0.32 0.17 0.05 0.89 0.31 0.68 0.41" />
        <path d="m427.1 507.7-0.64 0.15-1.16 0.1-1.07-0.11" />
        <path
            d="m417.6 355.6 1.94-2.02 5.04-5.19 7.48-7.91 1.68-1.59 0.67-0.46 1.93-1.33 6.77-5.12 4.81-4.48 2.73-1.84 4.81-3.85 0.53-0.43 1.73-1.75" />
        <path d="m340.1 449.5 0.13 0.1 0.24 0.17" />
        <path d="m427.1 507.7-0.21 0.24-0.11 0.28v0.31l0.12 0.28 0.09 0.12" />
        <path d="m444.8 367.4 1.57-2.14-2.2-6.09-2.84-8.41-4.99-13.66" />
        <path d="m585.6 145.5-3.54 3.48-0.95 1.18-1.38 2.42-1.36 1.98-1.27 1.98" />
        <path d="m334.9 507.1 1.33 1.58" />
        <path d="m334.9 507.1-0.42 1.97" />
        <path d="m622.3 104.5 0.31-0.33" />
        <path d="m622.1 104.8 0.27-0.28" />
        <path d="m585.6 145.5 1.94-2.99 3.03-3.65 4.36-4.38 4.36-4.6 3.09-3.46 11.24-12.55 2.96-3.23 5.44-5.85" />
        <path d="m577.1 156.5 4.91-4.32 1.39-1.73 1.46-2.56 0.74-2.43" />
        <path
            d="m218.4 557.7 0.68-0.36 0.82-0.4 0.78-0.31 2.52-0.61 0.61-0.16 0.74-0.34 0.44-0.4 0.59-0.85 0.77-2.04 0.51-1.16 1.92-4.33 0.29-0.49 0.32-1.52 0.75-3.74 1.39-4.48 0.28-0.9 2.21-4.56 0.24-0.87 0.77-2.68 0.43-0.95 0.33-0.38 0.48-0.59 0.72-0.93 0.47-0.83 0.28-0.85 0.15-0.82-0.08-0.96-0.21-0.63-0.51-1.1" />
        <path d="m393.2 456 2.22 0.2 2.59 0.12" />
        <path d="m398 456.3-1.42-0.32-0.57-0.13-0.68-0.09-2.1-0.29" />
    </g>
    <g fill="#1a1a1a" font-family="Arial" font-weight="bold" font-size="24px" text-anchor="middle">
        <g transform="translate(427.1 352.0)">
            <switch>
                <text systemLanguage="zh">金象城区</text>
                <text systemLanguage="my" font-size="0.5em">
                    <tspan x="0" dy="-0.6em">ကျင့်ရှမ်းချိန်</tspan>
                    <tspan x="0" dy="1.2em">ရပ်ကွက်</tspan>
                </text>
                <text font-size="0.5em">
                    <tspan x="0" dy="-0.6em">Jinxiangcheng</tspan>
                    <tspan x="0" dy="1.2em">Ward</tspan>
                </text>
            </switch>
        </g>
        <g transform="translate(266.9 472.6)">
            <switch>
                <text systemLanguage="zh">老街区</text>
                <text systemLanguage="my" font-size="0.5em">
                    <tspan x="0" dy="-0.6em">လောက်ကိုင်</tspan>
                    <tspan x="0" dy="1.2em">ရပ်ကွက်</tspan>
                </text>
                <text font-size="0.5em">
                    <tspan x="0" dy="-0.6em">Laukkaing</tspan>
                    <tspan x="0" dy="1.2em">Ward</tspan>
                </text>
            </switch>
        </g>
        <g transform="translate(480.1 536.1)">
            <switch>
                <text systemLanguage="zh">东城区</text>
                <text systemLanguage="my" font-size="0.5em">
                    <tspan x="0" dy="-0.6em">ဒွန်ချင်း</tspan>
                    <tspan x="0" dy="1.2em">ရပ်ကွက်</tspan>
                </text>
                <text font-size="0.5em">
                    <tspan x="0" dy="-0.6em">Dongcheng</tspan>
                    <tspan x="0" dy="1.2em">Ward</tspan>
                </text>
            </switch>
        </g>
    </g>
    <g fill="#646464" font-family="Arial" font-weight="bold" font-size="14px" text-anchor="start">
        <g transform="translate(635 122.5)">
            <switch>
                <text systemLanguage="zh">至中国南伞</text>
                <text systemLanguage="my" font-size="0.8em">
                    <tspan x="0" dy="-0.6em">တရုတ်နိုင်ငံ၊</tspan>
                    <tspan x="0" dy="1.2em">နန်ဆန်သို့</tspan>
                </text>
                <text systemLanguage="en" font-size="0.8em">
                    <tspan x="0" dy="-0.6em">To Nansan,</tspan>
                    <tspan x="0" dy="1.2em">China</tspan>
                </text>
                <text font-size="0.8em">
                    <tspan x="0" dy="-0.6em">To Nansan,</tspan>
                    <tspan x="0" dy="1.2em">China</tspan>
                </text>
            </switch>
        </g>
        <g transform="translate(498.5 753.5)">
            <switch>
                <text systemLanguage="zh">至清水河</text>
                <text systemLanguage="my">ချင်းရွှေဟော်သို့</text>
                <text systemLanguage="en">To Chinshwehaw</text>
                <text>To Chinshwehaw</text>
            </switch>
        </g>
        <g transform="translate(4.1 525.3)">
            <switch>
                <text systemLanguage="zh">至大水塘</text>
                <text systemLanguage="my">တာရွှေထန်သို့</text>
                <text systemLanguage="en">To Tarshwehtan</text>
                <text >To Tarshwehtan</text>
            </switch>
        </g>
    </g>
</svg>