<svg stroke-linecap="round" stroke-linejoin="round" version="1.2" viewBox="0 0 791 1641" xmlns="http://www.w3.org/2000/svg">
 <g fill="#ccc" fill-rule="evenodd" stroke="#000" stroke-linecap="square">
  <path d="m560.8 1640c-2.212-6.348-2.717-17.21-1.068-22.95 0.998-3.48 0.94-8.531-0.138-12.02-3.088-10-4.7-28.66-2.119-24.52 2.737 4.39 5.984 4.534 5.984 0.266 0-1.779 3.5-6.631 7.779-10.78 7.209-6.997 7.706-8.192 6.788-16.34-0.5449-4.834-0.0223-12.3 1.161-16.58s1.409-8.754 0.5008-9.927c-3.274-4.228-3.795-11-1.023-13.3 3.037-2.52 3.81-7.829 1.14-7.829-0.9095 0-1.267-2.636-0.7938-5.858 0.6327-4.311 1.683-5.542 3.975-4.663 2.449 0.9397 2.855 0.1983 1.896-3.465-0.6703-2.563-0.2747-6.425 0.8793-8.581 1.662-3.105 1.244-4.775-2.007-8.026-3.824-3.824-3.872-4.277-0.7008-6.607 3.087-2.268 2.895-2.696-2.057-4.587-3.701-1.413-5.083-3.073-4.286-5.149 0.6467-1.685 0.3239-3.064-0.7172-3.064s-2.918-2.25-4.171-5c-1.336-2.933-3.949-5-6.321-5-4.533 0-5.327-3.916-1.56-7.683 1.978-1.978 1.925-2.828-0.2602-4.179-2.255-1.394-2.075-2.613 1.017-6.854 2.068-2.837 4.753-5.187 5.967-5.221 1.214-0.034 3.239-6.311 4.5-13.95 2.957-17.9 2.956-17.91-1.442-16.76-2.772 0.725-3.984-0.3214-4.698-4.058-0.5294-2.769-0.2459-6.194 0.6299-7.611 0.8905-1.441 0.6268-3.173-0.5981-3.93-1.205-0.7446-2.389-4.625-2.632-8.624-0.2428-3.998-0.9475-7.776-1.566-8.395-0.6186-0.6186-0.5806-2.543 0.0846-4.276 0.8914-2.323 0.3374-2.817-2.107-1.879-3.723 1.429-7.378-3.746-7.378-10.45 0-2.272-0.9-4.132-2-4.132s-2-0.8733-2-1.941c2e-5 -5.055-10.43-24.06-13.2-24.06-1.696 0-4.534-1.45-6.306-3.222-2.962-2.962-3.419-2.953-5.665 0.1197-1.344 1.838-2.828 2.613-3.299 1.722-1.139-2.156-2.255-16.12-1.888-23.62 0.1614-3.3 0.3967-8.134 0.5229-10.74 0.1262-2.609-1.589-7.203-3.812-10.21-2.222-3.006-5.048-9.422-6.28-14.26-2.545-9.992-4.7-15.45-10.52-26.65-2.91-5.6-4.342-13.01-4.988-25.81-0.5335-10.58-1.937-18.99-3.415-20.47-2.62-2.62-2.717-7.504-0.2618-13.24 0.7947-1.858 0.3599-8.604-0.9661-14.99-1.326-6.387-2.335-15.41-2.241-20.06 0.1382-6.885-1.018-9.708-6.256-15.28-7.656-8.143-19.14-40.28-17.74-49.62 0.6612-4.381-3.167-6.601-6.547-3.796-2.102 1.745-2.975 1.06-4.036-3.17-0.7449-2.968-3.048-7.549-5.119-10.18-2.07-2.632-3.284-6.036-2.698-7.565 0.5866-1.529-0.3636-4.822-2.112-7.317-1.748-2.496-3.178-6.408-3.178-8.694 0-4.912-4.353-14.92-6.5-14.94-0.825-0.01-1.5 1.022-1.5 2.29s-1.8 0.2306-4-2.306-4-5.417-4-6.402-2.07-3.772-4.6-6.194c-2.628-2.516-4.256-6.031-3.797-8.196 0.6085-2.873-0.0126-3.479-2.563-2.5-1.852 0.7105-3.743 1.292-4.203 1.292-0.46 0-0.8364 2.647-0.8364 5.882 0 3.235-0.9 6.438-2 7.118-1.1 0.6798-2 7.823-2 15.87 0 9.902-0.88 15.37-2.72 16.89-1.527 1.268-2.309 4.407-1.783 7.158 2.409 12.6-18.72 28.81-30.53 23.42-6.876-3.133-11.16-0.9864-10.5 5.266 0.4835 4.617-0.5531 5.489-9.938 8.358-5.763 1.762-11.61 4.638-13 6.393-1.387 1.754-5.672 3.768-9.522 4.476-8.508 1.562-16.75 8.486-20.81 17.47-4.723 10.47-19.5 25.45-26.49 26.84-5.153 1.031-6.321 0.5306-7.273-3.113-0.9267-3.544-2.357-4.222-7.784-3.693-6.642 0.6472-6.649 0.6395-6.649-8.352 0-4.95-0.6881-10.06-1.529-11.36-0.9462-1.458 7e-3 -2.844 2.5-3.635 4.879-1.548 5.206-4.13 0.7398-5.843-4.645-1.782-10.99 4.643-10.61 10.74 1.01 16.08-2.205 22.12-11.75 22.06-4.218-0.024-4.719-0.4493-2.357-2 2.667-1.751 2.667-2.189 0-3.948-1.65-1.088-4.125-1.567-5.5-1.063-3.782 1.386-3.01-1.77 1.984-8.119 3.124-3.971 4.544-8.604 4.682-15.27 0.1091-5.263-0.5811-9.569-1.534-9.569-2.497 0-5.722 9.44-4.402 12.88 1.039 2.707-10.29 19.12-13.2 19.12-0.7122 0-2.806-3.169-4.653-7.041-2.874-6.026-4.08-6.86-8.37-5.783-3.735 0.9374-5.013 0.4681-5.013-1.841 0-5.336-3.86-5.812-12.14-1.498-10.14 5.284-10.72 3.975-7.963-17.99 1.155-9.21 2.1-17.41 2.1-18.22s1.695-3.085 3.767-5.052c3.602-3.421 8.528-19.36 8.465-27.38-0.0165-2.094 1.275-5.669 2.869-7.945 1.594-2.276 2.899-6.607 2.899-9.623 0-3.372 1.487-6.281 3.861-7.551 3.163-1.693 3.555-3.134 2.17-7.966-1.256-4.381-0.9217-6.539 1.301-8.383 2.159-1.792 2.82-5.581 2.374-13.6-0.3404-6.116 0.1382-12.32 1.064-13.79 0.9841-1.564 0.7587-3.598-0.5432-4.9-1.224-1.224-2.226-3.781-2.226-5.683 0-1.901-1.388-4.845-3.084-6.541-1.924-1.924-3.35-7.804-3.793-15.64-0.8251-14.61-2.145-20.97-5.082-24.51-1.161-1.398-1.621-3.817-1.023-5.374 0.6011-1.566-2.063-6.371-5.964-10.75-3.878-4.357-7.12-9.722-7.205-11.92-0.085-2.2-0.4561-5.575-0.8246-7.5-0.3822-1.997 0.5425-3.5 2.153-3.5 3.683 0 3.643-6.83-0.0581-9.901-1.585-1.315-2.353-3.767-1.708-5.448 0.8496-2.214 0.1275-2.83-2.619-2.235-2.086 0.4519-3.567 1.893-3.292 3.203 0.6066 2.889 0.1665 2.916-6.463 0.3954-4.522-1.719-5.213-3.128-5.147-10.5 0.0419-4.683-0.0891-10.76-0.2913-13.51-0.8745-11.9 0.4528-20 3.276-20 1.621 0 2.747-1.707 2.581-3.912-0.2285-3.033-1.525-3.769-5.771-3.275-5.049 0.5879-5.387 0.194-4.337-5.057 0.8484-4.242 0.2601-6.032-2.307-7.017-1.934-0.7422-4.123-0.2265-4.989 1.176-1.781 2.881-7.574 0.4809-12.15-5.035-2.416-2.911-2.173-3.822 1.9-7.12 3.628-2.937 4.164-4.393 2.401-6.517-1.249-1.504-1.708-4.199-1.022-5.989 0.6896-1.797 0.2575-3.254-0.9655-3.254-1.218 0-2.214-1.211-2.214-2.69 0-4.352-7.946-10.63-9.753-7.709-1.084 1.755-2.837 1.028-6.227-2.58-2.595-2.762-5.758-5.021-7.031-5.021s-3.518-2.25-4.989-5c-3.092-5.777-4.557-6.148-7.982-2.022-3.685 4.44-5.491 2.129-7.019-8.98-0.7563-5.499-2.089-9.998-2.962-9.998s-3.661 2.605-6.197 5.79c-2.535 3.184-5.642 5.393-6.905 4.909s-3.441 0.5003-4.842 2.188c-2.865 3.452-6.96 2.133-4.705-1.516 0.7998-1.294 2.13-6.407 2.957-11.36s2.089-11.93 2.805-15.51c1.688-8.423-1.742-8.463-4.238-0.0502-1.623 5.471-2.88 6.469-8.285 6.577-4.769 0.0951-6.896-1.024-8.457-4.45-2.467-5.415-6.124-6.041-6.284-1.077-0.06209 1.925-1.187 0.4176-2.5-3.35-1.313-3.767-3.512-7.217-4.887-7.667-2.891-0.9447-3.374 3.808-0.672 6.616 1.817 1.889 2.817 8.441 2.393 15.7-0.2298 3.941-2.634 1.211-15.08-17.12-2.736-4.031-6.806-8.611-9.045-10.18-2.239-1.568-3.498-3.424-2.798-4.123 0.6998-0.6998 0.1729-2.597-1.171-4.216-1.673-2.016-1.83-4.04-0.4973-6.42 2.039-3.643-0.7612-12.73-3.922-12.73-0.9078 0-3.771-3.375-6.363-7.5-4.952-7.881-5.902-20.65-1.643-22.07 1.278-0.426 1.777-1.658 1.11-2.738-0.6675-1.08 0.6769-2.458 2.988-3.062 2.311-0.6043 4.201-2.004 4.201-3.11 0-1.136 1.305-0.9283 3 0.4782 1.65 1.369 3 3.832 3 5.472 0 2.156 1.614 2.745 5.824 2.127 5.068-0.7438 5.971-0.1237 6.95 4.773 1.184 5.921 5.296 7.363 8.835 3.098 1.478-1.781 1.24-6.63-0.8068-16.39-2.965-14.14-3.104-47.06-0.1987-47.07 0.8822-3e-3 2.545-2.706 3.696-6.006s2.513-6 3.027-6c3.348 0 9.12 5.064 11.9 10.44 2.707 5.235 3.656 5.826 5.521 3.441 1.238-1.584 3.602-2.881 5.252-2.881s3.008-1.613 3.017-3.584c0.0096-1.971 1.182-4.304 2.606-5.183s2.434-2.417 2.246-3.416c-0.9122-4.84 0.488-6.194 5.429-5.249 3.475 0.6643 4.84 0.2724 3.967-1.139-0.7314-1.183-0.4152-2.717 0.7028-3.408 3.305-2.042 2.513-18.96-0.9499-20.29-1.716-0.6585-3.047-3.816-3.133-7.437-0.08303-3.461-0.3159-11.62-0.5175-18.13-0.233-7.521 0.4823-12.12 1.962-12.61 1.596-0.5317 1.797-2.63 0.6396-6.666-1.74-6.066-0.4048-7.527 3.401-3.721 6.907 6.907 18.48-5.211 17.4-18.22-0.3216-3.877 0.6326-15.13 2.12-25 1.608-10.67 1.975-18.72 0.9054-19.85-0.9899-1.045-1.8-5.66-1.8-10.26 0-4.987-1.209-9.359-3-10.84-3.389-2.812-4.077-10-0.9571-10 1.124 0 3.068 2.25 4.321 5 2.539 5.571 2.159 5.363 11.14 6.111 3.575 0.2976 6.5-0.2805 6.5-1.285 0-2.916 11.28-2.108 13.85 0.9919 1.436 1.73 5.928 2.764 11.64 2.677 5.399-0.0816 9.623 0.8336 10.07 2.182 0.4258 1.277 2.049 2.323 3.608 2.323 1.558 0 2.833 0.9 2.833 2 0 5.012 7.186 1.524 9.271-4.5 5.88-16.99 7.368-20.9 9.951-26.16 1.528-3.114 2.778-6.939 2.778-8.5s0.7955-2.838 1.768-2.838c0.9722 0 3.695-4.747 6.05-10.55 2.355-5.802 6.06-11.66 8.232-13.02 2.173-1.357 3.95-3.485 3.95-4.73 0-1.244 1.361-3.262 3.023-4.483 1.663-1.221 3.389-4.02 3.835-6.22s3.183-8.41 6.08-13.8c6.813-12.67 6.112-19.3-2.439-23.06-3.575-1.574-6.5-4.151-6.5-5.728 0-5.924 8.751-18.28 14.32-20.22 3.123-1.089 5.679-2.926 5.679-4.084s1.372-2.104 3.05-2.104 3.86-2.132 4.851-4.737c0.9906-2.606 4.202-6.626 7.137-8.935 4.678-3.68 5.176-5.146 4.036-11.89-1.14-6.747-0.7301-7.952 3.336-9.805 5.896-2.687 11.75-12.9 8.09-14.13-1.628-0.5466-2.5-5.013-2.5-12.8 0-6.581-0.9058-13.66-2.013-15.73-1.478-2.762-1.079-5.641 1.5-10.83 3.645-7.339 4.731-7.989 16.71-10 4.167-0.6997 9.644-3.699 13-7.119 3.189-3.25 7.402-5.935 9.362-5.965 1.96-0.0306 4.081-1.406 4.714-3.056 0.6332-1.65 3.16-3 5.616-3 2.772 0 5.294-1.82 6.652-4.801 1.265-2.777 5.195-5.794 9.321-7.155 3.924-1.295 7.134-2.984 7.134-3.753 0-0.7696 2.6-4.245 5.777-7.724 6.47-7.083 22.69-12.78 36.66-12.87 4.708-0.0321 10.55-1.326 12.99-2.875s6.878-2.817 9.871-2.817c6.256 0 14.9 7.15 13.39 11.08-1.073 2.796 17.78 12.92 24.06 12.92 6.629 0 5.825-6.052-2.069-15.58-10.58-12.78-15.08-20.16-13.68-22.43 0.6466-1.046 0.2854-3.565-0.8026-5.598-1.589-2.969-0.7798-4.748 4.113-9.041 3.35-2.94 6.812-5.345 7.693-5.345s4.919-2.925 8.974-6.5c4.842-4.27 9.444-6.5 13.41-6.5 5.487 0 6.098-0.6625 6.705-7.276 0.3674-4.002-0.5247-8.907-1.983-10.9-3.645-4.984 0.6284-12.76 9.89-17.99 2.598-1.469 3.921-4.542 4.094-9.512 0.2947-8.485 1.322-9.927 7.439-10.44 5.5-0.4638 9.459 2.491 9.459 7.059 0 1.895 1.85 5.12 4.112 7.166 3.289 2.976 4.844 3.264 7.77 1.437 2.992-1.868 4.429-1.464 7.888 2.218 2.326 2.476 4.23 5.616 4.23 6.978 0 1.361 2.7 3.416 6 4.567 6.339 2.21 6.62 2.831 6.036 13.36-0.246 4.433 0.8556 7.586 3.297 9.436 2.159 1.636 2.639 2.805 1.167 2.842-2.803 0.07133-3.512 6.064-0.7168 6.064 0.9808 0 2.401 2.475 3.156 5.5 0.755 3.025 2.57 6.85 4.034 8.5 1.464 1.65 2.969 5.25 3.344 8 0.5102 3.738 2.053 5.158 6.113 5.626 4.405 0.5079 5.673-0.3419 6.717-4.5 1.532-6.105 9.529-7.136 12.61-1.626 1.077 1.925 2.472 3.275 3.099 3 4.003-1.755 6.173 0.2754 6.415 6 0.1511 3.575 0.7574 9.864 1.347 13.98 0.59 4.112 0.3621 7.915-0.5064 8.452-2.468 1.525-2e-3 11.79 3.498 14.57 1.733 1.375 2.16 2.5 0.9495 2.5-1.478 0-1.857 4.105-1.154 12.5 1.857 22.18 0.8567 41.8-2.384 46.74-3.511 5.358-4.009 12.76-0.8585 12.76 1.192 0 1.788 1.125 1.326 2.5s-3.152 2.222-5.976 1.882c-9.464-1.139-9.73 8.866-0.4997 18.83 2.741 2.957 4.983 6.174 4.983 7.148 0 3.072-5.928 4.195-8.941 1.694-2.326-1.931-3.883-1.406-7.975 2.685-2.796 2.796-5.084 6.475-5.084 8.175s-0.9 3.091-2 3.091-2 1.695-2 3.767c0 3.934-6.443 6.875-9.331 4.26-0.9178-0.8307-4.215-2.112-7.328-2.847-5.038-1.19-5.517-0.8874-4.362 2.752 0.871 2.744 0.2707 4.482-1.826 5.287-2.177 0.8354-2.752 2.678-1.899 6.08 1 3.986-0.3784 6.327-7.514 12.76-9.31 8.397-10.79 9.088-12.74 5.939-2.561-4.143-6.772-1.75-9.046 5.14-1.296 3.927-3.584 7.611-5.085 8.187-2.751 1.056-2.869 17.34-0.1456 20.06 1.231 1.231-3.465 4.502-12.1 8.426-3.576 1.626-4.331 3.556-4.138 10.59 0.1298 4.729-0.389 11.82-1.153 15.76-1.37 7.059-1.305 7.145 4.638 6.273 6.251-0.9174 6.842-0.0384 6.105 9.07-0.2604 3.214 0.7202 4.5 3.432 4.5 5.422 0 3.535 10.89-2.743 15.83-2.622 2.063-4.767 4.685-4.767 5.827s-1.8 2.649-4 3.347c-5.325 1.69-5.076 6.293 0.5 9.229 2.475 1.303 5.072 3.247 5.771 4.318 1.308 2.005 13.73-4.165 13.73-6.82 0-0.7754 2.7-2.003 6-2.728s6-1.98 6-2.788c0-6.14 47.68-14.67 56.28-10.06 2.853 1.527 5.782 1.527 10.16-1e-3 3.386-1.18 8.947-2.118 12.36-2.083 5.916 0.0607 6.017 0.1957 2.202 2.932-2.2 1.578-5.087 3.799-6.416 4.936-1.329 1.137-3.82 2.068-5.537 2.068-2.455 0-3.046 2.114-2.77 9.91 0.3218 9.093 0.809 10.01 5.906 11.13 4.082 0.8965 5.898 2.777 6.845 7.09 0.7091 3.228 2.217 5.87 3.352 5.87s0.1079 1.583-2.281 3.518c-5.033 4.075-3.941 9.534 2.228 11.15 3.367 0.8806 3.823 2.095 2.703 7.197-0.8754 3.986-0.5664 6.138 0.8812 6.138 1.584 0 1.63 1.119 0.1589 3.869-3.277 6.124-2.512 7.718 4.43 9.224 3.575 0.7756 7.083 2.326 7.795 3.445 1.807 2.839 20.02 5.38 23.9 3.334 4.625-2.44 17.81 2.049 17.81 6.064 0 1.795 1.125 4.477 2.5 5.959 2.054 2.214 1.787 2.437-1.5 1.252-6.9-2.488-8.009-2.253-7.677 1.628 0.1779 2.076-2.384 6.247-5.694 9.27-5.301 4.842-5.732 6.028-3.623 9.968 4.191 7.83 2.969 17.68-2.806 22.65-2.86 2.458-5.2 5.803-5.2 7.434 0 1.631-1.8 6.324-4 10.43-2.2 4.105-4 7.807-4 8.228 0 2.244 12.76 5.53 20.31 5.227 16.52-0.6619 23.42 0.0323 26.05 2.621 1.651 1.623 6.937 2.46 14.08 2.231 9.556-0.3067 11.63 0.2407 12.61 3.326 0.6447 2.031 0.1625 5.58-1.072 7.886-2.634 4.923-0.9122 14.74 3.33 18.98 1.868 1.868 4.795 2.526 7.837 1.763 5.04-1.265 6.377 0.8933 2.781 4.489-1.377 1.377-1.426 3.78-0.1444 7.15 2.516 6.618 13.17 8.922 21.42 4.633 5.324-2.767 6.041-2.711 8.796 0.688 2.2 2.714 5.196 3.562 11.24 3.18 8.253-0.5209 11.2-2.306 23.8-14.43 3.718-3.575 8.404-6.5 10.41-6.5s5.654-1.401 8.099-3.113c4.149-2.906 4.445-2.847 4.445 0.882 0 2.197 0.8155 4.499 1.812 5.115 5.006 3.094-6.317 19.1-15.59 22.05-2.121 0.6732-4.948 2.539-6.282 4.147s-5.365 2.923-8.958 2.923c-5.932 0-6.658 0.6702-7.901 7.292-1.613 8.596-6.499 16.71-10.06 16.71-3.361 0-7.683 10.74-6.202 15.4 1.033 3.255 0.2127 3.608-6.818 2.937-4.961-0.4731-7.993 0.076-7.993 1.448 0 1.216-1.304 2.21-2.898 2.21-4.938 0-13.1 12.98-15.57 24.76-1.296 6.181-2.95 11.24-3.675 11.24-0.7246 0-3.614-1.806-6.42-4.014-4.031-3.171-6.163-3.611-10.15-2.096-2.775 1.055-5.928 3.567-7.006 5.583-2.486 4.644-16.14 5.475-25.53 1.553-7.776-3.249-10.16-1.11-6.045 5.418 5.594 8.866 5.826 13.12 0.8908 16.31-3.655 2.364-6.653 2.576-14.6 1.03-15.34-2.983-22.39-1.013-24.24 6.781-0.8426 3.54-1.695 7.112-1.895 7.937s-0.4754 4.139-0.6129 7.365c-0.2855 6.698-6.566 10.02-11.38 6.024-2.342-1.944-3.647-1.827-6.404 0.5738-1.904 1.658-4.538 2.624-5.852 2.146s-4.323 0.1662-6.686 1.431c-2.363 1.265-9.388 2.686-15.61 3.157-6.223 0.4716-13.24 1.286-15.58 1.811-2.437 0.5438-5.38-0.3836-6.854-2.159-3.216-3.876-12.64-8.849-16.78-8.849-2.283 0-3.099 2.108-3.099 8 0 5.778-0.8333 8-3 8-1.65 0-3 0.8024-3 1.783 0 0.9808-2.344 2.372-5.21 3.091-3.86 0.9688-4.954 2.284-4.223 5.079 0.5425 2.074-0.4882 5.409-2.29 7.409-3.865 4.29-4.289 16.8-0.7152 21.11 3.035 3.657 1.323 8.914-3.797 11.65-2.071 1.108-3.765 3.459-3.765 5.224 0 1.765-1.563 4.352-3.473 5.749-3.29 2.406-3.282 2.751 0.1483 6.542 1.992 2.201 4.304 9.032 5.139 15.18l1.517 11.18h-6.547c-3.601 0-7.042 0.8003-7.646 1.778-2.555 4.134-11.08 4.277-15.11 0.252-5.397-5.397-8.03-5.079-8.03 0.9695 0 2.75 0.7222 5 1.605 5s3.249 4.573 5.259 10.16c4.012 11.16 8.345 14.36 12.23 9.043 2.795-3.822 5.582-1.302 3.773 3.412-0.6286 1.638-0.2071 3.556 0.9366 4.263 1.144 0.7068 3.89 5.378 6.102 10.38 3.555 8.037 3.678 9.439 1.057 12.06-1.631 1.631-2.966 3.933-2.966 5.116 0 4.302 13.8 22.76 22.85 30.56 5.103 4.4 11.6 11.85 14.43 16.55s6.798 9.426 8.809 10.5c2.011 1.076 5.679 5.556 8.151 9.954 3.266 5.811 5.789 7.997 9.229 7.997 6.512 0 11.96 12.48 8.953 20.48-1.997 5.307 0.5417 15.46 3.875 15.5 2.399 0.029 9.65 15.98 10.94 24.08 1.444 9.03 4.272 11.9 7.618 7.738 1.24-1.543 4.626-4.915 7.526-7.494 5.185-4.611 5.307-4.623 7.399-0.7137 1.695 3.168 1.223 5.124-2.329 9.639-2.451 3.116-4.231 5.912-3.956 6.214s0.5 1.549 0.5 2.772c0 1.458-2.416 1.769-7.026 0.9045-5.354-1.004-7.309-0.5813-8.214 1.777-0.6533 1.702-2.735 3.096-4.627 3.096-2.9 0-3.5 2.271-3.825 14.5-0.5519 20.74-0.5023 35.73 0.1374 41.5 0.4291 3.869-0.3089 4.925-3.261 4.67-5.924-0.513-13.18 2.911-13.18 6.218 0 1.934-1.144 2.548-3.248 1.74-1.954-0.7499-3.985 0.071-5.099 2.063-1.018 1.82-3.411 3.309-5.317 3.309-2.716 0-3.55 1.947-3.857 9-0.2235 5.135 0.4994 9 1.683 9 1.141 0 1.569 0.8188 0.9503 1.82s-0.0566 6.446 1.249 12.1c1.695 7.343 4.827 12.97 10.96 19.68 4.724 5.17 8.609 10.52 8.633 11.9 0.0242 1.375 0.7379 2.5 1.586 2.5 0.848 0 3.773 4.092 6.5 9.092 2.727 5.001 7.658 10.8 10.96 12.89s9.857 6.545 14.57 9.908c4.714 3.363 9.341 6.114 10.28 6.114s2.269 2.218 2.95 4.93c0.6805 2.711 3.253 6.988 5.717 9.503 2.464 2.515 4.79 6.372 5.17 8.57 0.3795 2.198 1.381 4.897 2.225 5.997 1.935 2.52 4.546 20.5 5.132 35.33 0.3893 9.86-0.0731 11.47-3.56 12.38-2.78 0.727-3.611 2.081-2.713 4.421 0.7119 1.855 0.333 4.531-0.8419 5.947-1.579 1.903-1.012 3.621 2.178 6.593 2.373 2.211 3.708 5 2.968 6.198-0.7406 1.198 0.0637 5.006 1.787 8.46 1.724 3.455 3.134 7.205 3.134 8.333 0 2.253 13.62 15.33 15.97 15.33 0.8046 0 1.463 4.769 1.463 10.6s1.16 12.77 2.578 15.42c1.418 2.65 2.507 7.331 2.419 10.4-0.1165 4.097 0.7972 5.585 3.43 5.585 2.703 0 3.364 1.177 2.678 4.766-0.5011 2.621 0.0738 5.374 1.277 6.118 1.204 0.7439 2.188 3.999 2.188 7.234 0 3.235 0.9 5.882 2 5.882 3.082 0 2.369 7.577-1.23 13.07-1.777 2.711-4.927 4.93-7 4.93s-3.885 0.675-4.025 1.5c-0.1404 0.825-0.4765 3.712-0.7469 6.416-0.2704 2.704-1.506 5.254-2.745 5.667s-2.253 2.366-2.253 4.34c0 1.974-1.285 4.655-2.856 5.959-1.571 1.304-5.268 6.983-8.216 12.62-5.991 11.46-16.96 23.15-20.59 21.94-1.351-0.4503-2.918 1.94-3.641 5.553-0.6978 3.489-2.716 6.847-4.484 7.461-5.547 1.928-16.22 13.15-16.22 17.06 0 2.056 0.854 5.335 1.898 7.285 1.352 2.526 0.5647 6.948-2.735 15.37-9.111 23.25-16.45 36.76-17.82 32.82z" style="paint-order:markers fill stroke"/>
  <path d="m149.8 853.3c-0.6623-0.6264-1.511-1.139-1.887-1.139s-2.307-1.238-4.292-2.75c-1.985-1.512-3.868-2.75-4.185-2.75s-0.7112-0.3547-0.8776-0.7883c-0.2241-0.584-0.8536-0.7483-2.428-0.6338-1.996 0.1451-2.157 0.0582-2.639-1.423-0.2821-0.8679-0.9357-2.045-1.452-2.616-0.9696-1.071-2.785-1.422-2.785-0.5382 0 0.275-0.1938 0.5-0.4306 0.5-0.2368 0-0.5526-1.294-0.7018-2.875-0.3353-3.554-1.675-7.658-2.785-8.529-0.7744-0.6081-0.7714-0.6886 0.0423-1.15 0.4812-0.2728 0.875-0.7911 0.875-1.152 0-0.4228 0.4267-0.5742 1.201-0.4263 0.896 0.1713 1.285-0.0367 1.534-0.8193 0.1831-0.5769 0.629-1.049 0.9909-1.049 0.3619 0 0.7704-0.5881 0.9078-1.307 0.2007-1.05-0.033-1.468-1.189-2.125-1.552-0.8828-1.873-1.568-0.7356-1.568 0.39 0 1.065-0.1366 1.5-0.3035 0.567-0.2176 0.7909-5e-3 0.7909 0.75 0 0.5794 0.225 1.054 0.5 1.054s0.5 0.5492 0.5 1.22c0 1.506 0.7427 2.001 2.795 1.863 1.179-0.0794 1.645 0.1314 1.827 0.8278 0.178 0.6807 0.8875 1.023 2.613 1.259 2.603 0.3568 3.471 0.0871 3.071-0.955-0.1442-0.3759-0.0471-0.8164 0.2159-0.9789 0.263-0.1625 0.4782-0.7322 0.4782-1.266s0.225-0.9705 0.5-0.9705 0.5 0.5625 0.5 1.25c0 0.7778 0.2833 1.25 0.75 1.25 0.4125 0 0.75-0.3508 0.75-0.7795s0.225-0.6404 0.5-0.4705 0.5 0.7528 0.5 1.295 0.3359 1.115 0.7464 1.273c0.5054 0.1939 0.6493 0.6733 0.4458 1.484-0.2239 0.8919-0.0953 1.198 0.5036 1.198 0.4423 0 0.8042-0.225 0.8042-0.5s0.225-0.5 0.5-0.5 0.5 0.3297 0.5 0.7326 0.6772 1.504 1.505 2.447c2.045 2.33 1.627 3.357-1.115 2.74-2.551-0.5732-3.484 0.0951-2.166 1.552 0.4952 0.5472 1.266 0.9669 1.713 0.9326 2.759-0.2115 3.342 0.8012 1.563 2.711-1.335 1.433-1.26 2.211 0.25 2.59 0.6875 0.1726 1.255 0.5907 1.261 0.9292 6e-3 0.3385 0.4511 1.178 0.9889 1.865 1.046 1.337 1.323 3 0.5 3-0.275 0-0.5 0.3592-0.5 0.7982 0 0.5268-0.5248 0.2054-1.543-0.9451-1.294-1.462-1.759-1.686-2.875-1.387-1.765 0.4719-2.108 2.034-0.447 2.034 0.8509 0 1.468 0.4822 2.086 1.631 0.7678 1.426 0.7935 1.821 0.2037 3.139l-0.6748 1.507z" style="paint-order:markers fill stroke"/>
  <path d="m129.3 871.8c-1.936-0.6375-3.34-1.557-4.673-3.06-0.7979-0.9-2.757-2.553-4.354-3.673-1.597-1.12-3.036-2.296-3.198-2.614s-0.8423-1.477-1.511-2.577c-2.918-4.799-2.919-4.788 0.4083-5.013 1.225-0.0826 3.359-0.692 4.743-1.354 2.4-1.149 2.551-1.163 3.278-0.3141 1.112 1.299 5.871 2.558 8.094 2.141l1.841-0.3453-0.2462 4.33c-0.1354 2.381-0.0689 4.439 0.1478 4.573 1.098 0.6785 0.9601 3.125-0.3032 5.386-0.7212 1.29-1.499 2.346-1.728 2.346-0.229 0-0.716 0.0947-1.082 0.2104-0.3662 0.1157-1.003 0.0993-1.416-0.0366z" style="paint-order:markers fill stroke"/>
  <path d="m121.3 826.2c-0.7345-1.659-3.755-6.223-7.222-10.91-3.431-4.641-3.06-7.913 1.025-9.041 1.717-0.474 1.962-0.3981 3.486 1.08 1.274 1.235 1.774 1.456 2.239 0.9904 0.9737-0.9737 1.447-0.6913 1.293 0.7723-0.1072 1.021 0.1431 1.498 0.9811 1.869 1.176 0.5199 1.517 1.26 0.5802 1.26-0.2997 0-0.9707 0.5062-1.491 1.125l-0.9464 1.125-0.3171-1.125c-0.2309-0.8192-0.6931-1.125-1.7-1.125-1.585 0-2.13 1.192-1.544 3.382 0.2932 1.096 0.6571 1.368 1.83 1.368 1.131 0 1.606 0.3244 2.087 1.427 0.3424 0.7847 0.4918 1.638 0.332 1.897-0.1598 0.2586-0.0751 0.7416 0.1884 1.073 0.4879 0.6143 0.5591 5.568 0.0868 6.04-0.1426 0.1427-0.5506-0.3986-0.9066-1.203z" style="paint-order:markers fill stroke"/>
  <path d="m148.9 821c-0.2654-0.0622 0.3026-0.8094 1.821-2.395 1.214-1.267 2.259-2.557 2.323-2.867 0.0643-0.3094 0.1752-0.8431 0.2463-1.186 0.0853-0.4112 0.4192-0.7446 0.9806-0.9791 1.086-0.4536 1.74-1.454 1.754-2.681 0.0132-1.165 0.2761-1.21 1.991-0.34 0.6764 0.3432 1.432 0.624 1.679 0.624 0.5416 0 0.9664-0.7219 0.9664-1.642v-0.6752l0.5363 0.6818c0.4142 0.5265 0.6988 0.6579 1.25 0.577 0.3925-0.0576 0.7137-0.0572 0.7137 8.5e-4 0 0.4293-1.146 1.548-1.963 1.916-1.067 0.4813-1.225 0.7739-1.555 2.891-0.4629 2.965-0.5589 3.33-1.012 3.843-0.258 0.2924-0.6378 0.7284-0.844 0.969-0.2062 0.2406-0.6209 0.4375-0.9214 0.4375-0.3005 0-0.7961 0.2346-1.101 0.5213-0.5312 0.4991-0.5827 0.5031-1.207 0.0943-0.439-0.2876-0.902-0.3769-1.419-0.2735-0.5164 0.1033-0.889 0.0316-1.14-0.2193-0.5393-0.5393-1.341-0.4584-2.073 0.2093-0.3513 0.3201-0.8123 0.5414-1.025 0.4916z" style="paint-order:markers fill stroke"/>
  <path d="m147.8 816.4c-0.4439-0.6775-0.4407-2.028 6e-3 -2.474 0.4764-0.4764 0.3804-2.137-0.1545-2.671-0.4187-0.4187-0.4246-0.487-0.0625-0.7138 0.499-0.3125 1.397-2.895 1.192-3.429-0.2517-0.6559-1.149-0.4731-1.441 0.2934-0.2354 0.6192-0.2863 0.643-0.5122 0.2394-0.1379-0.2464-0.2144-0.8652-0.1699-1.375 0.0658-0.7539-0.0202-0.9713-0.4602-1.164-0.3676-0.1614-0.5771-0.522-0.6536-1.125-0.1381-1.089 0.3596-1.769 1.146-1.568 0.8488 0.2177 1.923 1.102 1.923 1.582 0 0.348 0.3155 0.4669 1.605 0.605 0.8828 0.0945 1.713 0.1056 1.844 0.0245 0.2378-0.147 2.103 1.07 2.416 1.577 0.2668 0.4318 1.272 0.3054 1.748-0.2195 0.7281-0.8046 1.473-0.7576 1.763 0.111 0.1777 0.533 0.4958 0.8295 1.1 1.025 0.6344 0.2051 0.7612 0.3302 0.5 0.4938-0.1924 0.1205-0.5367 0.1884-0.7652 0.1509-0.2284-0.0375-0.4856 0.0454-0.5714 0.1843-0.2144 0.3469-1.388-0.204-1.388-0.6516 0-0.6307-0.7591-0.6555-1.411-0.0461-0.9334 0.8719-1.339 1.801-1.339 3.07 0 1.086-0.0377 1.142-1.077 1.602-1.104 0.4884-1.601 1.011-2.997 3.151-0.4409 0.676-1.039 1.383-1.33 1.57-0.4733 0.3057-0.5685 0.2804-0.9107-0.242z" style="paint-order:markers fill stroke"/>
  <path d="m153.8 830.1c-0.7673-0.281-1.902-2.373-1.504-2.771 0.1515-0.1515 0.3-0.1394 0.4066 0.0331 0.4391 0.7105 2.704-0.2338 2.843-1.186 0.0923-0.6279-0.587-1.011-1.022-0.5757-0.3868 0.3868-0.8078 0.3617-0.4921-0.0293 0.1388-0.1719 0.3294-0.7802 0.4237-1.352 0.2039-1.237 0.6385-1.903 1.065-1.633 0.1678 0.1062 0.4076 1.109 0.5328 2.227 0.1472 1.316 0.4013 2.284 0.7193 2.74 0.9234 1.325 0.8851 1.786-0.1941 2.336-1.051 0.5364-1.746 0.5889-2.78 0.2104z" style="paint-order:markers fill stroke"/>
  <path d="m137.1 809.6c0-0.5474 0.1387-0.794 0.5-0.8884 0.3034-0.0794 0.5-0.341 0.5-0.6656 0-0.6739-1.172-1.227-2.667-1.259-1.149-0.0244-1.412-0.26-0.5831-0.523 0.275-0.0873 0.5-0.2716 0.5-0.4097 0-0.3892 0.5679-0.8324 1.174-0.9162 0.5698-0.0788 1.33 0.5244 1.824 1.447 0.2038 0.3808 0.4775 0.5117 0.9546 0.4564 0.5891-0.0683 0.6885-0.2156 0.8333-1.236 0.0904-0.6371 0.3537-1.447 0.5851-1.8 0.2415-0.3685 0.3542-0.8513 0.2646-1.133-0.1262-0.3976-0.0617-0.4669 0.3378-0.3624 0.6684 0.1748 2.277-0.3803 2.277-0.7858 0-0.1796 0.225-0.3853 0.5-0.4572 0.6482-0.1695 0.6496 0.3324 3e-3 0.9628-1.78 1.735-1.764 1.709-1.655 2.658 0.0584 0.5087 0.1716 1.031 0.2514 1.16 0.0798 0.1292-0.0729 0.2919-0.3395 0.3616-0.5826 0.1524-1.508 1.591-1.509 2.347-2e-3 1.263-0.1039 1.324-2.813 1.679-0.9041 0.1184-0.9375 0.0958-0.9375-0.6349z" style="paint-order:markers fill stroke"/>
  <path d="m142.7 816.2c-0.8278-0.7244-3.83-1-4.833-0.4442-0.5513 0.3056-0.6746 0.2538-1.656-0.6964-1.061-1.027-1.537-1.933-1.255-2.39 0.0827-0.1337 0.5846 0.2044 1.115 0.7514 0.8429 0.8685 1.044 0.9644 1.59 0.757 0.3435-0.1306 0.6729-0.3825 0.732-0.5598 0.0709-0.2127 0.4673-0.2964 1.165-0.246 0.9802 0.0708 1.079 0.0199 1.349-0.6938 0.2045-0.5419 0.4553-0.7701 0.8461-0.7701 0.3055 0 0.6224 0.1083 0.7042 0.2408 0.0834 0.1349 0.7902 0.1837 1.608 0.111 1.16-0.1032 1.489-0.0518 1.605 0.2512 0.0804 0.2096 0.0307 0.4524-0.1105 0.5397-0.1456 0.09-0.1938 0.5532-0.1114 1.07 0.1828 1.147-0.0632 1.523-1.272 1.944-1.145 0.3987-1.171 0.4011-1.476 0.135z" style="paint-order:markers fill stroke"/>
  <path d="m132.3 804.9c-0.2466-0.138-0.636-0.202-0.8655-0.1422-0.348 0.0907-0.4254-0.1188-0.4668-1.263-0.0451-1.245-0.1373-1.45-1-2.221-1.788-1.598-1.951-1.726-2.632-2.065l-0.6817-0.3399 0.6192-0.5739c0.3406-0.3156 0.6192-0.7386 0.6192-0.94s0.1186-0.4056 0.2636-0.454c0.2544-0.0848 0.4274-0.6352 0.4673-1.487 0.0105-0.2246 0.216-0.4778 0.4566-0.5627 0.2406-0.0849 0.5638-0.2151 0.7182-0.2894 0.1544-0.0743 0.3368 0.0798 0.4055 0.3424 0.0966 0.3694 0.4572 0.5226 1.594 0.6772 0.8082 0.1099 1.666 0.1738 1.907 0.1421 0.612-0.0807 0.55 0.2608-0.3125 1.724-0.8483 1.439-0.8934 1.708-0.3988 2.385 0.3194 0.4367 0.2853 0.5081-0.375 0.7857-0.9711 0.4083-1.051 1.719-0.1255 2.07 0.3304 0.1256 0.6788 0.3548 0.7743 0.5092 0.0955 0.1545 0.4417 0.3828 0.7695 0.5074 0.4039 0.1536 0.5468 0.3546 0.4434 0.624-0.0839 0.2186-0.2938 0.3431-0.4665 0.2769-0.1727-0.0663-0.5281 0.0294-0.7898 0.2127-0.3374 0.2363-0.6061 0.2603-0.9241 0.0823z" style="paint-order:markers fill stroke"/>
  <path d="m140.8 798.9c-0.55-0.569-1.45-1.236-2-1.482-0.8933-0.3999-0.9306-0.4495-0.3498-0.4653 0.8096-0.022 2.152 0.4231 2.975 0.9866 0.3438 0.2353 1.075 0.5799 1.625 0.7658 1.304 0.4408 1.291 0.4261 0.7318 0.8495-0.907 0.6862-1.895 0.4692-2.982-0.6546z" style="paint-order:markers fill stroke"/>
  <path d="m77.38 762.9c-1.794-3.066-2.403-3.973-2.901-4.321-0.4275-0.2994-0.5517-0.7181-0.6676-2.249-0.1277-1.688-0.2479-2.032-1.173-3.35-0.5666-0.8078-1.281-1.603-1.588-1.767s-0.7803-0.6304-1.052-1.036c-0.2717-0.4055-0.5581-0.7376-0.6364-0.738-0.07836-4e-4 -0.5188-0.3367-0.9787-0.7473l-0.8362-0.7466 0.4746-0.8812c0.3919-0.7277 0.4208-0.9673 0.1662-1.375-0.5352-0.8569-0.3808-1.248 0.5041-1.277 0.4469-0.0148 1.769-0.0687 2.938-0.1197 2.753-0.1202 3.159 0.0948 3.86 2.043 0.6304 1.753 1.284 2.773 2.787 4.354 0.9691 1.019 2.103 3.237 2.103 4.115 0 0.1905-0.3656 0.4672-0.8125 0.6149s-1.122 0.6567-1.5 1.131c-0.8953 1.123-0.9583 3.131-0.1479 4.712 0.5112 0.9971 0.7204 2.501 0.3935 2.828-0.08265 0.0826-0.5026-0.4517-0.9331-1.188z" style="paint-order:markers fill stroke"/>
  <path d="m57.6 743.6c-1.08-0.2773-2.703-1.341-3.485-2.283-0.2627-0.3166-3.668-2.964-5.332-4.146-0.1325-0.0941-0.01026-0.7317 0.2876-1.5 0.2849-0.735 0.585-1.643 0.6667-2.017 0.08176-0.3743 0.3969-0.9119 0.7004-1.195 0.4587-0.4274 0.7427-0.4858 1.684-0.3468 0.623 0.092 1.401 0.3764 1.729 0.6321 0.3279 0.2557 0.7498 0.4648 0.9375 0.4648 0.5308 0 0.4014 0.676-0.1575 0.8221-0.7193 0.1881-0.8888 0.8775-0.4137 1.682 0.2268 0.384 0.4124 0.8812 0.4124 1.105 0 0.5038 0.6492 0.7809 1.066 0.4549 0.5-0.3914 3.271-0.834 4.137-0.6608 0.5157 0.1032 0.7975 0.3074 0.7975 0.5782 0 0.2303 0.1129 0.5317 0.251 0.6697 0.168 0.168 0.08531 0.5939-0.25 1.288-0.2755 0.5703-0.501 1.156-0.501 1.302 0 0.146-0.103 0.4608-0.229 0.6996-0.2418 0.4584-0.8961 1.99-1.053 2.465-0.0683 0.2066-0.3985 0.2025-1.248-0.0155z" style="paint-order:markers fill stroke"/>
  <path d="m50.25 728.9c-0.275-0.1513-0.663-0.3503-0.8621-0.4422-0.6516-0.3009-0.7947-1.569-0.6374-5.645 0.1065-2.76 0.06197-4.386-0.1423-5.197-0.1635-0.6494-0.2464-1.232-0.1841-1.294 0.06226-0.0623 0.7964-0.1286 1.632-0.1475 1.044-0.0236 1.7 0.0929 2.1 0.3728 0.4554 0.319 0.4899 0.4071 0.1594 0.4071-0.232 0-0.5472 0.2342-0.7003 0.5204-0.2291 0.4281-0.1635 0.6942 0.3698 1.5 0.3565 0.5388 0.7592 0.9796 0.8947 0.9796s0.2465 0.1732 0.2465 0.385c0 0.5907 0.9442 2.309 2.009 3.656 1.179 1.492 1.374 2.06 0.925 2.701-0.6068 0.8663-2.268 1.843-3.434 2.018-0.6188 0.0929-1.294 0.2347-1.5 0.3152-0.2062 0.0804-0.6 0.0225-0.875-0.1288z" style="paint-order:markers fill stroke"/>
  <path d="m65.13 732.5c0-0.4257-0.1125-0.8435-0.25-0.9285-0.1375-0.085-0.25-0.3623-0.25-0.6164 0-0.3319 0.1347-0.4266 0.4786-0.3367 0.323 0.0845 0.5778-0.0601 0.7837-0.4449 0.2657-0.4964 0.2281-0.639-0.2911-1.104-0.3279-0.2936-0.7201-0.7509-0.8717-1.016-0.1515-0.2652-0.5172-0.5181-0.8125-0.562-0.3268-0.0486-0.537-0.2607-0.537-0.542 0-0.2542-0.06885-0.6416-0.153-0.8609-0.1101-0.2869 0.06512-0.4747 0.625-0.6699 0.4279-0.1492 0.778-0.3641 0.778-0.4776 0-0.2884 1.25-1.745 1.498-1.745 0.1118 0 0.321 0.3375 0.4648 0.75 0.1438 0.4125 0.3798 0.75 0.5245 0.75s0.263 0.1512 0.263 0.3361c0 0.5133 1.086 1.664 1.57 1.664 0.2677 0 0.4295 0.195 0.4295 0.5175 0 0.5398-2.818 4.764-3.727 5.587-0.5195 0.4702-0.5227 0.4684-0.5227-0.301z" style="paint-order:markers fill stroke"/>
  <path d="m111.3 775c-0.0751-0.1215-0.6287-0.4523-1.23-0.735-0.9201-0.4325-1.161-0.7048-1.519-1.717-0.6291-1.777-0.9049-3.243-0.9789-5.202-0.0568-1.503-0.2255-2.068-1.196-4.008-1.128-2.254-1.173-2.497-0.6578-3.555 0.4271-0.8768 0.799-0.6821 1.826 0.956 1.147 1.829 2.649 2.941 4.157 3.076 1.119 0.1002 1.559 0.6534 0.9802 1.232-0.4743 0.4743-0.3012 1.175 0.3516 1.423 0.7115 0.2705 0.7289 0.3659 0.3453 1.889-0.2927 1.163-0.5596 1.39-0.8235 0.7024-0.1272-0.3315-0.3773-0.3781-1.329-0.2476-1.579 0.2164-1.74 0.4424-1.079 1.513 0.563 0.9109 1.511 1.231 1.511 0.5095 0-0.2994 0.1043-0.328 0.4744-0.1299 0.3183 0.1703 0.51 0.6052 0.5825 1.321 0.0594 0.5871 0.1955 1.264 0.3023 1.505 0.1408 0.3171 0.0822 0.4375-0.2128 0.4375-0.2239 0-0.5353 0.2812-0.6919 0.625-0.2947 0.6467-0.5752 0.7864-0.8116 0.404z" style="paint-order:markers fill stroke"/>
  <path d="m106.8 756.8c-0.699-0.3796-0.991-1.06-1.448-3.375-0.1717-0.8703-0.6406-1.924-1.266-2.846-1.298-1.912-1.301-2.314-0.0154-2.192 1.129 0.1076 1.595-0.3964 1.883-2.034 0.2187-1.246 0.6425-1.081 1.22 0.4744 0.2508 0.6761 0.6165 1.407 0.8126 1.624 0.1961 0.2171 0.3566 0.7421 0.3566 1.167 0 0.5258 0.1941 0.9181 0.6088 1.23 0.3507 0.264 0.8112 1.068 1.086 1.896 0.4728 1.424 0.4062 1.787-0.195 1.062-0.473-0.5699-1.204-0.4506-1.913 0.3125-0.5565 0.5984-0.6212 0.8414-0.4998 1.875 0.0767 0.6531 0.1166 1.183 0.0887 1.177-0.0279-6e-3 -0.351-0.1731-0.718-0.3724z" style="paint-order:markers fill stroke"/>
 </g>
</svg>
