<svg width="750mm" height="600mm" version="1.1" viewBox="0 0 750 600" xmlns="http://www.w3.org/2000/svg">
    <rect x="24" y="24" width="702" height="552" fill="#ff0" fill-rule="evenodd" stroke="#000" stroke-linecap="square"
        stroke-width="48" style="paint-order:markers fill stroke" />

    <circle transform="translate(376.275, 119.193)" cx="0" cy="0" r="45.27" fill="#ffec00" stroke="#134dbe"
        stroke-width="4.78" />

    <g transform="translate(341.2, 33.32) scale(0.2959)" fill="#0073ff" stroke="#000" stroke-width="1.69">
        <path
            d="m82.01 384.5 2.085 1.42 2.312 0.2132 2.822 0.079 2.663-1.384c0.8674-1.482 1.478-2.824 2.279-1.32l-0.3788 2.612-1.389 2.02-1.768 1.768-3.692 0.5051-3.231-0.4834-2.189-1.401-1.494-1.817-1.041-1.99c0.2224-2.697 1.974-1.009 3.021-0.2219z" />
        <path
            d="m114.7 384.7 2.085 1.42 2.312 0.2132 2.822 0.079 2.663-1.384c0.8674-1.482 1.478-2.824 2.279-1.32l-0.3788 2.612-1.389 2.02-1.768 1.768-3.692 0.5051-3.231-0.4834-2.189-1.401-1.494-1.817-1.041-1.99c0.2224-2.697 1.974-1.009 3.021-0.2219z" />
        <path
            d="m145.9 383.8 2.085 1.42 2.312 0.2132 2.822 0.079 2.663-1.384c0.8674-1.482 1.478-2.824 2.279-1.32l-0.3788 2.612-1.389 2.02-1.768 1.768-3.692 0.5051-3.231-0.4834-2.189-1.401-1.494-1.817-1.041-1.99c0.2224-2.697 1.974-1.009 3.021-0.2219z" />
        <path
            d="m176.8 383.7 2.085 1.42 2.312 0.2132 2.822 0.079 2.663-1.384c0.8674-1.482 1.478-2.824 2.279-1.32l-0.3788 2.612-1.389 2.02-1.768 1.768-3.692 0.5051-3.231-0.4834-2.189-1.401-1.494-1.817-1.041-1.99c0.2224-2.697 1.974-1.009 3.021-0.2219z" />
        <path
            d="m162.2 365.4 2.085 1.42 2.312 0.2132 2.822 0.079 2.663-1.384c0.8674-1.482 1.478-2.824 2.279-1.32l-0.3788 2.612-1.389 2.02-1.768 1.768-3.692 0.5051-3.231-0.4834-2.189-1.401-1.494-1.817-1.041-1.99c0.2224-2.697 1.974-1.009 3.021-0.2219z" />
        <path
            d="m130.6 366.3 2.085 1.42 2.312 0.2132 2.822 0.079 2.663-1.384c0.8674-1.482 1.478-2.824 2.279-1.32l-0.3788 2.612-1.389 2.02-1.768 1.768-3.692 0.5051-3.231-0.4834-2.189-1.401-1.494-1.817-1.041-1.99c0.2224-2.697 1.974-1.009 3.021-0.2219z" />
        <path
            d="m98.62 366.3 2.085 1.42 2.312 0.2132 2.822 0.079 2.663-1.384c0.8674-1.482 1.478-2.824 2.279-1.32l-0.3788 2.612-1.389 2.02-1.768 1.768-3.692 0.5051-3.231-0.4834-2.189-1.401-1.494-1.817-1.041-1.99c0.2224-2.697 1.974-1.009 3.021-0.2219z" />
        <path
            d="m67.73 367 2.085 1.42 2.312 0.2132 2.822 0.079 2.663-1.384c0.8674-1.482 1.478-2.824 2.279-1.32l-0.3788 2.612-1.389 2.02-1.768 1.768-3.692 0.5051-3.231-0.4834-2.189-1.401-1.494-1.817-1.041-1.99c0.2224-2.697 1.974-1.009 3.021-0.2219z" />
        <path
            d="m51.3 384.7 2.085 1.42 2.312 0.2132 2.822 0.079 2.663-1.384c0.8674-1.482 1.478-2.824 2.279-1.32l-0.3788 2.612-1.389 2.02-1.768 1.768-3.692 0.5051-3.231-0.4834-2.189-1.401-1.494-1.817-1.041-1.99c0.2224-2.697 1.974-1.009 3.021-0.2219z" />
    </g>

    <path transform="translate(312.5, 43.89) scale(0.2959)"
        d="m287.1 315.9 12.14 0.3571-16.43-35.36c34.25-3.496 28.13-1.163 28.57-15.71l-199.6-1.786c-0.4089 19.99-0.837 9.784 33.93 17.5l-16.07 35.36 13.57-0.3572 7.143-12.86 9.237-9.628 10.66-6.89 11.53-5.267 13.93-3.575 12.86-0.7105 15.3 0.2697 13.14 1.724 12.71 3.142 9.922 5.221 7.781 4.27 5.499 3.876 6.362 7.568z"
        fill="#f00" stroke="#960000" />

    <rect transform="translate(345.37, 117.09)" x="0" y="0" width="59.18" height="1.69" fill="#f00" stroke="#960000" />
    <rect transform="translate(345.37, 119.46)" x="0" y="0" width="59.18" height="1.69" fill="#f00" stroke="#960000" />

    <g transform="translate(332.9, -42.55) scale(0.2959)" stroke="#000" stroke-width="3.38">
        <path d="m41.31 501.4 27.14 1.071v32.14l152.9-0.7143-0.7143-32.5 30 0.7143-108.2-70.71z" fill="#007335" />
        <g fill="none">
            <path d="m68.44 502.3 152.8-1.01" />
            <path d="m68.44 502.8v-20.71" />
            <path d="m220.7 501.8v-19.45" />
            <path d="m88.64 468.7 0.2525 33.59" />
            <path d="m199.8 469.3 0.5051 32.32" />
            <path d="m142.4 431.4 1.01 70.71" />
            <path d="m161.4 443.7 0.5051 57.83" />
            <path d="m180.3 456.4 1.01 44.95" />
            <path d="m125.5 443.2 0.7576 58.34" />
            <path d="m106.8 456.1 0.7576 45.71" />
        </g>
    </g>

    <text text-anchor="middle" transform="translate(360.61, 392.18)" fill="#000000" fill-rule="evenodd"
        font-family="Calibri" font-size="280.00px" font-weight="bold" letter-spacing="-13.23px" stroke-linecap="square"
        stroke-width="47.99" text-align="center" word-spacing="0px">
        <tspan x="0" y="0">NH 00</tspan>
    </text>
</svg>