<?xml version="1.0" encoding="UTF-8" standalone="no"?>
<!-- Created with Inkscape (http://www.inkscape.org/) -->

<svg
   width="750mm"
   height="600mm"
   viewBox="0 0 750 600"
   version="1.1"
   id="svg1"
   inkscape:version="1.4.2 (f4327f4, 2025-05-13)"
   sodipodi:docname="nh00_tpl.svg"
   xmlns:inkscape="http://www.inkscape.org/namespaces/inkscape"
   xmlns:sodipodi="http://sodipodi.sourceforge.net/DTD/sodipodi-0.dtd"
   xmlns="http://www.w3.org/2000/svg"
   xmlns:svg="http://www.w3.org/2000/svg">
  <sodipodi:namedview
     id="namedview1"
     pagecolor="#ffffff"
     bordercolor="#000000"
     borderopacity="0.25"
     inkscape:showpageshadow="2"
     inkscape:pageopacity="0.0"
     inkscape:pagecheckerboard="0"
     inkscape:deskcolor="#d1d1d1"
     inkscape:document-units="mm"
     showguides="true"
     inkscape:zoom="0.18084315"
     inkscape:cx="3198.9046"
     inkscape:cy="1575.9513"
     inkscape:window-width="1920"
     inkscape:window-height="1017"
     inkscape:window-x="-8"
     inkscape:window-y="-8"
     inkscape:window-maximized="1"
     inkscape:current-layer="layer1">
    <sodipodi:guide
       position="302.08437,413.7836"
       orientation="0,-1"
       id="guide1"
       inkscape:locked="false" />
    <sodipodi:guide
       position="374.99892,897.60272"
       orientation="1,0"
       id="guide2"
       inkscape:locked="false" />
    <sodipodi:guide
       position="376.66787,186.00138"
       orientation="0,-1"
       id="guide3"
       inkscape:locked="false" />
  </sodipodi:namedview>
  <defs
     id="defs1">
    <rect
       x="237.77511"
       y="707.79566"
       width="2872.8039"
       height="1438.1029"
       id="rect2" />
  </defs>
  <g
     inkscape:groupmode="layer"
     id="layer1"
     inkscape:label="Layer 1">
    <g
       id="g4">
      <path
         style="fill:none;fill-rule:evenodd;stroke:#000000;stroke-width:2;stroke-linecap:square;paint-order:markers fill stroke;stroke-opacity:1;stroke-dasharray:none"
         d="M 0,-30 H 750"
         id="path1"
         sodipodi:nodetypes="cc" />
      <path
         style="fill:none;fill-rule:evenodd;stroke:#000000;stroke-width:2;stroke-linecap:square;stroke-dasharray:none;stroke-opacity:1;paint-order:markers fill stroke"
         d="m 0,-40 v 20"
         id="path3"
         sodipodi:nodetypes="cc" />
      <path
         style="fill:none;fill-rule:evenodd;stroke:#000000;stroke-width:2;stroke-linecap:square;stroke-dasharray:none;stroke-opacity:1;paint-order:markers fill stroke"
         d="m 751,-39 v 20"
         id="path4"
         sodipodi:nodetypes="cc" />
    </g>
    <g
       id="g7"
       transform="rotate(90,380.5,381.5)">
      <path
         style="fill:none;fill-rule:evenodd;stroke:#000000;stroke-width:1.78047;stroke-linecap:square;stroke-dasharray:none;stroke-opacity:1;paint-order:markers fill stroke"
         d="M 1.6030304,-30 H 595.99161"
         id="path5"
         sodipodi:nodetypes="cc" />
      <path
         style="fill:none;fill-rule:evenodd;stroke:#000000;stroke-width:2;stroke-linecap:square;stroke-dasharray:none;stroke-opacity:1;paint-order:markers fill stroke"
         d="m 0,-40 v 20"
         id="path6"
         sodipodi:nodetypes="cc" />
      <path
         style="fill:none;fill-rule:evenodd;stroke:#000000;stroke-width:2;stroke-linecap:square;stroke-dasharray:none;stroke-opacity:1;paint-order:markers fill stroke"
         d="m 751,-39 v 20"
         id="path7"
         sodipodi:nodetypes="cc" />
    </g>
  </g>
  <g
     inkscape:groupmode="layer"
     id="layer2"
     inkscape:label="Layer 2">
    <rect
       style="fill:#ffff00;fill-rule:evenodd;stroke:#000000;stroke-width:48;stroke-linecap:square;stroke-linejoin:miter;stroke-dasharray:none;paint-order:markers fill stroke"
       id="rect1"
       width="702"
       height="552"
       x="24"
       y="24" />
    <circle
       id="path3781"
       style="fill:#ffec00;fill-opacity:1;stroke:#134dbe;stroke-width:15.1546;stroke-dasharray:none;stroke-opacity:1"
       cx="212.64363"
       cy="862.1062"
       r="143.47157"
       transform="matrix(0.31554682,0,0,0.31554682,309.20648,-152.84371)" />
    <g
       inkscape:groupmode="layer"
       id="layer3"
       inkscape:label="Layer 3">
      <path
         style="fill:#ff0000;fill-opacity:1;stroke:#960000;stroke-opacity:1"
         d="m 287.14286,315.93362 12.14285,0.35714 -16.42857,-35.35715 c 34.24617,-3.49586 28.12833,-1.16263 28.57143,-15.71428 l -199.64286,-1.78572 c -0.40889,19.99302 -0.83702,9.78415 33.92858,17.5 l -16.07144,35.35715 13.57144,-0.35715 7.14285,-12.85714 9.23704,-9.6284 10.66273,-6.89024 11.5288,-5.26707 13.92805,-3.5752 12.85767,-0.71052 15.30089,0.26967 13.13565,1.72371 12.71266,3.14232 9.92222,5.22144 7.78146,4.26962 5.49894,3.8763 6.36248,7.56837 z"
         id="path3795"
         inkscape:connector-curvature="0"
         sodipodi:nodetypes="cccccccccccccccccccccc"
         transform="matrix(0.29590696,0,0,0.29590696,312.49437,43.885599)" />
      <rect
         style="fill:#000000;fill-opacity:1;stroke:none"
         id="rect3797"
         width="200"
         height="5.7142859"
         x="111.07143"
         y="247.36218"
         transform="matrix(0.29590696,0,0,0.29590696,312.49437,43.885599)" />
      <rect
         y="255.36218"
         x="111.07143"
         height="5.7142859"
         width="200"
         id="rect3801"
         style="fill:#000000;fill-opacity:1;stroke:none"
         transform="matrix(0.29590696,0,0,0.29590696,312.49437,43.885599)" />
      <g
         id="g3866"
         transform="matrix(0.29590696,0,0,0.29590696,332.85112,-42.554036)"
         inkscape:groupmode="layer">
        <path
           inkscape:connector-curvature="0"
           id="path3803"
           d="m 41.312364,501.3727 27.14286,1.07143 v 32.14285 l 152.857146,-0.71428 -0.71428,-32.5 30,0.71428 L 142.3838,431.3727 Z"
           style="fill:#007335;fill-opacity:1;stroke:#000000;stroke-width:1px;stroke-linecap:butt;stroke-linejoin:miter;stroke-opacity:1" />
        <path
           inkscape:connector-curvature="0"
           id="path3831"
           d="M 68.437835,502.33412 221.22341,501.32396"
           style="fill:none;stroke:#000000;stroke-width:1px;stroke-linecap:butt;stroke-linejoin:miter;stroke-opacity:1" />
        <path
           style="fill:none;stroke:#000000;stroke-width:1px;stroke-linecap:butt;stroke-linejoin:miter;stroke-opacity:1"
           d="M 68.437835,502.8392 V 482.13107"
           id="path3841"
           inkscape:connector-curvature="0" />
        <path
           style="fill:none;stroke:#000000;stroke-width:1px;stroke-linecap:butt;stroke-linejoin:miter;stroke-opacity:1"
           d="M 220.71833,501.82904 V 482.38361"
           id="path3843"
           inkscape:connector-curvature="0" />
        <path
           inkscape:connector-curvature="0"
           id="path3852"
           d="m 88.640886,468.74655 0.252538,33.58757"
           style="fill:none;stroke:#000000;stroke-width:1px;stroke-linecap:butt;stroke-linejoin:miter;stroke-opacity:1" />
        <path
           inkscape:connector-curvature="0"
           id="path3854"
           d="m 199.75767,469.25163 0.50507,32.32488"
           style="fill:none;stroke:#000000;stroke-width:1px;stroke-linecap:butt;stroke-linejoin:miter;stroke-opacity:1" />
        <path
           inkscape:connector-curvature="0"
           id="path3856"
           d="m 142.43151,431.3709 1.01015,70.71068"
           style="fill:none;stroke:#000000;stroke-width:1px;stroke-linecap:butt;stroke-linejoin:miter;stroke-opacity:1" />
        <path
           inkscape:connector-curvature="0"
           id="path3858"
           d="m 161.37187,443.74527 0.50508,57.83124"
           style="fill:none;stroke:#000000;stroke-width:1px;stroke-linecap:butt;stroke-linejoin:miter;stroke-opacity:1" />
        <path
           inkscape:connector-curvature="0"
           id="path3860"
           d="m 180.31223,456.37218 1.01015,44.95179"
           style="fill:none;stroke:#000000;stroke-width:1px;stroke-linecap:butt;stroke-linejoin:miter;stroke-opacity:1" />
        <path
           inkscape:connector-curvature="0"
           id="path3862"
           d="m 125.51145,443.2402 0.75762,58.33631"
           style="fill:none;stroke:#000000;stroke-width:1px;stroke-linecap:butt;stroke-linejoin:miter;stroke-opacity:1" />
        <path
           inkscape:connector-curvature="0"
           id="path3864"
           d="m 106.82363,456.11964 0.75762,45.7094"
           style="fill:none;stroke:#000000;stroke-width:1px;stroke-linecap:butt;stroke-linejoin:miter;stroke-opacity:1" />
      </g>
      <g
         transform="matrix(0.29590696,0,0,0.29590696,341.20757,33.317495)"
         id="g3924"
         inkscape:groupmode="layer">
        <path
           style="fill:#0073ff;fill-opacity:1;stroke:#000000;stroke-width:0.5;stroke-linecap:butt;stroke-linejoin:miter;stroke-miterlimit:4;stroke-dasharray:none;stroke-opacity:1"
           d="m 82.013882,384.54675 2.085298,1.4196 2.311881,0.21318 2.821822,0.079 2.663044,-1.38432 c 0.867437,-1.4817 1.477684,-2.82431 2.279397,-1.31964 l -0.378807,2.61204 -1.388959,2.02031 -1.767767,1.76776 -3.692441,0.50508 -3.230694,-0.48341 -2.189458,-1.40091 -1.494009,-1.8171 -1.040791,-1.98967 c 0.22242,-2.69693 1.974398,-1.00915 3.021484,-0.22192 z"
           id="path3904"
           inkscape:connector-curvature="0"
           sodipodi:nodetypes="ccccccccccccccc" />
        <path
           sodipodi:nodetypes="ccccccccccccccc"
           inkscape:connector-curvature="0"
           id="path3908"
           d="m 114.69245,384.72532 2.0853,1.4196 2.31188,0.21318 2.82182,0.079 2.66305,-1.38432 c 0.86744,-1.4817 1.47768,-2.82431 2.2794,-1.31964 l -0.37881,2.61204 -1.38896,2.02031 -1.76777,1.76776 -3.69244,0.50508 -3.23069,-0.48341 -2.18946,-1.40091 -1.49401,-1.8171 -1.04079,-1.98967 c 0.22242,-2.69693 1.9744,-1.00915 3.02148,-0.22192 z"
           style="fill:#0073ff;fill-opacity:1;stroke:#000000;stroke-width:0.5;stroke-linecap:butt;stroke-linejoin:miter;stroke-miterlimit:4;stroke-dasharray:none;stroke-opacity:1" />
        <path
           style="fill:#0073ff;fill-opacity:1;stroke:#000000;stroke-width:0.5;stroke-linecap:butt;stroke-linejoin:miter;stroke-miterlimit:4;stroke-dasharray:none;stroke-opacity:1"
           d="m 145.94245,383.83246 2.0853,1.4196 2.31188,0.21318 2.82182,0.079 2.66305,-1.38432 c 0.86744,-1.4817 1.47768,-2.82431 2.2794,-1.31964 l -0.37881,2.61204 -1.38896,2.02031 -1.76777,1.76776 -3.69244,0.50508 -3.23069,-0.48341 -2.18946,-1.40091 -1.49401,-1.8171 -1.04079,-1.98967 c 0.22242,-2.69693 1.9744,-1.00915 3.02148,-0.22192 z"
           id="path3910"
           inkscape:connector-curvature="0"
           sodipodi:nodetypes="ccccccccccccccc" />
        <path
           sodipodi:nodetypes="ccccccccccccccc"
           inkscape:connector-curvature="0"
           id="path3912"
           d="m 176.83531,383.65389 2.0853,1.4196 2.31188,0.21318 2.82182,0.079 2.66305,-1.38432 c 0.86744,-1.4817 1.47768,-2.82431 2.2794,-1.31964 l -0.37881,2.61204 -1.38896,2.02031 -1.76777,1.76776 -3.69244,0.50508 -3.23069,-0.48341 -2.18946,-1.40091 -1.49401,-1.8171 -1.04079,-1.98967 c 0.22242,-2.69693 1.9744,-1.00915 3.02148,-0.22192 z"
           style="fill:#0073ff;fill-opacity:1;stroke:#000000;stroke-width:0.5;stroke-linecap:butt;stroke-linejoin:miter;stroke-miterlimit:4;stroke-dasharray:none;stroke-opacity:1" />
        <path
           style="fill:#0073ff;fill-opacity:1;stroke:#000000;stroke-width:0.5;stroke-linecap:butt;stroke-linejoin:miter;stroke-miterlimit:4;stroke-dasharray:none;stroke-opacity:1"
           d="m 162.19245,365.4396 2.0853,1.4196 2.31188,0.21318 2.82182,0.079 2.66305,-1.38432 c 0.86744,-1.4817 1.47768,-2.82431 2.2794,-1.31964 l -0.37881,2.61204 -1.38896,2.02031 -1.76777,1.76776 -3.69244,0.50508 -3.23069,-0.48341 -2.18946,-1.40091 -1.49401,-1.8171 -1.04079,-1.98967 c 0.22242,-2.69693 1.9744,-1.00915 3.02148,-0.22192 z"
           id="path3914"
           inkscape:connector-curvature="0"
           sodipodi:nodetypes="ccccccccccccccc" />
        <path
           sodipodi:nodetypes="ccccccccccccccc"
           inkscape:connector-curvature="0"
           id="path3916"
           d="m 130.58531,366.33246 2.0853,1.4196 2.31188,0.21318 2.82182,0.079 2.66305,-1.38432 c 0.86744,-1.4817 1.47768,-2.82431 2.2794,-1.31964 l -0.37881,2.61204 -1.38896,2.02031 -1.76777,1.76776 -3.69244,0.50508 -3.23069,-0.48341 -2.18946,-1.40091 -1.49401,-1.8171 -1.04079,-1.98967 c 0.22242,-2.69693 1.9744,-1.00915 3.02148,-0.22192 z"
           style="fill:#0073ff;fill-opacity:1;stroke:#000000;stroke-width:0.5;stroke-linecap:butt;stroke-linejoin:miter;stroke-miterlimit:4;stroke-dasharray:none;stroke-opacity:1" />
        <path
           style="fill:#0073ff;fill-opacity:1;stroke:#000000;stroke-width:0.5;stroke-linecap:butt;stroke-linejoin:miter;stroke-miterlimit:4;stroke-dasharray:none;stroke-opacity:1"
           d="m 98.621024,366.33246 2.085296,1.4196 2.31188,0.21318 2.82182,0.079 2.66305,-1.38432 c 0.86744,-1.4817 1.47768,-2.82431 2.2794,-1.31964 l -0.37881,2.61204 -1.38896,2.02031 -1.76777,1.76776 -3.69244,0.50508 -3.23069,-0.48341 -2.189456,-1.40091 -1.49401,-1.8171 -1.04079,-1.98967 c 0.22242,-2.69693 1.9744,-1.00915 3.02148,-0.22192 z"
           id="path3918"
           inkscape:connector-curvature="0"
           sodipodi:nodetypes="ccccccccccccccc" />
        <path
           sodipodi:nodetypes="ccccccccccccccc"
           inkscape:connector-curvature="0"
           id="path3920"
           d="m 67.728167,367.04675 2.085296,1.4196 2.31188,0.21318 2.82182,0.079 2.66305,-1.38432 c 0.86744,-1.4817 1.47768,-2.82431 2.2794,-1.31964 l -0.37881,2.61204 -1.38896,2.02031 -1.76777,1.76776 -3.69244,0.50508 -3.23069,-0.48341 -2.189456,-1.40091 -1.49401,-1.8171 -1.04079,-1.98967 c 0.22242,-2.69693 1.9744,-1.00915 3.02148,-0.22192 z"
           style="fill:#0073ff;fill-opacity:1;stroke:#000000;stroke-width:0.5;stroke-linecap:butt;stroke-linejoin:miter;stroke-miterlimit:4;stroke-dasharray:none;stroke-opacity:1" />
        <path
           style="fill:#0073ff;fill-opacity:1;stroke:#000000;stroke-width:0.5;stroke-linecap:butt;stroke-linejoin:miter;stroke-miterlimit:4;stroke-dasharray:none;stroke-opacity:1"
           d="m 51.299596,384.72532 2.085296,1.4196 2.31188,0.21318 2.82182,0.079 2.66305,-1.38432 c 0.86744,-1.4817 1.47768,-2.82431 2.2794,-1.31964 l -0.37881,2.61204 -1.38896,2.02031 -1.76777,1.76776 -3.69244,0.50508 -3.23069,-0.48341 -2.189456,-1.40091 -1.49401,-1.8171 -1.04079,-1.98967 c 0.22242,-2.69693 1.9744,-1.00915 3.02148,-0.22192 z"
           id="path3922"
           inkscape:connector-curvature="0"
           sodipodi:nodetypes="ccccccccccccccc" />
      </g>
    </g>
    <text
       xml:space="preserve"
       transform="matrix(0.26458333,0,0,0.26458333,-70.705115,-41.575064)"
       id="text2"
       style="font-style:normal;font-variant:normal;font-weight:bold;font-stretch:normal;font-size:1058.27px;font-family:Calibri;-inkscape-font-specification:'Calibri Bold';text-align:center;letter-spacing:-50px;word-spacing:0px;writing-mode:lr-tb;direction:ltr;white-space:pre;shape-inside:url(#rect2);shape-padding:5.52965;display:inline;fill:#000000;fill-rule:evenodd;stroke:none;stroke-width:181.417;stroke-linecap:square;stroke-linejoin:miter;stroke-dasharray:none;paint-order:markers fill stroke"><tspan
         x="435.83723"
         y="1639.3105"
         id="tspan4"><tspan
           dx="0 0 0 0.00010681152"
           id="tspan1">NH 12</tspan></tspan></text>
  </g>
</svg>
