<svg width="750mm" height="600mm" version="1.1" viewBox="0 0 750 600" xmlns="http://www.w3.org/2000/svg">
    <rect x="24" y="24" width="702" height="552" fill="#ff0" fill-rule="evenodd" stroke="#000" stroke-linecap="square"
        stroke-width="48" style="paint-order:markers fill stroke" />

    <circle transform="translate(376.275, 119.193)" cx="0" cy="0" r="45.27" fill="#ffec00" stroke="#134dbe"
        stroke-width="4.78" />

    <g transform="translate(341.2, 33.32) scale(0.2959)" fill="#0073ff" stroke="#000" stroke-width="1.69">
        <path
            d="m82.01 384.5 2.085 1.42 2.312 0.2132 2.822 0.079 2.663-1.384c0.8674-1.482 1.478-2.824 2.279-1.32l-0.3788 2.612-1.389 2.02-1.768 1.768-3.692 0.5051-3.231-0.4834-2.189-1.401-1.494-1.817-1.041-1.99c0.2224-2.697 1.974-1.009 3.021-0.2219z" />
        <path
            d="m114.7 384.7 2.085 1.42 2.312 0.2132 2.822 0.079 2.663-1.384c0.8674-1.482 1.478-2.824 2.279-1.32l-0.3788 2.612-1.389 2.02-1.768 1.768-3.692 0.5051-3.231-0.4834-2.189-1.401-1.494-1.817-1.041-1.99c0.2224-2.697 1.974-1.009 3.021-0.2219z" />
        <path
            d="m145.9 383.8 2.085 1.42 2.312 0.2132 2.822 0.079 2.663-1.384c0.8674-1.482 1.478-2.824 2.279-1.32l-0.3788 2.612-1.389 2.02-1.768 1.768-3.692 0.5051-3.231-0.4834-2.189-1.401-1.494-1.817-1.041-1.99c0.2224-2.697 1.974-1.009 3.021-0.2219z" />
        <path
            d="m176.8 383.7 2.085 1.42 2.312 0.2132 2.822 0.079 2.663-1.384c0.8674-1.482 1.478-2.824 2.279-1.32l-0.3788 2.612-1.389 2.02-1.768 1.768-3.692 0.5051-3.231-0.4834-2.189-1.401-1.494-1.817-1.041-1.99c0.2224-2.697 1.974-1.009 3.021-0.2219z" />
        <path
            d="m162.2 365.4 2.085 1.42 2.312 0.2132 2.822 0.079 2.663-1.384c0.8674-1.482 1.478-2.824 2.279-1.32l-0.3788 2.612-1.389 2.02-1.768 1.768-3.692 0.5051-3.231-0.4834-2.189-1.401-1.494-1.817-1.041-1.99c0.2224-2.697 1.974-1.009 3.021-0.2219z" />
        <path
            d="m130.6 366.3 2.085 1.42 2.312 0.2132 2.822 0.079 2.663-1.384c0.8674-1.482 1.478-2.824 2.279-1.32l-0.3788 2.612-1.389 2.02-1.768 1.768-3.692 0.5051-3.231-0.4834-2.189-1.401-1.494-1.817-1.041-1.99c0.2224-2.697 1.974-1.009 3.021-0.2219z" />
        <path
            d="m98.62 366.3 2.085 1.42 2.312 0.2132 2.822 0.079 2.663-1.384c0.8674-1.482 1.478-2.824 2.279-1.32l-0.3788 2.612-1.389 2.02-1.768 1.768-3.692 0.5051-3.231-0.4834-2.189-1.401-1.494-1.817-1.041-1.99c0.2224-2.697 1.974-1.009 3.021-0.2219z" />
        <path
            d="m67.73 367 2.085 1.42 2.312 0.2132 2.822 0.079 2.663-1.384c0.8674-1.482 1.478-2.824 2.279-1.32l-0.3788 2.612-1.389 2.02-1.768 1.768-3.692 0.5051-3.231-0.4834-2.189-1.401-1.494-1.817-1.041-1.99c0.2224-2.697 1.974-1.009 3.021-0.2219z" />
        <path
            d="m51.3 384.7 2.085 1.42 2.312 0.2132 2.822 0.079 2.663-1.384c0.8674-1.482 1.478-2.824 2.279-1.32l-0.3788 2.612-1.389 2.02-1.768 1.768-3.692 0.5051-3.231-0.4834-2.189-1.401-1.494-1.817-1.041-1.99c0.2224-2.697 1.974-1.009 3.021-0.2219z" />
    </g>

    <path transform="translate(312.5, 43.89) scale(0.2959)"
        d="m287.1 315.9 12.14 0.3571-16.43-35.36c34.25-3.496 28.13-1.163 28.57-15.71l-199.6-1.786c-0.4089 19.99-0.837 9.784 33.93 17.5l-16.07 35.36 13.57-0.3572 7.143-12.86 9.237-9.628 10.66-6.89 11.53-5.267 13.93-3.575 12.86-0.7105 15.3 0.2697 13.14 1.724 12.71 3.142 9.922 5.221 7.781 4.27 5.499 3.876 6.362 7.568z"
        fill="#f00" stroke="#960000" />

    <rect transform="translate(345.37, 117.09)" x="0" y="0" width="59.18" height="1.69" fill="#f00" stroke="#960000" />
    <rect transform="translate(345.37, 119.46)" x="0" y="0" width="59.18" height="1.69" fill="#f00" stroke="#960000" />

    <g transform="translate(332.9, -42.55) scale(0.2959)" stroke="#000" stroke-width="3.38">
        <path d="m41.31 501.4 27.14 1.071v32.14l152.9-0.7143-0.7143-32.5 30 0.7143-108.2-70.71z" fill="#007335" />
        <g fill="none">
            <path d="m68.44 502.3 152.8-1.01" />
            <path d="m68.44 502.8v-20.71" />
            <path d="m220.7 501.8v-19.45" />
            <path d="m88.64 468.7 0.2525 33.59" />
            <path d="m199.8 469.3 0.5051 32.32" />
            <path d="m142.4 431.4 1.01 70.71" />
            <path d="m161.4 443.7 0.5051 57.83" />
            <path d="m180.3 456.4 1.01 44.95" />
            <path d="m125.5 443.2 0.7576 58.34" />
            <path d="m106.8 456.1 0.7576 45.71" />
        </g>
    </g>

    <path transform="translate(-70.71, -41.58) scale(0.2646)"
        d="m1060 1592q0 11.88-4.134 21.19-4.134 9.301-11.37 15.5-6.718 6.201-16.54 9.301-9.301 2.584-19.12 2.584h-57.87q-18.09 0-31.52-3.617-12.92-3.617-24.29-12.92-10.85-9.818-21.19-25.84-10.33-16.54-23.25-42.37l-166.4-312.6q-14.47-27.9-29.45-59.94-14.99-32.55-26.87-63.04h-1.033q2.067 37.2 3.1 74.41 1.033 36.69 1.033 75.96v349.8q0 5.167-3.1 9.301-2.584 4.134-9.818 7.234-6.718 2.584-18.6 4.134t-30.49 1.55q-18.09 0-29.97-1.55t-18.6-4.134q-6.718-3.1-9.301-7.234-2.584-4.134-2.584-9.301v-601q0-24.29 13.95-36.17 14.47-12.4 35.14-12.4h72.86q19.64 0 33.07 3.617 13.44 3.1 23.77 10.85 10.85 7.751 20.15 21.7 9.301 13.44 19.12 33.59l130.2 244.4q11.37 22.22 22.22 43.92 11.37 21.19 21.7 42.89 10.33 21.19 20.15 41.86 9.818 20.67 19.12 41.34h0.5167q-1.55-36.17-2.584-75.44-0.5167-39.27-0.5167-74.93v-313.7q0-5.167 3.1-9.301 3.1-4.134 10.33-7.234t19.12-4.134q11.88-1.55 30.49-1.55 17.57 0 29.45 1.55 11.88 1.033 18.09 4.134 6.718 3.1 9.301 7.234 2.584 4.134 2.584 9.301zm617.6 28.94q0 5.167-3.617 9.301-3.1 4.134-10.85 6.718-7.751 2.584-20.67 4.134-12.92 1.55-32.55 1.55-20.15 0-33.59-1.55-12.92-1.55-20.67-4.134-7.234-2.584-10.85-6.718-3.1-4.134-3.1-9.301v-270.3h-250.1v270.3q0 5.167-3.1 9.301t-10.85 6.718q-7.751 2.584-20.67 4.134-12.92 1.55-33.07 1.55-19.64 0-33.07-1.55-12.92-1.55-20.67-4.134-7.751-2.584-11.37-6.718-3.1-4.134-3.1-9.301v-631.4q0-5.167 3.1-9.301 3.617-4.134 11.37-6.718 7.751-2.584 20.67-4.134 13.44-1.55 33.07-1.55 20.15 0 33.07 1.55 12.92 1.55 20.67 4.134 7.751 2.584 10.85 6.718 3.1 4.134 3.1 9.301v245.4h250.1v-245.4q0-5.167 3.1-9.301 3.617-4.134 10.85-6.718 7.751-2.584 20.67-4.134 13.44-1.55 33.59-1.55 19.64 0 32.55 1.55 12.92 1.55 20.67 4.134 7.751 2.584 10.85 6.718 3.617 4.134 3.617 9.301zm699.9-33.07q0 14.47-1.55 24.8-1.55 9.818-4.651 16.02-2.584 5.684-6.201 8.268-3.617 2.584-8.268 2.584h-368.9q-4.134 0-7.751-2.584-3.617-2.584-6.718-8.268-2.584-6.201-4.134-16.02-1.55-10.33-1.55-24.8 0-14.99 1.034-24.8 1.55-10.33 4.134-16.54 3.1-6.201 6.718-8.784 3.617-3.1 8.268-3.1h124.5v-435.1l-107.5 59.42q-11.88 5.684-19.64 7.234-7.234 1.034-11.88-3.1-4.134-4.651-5.684-15.5t-1.55-30.49q0-12.4 0.5168-20.15 0.5167-8.268 2.584-13.95 2.067-5.684 5.684-9.301t9.818-7.751l143.7-93.01q2.584-2.067 6.201-3.1 4.134-1.55 10.33-2.067 6.201-1.033 16.02-1.033 10.33-0.5167 26.35-0.5167 19.64 0 31.52 1.033 12.4 0.5167 18.6 2.584 6.201 1.55 8.268 4.651t2.067 7.751v552.4h109q4.651 0 8.268 3.1 4.134 2.584 6.718 8.784 3.1 6.201 4.134 16.54 1.55 9.818 1.55 24.8zm492.1-559.6q0 14.99-1.034 26.35-1.034 10.85-3.1 20.67-1.55 9.301-4.651 18.09-3.1 8.268-7.234 18.09l-220.1 510q-3.1 6.718-8.268 10.85-4.651 4.134-13.44 6.718-8.784 2.067-22.74 2.584-13.44 1.034-33.59 1.034-27.39 0-43.41-2.067-16.02-1.55-23.77-5.167-7.234-4.134-7.751-9.818-0.5167-6.201 3.617-14.99l236.7-521.9h-281.1q-10.85 0-16.54-13.95-5.167-14.47-5.167-45.47 0-15.5 1.55-26.35 1.55-11.37 4.134-18.6 3.1-7.234 6.718-10.33 4.134-3.1 9.301-3.1h397.4q9.301 0 15.5 2.067 6.201 1.55 9.818 7.751 3.617 6.201 5.167 17.57 2.067 11.37 2.067 29.97z"
        fill-rule="evenodd" stroke-linecap="square" stroke-width="181.4" aria-label="NH 17" />
</svg>