<svg width="750mm" height="600mm" version="1.1" viewBox="0 0 750 600" xmlns="http://www.w3.org/2000/svg">
    <rect x="24" y="24" width="702" height="552" fill="#ff0" fill-rule="evenodd" stroke="#000" stroke-linecap="square"
        stroke-width="48" style="paint-order:markers fill stroke" />

    <circle transform="translate(376.275, 119.193)" cx="0" cy="0" r="45.27" fill="#ffec00" stroke="#134dbe"
        stroke-width="4.78" />

    <g transform="translate(341.2, 33.32) scale(0.2959)" fill="#0073ff" stroke="#000" stroke-width="1.69">
        <path
            d="m82.01 384.5 2.085 1.42 2.312 0.2132 2.822 0.079 2.663-1.384c0.8674-1.482 1.478-2.824 2.279-1.32l-0.3788 2.612-1.389 2.02-1.768 1.768-3.692 0.5051-3.231-0.4834-2.189-1.401-1.494-1.817-1.041-1.99c0.2224-2.697 1.974-1.009 3.021-0.2219z" />
        <path
            d="m114.7 384.7 2.085 1.42 2.312 0.2132 2.822 0.079 2.663-1.384c0.8674-1.482 1.478-2.824 2.279-1.32l-0.3788 2.612-1.389 2.02-1.768 1.768-3.692 0.5051-3.231-0.4834-2.189-1.401-1.494-1.817-1.041-1.99c0.2224-2.697 1.974-1.009 3.021-0.2219z" />
        <path
            d="m145.9 383.8 2.085 1.42 2.312 0.2132 2.822 0.079 2.663-1.384c0.8674-1.482 1.478-2.824 2.279-1.32l-0.3788 2.612-1.389 2.02-1.768 1.768-3.692 0.5051-3.231-0.4834-2.189-1.401-1.494-1.817-1.041-1.99c0.2224-2.697 1.974-1.009 3.021-0.2219z" />
        <path
            d="m176.8 383.7 2.085 1.42 2.312 0.2132 2.822 0.079 2.663-1.384c0.8674-1.482 1.478-2.824 2.279-1.32l-0.3788 2.612-1.389 2.02-1.768 1.768-3.692 0.5051-3.231-0.4834-2.189-1.401-1.494-1.817-1.041-1.99c0.2224-2.697 1.974-1.009 3.021-0.2219z" />
        <path
            d="m162.2 365.4 2.085 1.42 2.312 0.2132 2.822 0.079 2.663-1.384c0.8674-1.482 1.478-2.824 2.279-1.32l-0.3788 2.612-1.389 2.02-1.768 1.768-3.692 0.5051-3.231-0.4834-2.189-1.401-1.494-1.817-1.041-1.99c0.2224-2.697 1.974-1.009 3.021-0.2219z" />
        <path
            d="m130.6 366.3 2.085 1.42 2.312 0.2132 2.822 0.079 2.663-1.384c0.8674-1.482 1.478-2.824 2.279-1.32l-0.3788 2.612-1.389 2.02-1.768 1.768-3.692 0.5051-3.231-0.4834-2.189-1.401-1.494-1.817-1.041-1.99c0.2224-2.697 1.974-1.009 3.021-0.2219z" />
        <path
            d="m98.62 366.3 2.085 1.42 2.312 0.2132 2.822 0.079 2.663-1.384c0.8674-1.482 1.478-2.824 2.279-1.32l-0.3788 2.612-1.389 2.02-1.768 1.768-3.692 0.5051-3.231-0.4834-2.189-1.401-1.494-1.817-1.041-1.99c0.2224-2.697 1.974-1.009 3.021-0.2219z" />
        <path
            d="m67.73 367 2.085 1.42 2.312 0.2132 2.822 0.079 2.663-1.384c0.8674-1.482 1.478-2.824 2.279-1.32l-0.3788 2.612-1.389 2.02-1.768 1.768-3.692 0.5051-3.231-0.4834-2.189-1.401-1.494-1.817-1.041-1.99c0.2224-2.697 1.974-1.009 3.021-0.2219z" />
        <path
            d="m51.3 384.7 2.085 1.42 2.312 0.2132 2.822 0.079 2.663-1.384c0.8674-1.482 1.478-2.824 2.279-1.32l-0.3788 2.612-1.389 2.02-1.768 1.768-3.692 0.5051-3.231-0.4834-2.189-1.401-1.494-1.817-1.041-1.99c0.2224-2.697 1.974-1.009 3.021-0.2219z" />
    </g>

    <path transform="translate(312.5, 43.89) scale(0.2959)"
        d="m287.1 315.9 12.14 0.3571-16.43-35.36c34.25-3.496 28.13-1.163 28.57-15.71l-199.6-1.786c-0.4089 19.99-0.837 9.784 33.93 17.5l-16.07 35.36 13.57-0.3572 7.143-12.86 9.237-9.628 10.66-6.89 11.53-5.267 13.93-3.575 12.86-0.7105 15.3 0.2697 13.14 1.724 12.71 3.142 9.922 5.221 7.781 4.27 5.499 3.876 6.362 7.568z"
        fill="#f00" stroke="#960000" />

    <rect transform="translate(345.37, 117.09)" x="0" y="0" width="59.18" height="1.69" fill="#f00" stroke="#960000" />
    <rect transform="translate(345.37, 119.46)" x="0" y="0" width="59.18" height="1.69" fill="#f00" stroke="#960000" />

    <g transform="translate(332.9, -42.55) scale(0.2959)" stroke="#000" stroke-width="3.38">
        <path d="m41.31 501.4 27.14 1.071v32.14l152.9-0.7143-0.7143-32.5 30 0.7143-108.2-70.71z" fill="#007335" />
        <g fill="none">
            <path d="m68.44 502.3 152.8-1.01" />
            <path d="m68.44 502.8v-20.71" />
            <path d="m220.7 501.8v-19.45" />
            <path d="m88.64 468.7 0.2525 33.59" />
            <path d="m199.8 469.3 0.5051 32.32" />
            <path d="m142.4 431.4 1.01 70.71" />
            <path d="m161.4 443.7 0.5051 57.83" />
            <path d="m180.3 456.4 1.01 44.95" />
            <path d="m125.5 443.2 0.7576 58.34" />
            <path d="m106.8 456.1 0.7576 45.71" />
        </g>
    </g>

    <path transform="translate(-70.71, -41.58) scale(0.2646)"
        d="m1060 1592q0 11.88-4.134 21.19-4.134 9.301-11.37 15.5-6.718 6.201-16.54 9.301-9.301 2.584-19.12 2.584h-57.87q-18.09 0-31.52-3.617-12.92-3.617-24.29-12.92-10.85-9.818-21.19-25.84-10.33-16.54-23.25-42.37l-166.4-312.6q-14.47-27.9-29.45-59.94-14.99-32.55-26.87-63.04h-1.033q2.067 37.2 3.1 74.41 1.033 36.69 1.033 75.96v349.8q0 5.167-3.1 9.301-2.584 4.134-9.818 7.234-6.718 2.584-18.6 4.134t-30.49 1.55q-18.09 0-29.97-1.55t-18.6-4.134q-6.718-3.1-9.301-7.234-2.584-4.134-2.584-9.301v-601q0-24.29 13.95-36.17 14.47-12.4 35.14-12.4h72.86q19.64 0 33.07 3.617 13.44 3.1 23.77 10.85 10.85 7.751 20.15 21.7 9.301 13.44 19.12 33.59l130.2 244.4q11.37 22.22 22.22 43.92 11.37 21.19 21.7 42.89 10.33 21.19 20.15 41.86 9.818 20.67 19.12 41.34h0.5167q-1.55-36.17-2.584-75.44-0.5167-39.27-0.5167-74.93v-313.7q0-5.167 3.1-9.301 3.1-4.134 10.33-7.234t19.12-4.134q11.88-1.55 30.49-1.55 17.57 0 29.45 1.55 11.88 1.033 18.09 4.134 6.718 3.1 9.301 7.234 2.584 4.134 2.584 9.301zm617.6 28.94q0 5.167-3.617 9.301-3.1 4.134-10.85 6.718-7.751 2.584-20.67 4.134-12.92 1.55-32.55 1.55-20.15 0-33.59-1.55-12.92-1.55-20.67-4.134-7.234-2.584-10.85-6.718-3.1-4.134-3.1-9.301v-270.3h-250.1v270.3q0 5.167-3.1 9.301t-10.85 6.718q-7.751 2.584-20.67 4.134-12.92 1.55-33.07 1.55-19.64 0-33.07-1.55-12.92-1.55-20.67-4.134-7.751-2.584-11.37-6.718-3.1-4.134-3.1-9.301v-631.4q0-5.167 3.1-9.301 3.617-4.134 11.37-6.718 7.751-2.584 20.67-4.134 13.44-1.55 33.07-1.55 20.15 0 33.07 1.55 12.92 1.55 20.67 4.134 7.751 2.584 10.85 6.718 3.1 4.134 3.1 9.301v245.4h250.1v-245.4q0-5.167 3.1-9.301 3.617-4.134 10.85-6.718 7.751-2.584 20.67-4.134 13.44-1.55 33.59-1.55 19.64 0 32.55 1.55 12.92 1.55 20.67 4.134 7.751 2.584 10.85 6.718 3.617 4.134 3.617 9.301zm703-177.2q0 50.12-19.12 88.88-19.12 38.76-53.22 65.11t-81.64 40.31q-47.54 13.44-103.9 13.44-34.1 0-64.07-5.167-29.97-4.651-53.22-11.88-22.74-7.234-37.72-14.99-14.99-7.751-19.64-11.88t-7.234-9.301q-2.067-5.167-4.134-11.88-1.55-7.234-2.584-17.57-0.5168-10.85-0.5168-25.84 0-24.8 4.134-34.1 4.134-9.818 12.4-9.818 5.167 0 17.57 7.234 12.92 6.718 32.55 14.99 19.64 7.751 45.99 14.99 26.35 6.718 59.94 6.718 28.42 0 50.12-6.718t36.69-18.6q15.5-12.4 22.74-29.45 7.751-17.57 7.751-38.76 0-23.25-9.301-41.86-8.784-18.6-26.87-31.52-17.57-13.44-44.96-20.67-26.87-7.234-63.56-7.234h-57.87q-6.718 0-11.37-1.55-4.651-2.067-7.751-7.751-3.1-5.684-4.651-15.5-1.033-10.33-1.033-26.35 0-14.99 1.033-24.29 1.55-9.818 4.134-14.99 3.1-5.167 7.234-7.234 4.651-2.067 10.85-2.067h58.39q29.97 0 53.22-6.718 23.25-7.234 38.76-20.15 16.02-12.92 24.29-31 8.268-18.6 8.268-40.82 0-17.05-5.684-32.04-5.684-15.5-17.05-26.35-10.85-11.37-28.42-17.57-17.57-6.718-41.34-6.718-26.87 0-50.64 8.268-23.77 7.751-42.89 17.57-18.6 9.301-32.04 17.57-12.92 8.268-19.12 8.268-4.134 0-7.234-1.55-3.1-2.067-5.167-7.234-2.067-5.167-3.1-14.99-1.034-9.818-1.034-25.32 0-12.92 0.5167-21.19 0.5168-8.784 2.067-14.47 1.55-5.684 3.617-9.818 2.584-4.134 7.751-8.784 5.167-5.167 21.19-14.99 16.02-9.818 40.31-19.12 24.29-9.301 55.81-15.5 32.04-6.718 69.24-6.718 48.57 0 85.78 11.37 37.72 11.37 63.04 33.07 25.84 21.19 38.76 52.71 13.44 31 13.44 70.28 0 30.49-7.751 56.84t-22.74 47.02q-14.99 20.67-37.72 35.14-22.22 14.47-51.67 21.7v1.55q35.14 4.134 63.04 18.09 27.9 13.44 47.02 34.1 19.64 20.67 29.97 47.02 10.33 25.84 10.33 55.81zm499.8-27.39q0 50.64-15.5 94.05-15.5 42.89-45.47 74.41-29.97 31-73.89 49.09-43.92 17.57-101.3 17.57-46.51 0-81.13-10.85-34.62-10.33-59.94-29.97-25.32-20.15-41.34-48.57-16.02-28.42-25.84-64.08-9.301-35.65-12.92-77.51t-3.617-88.88q0-39.27 3.617-82.16 4.134-42.89 14.99-84.23 11.37-41.34 31.52-78.54 20.15-37.72 51.67-65.63 32.04-28.42 76.99-44.96 45.47-16.54 107.5-16.54 19.64 0 39.27 2.584 20.15 2.067 37.2 5.684 17.05 3.617 28.94 8.268 11.88 4.651 15.5 8.268 4.134 3.1 6.201 7.234 2.067 4.134 3.1 9.301 1.55 4.651 2.067 11.88 0.5167 7.234 0.5167 17.57 0 16.02-1.033 26.87-0.5168 10.33-2.584 16.54-2.067 5.684-5.684 8.268-3.617 2.584-8.784 2.584-6.201 0-16.02-3.1-9.818-3.617-23.77-7.751t-33.07-7.234q-18.6-3.1-43.41-3.1-41.86 0-70.79 15.5t-47.02 42.37q-18.09 26.35-26.35 61.49-8.268 35.14-8.784 74.41 11.37-7.234 25.84-14.47 14.99-7.234 32.04-12.4 17.57-5.167 37.72-8.268 20.15-3.617 42.89-3.617 50.64 0 86.81 13.95 36.17 13.95 58.91 39.79 23.25 25.84 34.1 62.52 10.85 36.69 10.85 81.64zm-133.3 12.92q0-26.35-4.651-45.99-4.651-20.15-14.99-33.59-10.33-13.95-27.39-20.67-17.05-7.234-41.34-7.234-14.47 0-28.42 2.584t-27.39 7.234-25.84 11.37q-12.4 6.201-23.25 13.44 0 55.29 6.201 92.5 6.201 36.69 18.09 58.39 12.4 21.7 30.49 31 18.6 8.784 42.89 8.784 23.77 0 41.34-8.784 18.09-8.784 29.97-24.8 11.88-16.02 18.09-37.2 6.201-21.7 6.201-47.02z"
        fill-rule="evenodd" stroke-linecap="square" stroke-width="181.4" aria-label="NH 36" />
</svg>