<svg width="750mm" height="600mm" version="1.1" viewBox="0 0 750 600" xmlns="http://www.w3.org/2000/svg">
    <rect x="24" y="24" width="702" height="552" fill="#ff0" fill-rule="evenodd" stroke="#000" stroke-linecap="square"
        stroke-width="48" style="paint-order:markers fill stroke" />

    <circle transform="translate(376.275, 119.193)" cx="0" cy="0" r="45.27" fill="#ffec00" stroke="#134dbe"
        stroke-width="4.78" />

    <g transform="translate(341.2, 33.32) scale(0.2959)" fill="#0073ff" stroke="#000" stroke-width="1.69">
        <path
            d="m82.01 384.5 2.085 1.42 2.312 0.2132 2.822 0.079 2.663-1.384c0.8674-1.482 1.478-2.824 2.279-1.32l-0.3788 2.612-1.389 2.02-1.768 1.768-3.692 0.5051-3.231-0.4834-2.189-1.401-1.494-1.817-1.041-1.99c0.2224-2.697 1.974-1.009 3.021-0.2219z" />
        <path
            d="m114.7 384.7 2.085 1.42 2.312 0.2132 2.822 0.079 2.663-1.384c0.8674-1.482 1.478-2.824 2.279-1.32l-0.3788 2.612-1.389 2.02-1.768 1.768-3.692 0.5051-3.231-0.4834-2.189-1.401-1.494-1.817-1.041-1.99c0.2224-2.697 1.974-1.009 3.021-0.2219z" />
        <path
            d="m145.9 383.8 2.085 1.42 2.312 0.2132 2.822 0.079 2.663-1.384c0.8674-1.482 1.478-2.824 2.279-1.32l-0.3788 2.612-1.389 2.02-1.768 1.768-3.692 0.5051-3.231-0.4834-2.189-1.401-1.494-1.817-1.041-1.99c0.2224-2.697 1.974-1.009 3.021-0.2219z" />
        <path
            d="m176.8 383.7 2.085 1.42 2.312 0.2132 2.822 0.079 2.663-1.384c0.8674-1.482 1.478-2.824 2.279-1.32l-0.3788 2.612-1.389 2.02-1.768 1.768-3.692 0.5051-3.231-0.4834-2.189-1.401-1.494-1.817-1.041-1.99c0.2224-2.697 1.974-1.009 3.021-0.2219z" />
        <path
            d="m162.2 365.4 2.085 1.42 2.312 0.2132 2.822 0.079 2.663-1.384c0.8674-1.482 1.478-2.824 2.279-1.32l-0.3788 2.612-1.389 2.02-1.768 1.768-3.692 0.5051-3.231-0.4834-2.189-1.401-1.494-1.817-1.041-1.99c0.2224-2.697 1.974-1.009 3.021-0.2219z" />
        <path
            d="m130.6 366.3 2.085 1.42 2.312 0.2132 2.822 0.079 2.663-1.384c0.8674-1.482 1.478-2.824 2.279-1.32l-0.3788 2.612-1.389 2.02-1.768 1.768-3.692 0.5051-3.231-0.4834-2.189-1.401-1.494-1.817-1.041-1.99c0.2224-2.697 1.974-1.009 3.021-0.2219z" />
        <path
            d="m98.62 366.3 2.085 1.42 2.312 0.2132 2.822 0.079 2.663-1.384c0.8674-1.482 1.478-2.824 2.279-1.32l-0.3788 2.612-1.389 2.02-1.768 1.768-3.692 0.5051-3.231-0.4834-2.189-1.401-1.494-1.817-1.041-1.99c0.2224-2.697 1.974-1.009 3.021-0.2219z" />
        <path
            d="m67.73 367 2.085 1.42 2.312 0.2132 2.822 0.079 2.663-1.384c0.8674-1.482 1.478-2.824 2.279-1.32l-0.3788 2.612-1.389 2.02-1.768 1.768-3.692 0.5051-3.231-0.4834-2.189-1.401-1.494-1.817-1.041-1.99c0.2224-2.697 1.974-1.009 3.021-0.2219z" />
        <path
            d="m51.3 384.7 2.085 1.42 2.312 0.2132 2.822 0.079 2.663-1.384c0.8674-1.482 1.478-2.824 2.279-1.32l-0.3788 2.612-1.389 2.02-1.768 1.768-3.692 0.5051-3.231-0.4834-2.189-1.401-1.494-1.817-1.041-1.99c0.2224-2.697 1.974-1.009 3.021-0.2219z" />
    </g>

    <path transform="translate(312.5, 43.89) scale(0.2959)"
        d="m287.1 315.9 12.14 0.3571-16.43-35.36c34.25-3.496 28.13-1.163 28.57-15.71l-199.6-1.786c-0.4089 19.99-0.837 9.784 33.93 17.5l-16.07 35.36 13.57-0.3572 7.143-12.86 9.237-9.628 10.66-6.89 11.53-5.267 13.93-3.575 12.86-0.7105 15.3 0.2697 13.14 1.724 12.71 3.142 9.922 5.221 7.781 4.27 5.499 3.876 6.362 7.568z"
        fill="#f00" stroke="#960000" />

    <rect transform="translate(345.37, 117.09)" x="0" y="0" width="59.18" height="1.69" fill="#f00" stroke="#960000" />
    <rect transform="translate(345.37, 119.46)" x="0" y="0" width="59.18" height="1.69" fill="#f00" stroke="#960000" />

    <g transform="translate(332.9, -42.55) scale(0.2959)" stroke="#000" stroke-width="3.38">
        <path d="m41.31 501.4 27.14 1.071v32.14l152.9-0.7143-0.7143-32.5 30 0.7143-108.2-70.71z" fill="#007335" />
        <g fill="none">
            <path d="m68.44 502.3 152.8-1.01" />
            <path d="m68.44 502.8v-20.71" />
            <path d="m220.7 501.8v-19.45" />
            <path d="m88.64 468.7 0.2525 33.59" />
            <path d="m199.8 469.3 0.5051 32.32" />
            <path d="m142.4 431.4 1.01 70.71" />
            <path d="m161.4 443.7 0.5051 57.83" />
            <path d="m180.3 456.4 1.01 44.95" />
            <path d="m125.5 443.2 0.7576 58.34" />
            <path d="m106.8 456.1 0.7576 45.71" />
        </g>
    </g>

    <path transform="translate(-70.71, -41.58) scale(0.2646)"
        d="m1060 1592q0 11.88-4.134 21.19-4.134 9.301-11.37 15.5-6.718 6.201-16.54 9.301-9.301 2.584-19.12 2.584h-57.87q-18.09 0-31.52-3.617-12.92-3.617-24.29-12.92-10.85-9.818-21.19-25.84-10.33-16.54-23.25-42.37l-166.4-312.6q-14.47-27.9-29.45-59.94-14.99-32.55-26.87-63.04h-1.033q2.067 37.2 3.1 74.41 1.033 36.69 1.033 75.96v349.8q0 5.167-3.1 9.301-2.584 4.134-9.818 7.234-6.718 2.584-18.6 4.134t-30.49 1.55q-18.09 0-29.97-1.55t-18.6-4.134q-6.718-3.1-9.301-7.234-2.584-4.134-2.584-9.301v-601q0-24.29 13.95-36.17 14.47-12.4 35.14-12.4h72.86q19.64 0 33.07 3.617 13.44 3.1 23.77 10.85 10.85 7.751 20.15 21.7 9.301 13.44 19.12 33.59l130.2 244.4q11.37 22.22 22.22 43.92 11.37 21.19 21.7 42.89 10.33 21.19 20.15 41.86 9.818 20.67 19.12 41.34h0.5167q-1.55-36.17-2.584-75.44-0.5167-39.27-0.5167-74.93v-313.7q0-5.167 3.1-9.301 3.1-4.134 10.33-7.234t19.12-4.134q11.88-1.55 30.49-1.55 17.57 0 29.45 1.55 11.88 1.033 18.09 4.134 6.718 3.1 9.301 7.234 2.584 4.134 2.584 9.301zm617.6 28.94q0 5.167-3.617 9.301-3.1 4.134-10.85 6.718-7.751 2.584-20.67 4.134-12.92 1.55-32.55 1.55-20.15 0-33.59-1.55-12.92-1.55-20.67-4.134-7.234-2.584-10.85-6.718-3.1-4.134-3.1-9.301v-270.3h-250.1v270.3q0 5.167-3.1 9.301t-10.85 6.718q-7.751 2.584-20.67 4.134-12.92 1.55-33.07 1.55-19.64 0-33.07-1.55-12.92-1.55-20.67-4.134-7.751-2.584-11.37-6.718-3.1-4.134-3.1-9.301v-631.4q0-5.167 3.1-9.301 3.617-4.134 11.37-6.718 7.751-2.584 20.67-4.134 13.44-1.55 33.07-1.55 20.15 0 33.07 1.55 12.92 1.55 20.67 4.134 7.751 2.584 10.85 6.718 3.1 4.134 3.1 9.301v245.4h250.1v-245.4q0-5.167 3.1-9.301 3.617-4.134 10.85-6.718 7.751-2.584 20.67-4.134 13.44-1.55 33.59-1.55 19.64 0 32.55 1.55 12.92 1.55 20.67 4.134 7.751 2.584 10.85 6.718 3.617 4.134 3.617 9.301zm726.8-173.6q0 26.35-5.684 40.31-5.167 13.44-14.47 13.44h-59.42v120.9q0 5.167-3.1 9.301-3.1 3.617-10.85 6.201-7.751 2.584-20.15 3.617-12.4 1.55-32.04 1.55-18.6 0-31.52-1.55-12.4-1.034-20.15-3.617-7.234-2.584-10.33-6.201-2.584-4.134-2.584-9.301v-120.9h-255.8q-7.234 0-12.92-1.55-5.684-2.067-9.818-8.268-3.617-6.718-5.684-18.6-1.55-12.4-1.55-32.55 0-16.54 0.5167-28.42 1.034-12.4 2.584-22.22 2.067-9.818 5.167-18.6 3.617-8.784 8.784-18.6l207.7-366.4q2.584-4.651 8.784-7.751 6.201-3.617 17.05-5.684 11.37-2.584 28.42-3.617 17.05-1.033 41.34-1.033 26.35 0 44.96 1.55 18.6 1.033 29.45 4.134 11.37 2.584 16.54 6.718 5.167 4.134 5.167 9.818v402.5h59.42q8.268 0 13.95 12.92 6.201 12.4 6.201 41.86zm-210.3-362.2h-1.034l-176.2 307.5h177.2zm669.8 337.4q0 54.26-19.12 97.15-18.6 42.37-53.22 71.83-34.1 28.94-82.68 44.44-48.06 15.5-107 15.5-31 0-58.91-4.134-27.9-3.617-50.12-9.301-22.22-6.201-36.69-11.88-13.95-6.201-18.6-9.818-4.134-4.134-6.201-8.784-2.067-4.651-3.617-10.85-1.034-6.718-1.55-16.54-0.5167-9.818-0.5167-23.25 0-14.47 1.033-24.29 1.034-10.33 3.1-16.54 2.584-6.201 5.684-8.784 3.1-2.584 7.234-2.584 5.167 0 15.5 6.201 10.85 5.684 27.9 12.92 17.57 7.234 42.37 13.44 24.8 5.684 59.42 5.684 29.97 0 54.26-6.201 24.8-6.201 41.86-19.64 17.05-13.95 26.35-34.62 9.301-20.67 9.301-49.61 0-24.8-7.751-43.92-7.751-19.64-24.29-33.07-16.54-13.44-42.89-20.15-26.35-6.718-64.07-6.718-29.97 0-54.77 3.1-24.29 3.1-45.99 3.1-14.99 0-21.7-7.234-6.201-7.751-6.201-27.9v-290.4q0-20.67 7.751-29.45 8.268-9.301 25.84-9.301h316.8q4.651 0 8.784 3.1 4.134 3.1 6.718 9.818 3.1 6.718 4.134 18.09 1.55 10.85 1.55 26.35 0 31-5.684 44.96-5.167 13.95-15.5 13.95h-237.7v143.1q18.09-2.067 35.65-2.584 18.09-0.5168 37.72-0.5168 54.26 0 96.11 12.92 42.37 12.4 70.79 37.2 28.94 24.29 43.92 60.97 14.99 36.17 14.99 84.23z"
        fill-rule="evenodd" stroke-linecap="square" stroke-width="181.4" aria-label="NH 45" />
</svg>